<?xml version="1.0" encoding="iso-8859-1"?>
<!-- Generator: Adobe Illustrator 19.0.0, SVG Export Plug-In . SVG Version: 6.00 Build 0)  -->
<svg version="1.1" id="Layer_1" xmlns="http://www.w3.org/2000/svg" xmlns:xlink="http://www.w3.org/1999/xlink" x="0px" y="0px"
	 viewBox="0 0 512 512" style="enable-background:new 0 0 512 512;" xml:space="preserve">
<path style="fill:#707384;" d="M273.655,229.517h-35.31c-4.875,0-8.828,3.953-8.828,8.828v35.31c0,4.875,3.953,8.828,8.828,8.828
	h35.31c4.875,0,8.828-3.953,8.828-8.828v-35.31C282.483,233.47,278.53,229.517,273.655,229.517z"/>
<path style="fill:#BEC8DC;" d="M503.172,52.966c4.875,0,8.828-3.953,8.828-8.828V8.828C512,3.953,508.047,0,503.172,0h-35.31
	c-4.875,0-8.828,3.953-8.828,8.828v8.828H282.483V8.828c0-4.875-3.953-8.828-8.828-8.828h-35.31c-4.875,0-8.828,3.953-8.828,8.828
	v8.828H52.966V8.828C52.966,3.953,49.013,0,44.138,0H8.828C3.953,0,0,3.953,0,8.828v35.31c0,4.875,3.953,8.828,8.828,8.828h8.828
	v176.552H8.828c-4.875,0-8.828,3.953-8.828,8.828v35.31c0,4.875,3.953,8.828,8.828,8.828h8.828v176.552H8.828
	c-4.875,0-8.828,3.953-8.828,8.828v35.31C0,508.047,3.953,512,8.828,512h35.31c4.875,0,8.828-3.953,8.828-8.828v-8.828h176.552
	v8.828c0,4.875,3.953,8.828,8.828,8.828h35.31c4.875,0,8.828-3.953,8.828-8.828v-8.828h176.552v8.828
	c0,4.875,3.953,8.828,8.828,8.828h35.31c4.875,0,8.828-3.953,8.828-8.828v-35.31c0-4.875-3.953-8.828-8.828-8.828h-8.828V282.483
	h8.828c4.875,0,8.828-3.953,8.828-8.828v-35.31c0-4.875-3.953-8.828-8.828-8.828h-8.828V52.966H503.172z M494.345,17.655V35.31
	H476.69V17.655H494.345z M264.828,17.655V35.31h-17.655V17.655H264.828z M17.655,17.655H35.31V35.31H17.655V17.655z M17.655,247.172
	H35.31v17.655H17.655V247.172z M17.655,494.345V476.69H35.31v17.655H17.655z M247.172,494.345V476.69h17.655v17.655H247.172z
	 M494.345,494.345H476.69V476.69h17.655V494.345z M494.345,264.828H476.69v-17.655h17.655V264.828z M476.69,229.517h-8.828
	c-4.875,0-8.828,3.953-8.828,8.828v35.31c0,4.875,3.953,8.828,8.828,8.828h8.828v176.552h-8.828c-4.875,0-8.828,3.953-8.828,8.828
	v8.828H282.483v-8.828c0-4.875-3.953-8.828-8.828-8.828h-35.31c-4.875,0-8.828,3.953-8.828,8.828v8.828H52.966v-8.828
	c0-4.875-3.953-8.828-8.828-8.828H35.31V282.483h8.828c4.875,0,8.828-3.953,8.828-8.828v-35.31c0-4.875-3.953-8.828-8.828-8.828
	H35.31V52.966h8.828c4.875,0,8.828-3.953,8.828-8.828V35.31h176.552v8.828c0,4.875,3.953,8.828,8.828,8.828h35.31
	c4.875,0,8.828-3.953,8.828-8.828V35.31h176.552v8.828c0,4.875,3.953,8.828,8.828,8.828h8.828V229.517z"/>
<g>
	<rect x="17.655" y="17.655" style="fill:#707384;" width="17.655" height="17.655"/>
	<rect x="476.69" y="17.655" style="fill:#707384;" width="17.655" height="17.655"/>
	<rect x="17.655" y="247.172" style="fill:#707384;" width="17.655" height="17.655"/>
	<rect x="476.69" y="247.172" style="fill:#707384;" width="17.655" height="17.655"/>
	<rect x="247.172" y="17.655" style="fill:#707384;" width="17.655" height="17.655"/>
	<rect x="17.655" y="476.69" style="fill:#707384;" width="17.655" height="17.655"/>
	<rect x="476.69" y="476.69" style="fill:#707384;" width="17.655" height="17.655"/>
	<rect x="247.172" y="476.69" style="fill:#707384;" width="17.655" height="17.655"/>
</g>
<g>
</g>
<g>
</g>
<g>
</g>
<g>
</g>
<g>
</g>
<g>
</g>
<g>
</g>
<g>
</g>
<g>
</g>
<g>
</g>
<g>
</g>
<g>
</g>
<g>
</g>
<g>
</g>
<g>
</g>
</svg>
