<?xml version="1.0" encoding="iso-8859-1"?>
<!-- Generator: Adobe Illustrator 19.0.0, SVG Export Plug-In . SVG Version: 6.00 Build 0)  -->
<svg version="1.1" id="Layer_1" xmlns="http://www.w3.org/2000/svg" xmlns:xlink="http://www.w3.org/1999/xlink" x="0px" y="0px"
	 viewBox="0 0 512 512" style="enable-background:new 0 0 512 512;" xml:space="preserve">
<g>
	<path style="fill:#BEC8DC;" d="M503.172,459.034h-35.31c-4.875,0-8.828,3.948-8.828,8.828v35.31c0,4.879,3.953,8.828,8.828,8.828
		s8.828-3.948,8.828-8.828V476.69h26.483c4.875,0,8.828-3.948,8.828-8.828C512,462.983,508.047,459.034,503.172,459.034z"/>
	<path style="fill:#BEC8DC;" d="M467.862,52.966h35.31c4.875,0,8.828-3.953,8.828-8.828s-3.953-8.828-8.828-8.828H476.69V8.828
		c0-4.875-3.953-8.828-8.828-8.828s-8.828,3.953-8.828,8.828v35.31C459.034,49.013,462.987,52.966,467.862,52.966z"/>
	<path style="fill:#BEC8DC;" d="M44.138,0c-4.875,0-8.828,3.953-8.828,8.828V35.31H8.828C3.953,35.31,0,39.263,0,44.138
		s3.953,8.828,8.828,8.828h35.31c4.875,0,8.828-3.953,8.828-8.828V8.828C52.966,3.953,49.013,0,44.138,0z"/>
	<path style="fill:#BEC8DC;" d="M44.138,459.034H8.828c-4.875,0-8.828,3.948-8.828,8.828c0,4.879,3.953,8.828,8.828,8.828H35.31
		v26.483c0,4.879,3.953,8.828,8.828,8.828s8.828-3.948,8.828-8.828v-35.31C52.966,462.983,49.013,459.034,44.138,459.034z"/>
	<path style="fill:#BEC8DC;" d="M185.379,79.448h-17.655c-4.875,0-8.828,3.953-8.828,8.828c0,4.875,3.953,8.828,8.828,8.828h17.655
		c4.875,0,8.828-3.953,8.828-8.828C194.207,83.401,190.254,79.448,185.379,79.448z"/>
	<path style="fill:#BEC8DC;" d="M220.69,79.448c-4.875,0-8.828,3.953-8.828,8.828c0,4.875,3.953,8.828,8.828,8.828h8.828V79.448
		H220.69z"/>
	<path style="fill:#BEC8DC;" d="M132.414,79.448h-17.655v17.655h17.655c4.875,0,8.828-3.953,8.828-8.828
		C141.241,83.401,137.289,79.448,132.414,79.448z"/>
	<path style="fill:#BEC8DC;" d="M344.276,79.448h-17.655c-4.875,0-8.828,3.953-8.828,8.828c0,4.875,3.953,8.828,8.828,8.828h17.655
		c4.875,0,8.828-3.953,8.828-8.828C353.103,83.401,349.151,79.448,344.276,79.448z"/>
	<path style="fill:#BEC8DC;" d="M379.586,79.448c-4.875,0-8.828,3.953-8.828,8.828c0,4.875,3.953,8.828,8.828,8.828h17.655V79.448
		H379.586z"/>
	<path style="fill:#BEC8DC;" d="M291.31,79.448h-8.828v17.655h8.828c4.875,0,8.828-3.953,8.828-8.828
		C300.138,83.401,296.185,79.448,291.31,79.448z"/>
	<path style="fill:#BEC8DC;" d="M185.379,414.897h-17.655c-4.875,0-8.828,3.948-8.828,8.828c0,4.879,3.953,8.828,8.828,8.828h17.655
		c4.875,0,8.828-3.948,8.828-8.828C194.207,418.845,190.254,414.897,185.379,414.897z"/>
	<path style="fill:#BEC8DC;" d="M220.69,414.897c-4.875,0-8.828,3.948-8.828,8.828c0,4.879,3.953,8.828,8.828,8.828h8.828v-17.655
		H220.69z"/>
	<path style="fill:#BEC8DC;" d="M132.414,414.897h-17.655v17.655h17.655c4.875,0,8.828-3.948,8.828-8.828
		C141.241,418.845,137.289,414.897,132.414,414.897z"/>
	<path style="fill:#BEC8DC;" d="M344.276,414.897h-17.655c-4.875,0-8.828,3.948-8.828,8.828c0,4.879,3.953,8.828,8.828,8.828h17.655
		c4.875,0,8.828-3.948,8.828-8.828C353.103,418.845,349.151,414.897,344.276,414.897z"/>
	<path style="fill:#BEC8DC;" d="M379.586,414.897c-4.875,0-8.828,3.948-8.828,8.828c0,4.879,3.953,8.828,8.828,8.828h17.655v-17.655
		H379.586z"/>
	<path style="fill:#BEC8DC;" d="M291.31,414.897h-8.828v17.655h8.828c4.875,0,8.828-3.948,8.828-8.828
		C300.138,418.845,296.185,414.897,291.31,414.897z"/>
	<path style="fill:#BEC8DC;" d="M88.276,317.793c-4.875,0-8.828,3.948-8.828,8.828v17.655c0,4.879,3.953,8.828,8.828,8.828
		c4.875,0,8.828-3.948,8.828-8.828v-17.655C97.103,321.741,93.151,317.793,88.276,317.793z"/>
	<path style="fill:#BEC8DC;" d="M79.448,291.31c0,4.879,3.953,8.828,8.828,8.828c4.875,0,8.828-3.948,8.828-8.828v-8.828H79.448
		V291.31z"/>
	<path style="fill:#BEC8DC;" d="M97.103,379.586c0-4.879-3.953-8.828-8.828-8.828c-4.875,0-8.828,3.948-8.828,8.828v17.655h17.655
		V379.586z"/>
	<path style="fill:#BEC8DC;" d="M88.276,194.207c4.875,0,8.828-3.948,8.828-8.828v-17.655c0-4.879-3.953-8.828-8.828-8.828
		c-4.875,0-8.828,3.948-8.828,8.828v17.655C79.448,190.259,83.401,194.207,88.276,194.207z"/>
	<path style="fill:#BEC8DC;" d="M79.448,132.414c0,4.875,3.953,8.828,8.828,8.828c4.875,0,8.828-3.953,8.828-8.828v-17.655H79.448
		V132.414z"/>
	<path style="fill:#BEC8DC;" d="M97.103,220.69c0-4.879-3.953-8.828-8.828-8.828c-4.875,0-8.828,3.948-8.828,8.828v8.828h17.655
		V220.69z"/>
	<path style="fill:#BEC8DC;" d="M423.724,353.103c4.875,0,8.828-3.948,8.828-8.828v-17.655c0-4.879-3.953-8.828-8.828-8.828
		c-4.875,0-8.828,3.948-8.828,8.828v17.655C414.897,349.155,418.849,353.103,423.724,353.103z"/>
	<path style="fill:#BEC8DC;" d="M414.897,291.31c0,4.879,3.953,8.828,8.828,8.828c4.875,0,8.828-3.948,8.828-8.828v-8.828h-17.655
		V291.31z"/>
	<path style="fill:#BEC8DC;" d="M432.552,379.586c0-4.879-3.953-8.828-8.828-8.828c-4.875,0-8.828,3.948-8.828,8.828v17.655h17.655
		V379.586z"/>
	<path style="fill:#BEC8DC;" d="M423.724,194.207c4.875,0,8.828-3.948,8.828-8.828v-17.655c0-4.879-3.953-8.828-8.828-8.828
		c-4.875,0-8.828,3.948-8.828,8.828v17.655C414.897,190.259,418.849,194.207,423.724,194.207z"/>
	<path style="fill:#BEC8DC;" d="M414.897,132.414c0,4.875,3.953,8.828,8.828,8.828c4.875,0,8.828-3.953,8.828-8.828v-17.655h-17.655
		V132.414z"/>
	<path style="fill:#BEC8DC;" d="M432.552,220.69c0-4.879-3.953-8.828-8.828-8.828c-4.875,0-8.828,3.948-8.828,8.828v8.828h17.655
		V220.69z"/>
</g>
<g>
	<path style="fill:#E4EAF6;" d="M114.759,70.621c0-4.875-3.953-8.828-8.828-8.828h-35.31c-4.875,0-8.828,3.953-8.828,8.828v35.31
		c0,4.875,3.953,8.828,8.828,8.828h8.828h17.655h8.828c4.875,0,8.828-3.953,8.828-8.828v-8.828V79.448V70.621z"/>
	<path style="fill:#E4EAF6;" d="M282.483,70.621c0-4.875-3.953-8.828-8.828-8.828h-35.31c-4.875,0-8.828,3.953-8.828,8.828v8.828
		v17.655v8.828c0,4.875,3.953,8.828,8.828,8.828h35.31c4.875,0,8.828-3.953,8.828-8.828v-8.828V79.448V70.621z"/>
	<path style="fill:#E4EAF6;" d="M441.379,61.793h-35.31c-4.875,0-8.828,3.953-8.828,8.828v8.828v17.655v8.828
		c0,4.875,3.953,8.828,8.828,8.828h8.828h17.655h8.828c4.875,0,8.828-3.953,8.828-8.828v-35.31
		C450.207,65.746,446.254,61.793,441.379,61.793z"/>
	<path style="fill:#E4EAF6;" d="M114.759,406.069c0-4.875-3.953-8.828-8.828-8.828h-8.828H79.448h-8.828
		c-4.875,0-8.828,3.953-8.828,8.828v35.31c0,4.875,3.953,8.828,8.828,8.828h35.31c4.875,0,8.828-3.953,8.828-8.828v-8.828v-17.655
		V406.069z"/>
	<path style="fill:#E4EAF6;" d="M282.483,406.069c0-4.875-3.953-8.828-8.828-8.828h-35.31c-4.875,0-8.828,3.953-8.828,8.828v8.828
		v17.655v8.828c0,4.875,3.953,8.828,8.828,8.828h35.31c4.875,0,8.828-3.953,8.828-8.828v-8.828v-17.655V406.069z"/>
	<path style="fill:#E4EAF6;" d="M441.379,397.241h-8.828h-17.655h-8.828c-4.875,0-8.828,3.953-8.828,8.828v8.828v17.655v8.828
		c0,4.875,3.953,8.828,8.828,8.828h35.31c4.875,0,8.828-3.953,8.828-8.828v-35.31C450.207,401.194,446.254,397.241,441.379,397.241z
		"/>
	<path style="fill:#E4EAF6;" d="M70.621,282.483h8.828h17.655h8.828c4.875,0,8.828-3.953,8.828-8.828v-35.31
		c0-4.875-3.953-8.828-8.828-8.828h-8.828H79.448h-8.828c-4.875,0-8.828,3.953-8.828,8.828v35.31
		C61.793,278.53,65.746,282.483,70.621,282.483z"/>
	<path style="fill:#E4EAF6;" d="M441.379,229.517h-8.828h-17.655h-8.828c-4.875,0-8.828,3.953-8.828,8.828v35.31
		c0,4.875,3.953,8.828,8.828,8.828h8.828h17.655h8.828c4.875,0,8.828-3.953,8.828-8.828v-35.31
		C450.207,233.47,446.254,229.517,441.379,229.517z"/>
	<path style="fill:#E4EAF6;" d="M238.345,282.483h35.31c4.875,0,8.828-3.953,8.828-8.828v-35.31c0-4.875-3.953-8.828-8.828-8.828
		h-35.31c-4.875,0-8.828,3.953-8.828,8.828v35.31C229.517,278.53,233.47,282.483,238.345,282.483z"/>
</g>
<g>
</g>
<g>
</g>
<g>
</g>
<g>
</g>
<g>
</g>
<g>
</g>
<g>
</g>
<g>
</g>
<g>
</g>
<g>
</g>
<g>
</g>
<g>
</g>
<g>
</g>
<g>
</g>
<g>
</g>
</svg>
