<?xml version="1.0" encoding="iso-8859-1"?>
<!-- Generator: Adobe Illustrator 19.0.0, SVG Export Plug-In . SVG Version: 6.00 Build 0)  -->
<svg version="1.1" id="Layer_1" xmlns="http://www.w3.org/2000/svg" xmlns:xlink="http://www.w3.org/1999/xlink" x="0px" y="0px"
	 viewBox="0 0 512 512" style="enable-background:new 0 0 512 512;" xml:space="preserve">
<path style="fill:#B9EBFF;" d="M262.142,35.31h-12.284c-32.83,31.209-123.983,124.575-152.755,224.193v5.324
	c0,2.722-1.234,5.154-3.17,6.773c-2.237,9.507-3.876,19.05-4.793,28.58c4.47,0.435,7.964,4.201,7.964,8.785v17.655
	c0,4.564-3.463,8.318-7.905,8.779c8.222,78.451,70.744,140.973,149.195,149.195c0.461-4.441,4.215-7.905,8.779-7.905h17.655
	c4.564,0,8.318,3.463,8.779,7.905c78.451-8.222,140.973-70.744,149.195-149.195c-4.441-0.461-7.905-4.215-7.905-8.779v-17.655
	c0-4.584,3.493-8.35,7.964-8.783c-0.917-9.53-2.557-19.073-4.793-28.58c-1.937-1.62-3.17-4.052-3.17-6.774v-5.324
	C386.125,159.885,294.972,66.519,262.142,35.31z"/>
<g>
	<path style="fill:#5D5E6E;" d="M278.62,26.483h-4.964c0,4.875-3.953,8.828-8.828,8.828h-2.686
		c32.83,31.209,123.983,124.575,152.755,224.193v-12.331c0-4.875,3.953-8.828,8.828-8.828v-8.39
		C389.117,139.15,312.761,59.188,278.62,26.483z"/>
	<path style="fill:#5D5E6E;" d="M89.198,335.4c-0.303,0.031-0.61,0.049-0.922,0.049v61.246
		c18.38,38.914,49.908,70.443,88.823,88.823h61.246c0-0.311,0.018-0.62,0.049-0.922C159.943,476.373,97.42,413.85,89.198,335.4z"/>
	<path style="fill:#5D5E6E;" d="M423.724,300.138v-26.483c-2.154,0-4.125-0.774-5.657-2.055c2.237,9.507,3.876,19.05,4.793,28.58
		C423.145,300.153,423.433,300.138,423.724,300.138z"/>
	<path style="fill:#5D5E6E;" d="M88.276,273.655v26.483c0.291,0,0.579,0.015,0.864,0.044c0.917-9.53,2.557-19.073,4.793-28.58
		C92.401,272.882,90.43,273.655,88.276,273.655z"/>
	<path style="fill:#5D5E6E;" d="M249.858,35.31h-2.686c-4.875,0-8.828-3.953-8.828-8.828h-4.964
		C199.239,59.188,122.883,139.15,88.276,229.955v8.39c4.875,0,8.828,3.953,8.828,8.828v12.331
		C125.875,159.885,217.028,66.519,249.858,35.31z"/>
	<path style="fill:#5D5E6E;" d="M273.607,484.595c0.032,0.303,0.049,0.611,0.049,0.922h61.246
		c38.914-18.38,70.443-49.909,88.823-88.823v-61.246c-0.312,0-0.619-0.018-0.922-0.049
		C414.58,413.85,352.057,476.373,273.607,484.595z"/>
</g>
<g>
	<polygon style="fill:#BEC8DC;" points="233.38,26.483 238.345,26.483 238.345,8.828 97.103,8.828 97.103,26.483 	"/>
	<polygon style="fill:#BEC8DC;" points="423.724,35.31 423.724,229.955 423.724,238.345 441.379,238.345 441.379,35.31 	"/>
	<polygon style="fill:#BEC8DC;" points="334.901,485.517 273.655,485.517 273.655,503.172 414.897,503.172 414.897,485.517 	"/>
	<polygon style="fill:#BEC8DC;" points="88.276,396.694 88.276,335.448 70.621,335.448 70.621,476.69 88.276,476.69 	"/>
	<polygon style="fill:#BEC8DC;" points="273.655,26.483 278.62,26.483 414.897,26.483 414.897,8.828 273.655,8.828 	"/>
	<polygon style="fill:#BEC8DC;" points="238.345,485.517 177.099,485.517 97.103,485.517 97.103,503.172 238.345,503.172 	"/>
	<rect x="70.621" y="273.655" style="fill:#BEC8DC;" width="17.655" height="26.483"/>
	<polygon style="fill:#BEC8DC;" points="423.724,335.448 423.724,396.694 423.724,476.69 441.379,476.69 441.379,335.448 	"/>
	<rect x="423.724" y="273.655" style="fill:#BEC8DC;" width="17.655" height="26.483"/>
	<polygon style="fill:#BEC8DC;" points="88.276,238.345 88.276,229.955 88.276,35.31 70.621,35.31 70.621,238.345 	"/>
</g>
<g>
	<path style="fill:#E4EAF6;" d="M97.103,26.483V8.828C97.103,3.953,93.151,0,88.276,0H70.621c-4.875,0-8.828,3.953-8.828,8.828
		v17.655c0,4.875,3.953,8.828,8.828,8.828h17.655C93.151,35.31,97.103,31.358,97.103,26.483z"/>
	<path style="fill:#E4EAF6;" d="M423.724,35.31h17.655c4.875,0,8.828-3.953,8.828-8.828V8.828c0-4.875-3.953-8.828-8.828-8.828
		h-17.655c-4.875,0-8.828,3.953-8.828,8.828v17.655C414.897,31.358,418.849,35.31,423.724,35.31z"/>
	<path style="fill:#E4EAF6;" d="M88.276,476.69H70.621c-4.875,0-8.828,3.953-8.828,8.828v17.655c0,4.875,3.953,8.828,8.828,8.828
		h17.655c4.875,0,8.828-3.953,8.828-8.828v-17.655C97.103,480.642,93.151,476.69,88.276,476.69z"/>
	<path style="fill:#E4EAF6;" d="M414.897,485.517v17.655c0,4.875,3.953,8.828,8.828,8.828h17.655c4.875,0,8.828-3.953,8.828-8.828
		v-17.655c0-4.875-3.953-8.828-8.828-8.828h-17.655C418.849,476.69,414.897,480.642,414.897,485.517z"/>
	<path style="fill:#E4EAF6;" d="M238.345,26.483c0,4.875,3.953,8.828,8.828,8.828h2.686h12.284h2.686
		c4.875,0,8.828-3.953,8.828-8.828V8.828c0-4.875-3.953-8.828-8.828-8.828h-17.655c-4.875,0-8.828,3.953-8.828,8.828V26.483z"/>
</g>
<g>
	<path style="fill:#A0AABE;" d="M88.276,335.448c0.312,0,0.619-0.018,0.922-0.049c4.442-0.461,7.905-4.215,7.905-8.779v-17.655
		c0-4.584-3.494-8.35-7.964-8.783c-0.285-0.029-0.573-0.044-0.864-0.044H70.621c-4.875,0-8.828,3.953-8.828,8.828v17.655
		c0,4.875,3.953,8.828,8.828,8.828H88.276z"/>
	<path style="fill:#A0AABE;" d="M423.724,300.138c-0.291,0-0.579,0.015-0.864,0.044c-4.47,0.435-7.964,4.201-7.964,8.783v17.655
		c0,4.564,3.463,8.318,7.905,8.779c0.303,0.032,0.611,0.049,0.922,0.049h17.655c4.875,0,8.828-3.953,8.828-8.828v-17.655
		c0-4.875-3.953-8.828-8.828-8.828H423.724z"/>
</g>
<g>
	<path style="fill:#E4EAF6;" d="M273.655,485.517c0-0.311-0.018-0.62-0.049-0.922c-0.461-4.441-4.215-7.905-8.779-7.905h-17.655
		c-4.564,0-8.318,3.463-8.779,7.905c-0.031,0.302-0.049,0.611-0.049,0.922v17.655c0,4.875,3.953,8.828,8.828,8.828h17.655
		c4.875,0,8.828-3.953,8.828-8.828V485.517z"/>
	<path style="fill:#E4EAF6;" d="M88.276,273.655c2.154,0,4.125-0.774,5.657-2.055c1.937-1.619,3.17-4.051,3.17-6.773v-5.324v-12.331
		c0-4.875-3.953-8.828-8.828-8.828H70.621c-4.875,0-8.828,3.953-8.828,8.828v17.655c0,4.875,3.953,8.828,8.828,8.828H88.276z"/>
	<path style="fill:#E4EAF6;" d="M423.724,238.345c-4.875,0-8.828,3.953-8.828,8.828v12.331v5.324c0,2.722,1.234,5.154,3.17,6.773
		c1.533,1.281,3.503,2.055,5.657,2.055h17.655c4.875,0,8.828-3.953,8.828-8.828v-17.655c0-4.875-3.953-8.828-8.828-8.828H423.724z"
		/>
</g>
<g>
</g>
<g>
</g>
<g>
</g>
<g>
</g>
<g>
</g>
<g>
</g>
<g>
</g>
<g>
</g>
<g>
</g>
<g>
</g>
<g>
</g>
<g>
</g>
<g>
</g>
<g>
</g>
<g>
</g>
</svg>
