<?xml version="1.0" encoding="iso-8859-1"?>
<!-- Generator: Adobe Illustrator 19.0.0, SVG Export Plug-In . SVG Version: 6.00 Build 0)  -->
<svg version="1.1" id="Layer_1" xmlns="http://www.w3.org/2000/svg" xmlns:xlink="http://www.w3.org/1999/xlink" x="0px" y="0px"
	 viewBox="0 0 512 512" style="enable-background:new 0 0 512 512;" xml:space="preserve">
<g>
	<path style="fill:#00DCCD;" d="M244.535,511.732c-0.857-0.039-1.714-0.072-2.569-0.119
		C242.821,511.659,243.678,511.694,244.535,511.732z"/>
	<path style="fill:#00DCCD;" d="M186.609,502.477c-0.72-0.202-1.435-0.413-2.152-0.622
		C185.175,502.063,185.89,502.274,186.609,502.477z"/>
	<path style="fill:#00DCCD;" d="M250.198,511.927c-0.677-0.015-1.352-0.035-2.026-0.056
		C248.847,511.891,249.521,511.911,250.198,511.927z"/>
	<path style="fill:#00DCCD;" d="M192,503.934c-0.051-0.014-0.103-0.027-0.155-0.041c15.551,4.013,31.679,6.583,48.226,7.599
		c-16.499-1.033-32.567-3.646-48.071-7.665C192,503.863,192,503.9,192,503.934z"/>
	<path style="fill:#00DCCD;" d="M181.349,500.93c-0.905-0.277-1.81-0.554-2.712-0.84
		C179.538,500.375,180.442,500.654,181.349,500.93z"/>
	<path style="fill:#00DCCD;" d="M261.802,511.927c0.677-0.015,1.351-0.037,2.026-0.056
		C263.154,511.891,262.479,511.911,261.802,511.927z"/>
	<path style="fill:#00DCCD;" d="M270.034,511.613c-0.855,0.048-1.712,0.081-2.569,0.119
		C268.322,511.694,269.179,511.659,270.034,511.613z"/>
	<path style="fill:#00DCCD;" d="M155.429,427.886l-12.711-5.085l2.583-41.327c0.61-9.755,6.366-18.45,15.109-22.823l39.536-19.768
		l23.571-11.786c3.097-1.549,5.054-4.714,5.054-8.177v-12.634l-38.4-19.2l1.83,32.914l-54.857-9.143c0,0-2.286-96.762,7.47-147.578
		c10.816-56.342,48.504-93.562,101.226-98.354l0.003-0.001c3.302-0.301,6.613-0.443,9.925-0.45v-0.011
		c0.039,0,0.078,0.005,0.117,0.005c0.039,0,0.077-0.005,0.117-0.005v0.011c3.312,0.007,6.623,0.15,9.925,0.45l0.003,0.001
		c52.723,4.792,90.411,42.014,101.227,98.355c9.754,50.815,7.469,147.577,7.469,147.577l-54.857,9.143l1.822-32.794l-38.16,19.08
		v12.635c0,3.463,1.957,6.629,5.054,8.177l23.571,11.786l39.536,19.768c8.743,4.373,14.499,13.067,15.109,22.823l2.583,41.327
		l-12.71,5.083v63.578c-6.877,2.941-13.907,5.586-21.075,7.933C437.959,465.953,512,369.631,512,256.001
		c0-141.385-114.615-256-256-256S0,114.615,0,256.001c0,113.631,74.041,209.952,176.504,243.397
		c-7.167-2.346-14.199-4.992-21.075-7.933V427.886z"/>
	<path style="fill:#00DCCD;" d="M320,503.828c-15.505,4.018-31.571,6.632-48.071,7.665c16.549-1.016,32.675-3.586,48.226-7.599
		c-0.053,0.014-0.104,0.027-0.155,0.041C320,503.9,320,503.863,320,503.828z"/>
	<path style="fill:#00DCCD;" d="M327.543,501.855c-0.717,0.209-1.433,0.419-2.152,0.622
		C326.11,502.274,326.825,502.063,327.543,501.855z"/>
	<path style="fill:#00DCCD;" d="M333.363,500.09c-0.902,0.286-1.807,0.565-2.712,0.84
		C331.558,500.654,332.462,500.375,333.363,500.09z"/>
</g>
<g>
	<path style="fill:#EBC89B;" d="M192,503.828c-3.07-0.795-6.119-1.643-9.143-2.546v-62.424l-27.429-10.971v63.578
		c6.877,2.941,13.907,5.586,21.075,7.933c0.711,0.233,1.421,0.466,2.134,0.693c0.902,0.286,1.807,0.565,2.712,0.84
		c1.033,0.315,2.07,0.622,3.109,0.925c0.717,0.209,1.433,0.419,2.152,0.622c1.738,0.489,3.482,0.965,5.235,1.417
		c0.053,0.014,0.104,0.027,0.155,0.041C192,503.9,192,503.863,192,503.828z"/>
	<path style="fill:#EBC89B;" d="M356.571,427.886l-27.429,10.971v62.424c-3.024,0.904-6.073,1.751-9.143,2.546
		c0,0.035,0,0.072,0,0.106c0.051-0.014,0.103-0.027,0.155-0.041c1.753-0.453,3.497-0.928,5.235-1.417
		c0.72-0.202,1.435-0.413,2.152-0.622c1.039-0.303,2.075-0.609,3.109-0.925c0.905-0.277,1.81-0.554,2.712-0.84
		c0.713-0.226,1.423-0.459,2.134-0.693c7.167-2.346,14.199-4.992,21.075-7.933v-63.578H356.571z"/>
</g>
<path style="fill:#FF7B88;" d="M267.465,511.732c0.857-0.039,1.714-0.072,2.569-0.119c0.633-0.034,1.263-0.08,1.894-0.12
	c16.499-1.033,32.567-3.646,48.071-7.665c3.07-0.795,6.119-1.643,9.143-2.546c-3.024,0.904-6.073,1.747-9.143,2.543
	c0-22.462,0-83.482,0-83.482c0-10.991,4.281-21.33,12.049-29.098l26.922-26.918c2.176,2.269,3.905,4.869,5.191,7.737l-25.649,25.645
	c-6.045,6.045-9.37,14.08-9.37,22.634v18.515l27.429-10.971l12.711-5.085l-2.583-41.327c-0.61-9.755-6.366-18.45-15.109-22.823
	l-39.536-19.768l14.965,7.482c-7.755,32.07-36.566,55.92-71.018,55.92s-63.263-23.85-71.018-55.92l14.965-7.482l-39.536,19.768
	c-8.743,4.373-14.499,13.067-15.109,22.823l-2.583,41.327l12.71,5.085l27.429,10.971v-18.515c0-8.553-3.326-16.59-9.37-22.634
	l-25.649-25.645c1.286-2.869,3.015-5.467,5.191-7.737l26.922,26.918c7.768,7.768,12.049,18.107,12.049,29.098c0,0,0,61.021,0,83.482
	c-3.07-0.794-6.119-1.639-9.143-2.543c3.024,0.904,6.073,1.751,9.143,2.546c15.505,4.018,31.571,6.632,48.071,7.665
	c0.631,0.04,1.262,0.086,1.894,0.12c0.855,0.048,1.712,0.081,2.569,0.119c1.21,0.055,2.422,0.101,3.637,0.138
	c0.675,0.021,1.35,0.041,2.026,0.056c1.929,0.045,3.862,0.073,5.802,0.073s3.873-0.03,5.802-0.073
	c0.677-0.015,1.352-0.035,2.026-0.056C265.043,511.834,266.256,511.787,267.465,511.732z"/>
<path style="fill:#EBC89B;" d="M283.429,318.922v-12.635l-11.073,5.537c-10.296,5.147-22.415,5.147-32.711,0l-11.073-5.537v12.635
	c0,3.463-1.957,6.629-5.054,8.177l-23.571,11.786l-14.965,7.482c7.755,32.069,36.566,55.919,71.018,55.919
	s63.263-23.85,71.018-55.92l-14.965-7.482l-23.571-11.786C285.385,325.55,283.429,322.385,283.429,318.922z"/>
<path style="fill:#F5DCAA;" d="M272.355,311.823l11.073-5.537l38.161-19.08l7.241-130.349c-15.207,6.405-42.479,15.378-91.117,26
	l9.143-18.286c0,0-32.815,15.67-61.928,28.167l5.242,94.347l38.4,19.2l11.073,5.537
	C249.941,316.971,262.059,316.971,272.355,311.823z M301.714,201.143c5.049,0,9.143,4.094,9.143,9.143v9.143
	c0,5.049-4.094,9.143-9.143,9.143s-9.143-4.094-9.143-9.143v-9.143C292.571,205.237,296.665,201.143,301.714,201.143z
	 M219.429,219.429c0,5.049-4.094,9.143-9.143,9.143c-5.049,0-9.143-4.094-9.143-9.143v-9.143c0-5.049,4.094-9.143,9.143-9.143
	c5.049,0,9.143,4.094,9.143,9.143V219.429z M227.031,263.313c2.277-4.509,7.777-6.321,12.281-4.045
	c9.197,4.625,24.178,4.625,33.375,0c4.531-2.295,10.009-0.464,12.281,4.045c2.272,4.509,0.459,10.009-4.049,12.277
	c-7.205,3.634-15.821,5.554-24.919,5.554c-9.098,0-17.714-1.92-24.92-5.553C226.571,273.322,224.759,267.822,227.031,263.313z"/>
<g>
	<path style="fill:#464655;" d="M210.286,201.143c-5.049,0-9.143,4.094-9.143,9.143v9.143c0,5.049,4.094,9.143,9.143,9.143
		c5.049,0,9.143-4.094,9.143-9.143v-9.143C219.429,205.237,215.335,201.143,210.286,201.143z"/>
	<path style="fill:#464655;" d="M301.714,228.572c5.049,0,9.143-4.094,9.143-9.143v-9.143c0-5.049-4.094-9.143-9.143-9.143
		s-9.143,4.094-9.143,9.143v9.143C292.571,224.478,296.665,228.572,301.714,228.572z"/>
</g>
<path style="fill:#DCB491;" d="M231.08,275.59c7.206,3.633,15.822,5.553,24.92,5.553c9.098,0,17.714-1.92,24.92-5.553
	c4.509-2.267,6.321-7.768,4.049-12.277s-7.75-6.339-12.281-4.045c-9.197,4.625-24.178,4.625-33.375,0
	c-4.504-2.277-10.005-0.464-12.281,4.045C224.759,267.822,226.571,273.322,231.08,275.59z"/>
<path style="fill:#5C5D6E;" d="M184.929,192.739c29.113-12.497,61.928-28.167,61.928-28.167l-9.143,18.286
	c48.638-10.622,75.91-19.595,91.117-26l-7.241,130.349l-1.823,32.794l54.857-9.143c0,0,2.286-96.762-7.47-147.578
	c-10.816-56.342-48.504-93.562-101.227-98.355l-0.003-0.001c-3.302-0.301-6.613-0.443-9.925-0.45v-0.011
	c-0.039,0-0.077,0.005-0.117,0.005s-0.078-0.005-0.117-0.005v0.011c-3.312,0.007-6.623,0.15-9.925,0.45l-0.003,0.001
	c-52.723,4.792-90.411,42.014-101.227,98.355c-9.753,50.816-7.467,147.578-7.467,147.578L192,320.001l-1.829-32.914L184.929,192.739
	z"/>
<g>
	<path style="fill:#D76473;" d="M329.143,420.342c0-8.553,3.326-16.59,9.37-22.634l25.649-25.645
		c-1.286-2.869-3.015-5.467-5.191-7.737l-26.922,26.918C324.281,399.012,320,409.351,320,420.342c0,0,0,61.021,0,83.482
		c3.07-0.794,6.119-1.639,9.143-2.543v-62.424V420.342z"/>
	<path style="fill:#D76473;" d="M192,503.825c0-22.462,0-83.482,0-83.482c0-10.991-4.281-21.33-12.049-29.098l-26.922-26.918
		c-2.176,2.269-3.905,4.869-5.191,7.737l25.649,25.645c6.045,6.045,9.37,14.08,9.37,22.634v18.515v62.424
		C185.881,502.186,188.93,503.029,192,503.825z"/>
</g>
<g>
</g>
<g>
</g>
<g>
</g>
<g>
</g>
<g>
</g>
<g>
</g>
<g>
</g>
<g>
</g>
<g>
</g>
<g>
</g>
<g>
</g>
<g>
</g>
<g>
</g>
<g>
</g>
<g>
</g>
</svg>
