<?xml version="1.0" encoding="iso-8859-1"?>
<!-- Generator: Adobe Illustrator 19.0.0, SVG Export Plug-In . SVG Version: 6.00 Build 0)  -->
<svg version="1.1" id="Layer_1" xmlns="http://www.w3.org/2000/svg" xmlns:xlink="http://www.w3.org/1999/xlink" x="0px" y="0px"
	 viewBox="0 0 512 512" style="enable-background:new 0 0 512 512;" xml:space="preserve">
<path style="fill:#707384;" d="M476.69,176.552H353.103v35.31H476.69V476.69H211.862V353.103h-35.31V476.69
	c0,19.501,15.809,35.31,35.31,35.31H476.69c19.501,0,35.31-15.809,35.31-35.31V211.862C512,192.361,496.191,176.552,476.69,176.552z
	"/>
<g>
	<rect x="335.448" y="176.552" style="fill:#464655;" width="17.655" height="35.31"/>
	<rect x="176.552" y="335.448" style="fill:#464655;" width="35.31" height="17.655"/>
</g>
<path style="fill:#E4EAF6;" d="M300.138,335.448c19.501,0,35.31-15.809,35.31-35.31v-88.276v-35.31V35.31
	c0-19.501-15.809-35.31-35.31-35.31H35.31C15.809,0,0,15.809,0,35.31v264.828c0,19.501,15.809,35.31,35.31,35.31h141.241h35.31
	H300.138z M27.586,308.966c-0.609,0-1.103-0.494-1.103-1.103V27.586c0-0.609,0.494-1.103,1.103-1.103h280.276
	c0.609,0,1.103,0.494,1.103,1.103v280.276c0,0.609-0.494,1.103-1.103,1.103H27.586z"/>
<path style="fill:#B4E173;" d="M307.862,308.966c0.609,0,1.103-0.494,1.103-1.103V27.586c0-0.609-0.494-1.103-1.103-1.103H27.586
	c-0.609,0-1.103,0.494-1.103,1.103v280.276c0,0.609,0.494,1.103,1.103,1.103H307.862z"/>
<g>
</g>
<g>
</g>
<g>
</g>
<g>
</g>
<g>
</g>
<g>
</g>
<g>
</g>
<g>
</g>
<g>
</g>
<g>
</g>
<g>
</g>
<g>
</g>
<g>
</g>
<g>
</g>
<g>
</g>
</svg>
