<?xml version="1.0" encoding="iso-8859-1"?>
<!-- Generator: Adobe Illustrator 19.0.0, SVG Export Plug-In . SVG Version: 6.00 Build 0)  -->
<svg version="1.1" id="Layer_1" xmlns="http://www.w3.org/2000/svg" xmlns:xlink="http://www.w3.org/1999/xlink" x="0px" y="0px"
	 viewBox="0 0 512 512" style="enable-background:new 0 0 512 512;" xml:space="preserve">
<path style="fill:#D2DCF0;" d="M485.517,61.793H26.483C11.857,61.793,0,73.65,0,88.276v335.448
	c0,14.626,11.857,26.483,26.483,26.483h459.034c14.626,0,26.483-11.857,26.483-26.483V88.276
	C512,73.65,500.143,61.793,485.517,61.793z M441.379,79.448h8.828c4.875,0,8.828,3.953,8.828,8.828c0,4.875-3.953,8.828-8.828,8.828
	h-8.828c-4.875,0-8.828-3.953-8.828-8.828C432.552,83.401,436.504,79.448,441.379,79.448z M194.207,79.448h211.862
	c4.875,0,8.828,3.953,8.828,8.828c0,4.875-3.953,8.828-8.828,8.828H194.207c-4.875,0-8.828-3.953-8.828-8.828
	C185.379,83.401,189.332,79.448,194.207,79.448z M150.069,79.448h8.828c4.875,0,8.828,3.953,8.828,8.828
	c0,4.875-3.953,8.828-8.828,8.828h-8.828c-4.875,0-8.828-3.953-8.828-8.828C141.241,83.401,145.194,79.448,150.069,79.448z
	 M114.759,79.448h8.828c4.875,0,8.828,3.953,8.828,8.828c0,4.875-3.953,8.828-8.828,8.828h-8.828c-4.875,0-8.828-3.953-8.828-8.828
	C105.931,83.401,109.884,79.448,114.759,79.448z M79.448,79.448c4.875,0,8.828,3.953,8.828,8.828c0,4.875-3.953,8.828-8.828,8.828
	c-4.875,0-8.828-3.953-8.828-8.828C70.621,83.401,74.573,79.448,79.448,79.448z M52.966,79.448c4.875,0,8.828,3.953,8.828,8.828
	c0,4.875-3.953,8.828-8.828,8.828s-8.828-3.953-8.828-8.828C44.138,83.401,48.09,79.448,52.966,79.448z M26.483,79.448
	c4.875,0,8.828,3.953,8.828,8.828c0,4.875-3.953,8.828-8.828,8.828s-8.828-3.953-8.828-8.828
	C17.655,83.401,21.608,79.448,26.483,79.448z M494.345,423.724c0,4.875-3.953,8.828-8.828,8.828H26.483
	c-4.875,0-8.828-3.953-8.828-8.828V123.586c0-4.875,3.953-8.828,8.828-8.828h459.034c4.875,0,8.828,3.953,8.828,8.828V423.724z
	 M485.517,97.103h-8.828c-4.875,0-8.828-3.953-8.828-8.828c0-4.875,3.953-8.828,8.828-8.828h8.828c4.875,0,8.828,3.953,8.828,8.828
	C494.345,93.151,490.392,97.103,485.517,97.103z"/>
<path style="fill:#6EAADC;" d="M485.517,114.759H26.483c-4.875,0-8.828,3.953-8.828,8.828v300.138c0,4.875,3.953,8.828,8.828,8.828
	h459.034c4.875,0,8.828-3.953,8.828-8.828V123.586C494.345,118.711,490.392,114.759,485.517,114.759z M380.983,284.358
	c-27.695,36.215-73.297,59.918-124.983,59.918s-97.288-23.703-124.983-59.918c-4.809-6.289-4.809-15.116,0-21.405
	c27.695-36.215,73.297-59.918,124.983-59.918s97.288,23.703,124.983,59.918C385.792,269.241,385.792,278.069,380.983,284.358z"/>
<path style="fill:#FFFFFF;" d="M256,203.034c-51.687,0-97.288,23.703-124.983,59.918c-4.809,6.289-4.809,15.116,0,21.405
	c27.695,36.215,73.297,59.918,124.983,59.918s97.288-23.703,124.983-59.918c4.809-6.289,4.809-15.116,0-21.405
	C353.288,226.738,307.687,203.034,256,203.034z M259.523,326.492c-0.064,0.004-0.128,0.01-0.192,0.014
	c-1.102,0.068-2.211,0.115-3.331,0.115c-2.742,0-5.436-0.209-8.066-0.61c-22.794-3.482-40.807-21.495-44.289-44.289
	c-0.402-2.631-0.61-5.324-0.61-8.066s0.209-5.436,0.61-8.066c3.482-22.794,21.495-40.806,44.289-44.289
	c2.63-0.402,5.324-0.61,8.066-0.61c1.12,0,2.229,0.046,3.331,0.115c0.064,0.004,0.128,0.01,0.192,0.014
	c27.608,1.816,49.442,24.769,49.442,52.836C308.966,301.722,287.132,324.675,259.523,326.492z"/>
<circle style="fill:#FF6469;" cx="26.483" cy="88.276" r="8.828"/>
<circle style="fill:#FFE169;" cx="52.966" cy="88.276" r="8.828"/>
<circle style="fill:#87E1AA;" cx="79.448" cy="88.276" r="8.828"/>
<g>
	<path style="fill:#E4EAF6;" d="M114.759,97.103h8.828c4.875,0,8.828-3.953,8.828-8.828c0-4.875-3.953-8.828-8.828-8.828h-8.828
		c-4.875,0-8.828,3.953-8.828,8.828C105.931,93.151,109.884,97.103,114.759,97.103z"/>
	<path style="fill:#E4EAF6;" d="M150.069,97.103h8.828c4.875,0,8.828-3.953,8.828-8.828c0-4.875-3.953-8.828-8.828-8.828h-8.828
		c-4.875,0-8.828,3.953-8.828,8.828C141.241,93.151,145.194,97.103,150.069,97.103z"/>
	<path style="fill:#E4EAF6;" d="M441.379,97.103h8.828c4.875,0,8.828-3.953,8.828-8.828c0-4.875-3.953-8.828-8.828-8.828h-8.828
		c-4.875,0-8.828,3.953-8.828,8.828C432.552,93.151,436.504,97.103,441.379,97.103z"/>
	<path style="fill:#E4EAF6;" d="M485.517,79.448h-8.828c-4.875,0-8.828,3.953-8.828,8.828c0,4.875,3.953,8.828,8.828,8.828h8.828
		c4.875,0,8.828-3.953,8.828-8.828C494.345,83.401,490.392,79.448,485.517,79.448z"/>
	<path style="fill:#E4EAF6;" d="M194.207,97.103h211.862c4.875,0,8.828-3.953,8.828-8.828c0-4.875-3.953-8.828-8.828-8.828H194.207
		c-4.875,0-8.828,3.953-8.828,8.828C185.379,93.151,189.332,97.103,194.207,97.103z"/>
</g>
<g>
	<path style="fill:#6EAADC;" d="M259.331,326.506c-1.1,0.074-2.211,0.115-3.331,0.115
		C257.12,326.621,258.229,326.574,259.331,326.506z"/>
	<path style="fill:#6EAADC;" d="M259.523,220.819c3.332,0.237,6.575,0.797,9.718,1.607c-22.831,5.888-39.724,26.558-39.724,51.23
		c0-14.626,11.857-26.483,26.483-26.483c2.72,0,5.343,0.412,7.812,1.173c1.659-0.747,3.492-1.173,5.429-1.173
		c7.313,0,13.241,5.929,13.241,13.241c0,1.937-0.426,3.771-1.173,5.429c0.761,2.47,1.173,5.092,1.173,7.812
		c0,14.626-11.857,26.483-26.483,26.483c-4.088,0-7.959-0.928-11.416-2.582c-1.597,1.596-3.802,2.582-6.239,2.582
		c-0.623,0-1.231-0.066-1.818-0.19c7.015,12.196,18.749,21.334,32.715,24.937c-3.143,0.81-6.385,1.369-9.718,1.607
		c27.608-1.816,49.442-24.769,49.442-52.836C308.966,245.588,287.132,222.635,259.523,220.819z"/>
	<path style="fill:#6EAADC;" d="M256,220.69c1.12,0,2.231,0.041,3.331,0.115C258.229,220.736,257.12,220.69,256,220.69z"/>
	<path style="fill:#6EAADC;" d="M232.099,285.073c-1.654-3.457-2.582-7.329-2.582-11.417c0,4.372,0.541,8.615,1.54,12.675
		C231.367,285.88,231.714,285.458,232.099,285.073z"/>
</g>
<path style="fill:#4B8CC8;" d="M236.526,299.948c-4.002-0.839-7.009-4.386-7.009-8.638c0-1.848,0.569-3.562,1.54-4.98
	c-1-4.061-1.54-8.303-1.54-12.675c0-24.671,16.893-45.341,39.724-51.23c-3.143-0.81-6.385-1.369-9.718-1.607
	c-0.064-0.004-0.128-0.01-0.192-0.014c-1.1-0.074-2.211-0.115-3.331-0.115c-2.742,0-5.436,0.209-8.066,0.61
	c-22.794,3.482-40.807,21.495-44.289,44.289c-0.402,2.631-0.61,5.324-0.61,8.066s0.209,5.436,0.61,8.066
	c3.482,22.794,21.495,40.806,44.289,44.289c2.63,0.402,5.324,0.61,8.066,0.61c1.12,0,2.231-0.041,3.331-0.115
	c0.064-0.004,0.128-0.01,0.192-0.014c3.332-0.237,6.575-0.797,9.718-1.607C255.275,321.283,243.541,312.145,236.526,299.948z"/>
<path style="fill:#535463;" d="M238.345,282.483c4.875,0,8.828,3.953,8.828,8.828c0,2.44-0.99,4.648-2.589,6.246
	c3.457,1.655,7.328,2.582,11.416,2.582c14.626,0,26.483-11.857,26.483-26.483c0-2.72-0.412-5.343-1.173-7.812
	c-2.074,4.603-6.692,7.812-12.068,7.812c-7.313,0-13.241-5.929-13.241-13.241c0-5.376,3.21-9.995,7.812-12.068
	c-2.47-0.761-5.094-1.173-7.812-1.173c-14.626,0-26.483,11.857-26.483,26.483c0,4.088,0.928,7.959,2.582,11.417
	C233.697,283.473,235.905,282.483,238.345,282.483z"/>
<g>
	<path style="fill:#FFFFFF;" d="M256,260.414c0,7.313,5.929,13.241,13.241,13.241c5.376,0,9.994-3.21,12.068-7.812
		c0.747-1.658,1.173-3.492,1.173-5.429c0-7.313-5.929-13.241-13.241-13.241c-1.937,0-3.77,0.426-5.429,1.173
		C259.21,250.419,256,255.038,256,260.414z"/>
	<path style="fill:#FFFFFF;" d="M247.172,291.31c0-4.875-3.953-8.828-8.828-8.828c-2.44,0-4.648,0.99-6.246,2.59
		c-0.385,0.385-0.733,0.808-1.042,1.259c-0.971,1.418-1.54,3.132-1.54,4.98c0,4.252,3.007,7.799,7.009,8.638
		c0.587,0.122,1.195,0.189,1.818,0.189c2.436,0,4.641-0.988,6.239-2.582C246.183,295.958,247.172,293.75,247.172,291.31z"/>
</g>
<g>
</g>
<g>
</g>
<g>
</g>
<g>
</g>
<g>
</g>
<g>
</g>
<g>
</g>
<g>
</g>
<g>
</g>
<g>
</g>
<g>
</g>
<g>
</g>
<g>
</g>
<g>
</g>
<g>
</g>
</svg>
