<?xml version="1.0" encoding="iso-8859-1"?>
<!-- Generator: Adobe Illustrator 19.0.0, SVG Export Plug-In . SVG Version: 6.00 Build 0)  -->
<svg version="1.1" id="Layer_1" xmlns="http://www.w3.org/2000/svg" xmlns:xlink="http://www.w3.org/1999/xlink" x="0px" y="0px"
	 viewBox="0 0 512 512" style="enable-background:new 0 0 512 512;" xml:space="preserve">
<path style="fill:#D2DCF0;" d="M485.517,61.793H26.483C11.857,61.793,0,73.65,0,88.276v335.448
	c0,14.626,11.857,26.483,26.483,26.483h459.034c14.626,0,26.483-11.857,26.483-26.483V88.276
	C512,73.65,500.143,61.793,485.517,61.793z M441.379,79.448h8.828c4.875,0,8.828,3.953,8.828,8.828c0,4.875-3.953,8.828-8.828,8.828
	h-8.828c-4.875,0-8.828-3.953-8.828-8.828C432.552,83.401,436.504,79.448,441.379,79.448z M194.207,79.448h211.862
	c4.875,0,8.828,3.953,8.828,8.828c0,4.875-3.953,8.828-8.828,8.828H194.207c-4.875,0-8.828-3.953-8.828-8.828
	C185.379,83.401,189.332,79.448,194.207,79.448z M150.069,79.448h8.828c4.875,0,8.828,3.953,8.828,8.828
	c0,4.875-3.953,8.828-8.828,8.828h-8.828c-4.875,0-8.828-3.953-8.828-8.828C141.241,83.401,145.194,79.448,150.069,79.448z
	 M114.759,79.448h8.828c4.875,0,8.828,3.953,8.828,8.828c0,4.875-3.953,8.828-8.828,8.828h-8.828c-4.875,0-8.828-3.953-8.828-8.828
	C105.931,83.401,109.884,79.448,114.759,79.448z M79.448,79.448c4.875,0,8.828,3.953,8.828,8.828c0,4.875-3.953,8.828-8.828,8.828
	c-4.875,0-8.828-3.953-8.828-8.828C70.621,83.401,74.573,79.448,79.448,79.448z M52.966,79.448c4.875,0,8.828,3.953,8.828,8.828
	c0,4.875-3.953,8.828-8.828,8.828s-8.828-3.953-8.828-8.828C44.138,83.401,48.09,79.448,52.966,79.448z M26.483,79.448
	c4.875,0,8.828,3.953,8.828,8.828c0,4.875-3.953,8.828-8.828,8.828s-8.828-3.953-8.828-8.828
	C17.655,83.401,21.608,79.448,26.483,79.448z M494.345,423.724c0,4.875-3.953,8.828-8.828,8.828H26.483
	c-4.875,0-8.828-3.953-8.828-8.828V123.586c0-4.875,3.953-8.828,8.828-8.828h459.034c4.875,0,8.828,3.953,8.828,8.828V423.724z
	 M485.517,97.103h-8.828c-4.875,0-8.828-3.953-8.828-8.828c0-4.875,3.953-8.828,8.828-8.828h8.828c4.875,0,8.828,3.953,8.828,8.828
	C494.345,93.151,490.392,97.103,485.517,97.103z"/>
<path style="fill:#FFFFFF;" d="M485.517,114.759H26.483c-4.875,0-8.828,3.953-8.828,8.828v300.138c0,4.875,3.953,8.828,8.828,8.828
	h459.034c4.875,0,8.828-3.953,8.828-8.828V123.586C494.345,118.711,490.392,114.759,485.517,114.759z M282.483,141.241h123.586
	c4.875,0,8.828,3.953,8.828,8.828c0,4.875-3.953,8.828-8.828,8.828H282.483c-4.875,0-8.828-3.953-8.828-8.828
	C273.655,145.194,277.608,141.241,282.483,141.241z M273.655,185.379c0-4.875,3.953-8.828,8.828-8.828h176.552
	c4.875,0,8.828,3.953,8.828,8.828l0,0c0,4.875-3.953,8.828-8.828,8.828H282.483C277.608,194.207,273.655,190.254,273.655,185.379
	L273.655,185.379z M467.862,220.69c0,4.875-3.953,8.828-8.828,8.828h-17.655c-4.875,0-8.828-3.953-8.828-8.828
	s3.953-8.828,8.828-8.828h17.655C463.91,211.862,467.862,215.815,467.862,220.69z M414.897,220.69c0,4.875-3.953,8.828-8.828,8.828
	h-17.655c-4.875,0-8.828-3.953-8.828-8.828s3.953-8.828,8.828-8.828h17.655C410.944,211.862,414.897,215.815,414.897,220.69z
	 M361.931,220.69c0,4.875-3.953,8.828-8.828,8.828h-17.655c-4.875,0-8.828-3.953-8.828-8.828s3.953-8.828,8.828-8.828h17.655
	C357.978,211.862,361.931,215.815,361.931,220.69z M308.966,220.69c0,4.875-3.953,8.828-8.828,8.828h-17.655
	c-4.875,0-8.828-3.953-8.828-8.828s3.953-8.828,8.828-8.828h17.655C305.013,211.862,308.966,215.815,308.966,220.69z
	 M282.483,247.172h150.069c4.875,0,8.828,3.953,8.828,8.828s-3.953,8.828-8.828,8.828H282.483c-4.875,0-8.828-3.953-8.828-8.828
	S277.608,247.172,282.483,247.172z M61.793,406.069L61.793,406.069c-4.875,0-8.828-3.953-8.828-8.828
	c0-4.875,3.953-8.828,8.828-8.828l0,0c4.875,0,8.828,3.953,8.828,8.828C70.621,402.116,66.668,406.069,61.793,406.069z
	 M70.621,361.931c0,4.875-3.953,8.828-8.828,8.828l0,0c-4.875,0-8.828-3.953-8.828-8.828V203.034c0-4.875,3.953-8.828,8.828-8.828
	l0,0c4.875,0,8.828,3.953,8.828,8.828V361.931z M97.103,406.069L97.103,406.069c-4.875,0-8.828-3.953-8.828-8.828
	c0-4.875,3.953-8.828,8.828-8.828l0,0c4.875,0,8.828,3.953,8.828,8.828C105.931,402.116,101.978,406.069,97.103,406.069z
	 M105.931,361.931c0,4.875-3.953,8.828-8.828,8.828l0,0c-4.875,0-8.828-3.953-8.828-8.828V150.069c0-4.875,3.953-8.828,8.828-8.828
	l0,0c4.875,0,8.828,3.953,8.828,8.828V361.931z M132.414,406.069L132.414,406.069c-4.875,0-8.828-3.953-8.828-8.828
	c0-4.875,3.953-8.828,8.828-8.828l0,0c4.875,0,8.828,3.953,8.828,8.828C141.241,402.116,137.289,406.069,132.414,406.069z
	 M141.241,361.931c0,4.875-3.953,8.828-8.828,8.828l0,0c-4.875,0-8.828-3.953-8.828-8.828V247.172c0-4.875,3.953-8.828,8.828-8.828
	l0,0c4.875,0,8.828,3.953,8.828,8.828V361.931z M167.724,406.069c-4.875,0-8.828-3.953-8.828-8.828c0-4.875,3.953-8.828,8.828-8.828
	s8.828,3.953,8.828,8.828C176.552,402.116,172.599,406.069,167.724,406.069z M176.552,361.931c0,4.875-3.953,8.828-8.828,8.828
	s-8.828-3.953-8.828-8.828V185.379c0-4.875,3.953-8.828,8.828-8.828s8.828,3.953,8.828,8.828V361.931z M203.034,406.069
	c-4.875,0-8.828-3.953-8.828-8.828c0-4.875,3.953-8.828,8.828-8.828s8.828,3.953,8.828,8.828
	C211.862,402.116,207.91,406.069,203.034,406.069z M211.862,361.931c0,4.875-3.953,8.828-8.828,8.828s-8.828-3.953-8.828-8.828
	v-52.966c0-4.875,3.953-8.828,8.828-8.828s8.828,3.953,8.828,8.828V361.931z M238.345,406.069c-4.875,0-8.828-3.953-8.828-8.828
	c0-4.875,3.953-8.828,8.828-8.828c4.875,0,8.828,3.953,8.828,8.828C247.172,402.116,243.22,406.069,238.345,406.069z
	 M247.172,361.931c0,4.875-3.953,8.828-8.828,8.828c-4.875,0-8.828-3.953-8.828-8.828v-88.276c0-4.875,3.953-8.828,8.828-8.828
	c4.875,0,8.828,3.953,8.828,8.828V361.931z M432.552,406.069H282.483c-4.875,0-8.828-3.953-8.828-8.828
	c0-4.875,3.953-8.828,8.828-8.828h150.069c4.875,0,8.828,3.953,8.828,8.828C441.379,402.116,437.427,406.069,432.552,406.069z
	 M467.862,370.759H282.483c-4.875,0-8.828-3.953-8.828-8.828s3.953-8.828,8.828-8.828h185.379c4.875,0,8.828,3.953,8.828,8.828
	S472.737,370.759,467.862,370.759z M273.655,326.621c0-4.875,3.953-8.828,8.828-8.828h167.724c4.875,0,8.828,3.953,8.828,8.828
	s-3.953,8.828-8.828,8.828H282.483C277.608,335.448,273.655,331.496,273.655,326.621z M467.862,300.138H282.483
	c-4.875,0-8.828-3.953-8.828-8.828s3.953-8.828,8.828-8.828h185.379c4.875,0,8.828,3.953,8.828,8.828
	S472.737,300.138,467.862,300.138z"/>
<circle style="fill:#FF6469;" cx="26.483" cy="88.276" r="8.828"/>
<circle style="fill:#FFE169;" cx="52.966" cy="88.276" r="8.828"/>
<circle style="fill:#87E1AA;" cx="79.448" cy="88.276" r="8.828"/>
<g>
	<path style="fill:#E4EAF6;" d="M114.759,97.103h8.828c4.875,0,8.828-3.953,8.828-8.828c0-4.875-3.953-8.828-8.828-8.828h-8.828
		c-4.875,0-8.828,3.953-8.828,8.828C105.931,93.151,109.884,97.103,114.759,97.103z"/>
	<path style="fill:#E4EAF6;" d="M150.069,97.103h8.828c4.875,0,8.828-3.953,8.828-8.828c0-4.875-3.953-8.828-8.828-8.828h-8.828
		c-4.875,0-8.828,3.953-8.828,8.828C141.241,93.151,145.194,97.103,150.069,97.103z"/>
	<path style="fill:#E4EAF6;" d="M441.379,97.103h8.828c4.875,0,8.828-3.953,8.828-8.828c0-4.875-3.953-8.828-8.828-8.828h-8.828
		c-4.875,0-8.828,3.953-8.828,8.828C432.552,93.151,436.504,97.103,441.379,97.103z"/>
	<path style="fill:#E4EAF6;" d="M485.517,79.448h-8.828c-4.875,0-8.828,3.953-8.828,8.828c0,4.875,3.953,8.828,8.828,8.828h8.828
		c4.875,0,8.828-3.953,8.828-8.828C494.345,83.401,490.392,79.448,485.517,79.448z"/>
	<path style="fill:#E4EAF6;" d="M194.207,97.103h211.862c4.875,0,8.828-3.953,8.828-8.828c0-4.875-3.953-8.828-8.828-8.828H194.207
		c-4.875,0-8.828,3.953-8.828,8.828C185.379,93.151,189.332,97.103,194.207,97.103z"/>
</g>
<path style="fill:#FFE169;" d="M61.793,194.207L61.793,194.207c-4.875,0-8.828,3.953-8.828,8.828v158.897
	c0,4.875,3.953,8.828,8.828,8.828l0,0c4.875,0,8.828-3.953,8.828-8.828V203.034C70.621,198.159,66.668,194.207,61.793,194.207z"/>
<path style="fill:#D2DCF0;" d="M61.793,388.414L61.793,388.414c-4.875,0-8.828,3.953-8.828,8.828c0,4.875,3.953,8.828,8.828,8.828
	l0,0c4.875,0,8.828-3.953,8.828-8.828C70.621,392.366,66.668,388.414,61.793,388.414z"/>
<path style="fill:#FF6469;" d="M97.103,141.241L97.103,141.241c-4.875,0-8.828,3.953-8.828,8.828v211.862
	c0,4.875,3.953,8.828,8.828,8.828l0,0c4.875,0,8.828-3.953,8.828-8.828V150.069C105.931,145.194,101.978,141.241,97.103,141.241z"/>
<path style="fill:#D2DCF0;" d="M97.103,388.414L97.103,388.414c-4.875,0-8.828,3.953-8.828,8.828c0,4.875,3.953,8.828,8.828,8.828
	l0,0c4.875,0,8.828-3.953,8.828-8.828C105.931,392.366,101.978,388.414,97.103,388.414z"/>
<path style="fill:#B4E173;" d="M132.414,238.345L132.414,238.345c-4.875,0-8.828,3.953-8.828,8.828v114.759
	c0,4.875,3.953,8.828,8.828,8.828l0,0c4.875,0,8.828-3.953,8.828-8.828V247.172C141.241,242.297,137.289,238.345,132.414,238.345z"
	/>
<path style="fill:#D2DCF0;" d="M132.414,388.414L132.414,388.414c-4.875,0-8.828,3.953-8.828,8.828c0,4.875,3.953,8.828,8.828,8.828
	l0,0c4.875,0,8.828-3.953,8.828-8.828C141.241,392.366,137.289,388.414,132.414,388.414z"/>
<path style="fill:#A0DCF0;" d="M167.724,176.552c-4.875,0-8.828,3.953-8.828,8.828v176.552c0,4.875,3.953,8.828,8.828,8.828
	s8.828-3.953,8.828-8.828V185.379C176.552,180.504,172.599,176.552,167.724,176.552z"/>
<circle style="fill:#D2DCF0;" cx="167.724" cy="397.241" r="8.828"/>
<path style="fill:#C3B4FA;" d="M203.034,300.138c-4.875,0-8.828,3.953-8.828,8.828v52.966c0,4.875,3.953,8.828,8.828,8.828
	s8.828-3.953,8.828-8.828v-52.966C211.862,304.09,207.91,300.138,203.034,300.138z"/>
<circle style="fill:#D2DCF0;" cx="203.034" cy="397.241" r="8.828"/>
<path style="fill:#FFAFD7;" d="M238.345,264.828c-4.875,0-8.828,3.953-8.828,8.828v88.276c0,4.875,3.953,8.828,8.828,8.828
	c4.875,0,8.828-3.953,8.828-8.828v-88.276C247.172,268.78,243.22,264.828,238.345,264.828z"/>
<circle style="fill:#D2DCF0;" cx="238.345" cy="397.241" r="8.828"/>
<g>
	<path style="fill:#FF6469;" d="M282.483,158.897h123.586c4.875,0,8.828-3.953,8.828-8.828c0-4.875-3.953-8.828-8.828-8.828H282.483
		c-4.875,0-8.828,3.953-8.828,8.828C273.655,154.944,277.608,158.897,282.483,158.897z"/>
	<path style="fill:#FF6469;" d="M282.483,194.207h176.552c4.875,0,8.828-3.953,8.828-8.828l0,0c0-4.875-3.953-8.828-8.828-8.828
		H282.483c-4.875,0-8.828,3.953-8.828,8.828l0,0C273.655,190.254,277.608,194.207,282.483,194.207z"/>
</g>
<g>
	<path style="fill:#D2DCF0;" d="M282.483,211.862c-4.875,0-8.828,3.953-8.828,8.828s3.953,8.828,8.828,8.828h17.655
		c4.875,0,8.828-3.953,8.828-8.828s-3.953-8.828-8.828-8.828H282.483z"/>
	<path style="fill:#D2DCF0;" d="M335.448,211.862c-4.875,0-8.828,3.953-8.828,8.828s3.953,8.828,8.828,8.828h17.655
		c4.875,0,8.828-3.953,8.828-8.828s-3.953-8.828-8.828-8.828H335.448z"/>
	<path style="fill:#D2DCF0;" d="M388.414,211.862c-4.875,0-8.828,3.953-8.828,8.828s3.953,8.828,8.828,8.828h17.655
		c4.875,0,8.828-3.953,8.828-8.828s-3.953-8.828-8.828-8.828H388.414z"/>
	<path style="fill:#D2DCF0;" d="M459.034,211.862h-17.655c-4.875,0-8.828,3.953-8.828,8.828s3.953,8.828,8.828,8.828h17.655
		c4.875,0,8.828-3.953,8.828-8.828S463.91,211.862,459.034,211.862z"/>
</g>
<g>
	<path style="fill:#AFBBD0;" d="M282.483,264.828h150.069c4.875,0,8.828-3.953,8.828-8.828s-3.953-8.828-8.828-8.828H282.483
		c-4.875,0-8.828,3.953-8.828,8.828S277.608,264.828,282.483,264.828z"/>
	<path style="fill:#AFBBD0;" d="M467.862,282.483H282.483c-4.875,0-8.828,3.953-8.828,8.828s3.953,8.828,8.828,8.828h185.379
		c4.875,0,8.828-3.953,8.828-8.828S472.737,282.483,467.862,282.483z"/>
	<path style="fill:#AFBBD0;" d="M282.483,335.448h167.724c4.875,0,8.828-3.953,8.828-8.828s-3.953-8.828-8.828-8.828H282.483
		c-4.875,0-8.828,3.953-8.828,8.828S277.608,335.448,282.483,335.448z"/>
	<path style="fill:#AFBBD0;" d="M467.862,353.103H282.483c-4.875,0-8.828,3.953-8.828,8.828s3.953,8.828,8.828,8.828h185.379
		c4.875,0,8.828-3.953,8.828-8.828S472.737,353.103,467.862,353.103z"/>
	<path style="fill:#AFBBD0;" d="M432.552,388.414H282.483c-4.875,0-8.828,3.953-8.828,8.828c0,4.875,3.953,8.828,8.828,8.828
		h150.069c4.875,0,8.828-3.953,8.828-8.828C441.379,392.366,437.427,388.414,432.552,388.414z"/>
</g>
<g>
</g>
<g>
</g>
<g>
</g>
<g>
</g>
<g>
</g>
<g>
</g>
<g>
</g>
<g>
</g>
<g>
</g>
<g>
</g>
<g>
</g>
<g>
</g>
<g>
</g>
<g>
</g>
<g>
</g>
</svg>
