<?xml version="1.0" encoding="iso-8859-1"?>
<!-- Generator: Adobe Illustrator 19.0.0, SVG Export Plug-In . SVG Version: 6.00 Build 0)  -->
<svg version="1.1" id="Layer_1" xmlns="http://www.w3.org/2000/svg" xmlns:xlink="http://www.w3.org/1999/xlink" x="0px" y="0px"
	 viewBox="0 0 512 512" style="enable-background:new 0 0 512 512;" xml:space="preserve">
<path style="fill:#D2DCF0;" d="M485.517,61.793H26.483C11.857,61.793,0,73.65,0,88.276v335.448
	c0,14.626,11.857,26.483,26.483,26.483h459.034c14.626,0,26.483-11.857,26.483-26.483V88.276
	C512,73.65,500.143,61.793,485.517,61.793z M441.379,79.448h8.828c4.875,0,8.828,3.953,8.828,8.828c0,4.875-3.953,8.828-8.828,8.828
	h-8.828c-4.875,0-8.828-3.953-8.828-8.828C432.552,83.401,436.504,79.448,441.379,79.448z M194.207,79.448h211.862
	c4.875,0,8.828,3.953,8.828,8.828c0,4.875-3.953,8.828-8.828,8.828H194.207c-4.875,0-8.828-3.953-8.828-8.828
	C185.379,83.401,189.332,79.448,194.207,79.448z M150.069,79.448h8.828c4.875,0,8.828,3.953,8.828,8.828
	c0,4.875-3.953,8.828-8.828,8.828h-8.828c-4.875,0-8.828-3.953-8.828-8.828C141.241,83.401,145.194,79.448,150.069,79.448z
	 M114.759,79.448h8.828c4.875,0,8.828,3.953,8.828,8.828c0,4.875-3.953,8.828-8.828,8.828h-8.828c-4.875,0-8.828-3.953-8.828-8.828
	C105.931,83.401,109.884,79.448,114.759,79.448z M79.448,79.448c4.875,0,8.828,3.953,8.828,8.828c0,4.875-3.953,8.828-8.828,8.828
	c-4.875,0-8.828-3.953-8.828-8.828C70.621,83.401,74.573,79.448,79.448,79.448z M52.966,79.448c4.875,0,8.828,3.953,8.828,8.828
	c0,4.875-3.953,8.828-8.828,8.828s-8.828-3.953-8.828-8.828C44.138,83.401,48.09,79.448,52.966,79.448z M26.483,79.448
	c4.875,0,8.828,3.953,8.828,8.828c0,4.875-3.953,8.828-8.828,8.828s-8.828-3.953-8.828-8.828
	C17.655,83.401,21.608,79.448,26.483,79.448z M494.345,167.724v256c0,4.875-3.953,8.828-8.828,8.828H26.483
	c-4.875,0-8.828-3.953-8.828-8.828v-256v-44.138c0-4.875,3.953-8.828,8.828-8.828h459.034c4.875,0,8.828,3.953,8.828,8.828V167.724z
	 M485.517,97.103h-8.828c-4.875,0-8.828-3.953-8.828-8.828c0-4.875,3.953-8.828,8.828-8.828h8.828c4.875,0,8.828,3.953,8.828,8.828
	C494.345,93.151,490.392,97.103,485.517,97.103z"/>
<path style="fill:#FFFFFF;" d="M17.655,423.724c0,4.875,3.953,8.828,8.828,8.828h459.034c4.875,0,8.828-3.953,8.828-8.828v-256
	H17.655V423.724z M361.931,203.034c0-1.828,0.556-3.527,1.507-4.936c0.476-0.705,1.05-1.336,1.705-1.877
	c0.654-0.54,1.387-0.988,2.179-1.322c0.792-0.335,1.643-0.558,2.534-0.648c0.297-0.03,0.598-0.046,0.903-0.046h88.276
	c0.305,0,0.606,0.015,0.903,0.046c0.89,0.09,1.741,0.313,2.534,0.648c0.792,0.334,1.525,0.782,2.179,1.322
	c0.219,0.18,0.427,0.37,0.627,0.57c0.399,0.399,0.76,0.836,1.078,1.306c0.952,1.408,1.507,3.107,1.507,4.936v194.207
	c0,0.305-0.015,0.606-0.045,0.903c-0.09,0.891-0.313,1.741-0.648,2.534c-0.894,2.113-2.585,3.805-4.697,4.697
	c-0.792,0.335-1.643,0.558-2.534,0.648c-0.298,0.031-0.599,0.046-0.904,0.046h-88.276c-0.305,0-0.606-0.015-0.903-0.046
	c-0.891-0.09-1.741-0.313-2.534-0.648c-2.112-0.894-3.805-2.585-4.697-4.697c-0.335-0.792-0.557-1.643-0.648-2.534
	c-0.031-0.297-0.046-0.598-0.046-0.903V203.034z M229.517,203.034c0-1.828,0.556-3.527,1.507-4.936
	c0.476-0.705,1.05-1.336,1.705-1.877c0.654-0.54,1.387-0.988,2.179-1.322c0.792-0.335,1.643-0.558,2.534-0.648
	c0.297-0.03,0.598-0.046,0.903-0.046h88.276c0.305,0,0.606,0.015,0.903,0.046c0.89,0.09,1.741,0.313,2.533,0.648
	c0.792,0.334,1.525,0.782,2.179,1.322c0.219,0.18,0.427,0.37,0.627,0.57c0.399,0.399,0.76,0.836,1.078,1.306
	c0.952,1.408,1.507,3.107,1.507,4.936v194.207c0,0.305-0.015,0.606-0.045,0.903c-0.09,0.891-0.313,1.741-0.648,2.534
	c-0.894,2.113-2.585,3.805-4.697,4.697c-0.792,0.335-1.643,0.558-2.534,0.648c-0.298,0.031-0.599,0.046-0.904,0.046h-88.276
	c-0.305,0-0.606-0.015-0.903-0.046c-0.89-0.09-1.741-0.313-2.534-0.648c-2.112-0.894-3.805-2.585-4.697-4.697
	c-0.335-0.792-0.557-1.643-0.648-2.534c-0.031-0.297-0.046-0.598-0.046-0.903V203.034z M44.138,203.034
	c0-1.828,0.556-3.527,1.507-4.936c0.476-0.705,1.05-1.336,1.705-1.877c0.654-0.54,1.387-0.988,2.179-1.322
	c0.792-0.335,1.643-0.558,2.534-0.648c0.297-0.03,0.598-0.045,0.903-0.045h141.241c0.305,0,0.606,0.015,0.903,0.046
	c0.89,0.09,1.741,0.313,2.534,0.648c0.792,0.334,1.525,0.782,2.179,1.322c0.218,0.18,0.427,0.37,0.627,0.57
	c0.399,0.399,0.76,0.836,1.078,1.306c0.952,1.408,1.507,3.107,1.507,4.936v194.207c0,0.305-0.015,0.606-0.045,0.903
	c-0.09,0.89-0.313,1.741-0.648,2.534c-0.894,2.113-2.585,3.805-4.697,4.697c-0.792,0.335-1.643,0.558-2.534,0.648
	c-0.298,0.03-0.599,0.045-0.904,0.045H52.966c-0.305,0-0.606-0.015-0.903-0.046c-0.89-0.09-1.741-0.313-2.534-0.648
	c-2.112-0.894-3.805-2.585-4.697-4.697c-0.335-0.792-0.557-1.643-0.648-2.534c-0.031-0.297-0.046-0.598-0.046-0.903V203.034z"/>
<circle style="fill:#FF6469;" cx="26.483" cy="88.276" r="8.828"/>
<circle style="fill:#FFE169;" cx="52.966" cy="88.276" r="8.828"/>
<circle style="fill:#87E1AA;" cx="79.448" cy="88.276" r="8.828"/>
<g>
	<path style="fill:#E4EAF6;" d="M114.759,97.103h8.828c4.875,0,8.828-3.953,8.828-8.828c0-4.875-3.953-8.828-8.828-8.828h-8.828
		c-4.875,0-8.828,3.953-8.828,8.828C105.931,93.151,109.884,97.103,114.759,97.103z"/>
	<path style="fill:#E4EAF6;" d="M150.069,97.103h8.828c4.875,0,8.828-3.953,8.828-8.828c0-4.875-3.953-8.828-8.828-8.828h-8.828
		c-4.875,0-8.828,3.953-8.828,8.828C141.241,93.151,145.194,97.103,150.069,97.103z"/>
	<path style="fill:#E4EAF6;" d="M441.379,97.103h8.828c4.875,0,8.828-3.953,8.828-8.828c0-4.875-3.953-8.828-8.828-8.828h-8.828
		c-4.875,0-8.828,3.953-8.828,8.828C432.552,93.151,436.504,97.103,441.379,97.103z"/>
	<path style="fill:#E4EAF6;" d="M485.517,79.448h-8.828c-4.875,0-8.828,3.953-8.828,8.828c0,4.875,3.953,8.828,8.828,8.828h8.828
		c4.875,0,8.828-3.953,8.828-8.828C494.345,83.401,490.392,79.448,485.517,79.448z"/>
	<path style="fill:#E4EAF6;" d="M194.207,97.103h211.862c4.875,0,8.828-3.953,8.828-8.828c0-4.875-3.953-8.828-8.828-8.828H194.207
		c-4.875,0-8.828,3.953-8.828,8.828C185.379,93.151,189.332,97.103,194.207,97.103z"/>
</g>
<path style="fill:#AFBBD0;" d="M485.517,114.759H26.483c-4.875,0-8.828,3.953-8.828,8.828v44.138h476.69v-44.138
	C494.345,118.711,490.392,114.759,485.517,114.759z M114.759,150.069H44.138c-4.875,0-8.828-3.953-8.828-8.828
	s3.953-8.828,8.828-8.828h70.621c4.875,0,8.828,3.953,8.828,8.828S119.634,150.069,114.759,150.069z M185.379,150.069h-35.31
	c-4.875,0-8.828-3.953-8.828-8.828s3.953-8.828,8.828-8.828h35.31c4.875,0,8.828,3.953,8.828,8.828S190.254,150.069,185.379,150.069
	z M256,150.069h-35.31c-4.875,0-8.828-3.953-8.828-8.828s3.953-8.828,8.828-8.828H256c4.875,0,8.828,3.953,8.828,8.828
	S260.875,150.069,256,150.069z M326.621,150.069h-35.31c-4.875,0-8.828-3.953-8.828-8.828s3.953-8.828,8.828-8.828h35.31
	c4.875,0,8.828,3.953,8.828,8.828S331.496,150.069,326.621,150.069z M397.241,150.069h-35.31c-4.875,0-8.828-3.953-8.828-8.828
	s3.953-8.828,8.828-8.828h35.31c4.875,0,8.828,3.953,8.828,8.828S402.116,150.069,397.241,150.069z M467.862,150.069h-35.31
	c-4.875,0-8.828-3.953-8.828-8.828s3.953-8.828,8.828-8.828h35.31c4.875,0,8.828,3.953,8.828,8.828S472.737,150.069,467.862,150.069
	z"/>
<path style="fill:#FFFFFF;" d="M114.759,132.414H44.138c-4.875,0-8.828,3.953-8.828,8.828s3.953,8.828,8.828,8.828h70.621
	c4.875,0,8.828-3.953,8.828-8.828S119.634,132.414,114.759,132.414z"/>
<g>
	<path style="fill:#D2DCF0;" d="M185.379,132.414h-35.31c-4.875,0-8.828,3.953-8.828,8.828s3.953,8.828,8.828,8.828h35.31
		c4.875,0,8.828-3.953,8.828-8.828S190.254,132.414,185.379,132.414z"/>
	<path style="fill:#D2DCF0;" d="M256,132.414h-35.31c-4.875,0-8.828,3.953-8.828,8.828s3.953,8.828,8.828,8.828H256
		c4.875,0,8.828-3.953,8.828-8.828S260.875,132.414,256,132.414z"/>
	<path style="fill:#D2DCF0;" d="M326.621,132.414h-35.31c-4.875,0-8.828,3.953-8.828,8.828s3.953,8.828,8.828,8.828h35.31
		c4.875,0,8.828-3.953,8.828-8.828S331.496,132.414,326.621,132.414z"/>
	<path style="fill:#D2DCF0;" d="M397.241,132.414h-35.31c-4.875,0-8.828,3.953-8.828,8.828s3.953,8.828,8.828,8.828h35.31
		c4.875,0,8.828-3.953,8.828-8.828S402.116,132.414,397.241,132.414z"/>
	<path style="fill:#D2DCF0;" d="M467.862,132.414h-35.31c-4.875,0-8.828,3.953-8.828,8.828s3.953,8.828,8.828,8.828h35.31
		c4.875,0,8.828-3.953,8.828-8.828S472.737,132.414,467.862,132.414z"/>
</g>
<g>
	<polygon style="fill:#DEE3ED;" points="112.761,300.138 61.793,228.257 61.793,372.019 	"/>
	<path style="fill:#DEE3ED;" d="M200.449,196.792c0.399,0.399,0.76,0.836,1.078,1.306
		C201.209,197.63,200.849,197.192,200.449,196.792z"/>
	<polygon style="fill:#DEE3ED;" points="123.586,284.873 175.356,211.862 71.817,211.862 	"/>
	<path style="fill:#DEE3ED;" d="M195.11,194.253c0.89,0.09,1.741,0.313,2.534,0.648C196.851,194.566,196,194.343,195.11,194.253z"/>
	<path style="fill:#DEE3ED;" d="M49.529,194.901c0.792-0.335,1.643-0.558,2.534-0.648C51.172,194.343,50.322,194.566,49.529,194.901
		z"/>
	<path style="fill:#DEE3ED;" d="M197.643,194.901c0.792,0.334,1.525,0.782,2.179,1.322
		C199.168,195.683,198.435,195.235,197.643,194.901z"/>
	<path style="fill:#DEE3ED;" d="M197.643,405.375c-0.792,0.335-1.643,0.558-2.534,0.648C196,405.933,196.851,405.71,197.643,405.375
		z"/>
	<polygon style="fill:#DEE3ED;" points="134.411,300.138 185.379,372.019 185.379,228.257 	"/>
	<path style="fill:#DEE3ED;" d="M197.643,405.375c2.112-0.894,3.805-2.585,4.697-4.697
		C201.448,402.79,199.755,404.482,197.643,405.375z"/>
	<path style="fill:#DEE3ED;" d="M44.832,400.678c-0.335-0.792-0.557-1.643-0.648-2.534
		C44.274,399.034,44.497,399.885,44.832,400.678z"/>
	<path style="fill:#DEE3ED;" d="M52.063,406.023c-0.89-0.09-1.741-0.313-2.534-0.648C50.322,405.71,51.172,405.933,52.063,406.023z"
		/>
	<path style="fill:#DEE3ED;" d="M202.989,398.144c-0.09,0.891-0.313,1.741-0.648,2.534
		C202.676,399.885,202.899,399.034,202.989,398.144z"/>
	<polygon style="fill:#DEE3ED;" points="175.356,388.414 123.586,315.403 71.817,388.414 	"/>
	<path style="fill:#DEE3ED;" d="M47.35,196.223c-0.654,0.54-1.229,1.172-1.705,1.877C46.122,197.395,46.697,196.762,47.35,196.223z"
		/>
	<path style="fill:#DEE3ED;" d="M44.832,400.678c0.894,2.113,2.585,3.805,4.697,4.697C47.417,404.482,45.725,402.79,44.832,400.678z
		"/>
	<path style="fill:#DEE3ED;" d="M47.35,196.223c0.654-0.54,1.387-0.988,2.179-1.322C48.737,195.235,48.004,195.683,47.35,196.223z"
		/>
</g>
<path style="fill:#AFBBD0;" d="M44.832,400.678c0.894,2.113,2.585,3.805,4.697,4.697c0.792,0.335,1.643,0.558,2.534,0.648
	c0.297,0.031,0.598,0.046,0.903,0.046h141.241c0.305,0,0.606-0.015,0.903-0.046c0.89-0.09,1.741-0.313,2.534-0.648
	c2.112-0.894,3.805-2.585,4.697-4.697c0.335-0.792,0.557-1.643,0.648-2.534c0.03-0.297,0.045-0.598,0.045-0.903V203.034
	c0-1.828-0.556-3.527-1.507-4.936c-0.318-0.47-0.679-0.907-1.078-1.306c-0.2-0.2-0.408-0.391-0.627-0.57
	c-0.654-0.54-1.387-0.988-2.179-1.322c-0.792-0.335-1.643-0.558-2.534-0.648c-0.296-0.03-0.597-0.045-0.902-0.045H52.966
	c-0.305,0-0.606,0.015-0.903,0.046c-0.89,0.09-1.741,0.313-2.534,0.648c-0.792,0.334-1.525,0.782-2.179,1.322
	c-0.654,0.54-1.229,1.172-1.705,1.877c-0.951,1.408-1.507,3.106-1.507,4.935v194.207c0,0.305,0.015,0.606,0.045,0.903
	C44.274,399.034,44.497,399.885,44.832,400.678z M134.411,300.138l50.968-71.881v143.762L134.411,300.138z M175.356,388.414H71.817
	l51.769-73.011L175.356,388.414z M123.586,284.873l-51.769-73.011h103.54L123.586,284.873z M112.761,300.138l-50.968,71.881V228.257
	L112.761,300.138z"/>
<g>
	<path style="fill:#DEE3ED;" d="M362.625,400.678c-0.335-0.792-0.557-1.643-0.648-2.534
		C362.067,399.034,362.29,399.885,362.625,400.678z"/>
	<path style="fill:#DEE3ED;" d="M362.625,400.678c0.894,2.113,2.585,3.805,4.697,4.697
		C365.21,404.482,363.518,402.79,362.625,400.678z"/>
	<polygon style="fill:#DEE3ED;" points="414.897,276.821 441.471,211.862 388.322,211.862 	"/>
	<polygon style="fill:#DEE3ED;" points="405.357,300.138 379.586,237.141 379.586,363.135 	"/>
	<path style="fill:#DEE3ED;" d="M365.143,196.223c0.654-0.54,1.387-0.988,2.179-1.322
		C366.53,195.235,365.798,195.683,365.143,196.223z"/>
	<path style="fill:#DEE3ED;" d="M459.937,194.253c0.89,0.09,1.741,0.313,2.534,0.648
		C461.678,194.566,460.828,194.343,459.937,194.253z"/>
	<path style="fill:#DEE3ED;" d="M367.322,194.901c0.792-0.335,1.643-0.558,2.534-0.648
		C368.966,194.343,368.115,194.566,367.322,194.901z"/>
	<path style="fill:#DEE3ED;" d="M369.856,406.023c-0.891-0.09-1.741-0.313-2.534-0.648
		C368.115,405.71,368.966,405.933,369.856,406.023z"/>
	<path style="fill:#DEE3ED;" d="M467.817,398.144c-0.09,0.891-0.313,1.741-0.648,2.534
		C467.503,399.885,467.726,399.034,467.817,398.144z"/>
	<polygon style="fill:#DEE3ED;" points="441.471,388.414 414.897,323.455 388.322,388.414 	"/>
	<path style="fill:#DEE3ED;" d="M462.471,194.901c0.792,0.334,1.525,0.782,2.179,1.322
		C463.996,195.683,463.263,195.235,462.471,194.901z"/>
	<path style="fill:#DEE3ED;" d="M365.143,196.223c-0.654,0.54-1.229,1.172-1.705,1.877
		C363.915,197.395,364.49,196.762,365.143,196.223z"/>
	<path style="fill:#DEE3ED;" d="M462.471,405.375c2.112-0.894,3.805-2.585,4.697-4.697
		C466.275,402.79,464.583,404.482,462.471,405.375z"/>
	<path style="fill:#DEE3ED;" d="M465.277,196.792c0.399,0.399,0.76,0.836,1.078,1.306
		C466.037,197.63,465.676,197.192,465.277,196.792z"/>
	<path style="fill:#DEE3ED;" d="M462.471,405.375c-0.792,0.335-1.643,0.558-2.534,0.648
		C460.828,405.933,461.678,405.71,462.471,405.375z"/>
	<polygon style="fill:#DEE3ED;" points="424.436,300.138 450.207,363.135 450.207,237.141 	"/>
</g>
<path style="fill:#AFBBD0;" d="M362.625,400.678c0.894,2.113,2.585,3.805,4.697,4.697c0.792,0.335,1.643,0.558,2.534,0.648
	c0.297,0.03,0.598,0.046,0.903,0.046h88.276c0.305,0,0.606-0.015,0.903-0.046c0.89-0.09,1.741-0.313,2.534-0.648
	c2.112-0.894,3.805-2.585,4.697-4.697c0.335-0.792,0.557-1.643,0.648-2.534c0.03-0.297,0.045-0.598,0.045-0.903V203.034
	c0-1.828-0.556-3.527-1.507-4.936c-0.318-0.47-0.679-0.907-1.078-1.306c-0.2-0.2-0.408-0.391-0.627-0.57
	c-0.654-0.54-1.387-0.988-2.179-1.322c-0.792-0.335-1.643-0.558-2.534-0.648c-0.296-0.03-0.597-0.045-0.901-0.045h-88.276
	c-0.305,0-0.606,0.015-0.903,0.046c-0.891,0.09-1.741,0.313-2.534,0.648c-0.792,0.334-1.525,0.782-2.179,1.322
	c-0.654,0.54-1.229,1.172-1.705,1.877c-0.951,1.408-1.507,3.106-1.507,4.935v194.207c0,0.305,0.015,0.606,0.045,0.903
	C362.067,399.034,362.29,399.885,362.625,400.678z M424.436,300.138l25.771-62.997v125.994L424.436,300.138z M441.471,388.414
	h-53.148l26.573-64.959L441.471,388.414z M414.897,276.821l-26.574-64.959h53.148L414.897,276.821z M405.357,300.138l-25.771,62.997
	V237.141L405.357,300.138z"/>
<g>
	<path style="fill:#DEE3ED;" d="M327.523,194.253c0.89,0.09,1.741,0.313,2.533,0.648
		C329.265,194.566,328.414,194.343,327.523,194.253z"/>
	<path style="fill:#DEE3ED;" d="M330.057,405.375c-0.792,0.335-1.643,0.558-2.534,0.648
		C328.414,405.933,329.265,405.71,330.057,405.375z"/>
	<path style="fill:#DEE3ED;" d="M237.442,406.023c-0.89-0.09-1.741-0.313-2.534-0.648
		C235.701,405.71,236.552,405.933,237.442,406.023z"/>
	<path style="fill:#DEE3ED;" d="M234.909,194.901c0.792-0.335,1.643-0.558,2.534-0.648
		C236.552,194.343,235.701,194.566,234.909,194.901z"/>
	<path style="fill:#DEE3ED;" d="M330.057,405.375c2.112-0.894,3.805-2.585,4.697-4.697
		C333.862,402.79,332.169,404.482,330.057,405.375z"/>
	<path style="fill:#DEE3ED;" d="M330.057,194.901c0.792,0.334,1.525,0.782,2.179,1.322
		C331.582,195.683,330.849,195.235,330.057,194.901z"/>
	<path style="fill:#DEE3ED;" d="M230.211,400.678c-0.335-0.792-0.557-1.643-0.648-2.534
		C229.653,399.034,229.876,399.885,230.211,400.678z"/>
	<path style="fill:#DEE3ED;" d="M332.863,196.792c0.399,0.399,0.76,0.836,1.078,1.306
		C333.623,197.63,333.262,197.192,332.863,196.792z"/>
	<polygon style="fill:#DEE3ED;" points="309.057,388.414 282.483,323.455 255.908,388.414 	"/>
	<polygon style="fill:#DEE3ED;" points="292.022,300.138 317.793,363.135 317.793,237.141 	"/>
	<path style="fill:#DEE3ED;" d="M230.211,400.678c0.894,2.113,2.585,3.805,4.697,4.697
		C232.797,404.482,231.104,402.79,230.211,400.678z"/>
	<path style="fill:#DEE3ED;" d="M232.729,196.223c-0.654,0.54-1.229,1.172-1.705,1.877
		C231.501,197.395,232.076,196.762,232.729,196.223z"/>
	<polygon style="fill:#DEE3ED;" points="272.943,300.138 247.172,237.141 247.172,363.135 	"/>
	<polygon style="fill:#DEE3ED;" points="282.483,276.821 309.057,211.862 255.908,211.862 	"/>
	<path style="fill:#DEE3ED;" d="M335.403,398.144c-0.09,0.891-0.313,1.741-0.648,2.534
		C335.09,399.885,335.313,399.034,335.403,398.144z"/>
	<path style="fill:#DEE3ED;" d="M232.729,196.223c0.654-0.54,1.387-0.988,2.179-1.322
		C234.116,195.235,233.384,195.683,232.729,196.223z"/>
</g>
<path style="fill:#AFBBD0;" d="M230.211,400.678c0.894,2.113,2.585,3.805,4.697,4.697c0.792,0.335,1.643,0.558,2.534,0.648
	c0.297,0.03,0.598,0.046,0.903,0.046h88.276c0.305,0,0.606-0.015,0.903-0.046c0.89-0.09,1.741-0.313,2.533-0.648
	c2.112-0.894,3.805-2.585,4.697-4.697c0.335-0.792,0.557-1.643,0.648-2.534c0.03-0.297,0.045-0.598,0.045-0.903V203.034
	c0-1.828-0.556-3.527-1.507-4.936c-0.318-0.47-0.679-0.907-1.078-1.306c-0.2-0.2-0.408-0.391-0.627-0.57
	c-0.654-0.54-1.387-0.988-2.179-1.322c-0.792-0.335-1.643-0.558-2.534-0.648c-0.296-0.03-0.597-0.045-0.901-0.045h-88.276
	c-0.305,0-0.606,0.015-0.903,0.046c-0.89,0.09-1.741,0.313-2.534,0.648c-0.792,0.334-1.525,0.782-2.179,1.322
	c-0.654,0.54-1.229,1.172-1.705,1.877c-0.951,1.408-1.507,3.106-1.507,4.935v194.207c0,0.305,0.015,0.606,0.045,0.903
	C229.653,399.034,229.876,399.885,230.211,400.678z M292.022,300.138l25.771-62.997v125.994L292.022,300.138z M309.057,388.414
	H255.91l26.573-64.959L309.057,388.414z M282.483,276.821l-26.574-64.959h53.148L282.483,276.821z M272.943,300.138l-25.771,62.997
	V237.141L272.943,300.138z"/>
<g>
</g>
<g>
</g>
<g>
</g>
<g>
</g>
<g>
</g>
<g>
</g>
<g>
</g>
<g>
</g>
<g>
</g>
<g>
</g>
<g>
</g>
<g>
</g>
<g>
</g>
<g>
</g>
<g>
</g>
</svg>
