<?xml version="1.0" encoding="iso-8859-1"?>
<!-- Generator: Adobe Illustrator 19.0.0, SVG Export Plug-In . SVG Version: 6.00 Build 0)  -->
<svg version="1.1" id="Layer_1" xmlns="http://www.w3.org/2000/svg" xmlns:xlink="http://www.w3.org/1999/xlink" x="0px" y="0px"
	 viewBox="0 0 512 512" style="enable-background:new 0 0 512 512;" xml:space="preserve">
<g>
	<path style="fill:#E4EAF6;" d="M129.346,140.745c0.392-0.822,0.81-1.63,1.216-2.443
		C130.156,139.117,129.738,139.923,129.346,140.745z"/>
	<path style="fill:#E4EAF6;" d="M414.897,161.081c-2.207,0-4.367,0.185-6.537,0.33C389.61,99.909,332.462,55.15,264.828,55.15
		c-54.273,0-101.764,28.841-128.109,72.008c10.759-17.585,25.05-32.766,41.856-44.617l0.002-0.002
		c5.146-0.534,10.342-0.905,15.63-0.905c67.635,0,124.782,44.759,143.532,106.261c2.169-0.145,4.33-0.33,6.537-0.33
		c53.629,0,97.103,43.474,97.103,97.103c0,27.862-11.799,52.913-30.595,70.621h4.113c53.629,0,97.103-43.474,97.103-97.103
		S468.525,161.081,414.897,161.081z"/>
	<path style="fill:#E4EAF6;" d="M134.138,131.542c0.782-1.383,1.589-2.751,2.414-4.107
		C135.729,128.793,134.92,130.159,134.138,131.542z"/>
	<path style="fill:#E4EAF6;" d="M131.678,136.072c0.596-1.144,1.218-2.272,1.843-3.398
		C132.896,133.801,132.273,134.928,131.678,136.072z"/>
</g>
<g>
	<path style="fill:#D2DCF0;" d="M105.931,143.426c1.121,0,2.238,0.023,3.35,0.058C108.169,143.45,107.052,143.426,105.931,143.426z"
		/>
	<path style="fill:#D2DCF0;" d="M441.379,284.667c0-53.63-43.475-97.103-97.103-97.103c-2.207,0-4.367,0.185-6.537,0.33
		c-18.75-61.502-75.897-106.261-143.532-106.261c-5.289,0-10.484,0.371-15.63,0.905l-0.002,0.002
		c-16.806,11.851-31.096,27.033-41.856,44.617c-0.056,0.093-0.109,0.186-0.166,0.279c-0.825,1.355-1.632,2.723-2.414,4.107
		c-0.212,0.374-0.409,0.756-0.618,1.132c-0.625,1.127-1.247,2.254-1.843,3.398c-0.384,0.736-0.744,1.486-1.116,2.23
		c-0.407,0.813-0.824,1.621-1.216,2.443c-0.758,1.589-1.491,3.193-2.194,4.813c-1.715-0.349-3.445-0.657-5.188-0.921
		c1.741,0.265,3.468,0.573,5.181,0.92c0.067,0.125,0.138,0.248,0.207,0.373c-47.577,10.407-83.214,52.728-83.214,103.426
		c0,58.505,47.426,105.931,105.931,105.931h52.966v-88.276c0-14.626,11.857-26.483,26.483-26.483h52.966
		c14.626,0,26.483,11.857,26.483,26.483v88.276h101.819C429.58,337.581,441.379,312.529,441.379,284.667z"/>
</g>
<g>
	<path style="fill:#BEC8DC;" d="M282.483,240.529h-52.966c-14.626,0-26.483,11.857-26.483,26.483v88.276h17.655v-88.276
		c0-4.875,3.953-8.828,8.828-8.828h52.966c4.875,0,8.828,3.953,8.828,8.828v88.276h17.655v-88.276
		C308.966,252.387,297.109,240.529,282.483,240.529z"/>
	<path style="fill:#BEC8DC;" d="M44.138,249.357c0-50.698,35.637-93.021,83.213-103.426c-0.07-0.125-0.14-0.248-0.207-0.373
		c-1.713-0.349-3.439-0.655-5.181-0.92c-4.152-0.632-8.385-1.017-12.682-1.152c-1.113-0.034-2.229-0.058-3.35-0.058
		C47.426,143.427,0,190.853,0,249.358s47.426,105.931,105.931,105.931h44.138C91.564,355.288,44.138,307.861,44.138,249.357z"/>
</g>
<path style="fill:#FF6469;" d="M282.483,258.184h-52.966c-4.875,0-8.828,3.953-8.828,8.828v88.276v17.655h-24.317
	c-7.642,0-11.674,9.052-6.561,14.733l59.627,66.252c3.507,3.896,9.617,3.896,13.123,0l59.627-66.252
	c5.112-5.681,1.081-14.733-6.561-14.733H291.31v-17.655v-88.276C291.31,262.138,287.358,258.184,282.483,258.184z"/>
<g>
</g>
<g>
</g>
<g>
</g>
<g>
</g>
<g>
</g>
<g>
</g>
<g>
</g>
<g>
</g>
<g>
</g>
<g>
</g>
<g>
</g>
<g>
</g>
<g>
</g>
<g>
</g>
<g>
</g>
</svg>
