<?xml version="1.0" encoding="iso-8859-1"?>
<!-- Generator: Adobe Illustrator 19.0.0, SVG Export Plug-In . SVG Version: 6.00 Build 0)  -->
<svg version="1.1" id="Layer_1" xmlns="http://www.w3.org/2000/svg" xmlns:xlink="http://www.w3.org/1999/xlink" x="0px" y="0px"
	 viewBox="0 0 512.001 512.001" style="enable-background:new 0 0 512.001 512.001;" xml:space="preserve">
<g>
	<path style="fill:#464655;" d="M440.764,83.719l68.65-68.65c3.448-3.448,3.448-9.035,0-12.483s-9.035-3.448-12.483,0
		l-68.649,68.651C434.363,72.86,439.141,77.637,440.764,83.719z"/>
	<polygon style="fill:#464655;" points="406.069,105.932 393.587,105.932 105.931,393.588 105.931,406.07 118.415,406.07 
		406.069,118.415 	"/>
</g>
<g>
	<path style="fill:#707384;" d="M406.069,494.346c0,9.75,7.905,17.655,17.655,17.655s17.655-7.905,17.655-17.655v-35.31h-35.31
		V494.346z"/>
	<path style="fill:#707384;" d="M393.587,105.932h12.482v12.483V406.07h35.31V88.277c0-1.579-0.227-3.101-0.616-4.557
		c-1.623-6.082-6.401-10.859-12.483-12.483c-1.455-0.387-2.977-0.615-4.556-0.615H105.931v35.31H393.587z"/>
	<path style="fill:#707384;" d="M17.656,70.622C7.906,70.622,0,78.526,0,88.277c0,9.75,7.905,17.655,17.655,17.655h35.31v-35.31
		H17.656z"/>
</g>
<path style="fill:#9FA6B9;" d="M494.345,406.07H441.38h-35.31H118.415h-12.483v-12.483V105.932v-35.31V17.656
	c0-9.75-7.905-17.655-17.655-17.655S70.621,7.906,70.621,17.656v52.966v35.31v317.793c0,9.751,7.905,17.655,17.655,17.655h317.793
	h35.31h52.966c9.75,0,17.655-7.904,17.655-17.655C512,413.975,504.095,406.07,494.345,406.07z"/>
<g>
	<rect x="52.966" y="70.622" style="fill:#464655;" width="17.655" height="35.31"/>
	<rect x="406.069" y="441.38" style="fill:#464655;" width="35.31" height="17.655"/>
</g>
<g>
</g>
<g>
</g>
<g>
</g>
<g>
</g>
<g>
</g>
<g>
</g>
<g>
</g>
<g>
</g>
<g>
</g>
<g>
</g>
<g>
</g>
<g>
</g>
<g>
</g>
<g>
</g>
<g>
</g>
</svg>
