<?xml version="1.0" encoding="iso-8859-1"?>
<!-- Generator: Adobe Illustrator 19.0.0, SVG Export Plug-In . SVG Version: 6.00 Build 0)  -->
<svg version="1.1" id="Layer_1" xmlns="http://www.w3.org/2000/svg" xmlns:xlink="http://www.w3.org/1999/xlink" x="0px" y="0px"
	 viewBox="0 0 512 512" style="enable-background:new 0 0 512 512;" xml:space="preserve">
<g>
	<path style="fill:#91E6BE;" d="M504.61,9.319c-1.089-1.199-2.285-2.298-3.564-3.296C502.325,7.021,503.521,8.12,504.61,9.319z"/>
	<path style="fill:#91E6BE;" d="M506.349,11.425c0.819,1.095,1.561,2.252,2.217,3.461C507.91,13.677,507.168,12.52,506.349,11.425z"
		/>
	<path style="fill:#91E6BE;" d="M509.765,17.372c0.36,0.851,0.679,1.722,0.956,2.613C510.444,19.096,510.125,18.223,509.765,17.372z
		"/>
	<path style="fill:#91E6BE;" d="M510.721,19.986c0.416,1.336,0.735,2.714,0.951,4.127C511.456,22.7,511.137,21.321,510.721,19.986z"
		/>
	<path style="fill:#91E6BE;" d="M10.952,6.023C9.675,7.021,8.479,8.121,7.388,9.319C8.479,8.12,9.675,7.021,10.952,6.023z"/>
	<path style="fill:#91E6BE;" d="M495.198,2.492c0.651,0.293,1.293,0.601,1.916,0.94C496.49,3.095,495.848,2.785,495.198,2.492z"/>
	<path style="fill:#91E6BE;" d="M493.037,28.444c0-5.228-4.254-9.481-9.481-9.481H28.444c-5.228,0-9.481,4.254-9.481,9.481v455.111
		c0,5.228,4.254,9.481,9.481,9.481h455.111c5.228,0,9.481-4.254,9.481-9.481V28.444z M237.037,350.815
		c0,5.241-4.245,9.481-9.481,9.481s-9.481-4.241-9.481-9.481v-43.482L63.592,461.815c-1.851,1.852-4.277,2.778-6.703,2.778
		s-4.852-0.926-6.703-2.778c-3.704-3.704-3.704-9.704,0-13.408l154.482-154.481h-43.482c-5.236,0-9.481-4.241-9.481-9.481
		c0-5.241,4.245-9.482,9.481-9.482h66.37c0.312,0,0.623,0.017,0.935,0.047c0.148,0.014,0.294,0.043,0.44,0.064
		c0.159,0.024,0.316,0.041,0.474,0.072c0.172,0.034,0.339,0.081,0.508,0.124c0.129,0.033,0.26,0.062,0.389,0.1
		c0.173,0.052,0.339,0.116,0.507,0.178c0.121,0.044,0.244,0.084,0.364,0.133c0.168,0.069,0.329,0.151,0.493,0.229
		c0.115,0.056,0.232,0.105,0.345,0.166c0.173,0.092,0.338,0.196,0.504,0.297c0.096,0.059,0.196,0.113,0.289,0.175
		c0.211,0.141,0.412,0.293,0.612,0.449c0.044,0.034,0.09,0.064,0.134,0.1c0.495,0.404,0.948,0.857,1.352,1.352
		c0.036,0.044,0.066,0.09,0.101,0.134c0.156,0.199,0.309,0.401,0.449,0.612c0.06,0.091,0.111,0.186,0.169,0.279
		c0.104,0.169,0.21,0.338,0.305,0.514c0.058,0.11,0.108,0.223,0.161,0.334c0.081,0.166,0.162,0.332,0.233,0.504
		c0.047,0.116,0.087,0.235,0.129,0.353c0.063,0.172,0.128,0.343,0.181,0.519c0.038,0.126,0.065,0.252,0.097,0.379
		c0.044,0.172,0.091,0.341,0.127,0.517c0.031,0.156,0.049,0.314,0.072,0.472c0.021,0.147,0.05,0.293,0.064,0.442
		c0.031,0.311,0.047,0.623,0.047,0.935v66.372H237.037z M237.037,227.556c0,0.312-0.017,0.623-0.047,0.935
		c-0.014,0.149-0.043,0.295-0.064,0.442c-0.023,0.158-0.041,0.315-0.072,0.472c-0.034,0.175-0.082,0.346-0.127,0.517
		c-0.032,0.126-0.059,0.254-0.097,0.378c-0.053,0.177-0.119,0.347-0.183,0.52c-0.043,0.117-0.081,0.236-0.129,0.352
		c-0.071,0.172-0.154,0.338-0.235,0.505c-0.053,0.111-0.102,0.224-0.16,0.333c-0.094,0.177-0.199,0.345-0.305,0.514
		c-0.057,0.092-0.109,0.188-0.169,0.28c-0.141,0.212-0.294,0.415-0.452,0.614c-0.034,0.043-0.063,0.089-0.098,0.132
		c-0.404,0.495-0.857,0.948-1.352,1.352c-0.044,0.036-0.09,0.065-0.135,0.101c-0.198,0.156-0.399,0.308-0.609,0.448
		c-0.096,0.064-0.196,0.117-0.293,0.178c-0.165,0.102-0.329,0.205-0.501,0.296c-0.114,0.06-0.23,0.11-0.345,0.166
		c-0.164,0.078-0.325,0.16-0.493,0.229c-0.12,0.05-0.243,0.089-0.364,0.133c-0.168,0.062-0.335,0.126-0.507,0.178
		c-0.129,0.039-0.261,0.068-0.391,0.101c-0.167,0.043-0.333,0.089-0.505,0.123c-0.159,0.031-0.319,0.05-0.479,0.073
		c-0.146,0.021-0.289,0.049-0.436,0.063c-0.311,0.031-0.622,0.047-0.935,0.047h-66.37c-5.236,0-9.481-4.241-9.481-9.481
		c0-5.241,4.245-9.481,9.481-9.481h43.482L50.186,63.592c-3.704-3.704-3.704-9.704,0-13.408c3.704-3.704,9.704-3.704,13.408,0
		l154.481,154.483v-43.482c0-5.241,4.245-9.481,9.481-9.481s9.481,4.241,9.481,9.481V227.556z M461.815,461.815
		c-1.851,1.852-4.277,2.778-6.703,2.778c-2.426,0-4.852-0.926-6.703-2.778L293.926,307.334v43.481c0,5.241-4.245,9.481-9.481,9.481
		s-9.481-4.241-9.481-9.481v-66.37c0-0.312,0.017-0.625,0.047-0.935c0.014-0.149,0.043-0.295,0.064-0.442
		c0.023-0.158,0.042-0.315,0.072-0.472c0.034-0.175,0.082-0.345,0.127-0.517c0.032-0.127,0.059-0.254,0.097-0.379
		c0.053-0.177,0.119-0.347,0.181-0.519c0.043-0.117,0.082-0.236,0.129-0.353c0.071-0.172,0.153-0.337,0.233-0.504
		c0.053-0.111,0.103-0.224,0.161-0.334c0.094-0.177,0.199-0.345,0.305-0.514c0.057-0.092,0.109-0.187,0.169-0.279
		c0.141-0.211,0.293-0.412,0.449-0.612c0.034-0.044,0.065-0.09,0.101-0.134c0.404-0.495,0.858-0.948,1.352-1.352
		c0.042-0.034,0.087-0.063,0.129-0.097c0.199-0.158,0.403-0.311,0.615-0.453c0.095-0.063,0.193-0.116,0.289-0.175
		c0.166-0.102,0.332-0.206,0.505-0.299c0.113-0.06,0.229-0.11,0.344-0.166c0.164-0.079,0.326-0.16,0.494-0.229
		c0.12-0.05,0.242-0.089,0.364-0.133c0.168-0.062,0.335-0.126,0.508-0.178c0.128-0.038,0.258-0.066,0.388-0.1
		c0.169-0.043,0.337-0.09,0.51-0.124c0.156-0.031,0.315-0.049,0.474-0.072c0.147-0.021,0.292-0.05,0.441-0.064
		c0.31-0.031,0.622-0.047,0.934-0.047h66.37c5.236,0,9.481,4.241,9.481,9.481s-4.245,9.481-9.481,9.481h-43.482l154.482,154.482
		C465.518,452.111,465.518,458.111,461.815,461.815z M461.815,63.592L307.334,218.074h43.481c5.236,0,9.481,4.241,9.481,9.481
		s-4.245,9.481-9.481,9.481h-66.37c-0.312,0-0.623-0.017-0.934-0.047c-0.148-0.014-0.292-0.041-0.437-0.063
		c-0.16-0.024-0.32-0.041-0.478-0.073c-0.172-0.034-0.338-0.081-0.506-0.123c-0.13-0.033-0.262-0.062-0.39-0.101
		c-0.173-0.052-0.34-0.116-0.508-0.178c-0.121-0.044-0.244-0.084-0.364-0.133c-0.168-0.07-0.331-0.151-0.494-0.229
		c-0.115-0.056-0.231-0.105-0.344-0.166c-0.172-0.091-0.337-0.194-0.503-0.296c-0.097-0.059-0.197-0.114-0.292-0.178
		c-0.211-0.141-0.414-0.294-0.613-0.45c-0.043-0.034-0.088-0.063-0.13-0.097c-0.495-0.404-0.948-0.858-1.353-1.353
		c-0.036-0.043-0.064-0.089-0.098-0.132c-0.158-0.199-0.311-0.402-0.452-0.614c-0.06-0.091-0.113-0.186-0.169-0.28
		c-0.104-0.169-0.21-0.338-0.305-0.514c-0.058-0.109-0.107-0.222-0.16-0.333c-0.081-0.167-0.164-0.333-0.235-0.505
		c-0.047-0.116-0.085-0.235-0.129-0.352c-0.063-0.172-0.129-0.344-0.183-0.52c-0.038-0.124-0.065-0.252-0.097-0.378
		c-0.044-0.172-0.091-0.341-0.127-0.517c-0.031-0.156-0.049-0.314-0.072-0.472c-0.021-0.147-0.05-0.293-0.064-0.442
		c-0.031-0.311-0.047-0.623-0.047-0.935v-66.37c0-5.241,4.245-9.481,9.481-9.481s9.481,4.241,9.481,9.481v43.482L448.408,50.185
		c3.704-3.704,9.704-3.704,13.408,0C465.519,53.889,465.518,59.889,461.815,63.592z"/>
	<path style="fill:#91E6BE;" d="M504.61,9.319c0.612,0.673,1.192,1.376,1.739,2.106C505.803,10.695,505.223,9.992,504.61,9.319z"/>
	<path style="fill:#91E6BE;" d="M20.284,1.193c0.796-0.238,1.604-0.448,2.427-0.616C21.888,0.747,21.081,0.956,20.284,1.193z"/>
	<path style="fill:#91E6BE;" d="M14.886,3.433c0.623-0.339,1.266-0.648,1.916-0.94C16.152,2.785,15.511,3.095,14.886,3.433z"/>
	<path style="fill:#91E6BE;" d="M489.288,0.578c0.824,0.168,1.632,0.378,2.427,0.616C490.92,0.956,490.112,0.747,489.288,0.578z"/>
	<path style="fill:#91E6BE;" d="M5.651,11.425c0.546-0.73,1.126-1.433,1.739-2.106C6.777,9.992,6.197,10.695,5.651,11.425z"/>
	<path style="fill:#91E6BE;" d="M1.279,19.986c0.277-0.891,0.596-1.762,0.956-2.613C1.875,18.223,1.556,19.096,1.279,19.986z"/>
	<path style="fill:#91E6BE;" d="M0.328,24.113c0.216-1.413,0.536-2.79,0.951-4.127C0.863,21.321,0.544,22.7,0.328,24.113z"/>
	<path style="fill:#91E6BE;" d="M3.433,14.886c0.657-1.209,1.399-2.366,2.217-3.461C4.832,12.52,4.09,13.677,3.433,14.886z"/>
</g>
<g>
	<path style="fill:#FFFFFF;" d="M307.334,293.926h43.481c5.236,0,9.481-4.241,9.481-9.481c0-5.241-4.245-9.482-9.481-9.482h-66.37
		c-0.312,0-0.623,0.017-0.934,0.047c-0.149,0.014-0.294,0.043-0.441,0.064c-0.158,0.024-0.316,0.041-0.474,0.072
		c-0.173,0.034-0.34,0.081-0.51,0.124c-0.129,0.033-0.26,0.062-0.388,0.1c-0.173,0.052-0.34,0.116-0.508,0.178
		c-0.121,0.044-0.244,0.084-0.364,0.133c-0.168,0.07-0.331,0.151-0.494,0.229c-0.115,0.056-0.231,0.105-0.344,0.166
		c-0.173,0.092-0.338,0.196-0.505,0.299c-0.096,0.059-0.194,0.113-0.289,0.175c-0.212,0.141-0.416,0.295-0.615,0.453
		c-0.043,0.033-0.088,0.062-0.129,0.097c-0.495,0.404-0.948,0.858-1.352,1.352c-0.036,0.044-0.066,0.09-0.101,0.134
		c-0.156,0.199-0.309,0.401-0.449,0.612c-0.06,0.091-0.111,0.186-0.169,0.279c-0.104,0.169-0.21,0.338-0.305,0.514
		c-0.058,0.11-0.108,0.223-0.161,0.334c-0.081,0.166-0.162,0.332-0.233,0.504c-0.047,0.116-0.087,0.235-0.129,0.353
		c-0.063,0.172-0.128,0.343-0.181,0.519c-0.038,0.126-0.065,0.252-0.097,0.379c-0.044,0.172-0.091,0.341-0.127,0.517
		c-0.031,0.156-0.049,0.314-0.072,0.472c-0.021,0.147-0.05,0.293-0.064,0.442c-0.031,0.31-0.047,0.623-0.047,0.935v66.37
		c0,5.241,4.245,9.481,9.481,9.481s9.481-4.241,9.481-9.481v-43.482l154.482,154.482c1.852,1.852,4.277,2.778,6.703,2.778
		c2.426,0,4.852-0.926,6.703-2.778c3.704-3.704,3.704-9.704,0-13.408L307.334,293.926z"/>
	<path style="fill:#FFFFFF;" d="M448.408,50.185L293.926,204.667v-43.482c0-5.241-4.245-9.481-9.481-9.481s-9.481,4.241-9.481,9.481
		v66.37c0,0.312,0.017,0.623,0.047,0.935c0.014,0.149,0.043,0.295,0.064,0.442c0.023,0.158,0.042,0.315,0.072,0.472
		c0.034,0.175,0.082,0.346,0.127,0.517c0.032,0.126,0.059,0.254,0.097,0.378c0.053,0.177,0.119,0.347,0.183,0.52
		c0.043,0.117,0.081,0.236,0.129,0.352c0.071,0.172,0.154,0.338,0.235,0.505c0.053,0.111,0.102,0.224,0.16,0.333
		c0.094,0.177,0.199,0.345,0.305,0.514c0.057,0.092,0.109,0.188,0.169,0.28c0.141,0.212,0.294,0.415,0.452,0.614
		c0.034,0.043,0.063,0.089,0.098,0.132c0.404,0.495,0.858,0.948,1.353,1.353c0.043,0.034,0.088,0.064,0.13,0.097
		c0.199,0.156,0.402,0.311,0.613,0.45c0.096,0.064,0.194,0.117,0.292,0.178c0.166,0.102,0.329,0.205,0.503,0.296
		c0.113,0.06,0.229,0.11,0.344,0.166c0.164,0.079,0.326,0.16,0.494,0.229c0.12,0.05,0.242,0.089,0.364,0.133
		c0.168,0.062,0.335,0.126,0.508,0.178c0.129,0.039,0.26,0.068,0.39,0.101c0.168,0.043,0.334,0.09,0.506,0.123
		c0.159,0.031,0.319,0.05,0.478,0.073c0.146,0.021,0.289,0.049,0.437,0.063c0.31,0.031,0.622,0.047,0.934,0.047h66.37
		c5.236,0,9.481-4.241,9.481-9.481c0-5.241-4.245-9.481-9.481-9.481h-43.482L461.815,63.592c3.704-3.704,3.704-9.704,0-13.408
		S452.111,46.482,448.408,50.185z"/>
	<path style="fill:#FFFFFF;" d="M236.926,283.067c-0.023-0.158-0.041-0.315-0.072-0.472c-0.034-0.175-0.082-0.345-0.127-0.517
		c-0.032-0.127-0.059-0.254-0.097-0.379c-0.053-0.177-0.119-0.347-0.181-0.519c-0.043-0.117-0.082-0.236-0.129-0.353
		c-0.071-0.172-0.153-0.337-0.233-0.504c-0.053-0.111-0.103-0.224-0.161-0.334c-0.094-0.177-0.199-0.345-0.305-0.514
		c-0.057-0.092-0.109-0.187-0.169-0.279c-0.141-0.211-0.293-0.412-0.449-0.612c-0.034-0.044-0.065-0.09-0.101-0.134
		c-0.404-0.495-0.857-0.948-1.352-1.352c-0.044-0.036-0.09-0.065-0.134-0.1c-0.198-0.156-0.401-0.309-0.612-0.449
		c-0.095-0.063-0.193-0.116-0.289-0.175c-0.166-0.102-0.331-0.205-0.504-0.297c-0.113-0.06-0.23-0.11-0.345-0.166
		c-0.164-0.078-0.325-0.16-0.493-0.229c-0.12-0.05-0.243-0.089-0.364-0.133c-0.168-0.062-0.335-0.126-0.507-0.178
		c-0.128-0.039-0.258-0.066-0.389-0.1c-0.168-0.043-0.337-0.09-0.508-0.124c-0.158-0.031-0.315-0.05-0.474-0.072
		c-0.147-0.021-0.292-0.049-0.44-0.064c-0.311-0.031-0.622-0.047-0.935-0.047h-66.37c-5.236,0-9.481,4.241-9.481,9.482
		c0,5.241,4.245,9.481,9.481,9.481h43.482L50.186,448.408c-3.704,3.704-3.704,9.704,0,13.408c1.851,1.851,4.277,2.777,6.703,2.777
		s4.852-0.926,6.703-2.778l154.482-154.481v43.481c0,5.241,4.245,9.481,9.481,9.481s9.481-4.241,9.481-9.481v-66.37
		c0-0.312-0.017-0.625-0.047-0.935C236.975,283.36,236.947,283.215,236.926,283.067z"/>
	<path style="fill:#FFFFFF;" d="M227.556,151.704c-5.236,0-9.481,4.241-9.481,9.481v43.482L63.592,50.185
		c-3.704-3.704-9.704-3.704-13.408,0c-3.704,3.704-3.704,9.704,0,13.408l154.483,154.481h-43.482c-5.236,0-9.481,4.241-9.481,9.481
		s4.245,9.481,9.481,9.481h66.37c0.312,0,0.623-0.017,0.935-0.047c0.148-0.014,0.29-0.041,0.436-0.063
		c0.16-0.024,0.32-0.041,0.479-0.073c0.171-0.034,0.337-0.081,0.505-0.123c0.13-0.033,0.262-0.062,0.391-0.101
		c0.173-0.052,0.339-0.116,0.507-0.178c0.121-0.044,0.244-0.084,0.364-0.133c0.168-0.069,0.329-0.151,0.493-0.229
		c0.115-0.056,0.232-0.105,0.345-0.166c0.172-0.091,0.335-0.194,0.501-0.296c0.097-0.06,0.197-0.114,0.293-0.178
		c0.21-0.14,0.411-0.293,0.609-0.448c0.044-0.036,0.091-0.065,0.135-0.101c0.495-0.404,0.948-0.858,1.352-1.352
		c0.036-0.043,0.064-0.089,0.098-0.132c0.158-0.199,0.311-0.402,0.452-0.614c0.06-0.091,0.113-0.186,0.169-0.28
		c0.104-0.169,0.21-0.338,0.305-0.514c0.058-0.109,0.107-0.222,0.16-0.333c0.081-0.167,0.164-0.333,0.235-0.505
		c0.047-0.116,0.085-0.235,0.129-0.352c0.063-0.172,0.129-0.344,0.183-0.52c0.038-0.124,0.065-0.252,0.097-0.378
		c0.044-0.172,0.091-0.341,0.127-0.517c0.031-0.156,0.049-0.314,0.072-0.472c0.021-0.147,0.05-0.293,0.064-0.442
		c0.031-0.311,0.047-0.623,0.047-0.935v-66.37C237.037,155.944,232.792,151.704,227.556,151.704z"/>
</g>
<path style="fill:#61CEAC;" d="M511.672,24.113c-0.216-1.413-0.536-2.79-0.951-4.127c-0.277-0.891-0.596-1.762-0.956-2.613
	c-0.36-0.851-0.76-1.681-1.198-2.487c-0.657-1.209-1.398-2.366-2.217-3.461c-0.546-0.73-1.126-1.433-1.739-2.106
	c-1.089-1.199-2.285-2.298-3.564-3.296c-0.517-0.404-1.043-0.796-1.588-1.165c-0.756-0.511-1.54-0.987-2.345-1.425
	c-0.623-0.339-1.266-0.648-1.916-0.94c-1.124-0.505-2.285-0.941-3.482-1.299c-0.795-0.238-1.604-0.448-2.427-0.616
	C487.437,0.199,485.519,0,483.556,0H28.444c-1.964,0-3.881,0.199-5.733,0.578c-0.824,0.168-1.632,0.378-2.427,0.616
	c-1.196,0.358-2.357,0.794-3.482,1.299c-0.651,0.293-1.293,0.601-1.916,0.94c-0.806,0.437-1.588,0.914-2.345,1.425
	c-0.545,0.369-1.071,0.761-1.588,1.165C9.675,7.021,8.479,8.121,7.388,9.319c-0.612,0.673-1.191,1.376-1.737,2.106
	c-0.819,1.095-1.561,2.252-2.217,3.461c-0.439,0.806-0.838,1.636-1.198,2.487s-0.679,1.722-0.956,2.613
	c-0.416,1.336-0.735,2.714-0.951,4.127C0.111,25.525,0,26.971,0,28.444v455.111c0,2.455,0.311,4.837,0.896,7.109
	c0.584,2.272,1.442,4.434,2.537,6.45c0.437,0.806,0.914,1.588,1.425,2.345c2.044,3.026,4.657,5.638,7.682,7.682
	c0.756,0.511,1.54,0.987,2.345,1.425c2.015,1.095,4.178,1.953,6.45,2.537c2.272,0.586,4.654,0.896,7.109,0.896h455.111
	c2.455,0,4.837-0.311,7.109-0.896c2.272-0.584,4.434-1.442,6.45-2.537c0.806-0.437,1.588-0.914,2.345-1.425
	c3.027-2.044,5.638-4.657,7.682-7.682c0.511-0.756,0.987-1.54,1.425-2.345c1.095-2.015,1.953-4.178,2.537-6.45
	c0.584-2.272,0.896-4.654,0.896-7.109V28.444C512,26.971,511.889,25.525,511.672,24.113z M483.556,493.037H28.444
	c-5.228,0-9.481-4.254-9.481-9.481V28.444c0-5.228,4.254-9.481,9.481-9.481h455.111c5.228,0,9.481,4.254,9.481,9.481v455.111
	C493.037,488.783,488.783,493.037,483.556,493.037z"/>
<g>
</g>
<g>
</g>
<g>
</g>
<g>
</g>
<g>
</g>
<g>
</g>
<g>
</g>
<g>
</g>
<g>
</g>
<g>
</g>
<g>
</g>
<g>
</g>
<g>
</g>
<g>
</g>
<g>
</g>
</svg>
