<?xml version="1.0" encoding="iso-8859-1"?>
<!-- Generator: Adobe Illustrator 19.0.0, SVG Export Plug-In . SVG Version: 6.00 Build 0)  -->
<svg version="1.1" id="Layer_1" xmlns="http://www.w3.org/2000/svg" xmlns:xlink="http://www.w3.org/1999/xlink" x="0px" y="0px"
	 viewBox="0 0 512 512" style="enable-background:new 0 0 512 512;" xml:space="preserve">
<path style="fill:#BEC8DC;" d="M335.448,335.448c9.751,0,17.655-7.904,17.655-17.655v-17.655H0v17.655
	c0,9.751,7.904,17.655,17.655,17.655h114.759h88.276H335.448z M176.552,326.621c-4.875,0-8.828-3.953-8.828-8.828
	s3.953-8.828,8.828-8.828s8.828,3.953,8.828,8.828S181.427,326.621,176.552,326.621z"/>
<path style="fill:#464655;" d="M353.103,150.069h-17.651h-0.004v132.414H17.655V105.931h292.291l1.962-17.655H17.655
	C7.904,88.276,0,96.18,0,105.931v194.207h353.103V150.069z"/>
<path style="fill:#FF6469;" d="M293.789,150.069c-5.743,0-9.956-5.397-8.564-10.968l2.742-10.968c0.059-0.235,0.137-0.46,0.204-0.69
	c0.085-0.291,0.168-0.584,0.267-0.867c2.457-7.02,9.102-11.816,16.657-11.816l0,0h3.871l0.981-8.828H17.655v176.552h317.793V150.069
	H293.789L293.789,150.069z"/>
<polygon style="fill:#AFBBD0;" points="225.103,353.103 128,353.103 123.586,370.759 229.517,370.759 "/>
<path style="fill:#BEC8DC;" d="M238.345,379.586c0-4.875-3.953-8.828-8.828-8.828H123.586c-4.875,0-8.828,3.953-8.828,8.828
	s3.953,8.828,8.828,8.828h105.931C234.392,388.414,238.345,384.461,238.345,379.586z"/>
<g>
	<polygon style="fill:#96A5B9;" points="220.69,335.448 132.414,335.448 128,353.103 225.103,353.103 	"/>
	<circle style="fill:#96A5B9;" cx="176.552" cy="317.793" r="8.828"/>
</g>
<g>
	<path style="fill:#707384;" d="M503.172,388.414h-44.138h-79.448h-44.138H229.517H123.586H8.828c-4.875,0-8.828,3.953-8.828,8.828
		v8.828c0,4.875,3.953,8.828,8.828,8.828h17.655h35.31h388.414h35.31h17.655c4.875,0,8.828-3.953,8.828-8.828v-8.828
		C512,392.366,508.047,388.414,503.172,388.414z"/>
	<path style="fill:#707384;" d="M26.483,467.862c0,4.875,3.953,8.828,8.828,8.828h17.655c4.875,0,8.828-3.953,8.828-8.828v-35.31
		h-35.31V467.862z"/>
</g>
<rect x="26.483" y="414.897" style="fill:#464655;" width="35.31" height="17.655"/>
<path style="fill:#707384;" d="M450.207,467.862c0,4.875,3.953,8.828,8.828,8.828h17.655c4.875,0,8.828-3.953,8.828-8.828v-35.31
	h-35.31V467.862z"/>
<g>
	<rect x="450.207" y="414.897" style="fill:#464655;" width="35.31" height="17.655"/>
	<path style="fill:#464655;" d="M450.207,114.759c-1.213,0-2.396-0.124-3.54-0.356l34.474,103.422
		c3.235-3.649,7.944-5.962,13.204-5.962c1.213,0,2.396,0.124,3.54,0.356l-34.474-103.422
		C460.175,112.446,455.467,114.759,450.207,114.759z"/>
	<path style="fill:#464655;" d="M434.933,105.931c-1.505-2.599-2.381-5.608-2.381-8.828s0.876-6.229,2.381-8.828h-40.634
		l1.962,17.655H434.933z"/>
	<path style="fill:#464655;" d="M480.139,239.969l-49.495,113.134h5.779c4.382,0,8.452,1.623,11.584,4.349l48.298-110.394
		c-0.645,0.072-1.296,0.115-1.96,0.115C488.511,247.172,483.354,244.331,480.139,239.969z"/>
</g>
<g>
	<path style="fill:#FFB969;" d="M341.404,364.919c-0.099,0.284-0.181,0.576-0.267,0.867
		C341.221,365.495,341.304,365.203,341.404,364.919z"/>
	<path style="fill:#FFB969;" d="M430.644,353.103h-28.445c-8.102,0-15.162,5.514-17.128,13.373l-5.485,21.938h79.448l-5.484-21.938
		c-0.902-3.608-2.887-6.711-5.545-9.024c-3.132-2.726-7.201-4.349-11.584-4.349L430.644,353.103L430.644,353.103z"/>
	<path style="fill:#FFB969;" d="M420.982,139.101l-2.742-10.968c-1.965-7.86-9.026-13.373-17.128-13.373h-3.871h-50.483
		c-8.102,0-15.164,5.514-17.128,13.373l-2.742,10.968c-1.393,5.571,2.822,10.968,8.564,10.968h17.651h59.315
		C418.161,150.069,422.375,144.672,420.982,139.101z"/>
	<path style="fill:#FFB969;" d="M288.438,126.574c-0.099,0.284-0.181,0.576-0.267,0.867
		C288.256,127.15,288.339,126.858,288.438,126.574z"/>
</g>
<g>
	<path style="fill:#FFCD73;" d="M341.658,58.869l-6.21,55.89h11.31h50.483l-0.981-8.828l-1.962-17.655l-3.267-29.407
		c-1.49-13.412-12.826-23.559-26.321-23.559c0.557,0,1.085,0.119,1.634,0.153C353.592,36.256,343.087,46.01,341.658,58.869z"/>
	<path style="fill:#FFCD73;" d="M308.966,114.759l6.21-55.89c1.21-10.897,8.921-19.638,19.008-22.534
		c-10.087,2.895-17.798,11.636-19.009,22.534l-3.266,29.407l-1.962,17.655L308.966,114.759z"/>
</g>
<path style="fill:#FFA765;" d="M326.889,139.101l2.742-10.968c1.964-7.86,9.026-13.373,17.128-13.373h-11.31h-26.483h-3.871l0,0
	c-7.554,0-14.2,4.796-16.657,11.816c-0.099,0.284-0.181,0.576-0.267,0.867c-0.067,0.231-0.146,0.456-0.204,0.69l-2.742,10.968
	c-1.393,5.571,2.822,10.968,8.564,10.968l0,0h41.66h0.004C329.709,150.069,325.495,144.672,326.889,139.101z"/>
<path style="fill:#FFB969;" d="M315.176,58.869l-6.21,55.89h26.483l6.21-55.89c1.429-12.857,11.934-22.613,24.686-23.405
	c-0.549-0.034-1.077-0.153-1.634-0.153l0,0l0,0h-23.214l0,0c-0.843,0-1.678,0.04-2.503,0.117c-1.65,0.156-3.257,0.462-4.809,0.908
	C324.097,39.23,316.386,47.971,315.176,58.869z"/>
<g>
	<path style="fill:#707384;" d="M434.933,105.931c2.487,4.294,6.718,7.45,11.734,8.471c1.143,0.233,2.327,0.356,3.54,0.356
		c5.26,0,9.969-2.313,13.204-5.963c2.761-3.115,4.451-7.201,4.451-11.692c0-9.751-7.904-17.655-17.655-17.655
		c-6.531,0-12.22,3.555-15.274,8.828c-1.505,2.599-2.381,5.608-2.381,8.828S433.428,103.332,434.933,105.931z"/>
	<path style="fill:#707384;" d="M481.141,217.825c-2.761,3.115-4.451,7.201-4.451,11.692c0,3.917,1.291,7.523,3.449,10.452
		c3.215,4.362,8.372,7.203,14.206,7.203c0.663,0,1.314-0.043,1.959-0.115c8.828-0.975,15.697-8.452,15.697-17.54
		c0-8.538-6.061-15.66-14.115-17.299c-1.144-0.233-2.327-0.356-3.54-0.356C489.085,211.862,484.376,214.175,481.141,217.825z"/>
</g>
<path style="fill:#FFA765;" d="M402.198,353.103H358.06l0,0c-7.554,0-14.2,4.796-16.657,11.816
	c-0.099,0.284-0.181,0.576-0.267,0.867c-0.067,0.231-0.146,0.456-0.204,0.691l-5.484,21.937h44.138l5.484-21.938
	C387.036,358.617,394.097,353.103,402.198,353.103z"/>
<g>
</g>
<g>
</g>
<g>
</g>
<g>
</g>
<g>
</g>
<g>
</g>
<g>
</g>
<g>
</g>
<g>
</g>
<g>
</g>
<g>
</g>
<g>
</g>
<g>
</g>
<g>
</g>
<g>
</g>
</svg>
