<?xml version="1.0" encoding="iso-8859-1"?>
<!-- Generator: Adobe Illustrator 19.0.0, SVG Export Plug-In . SVG Version: 6.00 Build 0)  -->
<svg version="1.1" id="Layer_1" xmlns="http://www.w3.org/2000/svg" xmlns:xlink="http://www.w3.org/1999/xlink" x="0px" y="0px"
	 viewBox="0 0 512 512" style="enable-background:new 0 0 512 512;" xml:space="preserve">
<g>
	<path style="fill:#464655;" d="M419.766,141.553l-53.622,32.173c0.119,0.928,0.201,1.866,0.201,2.826
		c0,9.047-5.45,16.813-13.241,20.221v253.434h70.621v-306.4C422.321,143.193,421,142.432,419.766,141.553z"/>
	<path style="fill:#464655;" d="M233.931,344.276c0-1.495,0.152-2.956,0.436-4.367L179.212,301.3c-0.853,0.522-1.736,1-2.66,1.404
		v147.503h70.621v-85.71C239.381,361.089,233.931,353.323,233.931,344.276z"/>
	<path style="fill:#464655;" d="M273.225,330.499c3.025,3.777,4.844,8.562,4.844,13.777c0,9.047-5.45,16.813-13.241,20.221v85.71
		h70.621V212.276L273.225,330.499z"/>
	<path style="fill:#464655;" d="M485.517,61.793H26.483C11.857,61.793,0,73.65,0,88.276v335.448
		c0,14.626,11.857,26.483,26.483,26.483h44.138v-68.055c-7.791-3.406-13.241-11.172-13.241-20.221
		c0-12.189,9.88-22.069,22.069-22.069c3.255,0,6.336,0.723,9.118,1.988l58.228-52.405c-0.728-2.191-1.139-4.527-1.139-6.963
		c0-12.189,9.88-22.069,22.069-22.069s22.069,9.88,22.069,22.069c0,1.495-0.152,2.955-0.436,4.367l55.155,38.609
		c3.349-2.049,7.274-3.252,11.488-3.252c0.54,0,1.068,0.043,1.598,0.081l69.452-131.959c-3.025-3.777-4.844-8.562-4.844-13.777
		c0-12.189,9.88-22.069,22.069-22.069c4.771,0,9.176,1.529,12.786,4.103l53.622-32.173c-0.118-0.927-0.2-1.866-0.2-2.826
		c0-12.189,9.88-22.069,22.069-22.069c12.189,0,22.069,9.88,22.069,22.069c0,9.047-5.45,16.813-13.241,20.221v306.4h44.138
		c14.626,0,26.483-11.857,26.483-26.483V88.276C512,73.65,500.143,61.793,485.517,61.793z"/>
	<path style="fill:#464655;" d="M158.606,302.563l-58.228,52.405c0.729,2.191,1.139,4.527,1.139,6.963
		c0,9.047-5.45,16.813-13.241,20.221v68.055h70.621V302.703C158.798,302.66,158.705,302.609,158.606,302.563z"/>
</g>
<g>
	<path style="fill:#707384;" d="M100.378,354.968l58.228-52.405c-5.553-2.526-9.869-7.274-11.814-13.118L88.565,341.85
		C94.119,344.376,98.435,349.124,100.378,354.968z"/>
	<path style="fill:#707384;" d="M179.212,301.3l55.155,38.609c1.228-6.116,4.996-11.298,10.145-14.449l-55.155-38.609
		C188.128,292.967,184.361,298.15,179.212,301.3z"/>
	<path style="fill:#707384;" d="M273.225,330.499l62.223-118.223v-15.503c-3.3-1.443-6.175-3.669-8.397-6.444l-69.452,131.959
		C263.916,322.742,269.494,325.841,273.225,330.499z"/>
	<path style="fill:#707384;" d="M366.144,173.726l53.622-32.173c-4.886-3.484-8.284-8.899-9.082-15.14l-53.622,32.173
		C361.948,162.069,365.344,167.486,366.144,173.726z"/>
</g>
<path style="fill:#BE4650;" d="M167.724,304.552c-3.14,0-6.123-0.667-8.828-1.848v147.503h17.655V302.703
	C173.847,303.885,170.865,304.552,167.724,304.552z"/>
<path style="fill:#FF6469;" d="M158.606,302.563c0.098,0.044,0.191,0.096,0.29,0.139c2.705,1.183,5.687,1.848,8.828,1.848
	s6.123-0.666,8.828-1.848c0.925-0.404,1.807-0.882,2.66-1.404c5.149-3.15,8.916-8.332,10.144-14.449
	c0.284-1.412,0.436-2.872,0.436-4.367c0-12.189-9.88-22.069-22.069-22.069c-12.189,0-22.069,9.88-22.069,22.069
	c0,2.435,0.409,4.771,1.139,6.963C148.737,295.289,153.054,300.038,158.606,302.563z"/>
<path style="fill:#FFAF5A;" d="M79.448,384c-3.14,0-6.123-0.666-8.828-1.848v68.055h17.655v-68.055
	C85.571,383.334,82.589,384,79.448,384z"/>
<path style="fill:#FFDC69;" d="M88.276,382.152c7.791-3.406,13.241-11.172,13.241-20.221c0-2.435-0.409-4.771-1.139-6.963
	c-1.944-5.845-6.261-10.593-11.814-13.119c-2.781-1.265-5.862-1.987-9.117-1.987c-12.189,0-22.069,9.88-22.069,22.069
	c0,9.047,5.45,16.813,13.241,20.221c2.705,1.183,5.687,1.848,8.828,1.848C82.589,384,85.571,383.334,88.276,382.152z"/>
<path style="fill:#96B95A;" d="M256,366.345c-3.14,0-6.123-0.666-8.828-1.848v85.71h17.655v-85.71
	C262.123,365.678,259.14,366.345,256,366.345z"/>
<path style="fill:#B4E173;" d="M234.367,339.908c-0.284,1.412-0.436,2.872-0.436,4.367c0,9.047,5.45,16.813,13.241,20.221
	c2.705,1.183,5.687,1.848,8.828,1.848s6.123-0.666,8.828-1.848c7.791-3.406,13.241-11.172,13.241-20.221
	c0-5.215-1.82-9.999-4.844-13.777c-3.732-4.66-9.309-7.758-15.627-8.212c-0.53-0.039-1.058-0.081-1.598-0.081
	c-4.214,0-8.139,1.203-11.488,3.252C239.363,328.609,235.595,333.792,234.367,339.908z"/>
<path style="fill:#78B9C8;" d="M344.276,198.621c-3.14,0-6.123-0.666-8.828-1.848v15.503v237.931h17.655V196.772
	C350.399,197.954,347.416,198.621,344.276,198.621z"/>
<path style="fill:#A09CFF;" d="M432.552,145.655c-3.14,0-6.123-0.666-8.828-1.848v306.4h17.655v-306.4
	C438.675,144.989,435.692,145.655,432.552,145.655z"/>
<path style="fill:#A0DCF0;" d="M335.448,196.772c2.705,1.183,5.687,1.848,8.828,1.848c3.14,0,6.123-0.666,8.828-1.848
	c7.791-3.406,13.241-11.172,13.241-20.221c0-0.96-0.082-1.898-0.201-2.826c-0.8-6.24-4.196-11.657-9.082-15.14
	c-3.609-2.573-8.015-4.103-12.786-4.103c-12.189,0-22.069,9.88-22.069,22.069c0,5.215,1.82,9.999,4.844,13.777
	C329.273,193.103,332.148,195.329,335.448,196.772z"/>
<path style="fill:#C3B4FA;" d="M419.766,141.553c1.234,0.879,2.555,1.641,3.958,2.254c2.705,1.183,5.687,1.848,8.828,1.848
	c3.14,0,6.123-0.666,8.828-1.848c7.791-3.406,13.241-11.172,13.241-20.221c0-12.189-9.88-22.069-22.069-22.069
	c-12.189,0-22.069,9.88-22.069,22.069c0,0.96,0.082,1.899,0.201,2.826C411.484,132.652,414.88,138.069,419.766,141.553z"/>
<g>
</g>
<g>
</g>
<g>
</g>
<g>
</g>
<g>
</g>
<g>
</g>
<g>
</g>
<g>
</g>
<g>
</g>
<g>
</g>
<g>
</g>
<g>
</g>
<g>
</g>
<g>
</g>
<g>
</g>
</svg>
