<?xml version="1.0" encoding="iso-8859-1"?>
<!-- Generator: Adobe Illustrator 19.0.0, SVG Export Plug-In . SVG Version: 6.00 Build 0)  -->
<svg version="1.1" id="Layer_1" xmlns="http://www.w3.org/2000/svg" xmlns:xlink="http://www.w3.org/1999/xlink" x="0px" y="0px"
	 viewBox="0 0 512.001 512.001" style="enable-background:new 0 0 512.001 512.001;" xml:space="preserve">
<path style="fill:#BEC8DC;" d="M511.956,7.958c-0.013-0.139-0.04-0.275-0.06-0.412c-0.021-0.147-0.039-0.294-0.067-0.439
	c-0.032-0.163-0.076-0.321-0.118-0.481c-0.03-0.118-0.055-0.236-0.09-0.353c-0.05-0.164-0.11-0.323-0.169-0.483
	c-0.04-0.109-0.075-0.22-0.12-0.329c-0.066-0.16-0.142-0.313-0.217-0.469c-0.05-0.104-0.096-0.209-0.15-0.311
	c-0.087-0.164-0.185-0.321-0.284-0.479c-0.053-0.086-0.102-0.174-0.158-0.259c-0.131-0.196-0.273-0.384-0.418-0.569
	c-0.032-0.041-0.061-0.084-0.094-0.125c-0.376-0.461-0.798-0.883-1.259-1.259c-0.041-0.033-0.084-0.061-0.124-0.093
	c-0.185-0.146-0.373-0.288-0.569-0.418c-0.088-0.058-0.18-0.108-0.269-0.163c-0.155-0.095-0.308-0.191-0.469-0.277
	c-0.106-0.056-0.214-0.104-0.321-0.154c-0.152-0.073-0.302-0.149-0.459-0.213c-0.111-0.046-0.226-0.083-0.339-0.124
	c-0.157-0.057-0.312-0.117-0.472-0.166c-0.119-0.035-0.241-0.062-0.362-0.093c-0.157-0.041-0.313-0.084-0.473-0.116
	c-0.147-0.029-0.294-0.046-0.441-0.067c-0.137-0.02-0.271-0.045-0.409-0.058c-0.29-0.031-0.581-0.046-0.871-0.046H8.828
	c-0.29,0-0.58,0.015-0.87,0.044c-0.139,0.013-0.274,0.039-0.41,0.06C7.401,0.126,7.253,0.143,7.106,0.172
	C6.945,0.203,6.79,0.247,6.632,0.286c-0.12,0.031-0.241,0.057-0.36,0.093C6.111,0.428,5.955,0.487,5.799,0.545
	C5.685,0.587,5.571,0.623,5.46,0.668C5.303,0.733,5.152,0.808,5,0.882C4.893,0.934,4.785,0.98,4.68,1.037
	C4.519,1.123,4.365,1.219,4.21,1.314C4.12,1.369,4.029,1.419,3.942,1.477C3.744,1.609,3.554,1.752,3.369,1.899
	c-0.04,0.031-0.082,0.057-0.12,0.09C2.787,2.365,2.366,2.788,1.99,3.248C1.955,3.289,1.928,3.332,1.895,3.373
	C1.749,3.558,1.608,3.746,1.476,3.942C1.42,4.027,1.372,4.115,1.319,4.201c-0.097,0.158-0.195,0.316-0.284,0.48
	C0.981,4.783,0.936,4.889,0.886,4.993C0.811,5.147,0.735,5.302,0.669,5.462C0.625,5.57,0.588,5.68,0.548,5.79
	c-0.06,0.159-0.12,0.318-0.17,0.482C0.343,6.39,0.318,6.508,0.288,6.626C0.247,6.786,0.203,6.943,0.17,7.107
	C0.141,7.252,0.125,7.399,0.104,7.546c-0.02,0.137-0.046,0.273-0.06,0.412C0.015,8.247,0,8.538,0,8.828v494.345
	c0,0.29,0.015,0.58,0.044,0.871c0.013,0.139,0.04,0.275,0.06,0.412c0.021,0.147,0.039,0.294,0.067,0.439
	c0.032,0.163,0.076,0.322,0.118,0.481c0.03,0.117,0.055,0.236,0.09,0.352c0.05,0.164,0.11,0.323,0.17,0.484
	c0.04,0.109,0.075,0.22,0.12,0.328c0.066,0.16,0.143,0.314,0.218,0.47c0.05,0.104,0.095,0.207,0.149,0.31
	c0.087,0.164,0.185,0.321,0.282,0.479c0.053,0.086,0.102,0.175,0.158,0.26c0.131,0.198,0.274,0.386,0.42,0.572
	c0.032,0.041,0.06,0.083,0.092,0.122c0.376,0.461,0.799,0.883,1.26,1.26c0.04,0.032,0.082,0.06,0.121,0.09
	c0.185,0.147,0.374,0.289,0.57,0.42c0.088,0.06,0.181,0.109,0.271,0.166c0.154,0.095,0.307,0.191,0.468,0.276
	c0.105,0.056,0.213,0.103,0.32,0.155c0.152,0.074,0.303,0.149,0.46,0.214c0.111,0.046,0.225,0.083,0.339,0.124
	c0.157,0.057,0.312,0.117,0.473,0.165c0.12,0.036,0.242,0.062,0.363,0.093c0.157,0.04,0.311,0.084,0.471,0.115
	c0.148,0.03,0.297,0.046,0.445,0.068c0.136,0.02,0.269,0.045,0.407,0.059c0.288,0.028,0.578,0.043,0.868,0.043h494.345
	c0.29,0,0.58-0.015,0.871-0.044c0.138-0.013,0.27-0.039,0.406-0.059c0.149-0.022,0.298-0.039,0.446-0.068
	c0.159-0.032,0.313-0.075,0.47-0.115c0.121-0.031,0.244-0.057,0.364-0.094c0.161-0.049,0.316-0.108,0.472-0.166
	c0.113-0.042,0.227-0.078,0.339-0.124c0.157-0.065,0.307-0.14,0.459-0.213c0.107-0.052,0.216-0.098,0.321-0.154
	c0.16-0.085,0.312-0.181,0.467-0.276c0.09-0.056,0.183-0.106,0.273-0.165c0.195-0.13,0.383-0.273,0.567-0.417
	c0.041-0.033,0.085-0.061,0.126-0.094c0.461-0.376,0.883-0.799,1.259-1.259c0.032-0.04,0.06-0.082,0.092-0.122
	c0.147-0.185,0.289-0.374,0.42-0.572c0.056-0.085,0.105-0.173,0.158-0.26c0.097-0.158,0.195-0.314,0.283-0.479
	c0.054-0.102,0.099-0.206,0.149-0.31c0.075-0.156,0.152-0.31,0.218-0.47c0.044-0.108,0.079-0.218,0.12-0.328
	c0.059-0.161,0.12-0.32,0.17-0.484c0.035-0.116,0.061-0.235,0.09-0.352c0.041-0.16,0.085-0.318,0.118-0.481
	c0.029-0.146,0.045-0.292,0.067-0.439c0.02-0.137,0.046-0.273,0.06-0.412c0.029-0.289,0.044-0.58,0.044-0.871V8.828
	C512,8.538,511.985,8.247,511.956,7.958z M481.862,17.656l-51.288,51.288c-23.393-21.846-50.861-39.378-81.141-51.288H481.862z
	 M377.868,365.387c-3.046,5.184-6.411,10.157-10.072,14.893l50.292,50.292c-42.562,39.546-99.545,63.774-162.088,63.774
	s-119.526-24.227-162.088-63.774l50.292-50.292c-3.66-4.736-7.027-9.709-10.072-14.893L81.43,418.088
	c-39.548-42.562-63.775-99.545-63.775-162.088S41.882,136.475,81.429,93.913l77.474,77.474c3.32-5.059,6.719-10.002,10.162-14.804
	L93.912,81.43C136.474,41.883,193.458,17.656,256,17.656S375.526,41.883,418.088,81.43l-75.153,75.153
	c3.443,4.802,6.84,9.745,10.162,14.804l77.474-77.474c39.546,42.563,63.774,99.546,63.774,162.089s-24.227,119.526-63.774,162.088
	L377.868,365.387z M81.427,68.944L30.137,17.656h132.429C132.288,29.566,104.82,47.099,81.427,68.944z M17.655,30.139l51.289,51.288
	c-21.846,23.393-39.379,50.862-51.289,81.141V30.139z M68.945,430.574l-51.289,51.289v-132.43
	C29.566,379.711,47.098,407.181,68.945,430.574z M30.137,494.345l51.289-51.288c23.393,21.846,50.861,39.378,81.141,51.288H30.137z
	 M430.573,443.057l51.288,51.288H349.432C379.712,482.435,407.18,464.902,430.573,443.057z M494.345,481.863l-51.289-51.288
	c21.846-23.393,39.378-50.862,51.289-81.141V481.863z M443.055,81.427l51.289-51.288v132.43
	C482.434,132.29,464.901,104.82,443.055,81.427z"/>
<path style="fill:#B9EBFF;" d="M361.931,294.07c0-73.146-76.177-155.064-105.922-184.263
	c-29.737,29.228-105.94,111.254-105.94,184.263c0,58.414,47.521,105.931,105.931,105.931S361.931,352.484,361.931,294.07z
	 M286.897,353.104c-21.939,0-39.724-17.785-39.724-39.724s17.785-39.724,39.724-39.724c21.939,0,39.724,17.785,39.724,39.724
	S308.835,353.104,286.897,353.104z"/>
<path style="fill:#8FCBDC;" d="M353.096,171.387c-3.32-5.059-6.719-10.002-10.162-14.804c-34.175-47.671-72.369-81.757-75.25-84.302
	c-6.681-5.888-16.69-5.888-23.371,0c-2.881,2.546-41.074,36.631-75.25,84.302c-3.443,4.802-6.84,9.745-10.162,14.804
	c-24.223,36.908-44.143,80.172-44.143,122.682c0,25.997,7.069,50.371,19.373,71.317c3.046,5.184,6.411,10.157,10.072,14.893
	c25.853,33.448,66.349,55.031,111.796,55.031s85.943-21.583,111.796-55.031c3.66-4.736,7.027-9.709,10.072-14.893
	c12.305-20.946,19.373-45.32,19.373-71.317C397.241,251.559,377.321,208.295,353.096,171.387z M256,400.001
	c-58.41,0-105.931-47.518-105.931-105.931c0-73.009,76.203-155.035,105.94-184.263c29.746,29.198,105.922,111.116,105.922,184.263
	C361.931,352.484,314.41,400.001,256,400.001z"/>
<circle style="fill:#FFFFFF;" cx="286.897" cy="313.38" r="39.724"/>
<g>
</g>
<g>
</g>
<g>
</g>
<g>
</g>
<g>
</g>
<g>
</g>
<g>
</g>
<g>
</g>
<g>
</g>
<g>
</g>
<g>
</g>
<g>
</g>
<g>
</g>
<g>
</g>
<g>
</g>
</svg>
