<?xml version="1.0" encoding="iso-8859-1"?>
<!-- Generator: Adobe Illustrator 19.0.0, SVG Export Plug-In . SVG Version: 6.00 Build 0)  -->
<svg version="1.1" id="Layer_1" xmlns="http://www.w3.org/2000/svg" xmlns:xlink="http://www.w3.org/1999/xlink" x="0px" y="0px"
	 viewBox="0 0 512 512" style="enable-background:new 0 0 512 512;" xml:space="preserve">
<path style="fill:#BEC8DC;" d="M503.172,414.897h-70.621V97.103h70.621c4.875,0,8.828-3.953,8.828-8.828
	c0-4.875-3.953-8.828-8.828-8.828h-70.621V8.828c0-4.875-3.953-8.828-8.828-8.828c-4.875,0-8.828,3.953-8.828,8.828v70.621H97.103
	V8.828C97.103,3.953,93.151,0,88.276,0c-4.875,0-8.828,3.953-8.828,8.828v70.621H8.828C3.953,79.448,0,83.401,0,88.276
	c0,4.875,3.953,8.828,8.828,8.828h70.621v317.793H8.828c-4.875,0-8.828,3.953-8.828,8.828c0,4.875,3.953,8.828,8.828,8.828h70.621
	v70.621c0,4.875,3.953,8.828,8.828,8.828c4.875,0,8.828-3.953,8.828-8.828v-70.621h317.793v70.621c0,4.875,3.953,8.828,8.828,8.828
	c4.875,0,8.828-3.953,8.828-8.828v-70.621h70.621c4.875,0,8.828-3.953,8.828-8.828C512,418.849,508.047,414.897,503.172,414.897z
	 M361.931,414.897H150.069H97.103v-52.966V150.069V97.103h52.966h211.862h52.966v52.966v211.862v52.966H361.931z"/>
<path style="fill:#464655;" d="M414.897,361.931V150.069c0-29.252-23.713-52.966-52.966-52.966H150.069
	c-29.252,0-52.966,23.713-52.966,52.966v211.862c0,29.252,23.713,52.966,52.966,52.966h211.862
	C391.183,414.897,414.897,391.183,414.897,361.931z M256,361.931c-43.879,0-79.448-35.571-79.448-79.448
	c0-53.836,54.947-109.707,73.45-126.995c1.699-1.588,3.849-2.381,5.998-2.381c2.15,0,4.299,0.793,5.998,2.381
	c18.503,17.288,73.45,73.159,73.45,126.995C335.448,326.36,299.879,361.931,256,361.931z"/>
<path style="fill:#B9EBFF;" d="M256,174.198c-30.915,30.457-61.793,73.195-61.793,108.285c0,34.072,27.721,61.793,61.793,61.793
	s61.793-27.721,61.793-61.793C317.793,247.393,286.915,204.655,256,174.198z M269.241,317.793c-12.189,0-22.069-9.88-22.069-22.069
	c0-12.189,9.88-22.069,22.069-22.069c12.189,0,22.069,9.88,22.069,22.069C291.31,307.913,281.43,317.793,269.241,317.793z"/>
<path style="fill:#8FCBDC;" d="M261.998,155.488c-1.699-1.588-3.849-2.381-5.998-2.381c-2.15,0-4.299,0.793-5.998,2.381
	c-18.503,17.288-73.45,73.159-73.45,126.995c0,43.878,35.57,79.448,79.448,79.448s79.448-35.571,79.448-79.448
	C335.448,228.647,280.501,172.776,261.998,155.488z M256,344.276c-34.072,0-61.793-27.721-61.793-61.793
	c0-35.09,30.878-77.827,61.793-108.285c30.915,30.456,61.793,73.195,61.793,108.285C317.793,316.555,290.072,344.276,256,344.276z"
	/>
<circle style="fill:#FFFFFF;" cx="269.241" cy="295.724" r="22.069"/>
<g>
</g>
<g>
</g>
<g>
</g>
<g>
</g>
<g>
</g>
<g>
</g>
<g>
</g>
<g>
</g>
<g>
</g>
<g>
</g>
<g>
</g>
<g>
</g>
<g>
</g>
<g>
</g>
<g>
</g>
</svg>
