<?xml version="1.0" encoding="iso-8859-1"?>
<!-- Generator: Adobe Illustrator 19.0.0, SVG Export Plug-In . SVG Version: 6.00 Build 0)  -->
<svg version="1.1" id="Layer_1" xmlns="http://www.w3.org/2000/svg" xmlns:xlink="http://www.w3.org/1999/xlink" x="0px" y="0px"
	 viewBox="0 0 512 512" style="enable-background:new 0 0 512 512;" xml:space="preserve">
<path style="fill:#FFB855;" d="M269.587,75.531c8.262,8.166,19.41,12.745,31.026,12.745h17.181h44.614
	c-11.616,0-22.764-4.579-31.026-12.745L303.58,48.055c-8.264-8.166-19.411-12.745-31.027-12.745H210.76
	c11.616,0,22.764,4.579,31.026,12.745L269.587,75.531z"/>
<path style="fill:#FFC85A;" d="M179.992,48.055l27.801,27.476c8.262,8.166,19.41,12.745,31.026,12.745H256h44.614
	c-11.616,0-22.764-4.579-31.026-12.745l-27.801-27.476c-8.264-8.166-19.411-12.745-31.027-12.745h-60.691h-1.102
	C160.583,35.31,171.73,39.89,179.992,48.055z"/>
<g>
	<path style="fill:#FFDC69;" d="M485.517,88.276H379.586h-17.18h-44.614h-17.18H256h-17.18c-11.616,0-22.764-4.579-31.026-12.745
		l-27.801-27.476c-8.264-8.166-19.411-12.745-31.027-12.745H88.276H26.483C11.857,35.31,0,47.167,0,61.793v52.966v8.828v326.621
		c0,14.626,11.857,26.483,26.483,26.483h459.034c14.626,0,26.483-11.857,26.483-26.483V114.759
		C512,100.132,500.143,88.276,485.517,88.276z M272.626,382.088h-50.317c-4.632,0-8.386-3.756-8.386-8.386
		c0-4.189,3.082-7.633,7.097-8.256l-16.169-39.266h-71.311l-16.168,39.265c4.015,0.623,7.097,4.068,7.097,8.256
		c0,4.63-3.754,8.386-8.386,8.386h-11.062c-0.032,0.001-0.065,0-0.097,0H93.719c-4.632,0-8.386-3.756-8.386-8.386
		c0-4.63,3.754-8.386,8.386-8.386h5.564l76.134-184.896c1.294-3.139,4.356-5.193,7.756-5.193s6.462,2.052,7.756,5.193
		l76.134,184.896h5.564c4.632,0,8.386,3.756,8.386,8.386C281.012,378.331,277.258,382.088,272.626,382.088z M412.395,382.088
		h-27.954c-6.238,0-11.74-2.988-15.325-7.55c-10.089,5.154-19.444,7.55-29.401,7.55h-11.181c-18.345,0-32.38-7.425-38.505-20.381
		c-5.432-11.482-3.254-25.383,5.681-36.269c11.52-14.043,27.444-16.636,44.3-19.382c8.099-1.322,16.431-2.76,24.864-5.449v-5.176
		c0-13.011-7.277-30.75-19.567-30.75c-12.29,0-19.567,17.739-19.567,30.75c0,4.63-3.754,8.386-8.386,8.386h-22.364
		c-4.632,0-8.386-3.756-8.386-8.386c0-26.201,21.318-47.521,47.522-47.521h22.364c26.205,0,47.522,21.32,47.522,47.521v67.09
		c0,1.54,1.254,2.796,2.795,2.796h5.591c4.632,0,8.386,3.756,8.386,8.386C420.781,378.332,417.028,382.088,412.395,382.088z"/>
	<polygon style="fill:#FFDC69;" points="140.445,309.407 197.944,309.407 169.194,239.586 	"/>
	<path style="fill:#FFDC69;" d="M330.946,336.373c-5.916,6.557-6.008,15.239-3.478,20.932c1.332,2.991,4.69,8.01,12.246,8.01
		c8.209,0,16.108-2.345,25.159-7.524v-38.877C352.028,322.957,338.378,328.131,330.946,336.373z"/>
</g>
<g>
	<path style="fill:#AA8250;" d="M272.626,365.315h-5.564l-76.134-184.896c-1.294-3.139-4.356-5.193-7.756-5.193
		s-6.462,2.052-7.756,5.193L99.283,365.315h-5.564c-4.632,0-8.386,3.756-8.386,8.386s3.754,8.386,8.386,8.386h11.204
		c0.032,0,0.065,0.001,0.097,0h11.062c4.632,0,8.386-3.756,8.386-8.386c0-4.189-3.082-7.633-7.097-8.256l16.168-39.266h71.311
		l16.169,39.265c-4.015,0.623-7.097,4.068-7.097,8.256c0,4.63,3.754,8.386,8.386,8.386h50.317c4.632,0,8.386-3.756,8.386-8.386
		C281.012,369.07,277.258,365.315,272.626,365.315z M140.445,309.407l28.749-69.821l28.75,69.821H140.445z"/>
	<path style="fill:#AA8250;" d="M412.395,365.315h-5.591c-1.543,0-2.795-1.256-2.795-2.796v-67.09
		c0-26.201-21.318-47.521-47.522-47.521h-22.363c-26.205,0-47.522,21.32-47.522,47.521c0,4.63,3.754,8.386,8.386,8.386h22.364
		c4.632,0,8.386-3.756,8.386-8.386c0-13.011,7.277-30.75,19.567-30.75c12.29,0,19.567,17.739,19.567,30.75v5.176
		c-8.433,2.688-16.765,4.127-24.864,5.449c-16.857,2.746-32.78,5.34-44.3,19.382c-8.935,10.887-11.113,24.787-5.681,36.269
		c6.126,12.956,20.16,20.381,38.505,20.381h11.181c9.956,0,19.313-2.396,29.401-7.55c3.586,4.562,9.088,7.55,15.325,7.55h27.954
		c4.632,0,8.386-3.756,8.386-8.386C420.781,369.071,417.028,365.315,412.395,365.315z M364.874,357.791
		c-9.05,5.18-16.95,7.524-25.159,7.524c-7.556,0-10.914-5.017-12.246-8.01c-2.53-5.695-2.438-14.376,3.478-20.932
		c7.432-8.242,21.08-13.416,33.927-17.459L364.874,357.791L364.874,357.791z"/>
</g>
<g>
</g>
<g>
</g>
<g>
</g>
<g>
</g>
<g>
</g>
<g>
</g>
<g>
</g>
<g>
</g>
<g>
</g>
<g>
</g>
<g>
</g>
<g>
</g>
<g>
</g>
<g>
</g>
<g>
</g>
</svg>
