<?xml version="1.0" encoding="iso-8859-1"?>
<!-- Generator: Adobe Illustrator 19.0.0, SVG Export Plug-In . SVG Version: 6.00 Build 0)  -->
<svg version="1.1" id="Layer_1" xmlns="http://www.w3.org/2000/svg" xmlns:xlink="http://www.w3.org/1999/xlink" x="0px" y="0px"
	 viewBox="0 0 511.999 511.999" style="enable-background:new 0 0 511.999 511.999;" xml:space="preserve">
<path style="fill:#00DCCD;" d="M22.276,311.484c-2.199-3.298-7.044-3.298-9.244,0L1.483,328.81C0.516,330.26,0,331.964,0,333.706
	v14.983c0,4.875,3.953,8.828,8.828,8.828h17.655c4.875,0,8.828-3.953,8.828-8.828v-14.983c0-1.742-0.516-3.446-1.483-4.897
	L22.276,311.484z"/>
<path style="fill:#63AFDB;" d="M510.517,328.81l-11.551-17.326c-2.199-3.298-7.044-3.298-9.244,0l-11.551,17.326
	c-0.967,1.45-1.483,3.154-1.483,4.897v14.982c0,4.875,3.953,8.828,8.828,8.828h17.655c4.875,0,8.828-3.953,8.828-8.828v-14.983
	C512,331.964,511.484,330.26,510.517,328.81z"/>
<path style="fill:#00DCCD;" d="M26.483,154.482c-9.751,0-17.655,7.905-17.655,17.655v105.931c0,9.75,7.904,17.655,17.655,17.655
	h44.138V154.482H26.483z"/>
<path style="fill:#63AFDB;" d="M503.172,278.068V172.137c0-9.75-7.905-17.655-17.655-17.655h-44.138v141.241h44.138
	C495.267,295.724,503.172,287.818,503.172,278.068z"/>
<rect x="70.621" y="154.482" style="fill:#17D2D0;" width="61.793" height="141.241"/>
<rect x="132.414" y="154.482" style="fill:#24CCD2;" width="61.793" height="141.241"/>
<rect x="194.207" y="154.482" style="fill:#32C5D4;" width="61.793" height="141.241"/>
<rect x="317.793" y="154.482" style="fill:#49BBD7;" width="61.793" height="141.241"/>
<rect x="256" y="154.482" style="fill:#3CC1D5;" width="61.793" height="141.241"/>
<rect x="379.586" y="154.482" style="fill:#57B5D9;" width="61.793" height="141.241"/>
<g>
</g>
<g>
</g>
<g>
</g>
<g>
</g>
<g>
</g>
<g>
</g>
<g>
</g>
<g>
</g>
<g>
</g>
<g>
</g>
<g>
</g>
<g>
</g>
<g>
</g>
<g>
</g>
<g>
</g>
</svg>
