<?xml version="1.0" encoding="iso-8859-1"?>
<!-- Generator: Adobe Illustrator 19.0.0, SVG Export Plug-In . SVG Version: 6.00 Build 0)  -->
<svg version="1.1" id="Layer_1" xmlns="http://www.w3.org/2000/svg" xmlns:xlink="http://www.w3.org/1999/xlink" x="0px" y="0px"
	 viewBox="0 0 512 512" style="enable-background:new 0 0 512 512;" xml:space="preserve">
<path style="fill:#FF6469;" d="M494.345,70.621H17.655C7.904,70.621,0,78.526,0,88.276v185.379C0,263.905,7.904,256,17.655,256
	h476.69c9.75,0,17.655,7.905,17.655,17.655V88.276C512,78.526,504.095,70.621,494.345,70.621z M441.379,203.034H394.86
	c-3.054,5.272-8.743,8.828-15.274,8.828h-26.483c-6.531,0-12.22-3.555-15.274-8.828h-17.588H52.966
	c-4.875,0-8.828-3.953-8.828-8.828s3.953-8.828,8.828-8.828h267.276h17.588c3.054-5.272,8.743-8.828,15.274-8.828h26.483
	c6.531,0,12.22,3.555,15.274,8.828h46.519c4.875,0,8.828,3.953,8.828,8.828S446.254,203.034,441.379,203.034z M441.379,141.241
	H165.343c-3.054,5.272-8.743,8.828-15.274,8.828h-26.483c-6.531,0-12.22-3.555-15.274-8.828H90.724H52.966
	c-4.875,0-8.828-3.953-8.828-8.828c0-4.875,3.953-8.828,8.828-8.828h37.759h17.588c3.054-5.272,8.743-8.828,15.274-8.828h26.483
	c6.531,0,12.22,3.555,15.274,8.828h276.036c4.875,0,8.828,3.953,8.828,8.828C450.207,137.289,446.254,141.241,441.379,141.241z"/>
<path style="fill:#D2555F;" d="M494.345,256H17.655C7.904,256,0,263.905,0,273.655v150.069c0,9.75,7.904,17.655,17.655,17.655
	h476.69c9.75,0,17.655-7.905,17.655-17.655V273.655C512,263.905,504.095,256,494.345,256z M176.552,353.103
	c0,19.501-15.809,35.31-35.31,35.31h-17.663c0.002,0,0.006,0,0.008,0h-17.655c-14.017,0-26.126-8.167-31.828-20.002
	c-0.248-0.514-0.483-1.036-0.707-1.564c-0.447-1.056-0.843-2.138-1.187-3.244c-0.516-1.658-0.913-3.369-1.181-5.123
	c-0.268-1.753-0.407-3.549-0.407-5.377l0,0l0,0l0,0c0-1.218,0.062-2.423,0.182-3.611c1.617-15.919,13.81-28.705,29.44-31.237
	c1.853-0.3,3.751-0.462,5.688-0.462l0,0h17.655h17.655C160.743,317.793,176.552,333.602,176.552,353.103L176.552,353.103z
	 M258.263,406.012c-0.75,0.038-1.504,0.057-2.263,0.057c-2.742,0-5.437-0.209-8.066-0.61c-22.794-3.482-40.807-21.495-44.289-44.289
	c-0.402-2.631-0.61-5.324-0.61-8.066c0-2.742,0.209-5.436,0.61-8.066c3.482-22.794,21.495-40.806,44.289-44.289
	c2.63-0.402,5.324-0.61,8.066-0.61c0.759,0,1.513,0.02,2.263,0.057c28.201,1.186,50.702,24.415,50.702,52.908
	S286.464,404.825,258.263,406.012z M441.221,353.103c0,19.501-15.809,35.31-35.31,35.31h-17.505c0.002,0,0.006,0,0.008,0h-17.655
	c-0.002,0-0.006,0-0.008,0h-0.15c-19.501,0-35.31-15.809-35.31-35.31l0,0c0-19.501,15.809-35.31,35.31-35.31h0.158h17.655h17.497
	C425.412,317.793,441.221,333.602,441.221,353.103L441.221,353.103z"/>
<path style="fill:#FFFFFF;" d="M258.263,300.195c2.227,0.11,4.413,0.375,6.564,0.737c-25.041,4.21-44.138,25.934-44.138,52.171
	s19.097,47.961,44.138,52.171c-2.152,0.362-4.338,0.627-6.564,0.737c28.201-1.186,50.702-24.415,50.702-52.908
	S286.464,301.382,258.263,300.195z M272.962,358.816l-24.529,14.717c-4.44,2.665-10.089-0.534-10.089-5.711v-29.436
	c0-5.177,5.649-8.376,10.089-5.711l24.529,14.717C277.274,349.978,277.274,356.228,272.962,358.816z"/>
<path style="fill:#FF6469;" d="M272.962,347.391l-24.529-14.717c-4.44-2.665-10.089,0.534-10.089,5.711v29.436
	c0,5.177,5.649,8.376,10.089,5.711l24.529-14.717C277.274,356.228,277.274,349.978,272.962,347.391z"/>
<g>
	<path style="fill:#FFFFFF;" d="M141.241,317.793h-17.655c-19.501,0-35.31,15.808-35.31,35.31c0,19.498,15.805,35.306,35.303,35.31
		h17.663c19.501,0,35.31-15.809,35.31-35.31l0,0C176.552,333.602,160.743,317.793,141.241,317.793z M116.29,363.401
		c0,3.623-3.953,5.86-7.059,3.997L92.07,357.1c-3.017-1.81-3.017-6.183,0-7.992l17.162-10.297c3.106-1.864,7.059,0.373,7.059,3.997
		V363.401z M148.458,363.401c0,3.623-3.953,5.86-7.059,3.997L124.237,357.1c-3.017-1.81-3.017-6.183,0-7.992l17.162-10.297
		c3.106-1.864,7.059,0.373,7.059,3.997V363.401z"/>
	<path style="fill:#FFFFFF;" d="M70.621,353.103L70.621,353.103L70.621,353.103c0-1.218,0.062-2.423,0.182-3.611
		C70.682,350.68,70.621,351.885,70.621,353.103z"/>
	<path style="fill:#FFFFFF;" d="M105.931,317.793c-1.937,0-3.836,0.162-5.688,0.462
		C102.095,317.955,103.994,317.793,105.931,317.793L105.931,317.793z"/>
</g>
<g>
	<path style="fill:#FF6469;" d="M109.231,338.81L92.07,349.108c-3.017,1.81-3.017,6.183,0,7.992l17.162,10.297
		c3.106,1.864,7.059-0.373,7.059-3.997v-20.594C116.29,339.183,112.339,336.946,109.231,338.81z"/>
	<path style="fill:#FF6469;" d="M141.399,338.81l-17.162,10.297c-3.017,1.81-3.017,6.183,0,7.992l17.162,10.297
		c3.106,1.864,7.059-0.373,7.059-3.997v-20.594C148.458,339.183,144.505,336.946,141.399,338.81z"/>
</g>
<g>
	<path style="fill:#FFFFFF;" d="M405.911,317.793h-17.497c-19.501,0-35.31,15.808-35.31,35.31c0,19.498,15.805,35.306,35.303,35.31
		h17.505c19.501,0,35.31-15.809,35.31-35.31l0,0C441.221,333.602,425.412,317.793,405.911,317.793z M387.604,357.1l-17.162,10.297
		c-3.106,1.864-7.059-0.374-7.059-3.997v-20.595c0-3.623,3.953-5.86,7.059-3.997l17.162,10.297
		C390.621,350.918,390.621,355.289,387.604,357.1z M419.772,357.1l-17.162,10.297c-3.106,1.864-7.059-0.374-7.059-3.997v-20.595
		c0-3.623,3.953-5.86,7.059-3.997l17.162,10.297C422.788,350.918,422.788,355.289,419.772,357.1z"/>
	<path style="fill:#FFFFFF;" d="M335.448,353.103c0-19.502,15.809-35.31,35.31-35.31h-0.158c-19.501,0-35.31,15.809-35.31,35.31l0,0
		c0,19.501,15.809,35.31,35.31,35.31h0.15C351.253,388.409,335.448,372.601,335.448,353.103z"/>
</g>
<g>
	<path style="fill:#FF6469;" d="M419.772,349.107l-17.162-10.297c-3.106-1.864-7.059,0.374-7.059,3.997v20.595
		c0,3.623,3.953,5.86,7.059,3.997l17.162-10.297C422.788,355.289,422.788,350.918,419.772,349.107z"/>
	<path style="fill:#FF6469;" d="M387.604,349.107l-17.162-10.297c-3.106-1.864-7.059,0.374-7.059,3.997v20.595
		c0,3.623,3.953,5.86,7.059,3.997l17.162-10.297C390.621,355.289,390.621,350.918,387.604,349.107z"/>
</g>
<g>
	<path style="fill:#D2555F;" d="M320.242,185.379H52.966c-4.875,0-8.828,3.953-8.828,8.828s3.953,8.828,8.828,8.828h267.276
		c-1.517-2.605-2.449-5.594-2.449-8.828S318.726,187.985,320.242,185.379z"/>
	<path style="fill:#D2555F;" d="M441.379,185.379H394.86c1.505,2.599,2.381,5.608,2.381,8.828s-0.876,6.229-2.381,8.828h46.519
		c4.875,0,8.828-3.953,8.828-8.828S446.254,185.379,441.379,185.379z"/>
	<path style="fill:#D2555F;" d="M90.724,123.586H52.966c-4.875,0-8.828,3.953-8.828,8.828c0,4.875,3.953,8.828,8.828,8.828h37.759
		c-1.517-2.605-2.449-5.594-2.449-8.828C88.276,129.181,89.208,126.191,90.724,123.586z"/>
	<path style="fill:#D2555F;" d="M441.379,123.586H165.343c1.505,2.599,2.381,5.608,2.381,8.828s-0.876,6.229-2.381,8.828h276.036
		c4.875,0,8.828-3.953,8.828-8.828C450.207,127.539,446.254,123.586,441.379,123.586z"/>
</g>
<g>
	<path style="fill:#B94656;" d="M108.312,123.586H90.724c-1.517,2.605-2.449,5.594-2.449,8.828c0,3.233,0.932,6.222,2.449,8.828
		h17.588c-1.505-2.599-2.381-5.608-2.381-8.828S106.807,126.185,108.312,123.586z"/>
	<path style="fill:#B94656;" d="M337.829,185.379h-17.588c-1.517,2.605-2.449,5.594-2.449,8.828s0.932,6.222,2.449,8.828h17.588
		c-1.505-2.599-2.381-5.608-2.381-8.828S336.324,187.978,337.829,185.379z"/>
</g>
<path style="fill:#FFC85A;" d="M132.414,132.414c0-9.75,7.904-17.655,17.655-17.655h-26.483c-6.531,0-12.22,3.555-15.274,8.828
	c-1.505,2.599-2.381,5.608-2.381,8.828s0.876,6.229,2.381,8.828c3.054,5.272,8.743,8.828,15.274,8.828h26.483
	C140.318,150.069,132.414,142.164,132.414,132.414z"/>
<path style="fill:#FFE169;" d="M165.343,123.586c-3.054-5.272-8.743-8.828-15.274-8.828c-9.751,0-17.655,7.905-17.655,17.655
	c0,9.75,7.904,17.655,17.655,17.655c6.531,0,12.22-3.555,15.274-8.828c1.505-2.599,2.381-5.608,2.381-8.828
	S166.848,126.185,165.343,123.586z"/>
<path style="fill:#A0C869;" d="M361.931,194.207c0-9.75,7.904-17.655,17.655-17.655h-26.483c-6.531,0-12.22,3.555-15.274,8.828
	c-1.505,2.599-2.381,5.608-2.381,8.828s0.876,6.229,2.381,8.828c3.054,5.272,8.743,8.828,15.274,8.828h26.483
	C369.835,211.862,361.931,203.957,361.931,194.207z"/>
<path style="fill:#B4E173;" d="M394.86,185.379c-3.054-5.272-8.743-8.828-15.274-8.828c-9.751,0-17.655,7.905-17.655,17.655
	c0,9.75,7.904,17.655,17.655,17.655c6.531,0,12.22-3.555,15.274-8.828c1.505-2.599,2.381-5.608,2.381-8.828
	S396.365,187.978,394.86,185.379z"/>
<g>
	<path style="fill:#FFE8DE;" d="M220.69,353.103c0-26.237,19.097-47.961,44.138-52.171c-2.152-0.362-4.338-0.627-6.564-0.737
		c-0.75-0.038-1.504-0.057-2.263-0.057c-2.742,0-5.437,0.209-8.066,0.61c-22.794,3.482-40.807,21.495-44.289,44.289
		c-0.402,2.631-0.61,5.324-0.61,8.066c0,2.742,0.209,5.436,0.61,8.066c3.482,22.794,21.495,40.806,44.289,44.289
		c2.63,0.402,5.324,0.61,8.066,0.61c0.759,0,1.513-0.02,2.263-0.057c2.227-0.11,4.413-0.375,6.564-0.737
		C239.787,401.065,220.69,379.34,220.69,353.103z"/>
	<path style="fill:#FFE8DE;" d="M88.276,353.103c0-19.502,15.809-35.31,35.31-35.31h-17.655c-1.937,0-3.836,0.162-5.688,0.462
		c-15.63,2.532-27.823,15.318-29.44,31.237c-0.12,1.187-0.182,2.392-0.182,3.611l0,0c0,1.828,0.139,3.624,0.407,5.377
		c0.268,1.753,0.665,3.465,1.181,5.123c0.344,1.106,0.74,2.188,1.187,3.244c0.224,0.529,0.459,1.049,0.707,1.564
		c5.702,11.836,17.811,20.002,31.828,20.002h17.655c-0.002,0-0.006,0-0.008,0C104.081,388.409,88.276,372.601,88.276,353.103z"/>
	<path style="fill:#FFE8DE;" d="M353.103,353.103c0-19.502,15.809-35.31,35.31-35.31h-17.655c-19.501,0-35.31,15.808-35.31,35.31
		c0,19.498,15.805,35.306,35.303,35.31c0.002,0,0.006,0,0.008,0h17.655c-0.002,0-0.006,0-0.008,0
		C368.908,388.409,353.103,372.601,353.103,353.103z"/>
</g>
<g>
</g>
<g>
</g>
<g>
</g>
<g>
</g>
<g>
</g>
<g>
</g>
<g>
</g>
<g>
</g>
<g>
</g>
<g>
</g>
<g>
</g>
<g>
</g>
<g>
</g>
<g>
</g>
<g>
</g>
</svg>
