<?xml version="1.0" encoding="iso-8859-1"?>
<!-- Generator: Adobe Illustrator 19.0.0, SVG Export Plug-In . SVG Version: 6.00 Build 0)  -->
<svg version="1.1" id="Layer_1" xmlns="http://www.w3.org/2000/svg" xmlns:xlink="http://www.w3.org/1999/xlink" x="0px" y="0px"
	 viewBox="0 0 512 512" style="enable-background:new 0 0 512 512;" xml:space="preserve">
<path style="fill:#E4EAF6;" d="M485.517,61.793H26.483C11.857,61.793,0,73.65,0,88.276v335.448
	c0,14.626,11.857,26.483,26.483,26.483h459.034c14.626,0,26.483-11.857,26.483-26.483V88.276
	C512,73.65,500.143,61.793,485.517,61.793z M467.862,273.655c0,4.875-3.953,8.828-8.828,8.828h-26.483v52.966h26.483
	c4.875,0,8.828,3.953,8.828,8.828v35.31c0,4.875-3.953,8.828-8.828,8.828h-70.621c-4.875,0-8.828-3.953-8.828-8.828v-35.31
	c0-4.875,3.953-8.828,8.828-8.828h26.483v-52.966h-88.276v52.966h26.483c4.875,0,8.828,3.953,8.828,8.828v35.31
	c0,4.875-3.953,8.828-8.828,8.828h-70.621c-4.875,0-8.828-3.953-8.828-8.828v-35.31c0-4.875,3.953-8.828,8.828-8.828h26.483v-52.966
	h-26.483c-4.875,0-8.828-3.953-8.828-8.828v-35.31c0-4.875,3.953-8.828,8.828-8.828h79.448v-52.966H150.069v52.966h79.448
	c4.875,0,8.828,3.953,8.828,8.828v35.31c0,4.875-3.953,8.828-8.828,8.828h-26.483v52.966h26.483c4.875,0,8.828,3.953,8.828,8.828
	v35.31c0,4.875-3.953,8.828-8.828,8.828h-70.621c-4.875,0-8.828-3.953-8.828-8.828v-35.31c0-4.875,3.953-8.828,8.828-8.828h26.483
	v-52.966H97.103v52.966h26.483c4.875,0,8.828,3.953,8.828,8.828v35.31c0,4.875-3.953,8.828-8.828,8.828H52.966
	c-4.875,0-8.828-3.953-8.828-8.828v-35.31c0-4.875,3.953-8.828,8.828-8.828h26.483v-52.966H52.966c-4.875,0-8.828-3.953-8.828-8.828
	v-35.31c0-4.875,3.953-8.828,8.828-8.828h79.448v-52.966h-17.655c-4.875,0-8.828-3.953-8.828-8.828v-35.31
	c0-4.875,3.953-8.828,8.828-8.828h282.483c4.875,0,8.828,3.953,8.828,8.828v35.31c0,4.875-3.953,8.828-8.828,8.828h-17.655v52.966
	h79.448c4.875,0,8.828,3.953,8.828,8.828V273.655z"/>
<path style="fill:#FF6469;" d="M397.241,176.552c4.875,0,8.828-3.953,8.828-8.828v-35.31c0-4.875-3.953-8.828-8.828-8.828H114.759
	c-4.875,0-8.828,3.953-8.828,8.828v35.31c0,4.875,3.953,8.828,8.828,8.828h17.655h17.655h211.862h17.655H397.241z"/>
<path style="fill:#FFDC69;" d="M52.966,229.517c-4.875,0-8.828,3.953-8.828,8.828v35.31c0,4.875,3.953,8.828,8.828,8.828h26.483
	h17.655h88.276h17.655h26.483c4.875,0,8.828-3.953,8.828-8.828v-35.31c0-4.875-3.953-8.828-8.828-8.828h-79.448h-17.655H52.966z"/>
<path style="fill:#A0DCF0;" d="M52.966,335.448c-4.875,0-8.828,3.953-8.828,8.828v35.31c0,4.875,3.953,8.828,8.828,8.828h70.621
	c4.875,0,8.828-3.953,8.828-8.828v-35.31c0-4.875-3.953-8.828-8.828-8.828H97.103H79.448H52.966z"/>
<path style="fill:#C3B4FA;" d="M158.897,335.448c-4.875,0-8.828,3.953-8.828,8.828v35.31c0,4.875,3.953,8.828,8.828,8.828h70.621
	c4.875,0,8.828-3.953,8.828-8.828v-35.31c0-4.875-3.953-8.828-8.828-8.828h-26.483h-17.655H158.897z"/>
<path style="fill:#B4E173;" d="M459.034,229.517h-79.448h-17.655h-79.448c-4.875,0-8.828,3.953-8.828,8.828v35.31
	c0,4.875,3.953,8.828,8.828,8.828h26.483h17.655h88.276h17.655h26.483c4.875,0,8.828-3.953,8.828-8.828v-35.31
	C467.862,233.47,463.91,229.517,459.034,229.517z"/>
<path style="fill:#91E6BE;" d="M282.483,335.448c-4.875,0-8.828,3.953-8.828,8.828v35.31c0,4.875,3.953,8.828,8.828,8.828h70.621
	c4.875,0,8.828-3.953,8.828-8.828v-35.31c0-4.875-3.953-8.828-8.828-8.828h-26.483h-17.655H282.483z"/>
<path style="fill:#FFAFD7;" d="M388.414,335.448c-4.875,0-8.828,3.953-8.828,8.828v35.31c0,4.875,3.953,8.828,8.828,8.828h70.621
	c4.875,0,8.828-3.953,8.828-8.828v-35.31c0-4.875-3.953-8.828-8.828-8.828h-26.483h-17.655H388.414z"/>
<g>
	<rect x="132.414" y="176.552" style="fill:#BEC8DC;" width="17.655" height="52.966"/>
	<rect x="361.931" y="176.552" style="fill:#BEC8DC;" width="17.655" height="52.966"/>
	<rect x="308.966" y="282.483" style="fill:#BEC8DC;" width="17.655" height="52.966"/>
	<rect x="414.897" y="282.483" style="fill:#BEC8DC;" width="17.655" height="52.966"/>
	<rect x="79.448" y="282.483" style="fill:#BEC8DC;" width="17.655" height="52.966"/>
	<rect x="185.379" y="282.483" style="fill:#BEC8DC;" width="17.655" height="52.966"/>
</g>
<g>
</g>
<g>
</g>
<g>
</g>
<g>
</g>
<g>
</g>
<g>
</g>
<g>
</g>
<g>
</g>
<g>
</g>
<g>
</g>
<g>
</g>
<g>
</g>
<g>
</g>
<g>
</g>
<g>
</g>
</svg>
