<?xml version="1.0" encoding="iso-8859-1"?>
<!-- Generator: Adobe Illustrator 19.0.0, SVG Export Plug-In . SVG Version: 6.00 Build 0)  -->
<svg version="1.1" id="Layer_1" xmlns="http://www.w3.org/2000/svg" xmlns:xlink="http://www.w3.org/1999/xlink" x="0px" y="0px"
	 viewBox="0 0 512.001 512.001" style="enable-background:new 0 0 512.001 512.001;" xml:space="preserve">
<g>
	<path style="fill:#92A9E5;" d="M485.517,61.794H403.82c0.737,1.005,1.465,2.017,2.184,3.037
		c21.553,30.581,34.52,67.646,35.335,107.706c0.028,1.335,0.041,2.674,0.041,4.015c0,2.08-0.044,4.149-0.109,6.212
		c-0.019,0.582-0.043,1.162-0.066,1.742c-0.065,1.625-0.151,3.244-0.256,4.858c-0.031,0.482-0.056,0.966-0.092,1.446
		c-0.148,2.035-0.324,4.062-0.535,6.079c-0.041,0.391-0.09,0.779-0.134,1.17c-0.184,1.674-0.391,3.34-0.617,5.001
		c-0.074,0.544-0.149,1.088-0.228,1.631c-0.215,1.484-0.449,2.963-0.698,4.436L512,282.483V88.276
		C512,73.65,500.143,61.794,485.517,61.794z"/>
	<path style="fill:#92A9E5;" d="M72.966,262.458c-0.068-0.138-0.138-0.276-0.206-0.415c-0.491-1-0.971-2.004-1.446-3.012
		c-0.129-0.275-0.257-0.549-0.385-0.825c-0.448-0.966-0.89-1.933-1.323-2.908c-0.129-0.289-0.254-0.58-0.381-0.872
		c-0.436-0.994-0.87-1.99-1.289-2.993c0-0.001-0.001-0.002-0.001-0.003c-0.9-2.154-1.759-4.329-2.583-6.521
		c-0.117-0.312-0.239-0.621-0.355-0.934c-0.308-0.831-0.604-1.667-0.899-2.503c-0.193-0.543-0.386-1.086-0.575-1.631
		c-0.269-0.782-0.532-1.567-0.791-2.354c-0.203-0.615-0.403-1.23-0.6-1.848c-0.239-0.753-0.478-1.505-0.71-2.261
		c-0.207-0.678-0.406-1.357-0.606-2.038c-0.21-0.713-0.422-1.426-0.623-2.142c-0.249-0.888-0.487-1.781-0.724-2.675
		c-0.242-0.911-0.478-1.825-0.707-2.741c-0.241-0.963-0.48-1.928-0.707-2.898c-0.145-0.618-0.279-1.239-0.417-1.86
		c-0.188-0.841-0.374-1.683-0.551-2.528c-0.134-0.637-0.26-1.274-0.387-1.913c-0.169-0.852-0.333-1.706-0.491-2.562
		c-0.115-0.62-0.228-1.239-0.337-1.862c-0.162-0.929-0.314-1.862-0.463-2.795c-0.087-0.548-0.18-1.096-0.263-1.645
		c-0.21-1.388-0.405-2.781-0.585-4.178c-0.024-0.19-0.047-0.38-0.072-0.569c-0.174-1.39-0.333-2.784-0.478-4.183
		c-0.053-0.509-0.097-1.02-0.146-1.528c-0.097-1.013-0.189-2.028-0.27-3.046c-0.046-0.576-0.087-1.153-0.128-1.73
		c-0.07-0.977-0.131-1.955-0.186-2.936c-0.032-0.573-0.064-1.146-0.09-1.72c-0.05-1.048-0.087-2.099-0.12-3.151
		c-0.015-0.495-0.035-0.989-0.047-1.484c-0.034-1.542-0.056-3.089-0.056-4.641c0-1.342,0.013-2.68,0.041-4.015
		c0.814-40.061,13.781-77.126,35.335-107.706c0.718-1.02,1.447-2.031,2.184-3.037H26.483C11.857,61.794,0,73.65,0,88.276v273.655
		l82.463-82.463C79.023,273.976,75.852,268.301,72.966,262.458z"/>
</g>
<g>
	<path style="fill:#A5B0D7;" d="M53.006,172.537c-0.028,1.335-0.041,2.674-0.041,4.015c0,1.553,0.022,3.1,0.058,4.643
		c0.012,0.495,0.032,0.99,0.047,1.484c0.033,1.053,0.071,2.103,0.12,3.151c0.026,0.575,0.058,1.148,0.09,1.72
		c0.055,0.981,0.117,1.96,0.186,2.936c0.041,0.577,0.082,1.154,0.128,1.73c0.082,1.017,0.173,2.033,0.27,3.046
		c0.049,0.51,0.093,1.021,0.146,1.528c0.145,1.399,0.303,2.793,0.478,4.183c0.024,0.19,0.047,0.38,0.072,0.569
		c0.18,1.397,0.375,2.79,0.585,4.178c0.083,0.55,0.174,1.097,0.263,1.645c0.149,0.934,0.301,1.866,0.463,2.795
		c0.108,0.621,0.222,1.241,0.337,1.862c0.158,0.856,0.321,1.71,0.491,2.562c0.127,0.639,0.255,1.277,0.387,1.913
		c0.177,0.845,0.363,1.687,0.551,2.528c0.138,0.62,0.274,1.241,0.417,1.86c0.226,0.97,0.466,1.933,0.707,2.898
		c0.23,0.917,0.466,1.83,0.707,2.741c0.237,0.893,0.474,1.786,0.724,2.675c0.201,0.717,0.414,1.429,0.623,2.142
		c0.2,0.68,0.399,1.361,0.606,2.038c0.231,0.756,0.469,1.51,0.71,2.261c0.198,0.617,0.397,1.234,0.6,1.848
		c0.259,0.787,0.522,1.571,0.791,2.354c0.188,0.545,0.382,1.088,0.575,1.631c0.297,0.836,0.593,1.673,0.899,2.503
		c0.116,0.312,0.237,0.622,0.355,0.934c0.824,2.193,1.683,4.367,2.583,6.521c0,0.001,0.001,0.002,0.001,0.003
		c0.419,1.003,0.853,1.998,1.289,2.993c0.127,0.29,0.253,0.581,0.381,0.872c0.433,0.973,0.875,1.942,1.323,2.908
		c0.128,0.276,0.256,0.551,0.385,0.825c0.473,1.009,0.954,2.013,1.446,3.012c0.068,0.138,0.138,0.276,0.206,0.415
		c2.887,5.843,6.058,11.518,9.497,17.011l33.811-33.811c0.008-0.008,0.015-0.014,0.023-0.021c0.563-0.562,1.144-1.092,1.735-1.609
		c0.14-0.122,0.281-0.243,0.423-0.363c1.263-1.07,2.583-2.037,3.95-2.901c0.025-0.017,0.052-0.032,0.078-0.049
		c4.911-3.086,10.414-4.847,16.004-5.282c-8.436-15.539-13.63-33.09-14.691-51.748c-0.003-0.06-0.008-0.118-0.011-0.178
		c-0.055-0.992-0.097-1.987-0.129-2.986c-0.006-0.183-0.015-0.365-0.021-0.548c-0.031-1.137-0.049-2.275-0.049-3.42
		c0-45.587,24.716-85.34,61.453-106.745c5.248-3.058,10.742-5.741,16.444-8.013H90.525c-0.737,1.005-1.465,2.017-2.184,3.037
		C66.787,95.41,53.821,132.476,53.006,172.537z"/>
	<path style="fill:#A5B0D7;" d="M370.759,176.552c0,0.572-0.014,1.141-0.022,1.711c3.074-1.78,6.358-3.055,9.736-3.832
		c5.377-1.236,10.985-1.207,16.348,0.102c6.069,1.481,11.821,4.591,16.562,9.332l25.262,25.262c0.248-1.473,0.482-2.952,0.698-4.436
		c0.078-0.543,0.153-1.087,0.228-1.631c0.226-1.661,0.433-3.328,0.617-5.001c0.043-0.391,0.093-0.778,0.134-1.17
		c0.21-2.017,0.387-4.044,0.535-6.079c0.035-0.481,0.061-0.964,0.092-1.446c0.105-1.614,0.191-3.234,0.256-4.858
		c0.023-0.58,0.047-1.161,0.066-1.742c0.065-2.063,0.109-4.132,0.109-6.212c0-1.342-0.013-2.68-0.041-4.015
		c-0.814-40.061-13.782-77.126-35.335-107.706c-0.718-1.02-1.447-2.031-2.184-3.037H292.862c5.702,2.272,11.196,4.956,16.444,8.013
		C346.043,91.213,370.759,130.965,370.759,176.552z"/>
</g>
<path style="fill:#D2F5F0;" d="M233.931,313.38l13.241-13.241c-10.422,0-20.54-1.297-30.208-3.725L233.931,313.38z"/>
<g>
	<path style="fill:#FCFFDC;" d="M166.209,245.658l50.754,50.754c9.67,2.43,19.787,3.726,30.209,3.726l111.979-111.979
		c-12.088-18.372-28.928-33.324-48.773-43.105c4.736,9.484,7.415,20.175,7.415,31.498c0,39.003-31.618,70.621-70.621,70.621
		s-70.621-31.618-70.621-70.621c0-5.804,0.715-11.438,2.035-16.834c-21.425,17.278-36.968,41.566-43.149,69.382
		c-6.566-13.933-10.696-29.238-11.641-45.416c1.062,18.658,6.255,36.21,14.691,51.748
		C148.418,234.66,158.614,238.063,166.209,245.658z"/>
	<path style="fill:#FCFFDC;" d="M370.733,178.265c0.001-0.001,0.002-0.001,0.003-0.002c0.008-0.57,0.022-1.139,0.022-1.711
		C370.759,177.125,370.742,177.694,370.733,178.265z"/>
	<path style="fill:#FCFFDC;" d="M123.785,183.506c-0.056-0.992-0.096-1.987-0.129-2.986
		C123.688,181.519,123.73,182.514,123.785,183.506z"/>
	<path style="fill:#FCFFDC;" d="M123.635,179.972c-0.031-1.137-0.049-2.275-0.049-3.42
		C123.586,177.695,123.604,178.835,123.635,179.972z"/>
</g>
<path style="fill:#FFF5A5;" d="M247.172,247.173c39.002,0,70.621-31.618,70.621-70.621c0-11.322-2.679-22.013-7.415-31.498
	c-0.031-0.015-0.062-0.03-0.092-0.045c0.021,0.042,0.044,0.083,0.065,0.126c-13.13-6.451-27.529-10.71-42.755-12.162
	c-0.408-0.039-0.817-0.078-1.226-0.113c-0.76-0.065-1.523-0.119-2.286-0.17c-0.759-0.049-1.519-0.09-2.283-0.126
	c-0.555-0.026-1.108-0.055-1.665-0.074c-1.374-0.045-2.751-0.076-4.136-0.076c-1.834,0-3.658,0.041-5.472,0.12
	c-27.159,1.19-52.01,11.186-71.863,27.146c0.002-0.01,0.006-0.02,0.008-0.03c-0.029,0.023-0.057,0.044-0.086,0.067
	c-1.32,5.396-2.035,11.03-2.035,16.834C176.552,215.555,208.17,247.173,247.172,247.173z M247.172,141.242
	c19.501,0,35.31,15.809,35.31,35.31s-15.809,35.31-35.31,35.31s-35.31-15.809-35.31-35.31S227.671,141.242,247.172,141.242z"/>
<circle style="fill:#FFDC69;" cx="247.172" cy="176.552" r="35.31"/>
<g>
	<path style="fill:#B4EBBE;" d="M380.472,174.431c5.377-1.236,10.985-1.207,16.348,0.102
		C391.457,173.224,385.849,173.196,380.472,174.431z"/>
	<path style="fill:#B4EBBE;" d="M359.151,188.159L247.172,300.138l-13.241,13.241l60.16,60.16l0,0l0.042,0.042
		c49.591-16.073,85.453-62.635,85.453-117.581c0-18.858-4.254-36.711-11.821-52.692c-0.011,0.049-0.02,0.097-0.031,0.146
		C365.23,198.138,362.356,193.03,359.151,188.159z"/>
</g>
<g>
	<path style="fill:#A0D778;" d="M118.031,244.027c-0.59,0.516-1.172,1.047-1.735,1.609
		C116.86,245.074,117.441,244.543,118.031,244.027z"/>
	<path style="fill:#A0D778;" d="M122.404,240.763c-1.367,0.864-2.687,1.831-3.95,2.901
		C119.719,242.596,121.036,241.625,122.404,240.763z"/>
	<path style="fill:#A0D778;" d="M233.931,313.38l-16.967-16.967l-50.754-50.754c-7.596-7.596-17.791-10.998-27.722-10.226
		c-5.59,0.435-11.093,2.196-16.004,5.282c3.638-2.275,7.603-3.823,11.684-4.654c-1.06,6.506-1.754,13.134-1.754,19.939
		c0,57.391,39.123,105.642,92.153,119.548l0.012-0.147c8.753,2.298,17.843,3.766,27.23,4.107c0.074,0.002,0.147,0.006,0.221,0.009
		c1.318,0.045,2.641,0.069,3.969,0.069c1.523,0,3.036-0.035,4.544-0.092c0.25-0.009,0.5-0.018,0.75-0.029
		c11.403-0.492,22.393-2.557,32.797-5.927L233.931,313.38z"/>
</g>
<g>
	<path style="fill:#8EA9AA;" d="M413.382,183.865c-4.74-4.74-10.493-7.851-16.562-9.332c-5.363-1.309-10.972-1.337-16.348-0.102
		c-3.378,0.776-6.661,2.051-9.736,3.832c-0.001,0-0.002,0.001-0.003,0.002c-0.126,8.595-1.18,16.956-2.968,25.044
		c7.567,15.98,11.821,33.833,11.821,52.691c0,54.946-35.862,101.508-85.453,117.581l76.626,76.626h114.759
		c2.285,0,4.503-0.289,6.618-0.834c2.115-0.544,4.129-1.343,6.005-2.362c0.75-0.407,1.479-0.851,2.184-1.326
		c2.818-1.903,5.249-4.335,7.154-7.153c0.476-0.704,0.919-1.433,1.326-2.184c1.02-1.876,1.818-3.89,2.362-6.005
		c0.544-2.115,0.834-4.333,0.834-6.618V282.483l-73.355-73.356L413.382,183.865z"/>
	<path style="fill:#8EA9AA;" d="M256,379.587c-1.329,0-2.652-0.024-3.969-0.07C253.35,379.558,254.671,379.587,256,379.587z"/>
	<path style="fill:#8EA9AA;" d="M224.567,375.548c8.74,2.292,17.859,3.648,27.243,3.96c-9.387-0.341-18.477-1.809-27.23-4.107
		L224.567,375.548z"/>
	<path style="fill:#8EA9AA;" d="M261.293,379.466c-0.249,0.011-0.5,0.02-0.75,0.029
		C260.793,379.485,261.044,379.478,261.293,379.466z"/>
</g>
<path style="fill:#7E9B6C;" d="M294.091,373.54L294.091,373.54c-10.404,3.371-21.395,5.434-32.798,5.927
	c-0.249,0.011-0.5,0.019-0.75,0.029c-1.507,0.056-3.02,0.092-4.543,0.092c-1.329,0-2.65-0.029-3.969-0.07
	c-0.074-0.002-0.147-0.006-0.221-0.009c-9.384-0.312-18.502-1.668-27.243-3.96c-53.031-13.906-92.153-62.156-92.153-119.548
	c0-6.805,0.694-13.433,1.752-19.939c-4.082,0.831-8.045,2.378-11.684,4.654c-0.026,0.017-0.052,0.032-0.078,0.049
	c-1.368,0.861-2.687,1.833-3.95,2.901c-0.141,0.12-0.282,0.241-0.423,0.363c-0.59,0.515-1.172,1.047-1.735,1.609
	c-0.008,0.008-0.015,0.013-0.023,0.021l-33.811,33.811L0,361.932v61.793c0,14.626,11.857,26.483,26.483,26.483h191.684h152.591
	l-76.626-76.626L294.091,373.54z"/>
<g>
	<path style="fill:#C7B7C5;" d="M123.586,176.552c0,1.144,0.018,2.283,0.049,3.42c0.006,0.183,0.015,0.365,0.021,0.548
		c0.032,0.998,0.072,1.994,0.129,2.986c0.003,0.06,0.008,0.118,0.011,0.178c0.946,16.178,5.076,31.482,11.641,45.416
		c6.183-27.817,21.725-52.104,43.149-69.382c0.029-0.023,0.057-0.044,0.086-0.067c7.585-30.824,35.334-53.719,68.5-53.719
		c27.65,0,51.521,15.93,63.114,39.079c0.031,0.015,0.062,0.03,0.092,0.045c19.846,9.781,36.685,24.733,48.773,43.105
		c3.204,4.871,6.079,9.978,8.584,15.295c0.011-0.049,0.02-0.097,0.031-0.146c1.789-8.088,2.842-16.449,2.968-25.044
		c0.009-0.57,0.025-1.14,0.025-1.713c0-45.587-24.716-85.34-61.453-106.745c-5.248-3.058-10.742-5.741-16.444-8.013h-91.38
		c-5.702,2.272-11.196,4.956-16.444,8.013C148.302,91.213,123.586,130.965,123.586,176.552z"/>
	<path style="fill:#C7B7C5;" d="M256,132.414c1.385,0,2.762,0.031,4.136,0.076C258.762,132.444,257.385,132.414,256,132.414z"/>
	<path style="fill:#C7B7C5;" d="M267.595,132.974c-0.408-0.039-0.817-0.078-1.226-0.113
		C266.78,132.894,267.187,132.935,267.595,132.974z"/>
	<path style="fill:#C7B7C5;" d="M250.528,132.535c1.814-0.079,3.638-0.12,5.472-0.12
		C254.166,132.414,252.342,132.455,250.528,132.535z"/>
	<path style="fill:#C7B7C5;" d="M261.8,132.564c0.762,0.035,1.524,0.077,2.283,0.126C263.324,132.641,262.562,132.601,261.8,132.564
		z"/>
</g>
<path style="fill:#C9B094;" d="M250.528,132.535c1.814-0.079,3.638-0.12,5.472-0.12c1.385,0,2.762,0.03,4.136,0.076
	c0.556,0.019,1.11,0.047,1.665,0.074c0.762,0.036,1.524,0.076,2.283,0.126c0.764,0.051,1.527,0.105,2.286,0.17
	c0.409,0.035,0.818,0.074,1.226,0.113c15.228,1.452,29.626,5.711,42.755,12.162c-0.021-0.042-0.044-0.084-0.065-0.126
	c-11.593-23.147-35.464-39.078-63.114-39.078c-33.166,0-60.915,22.895-68.5,53.719c-0.002,0.01-0.006,0.02-0.008,0.03
	C198.518,143.719,223.369,133.723,250.528,132.535z"/>
<g>
</g>
<g>
</g>
<g>
</g>
<g>
</g>
<g>
</g>
<g>
</g>
<g>
</g>
<g>
</g>
<g>
</g>
<g>
</g>
<g>
</g>
<g>
</g>
<g>
</g>
<g>
</g>
<g>
</g>
</svg>
