<?xml version="1.0" encoding="iso-8859-1"?>
<!-- Generator: Adobe Illustrator 19.0.0, SVG Export Plug-In . SVG Version: 6.00 Build 0)  -->
<svg version="1.1" id="Layer_1" xmlns="http://www.w3.org/2000/svg" xmlns:xlink="http://www.w3.org/1999/xlink" x="0px" y="0px"
	 viewBox="0 0 512 512" style="enable-background:new 0 0 512 512;" xml:space="preserve">
<g>
	<rect x="229.517" y="17.655" style="fill:#78AAC3;" width="17.655" height="17.655"/>
	<path style="fill:#78AAC3;" d="M432.552,17.655h-26.483V35.31h17.655c4.875,0,8.828,3.953,8.828,8.828v17.655v406.069v17.655
		c0,4.875-3.953,8.828-8.828,8.828H88.276c-4.875,0-8.828-3.953-8.828-8.828v-17.655V61.793V44.138c0-4.875,3.953-8.828,8.828-8.828
		h17.655V17.655H79.448c-9.751,0-17.655,7.904-17.655,17.655v459.034c0,9.751,7.904,17.655,17.655,17.655h353.103
		c9.751,0,17.655-7.904,17.655-17.655V35.31C450.207,25.559,442.303,17.655,432.552,17.655z"/>
	<rect x="123.586" y="17.655" style="fill:#78AAC3;" width="17.655" height="17.655"/>
	<rect x="158.897" y="17.655" style="fill:#78AAC3;" width="17.655" height="17.655"/>
	<rect x="370.759" y="17.655" style="fill:#78AAC3;" width="17.655" height="17.655"/>
	<rect x="194.207" y="17.655" style="fill:#78AAC3;" width="17.655" height="17.655"/>
	<rect x="264.828" y="17.655" style="fill:#78AAC3;" width="17.655" height="17.655"/>
	<rect x="335.448" y="17.655" style="fill:#78AAC3;" width="17.655" height="17.655"/>
	<rect x="300.138" y="17.655" style="fill:#78AAC3;" width="17.655" height="17.655"/>
</g>
<path style="fill:#DEE3ED;" d="M423.724,476.69H88.276c-4.875,0-8.828-3.953-8.828-8.828v17.655c0,4.875,3.953,8.828,8.828,8.828
	h335.448c4.875,0,8.828-3.953,8.828-8.828v-17.655C432.552,472.737,428.599,476.69,423.724,476.69z"/>
<path style="fill:#FFFFFF;" d="M397.241,52.966c-4.875,0-8.828-3.953-8.828-8.828V35.31h-17.655v8.828
	c0,4.875-3.953,8.828-8.828,8.828s-8.828-3.953-8.828-8.828V35.31h-17.655v8.828c0,4.875-3.953,8.828-8.828,8.828
	s-8.828-3.953-8.828-8.828V35.31h-17.655v8.828c0,4.875-3.953,8.828-8.828,8.828s-8.828-3.953-8.828-8.828V35.31h-17.655v8.828
	c0,4.875-3.953,8.828-8.828,8.828l0,0c-4.875,0-8.828-3.953-8.828-8.828V35.31h-17.655v8.828c0,4.875-3.953,8.828-8.828,8.828
	s-8.828-3.953-8.828-8.828V35.31h-17.655v8.828c0,4.875-3.953,8.828-8.828,8.828c-4.875,0-8.828-3.953-8.828-8.828V35.31h-17.655
	v8.828c0,4.875-3.953,8.828-8.828,8.828c-4.875,0-8.828-3.953-8.828-8.828V35.31h-17.655v8.828c0,4.875-3.953,8.828-8.828,8.828
	c-4.875,0-8.828-3.953-8.828-8.828V35.31H88.276c-4.875,0-8.828,3.953-8.828,8.828v17.655v406.069c0,4.875,3.953,8.828,8.828,8.828
	h335.448c4.875,0,8.828-3.953,8.828-8.828V61.793V44.138c0-4.875-3.953-8.828-8.828-8.828h-17.655v8.828
	C406.069,49.013,402.116,52.966,397.241,52.966z M326.621,79.448c4.875,0,8.828,3.948,8.828,8.828c0,4.879-3.953,8.828-8.828,8.828
	H185.379c-4.875,0-8.828-3.948-8.828-8.828c0-4.879,3.953-8.828,8.828-8.828H326.621z M158.897,114.759h194.207
	c4.875,0,8.828,3.948,8.828,8.828c0,4.879-3.953,8.828-8.828,8.828H158.897c-4.875,0-8.828-3.948-8.828-8.828
	C150.069,118.707,154.022,114.759,158.897,114.759z M247.172,432.552c0,0.305-0.015,0.606-0.045,0.903
	c-0.09,0.89-0.313,1.741-0.648,2.534c-0.894,2.112-2.585,3.805-4.697,4.697c-0.792,0.335-1.643,0.557-2.534,0.648
	c-0.298,0.031-0.599,0.046-0.904,0.046H123.586c-0.305,0-0.606-0.015-0.903-0.045c-0.89-0.09-1.741-0.313-2.534-0.648
	c-2.112-0.894-3.805-2.585-4.697-4.697c-0.335-0.792-0.557-1.643-0.648-2.534c-0.031-0.298-0.046-0.599-0.046-0.904V300.138
	c0-1.828,0.556-3.527,1.507-4.936c0.476-0.704,1.05-1.336,1.705-1.876c0.654-0.54,1.387-0.986,2.179-1.322
	c0.792-0.335,1.643-0.557,2.534-0.648c0.297-0.03,0.598-0.045,0.903-0.045h114.759c0.305,0,0.606,0.015,0.903,0.045
	c0.89,0.09,1.741,0.313,2.534,0.648c0.792,0.335,1.525,0.782,2.179,1.322c0.218,0.18,0.427,0.37,0.627,0.569
	c0.399,0.399,0.76,0.836,1.078,1.306c0.952,1.409,1.507,3.107,1.507,4.936V432.552z M397.241,432.552
	c0,0.305-0.015,0.606-0.045,0.903c-0.09,0.89-0.313,1.741-0.648,2.534c-0.894,2.112-2.585,3.805-4.697,4.697
	c-0.792,0.335-1.643,0.557-2.534,0.648c-0.298,0.031-0.599,0.046-0.904,0.046H273.655c-0.305,0-0.606-0.015-0.903-0.045
	c-0.891-0.09-1.741-0.313-2.534-0.648c-2.112-0.894-3.805-2.585-4.697-4.697c-0.335-0.792-0.557-1.643-0.648-2.534
	c-0.031-0.298-0.046-0.599-0.046-0.904V300.138c0-1.828,0.556-3.527,1.507-4.936c0.476-0.704,1.05-1.336,1.705-1.876
	c0.654-0.54,1.387-0.986,2.179-1.322c0.792-0.335,1.643-0.557,2.534-0.648c0.297-0.03,0.598-0.045,0.903-0.045h114.759
	c0.305,0,0.606,0.015,0.903,0.045c0.891,0.09,1.741,0.313,2.534,0.648c0.792,0.335,1.525,0.782,2.179,1.322
	c0.218,0.18,0.427,0.37,0.627,0.569c0.399,0.399,0.76,0.836,1.078,1.306c0.952,1.409,1.507,3.107,1.507,4.936L397.241,432.552
	L397.241,432.552z M397.241,264.828c0,0.305-0.015,0.606-0.045,0.903c-0.09,0.891-0.313,1.741-0.648,2.534
	c-0.894,2.112-2.585,3.805-4.697,4.697c-0.792,0.335-1.643,0.557-2.534,0.648c-0.298,0.031-0.599,0.046-0.904,0.046H123.586
	c-0.305,0-0.606-0.015-0.903-0.045c-0.89-0.09-1.741-0.313-2.534-0.648c-2.112-0.894-3.805-2.585-4.697-4.697
	c-0.335-0.792-0.557-1.643-0.648-2.534c-0.031-0.298-0.046-0.599-0.046-0.904v-97.103c0-1.828,0.556-3.527,1.507-4.936
	c0.476-0.704,1.05-1.336,1.705-1.876c0.654-0.54,1.387-0.986,2.179-1.322s1.643-0.557,2.534-0.648
	c0.297-0.03,0.598-0.045,0.903-0.045h264.828c0.305,0,0.606,0.015,0.903,0.045c0.891,0.09,1.741,0.313,2.534,0.648
	c0.792,0.335,1.525,0.782,2.179,1.322c0.218,0.18,0.427,0.37,0.627,0.569c0.399,0.399,0.76,0.836,1.078,1.306
	c0.952,1.409,1.507,3.107,1.507,4.936L397.241,264.828L397.241,264.828z"/>
<g>
	<path style="fill:#788CA5;" d="M247.172,44.138c0,4.875,3.953,8.828,8.828,8.828l0,0c4.875,0,8.828-3.953,8.828-8.828V35.31V17.655
		V8.828C264.828,3.953,260.875,0,256,0l0,0c-4.875,0-8.828,3.953-8.828,8.828v8.828V35.31V44.138z"/>
	<path style="fill:#788CA5;" d="M282.483,44.138c0,4.875,3.953,8.828,8.828,8.828s8.828-3.953,8.828-8.828V35.31V17.655V8.828
		c0-4.875-3.953-8.828-8.828-8.828s-8.828,3.953-8.828,8.828v8.828V35.31V44.138z"/>
	<path style="fill:#788CA5;" d="M317.793,44.138c0,4.875,3.953,8.828,8.828,8.828s8.828-3.953,8.828-8.828V35.31V17.655V8.828
		c0-4.875-3.953-8.828-8.828-8.828s-8.828,3.953-8.828,8.828v8.828V35.31V44.138z"/>
	<path style="fill:#788CA5;" d="M353.103,44.138c0,4.875,3.953,8.828,8.828,8.828s8.828-3.953,8.828-8.828V35.31V17.655V8.828
		c0-4.875-3.953-8.828-8.828-8.828s-8.828,3.953-8.828,8.828v8.828V35.31V44.138z"/>
	<path style="fill:#788CA5;" d="M388.414,44.138c0,4.875,3.953,8.828,8.828,8.828c4.875,0,8.828-3.953,8.828-8.828V35.31V17.655
		V8.828c0-4.875-3.953-8.828-8.828-8.828c-4.875,0-8.828,3.953-8.828,8.828v8.828V35.31V44.138z"/>
	<path style="fill:#788CA5;" d="M105.931,44.138c0,4.875,3.953,8.828,8.828,8.828c4.875,0,8.828-3.953,8.828-8.828V35.31V17.655
		V8.828c0-4.875-3.953-8.828-8.828-8.828c-4.875,0-8.828,3.953-8.828,8.828v8.828V35.31V44.138z"/>
	<path style="fill:#788CA5;" d="M141.241,44.138c0,4.875,3.953,8.828,8.828,8.828c4.875,0,8.828-3.953,8.828-8.828V35.31V17.655
		V8.828c0-4.875-3.953-8.828-8.828-8.828c-4.875,0-8.828,3.953-8.828,8.828v8.828V35.31V44.138z"/>
	<path style="fill:#788CA5;" d="M176.552,44.138c0,4.875,3.953,8.828,8.828,8.828c4.875,0,8.828-3.953,8.828-8.828V35.31V17.655
		V8.828c0-4.875-3.953-8.828-8.828-8.828c-4.875,0-8.828,3.953-8.828,8.828v8.828V35.31V44.138z"/>
	<path style="fill:#788CA5;" d="M211.862,44.138c0,4.875,3.953,8.828,8.828,8.828s8.828-3.953,8.828-8.828V35.31V17.655V8.828
		c0-4.875-3.953-8.828-8.828-8.828s-8.828,3.953-8.828,8.828v8.828V35.31V44.138z"/>
</g>
<g>
	<polygon style="fill:#DEE3ED;" points="173.294,176.552 256,206.877 338.706,176.552 	"/>
	<polygon style="fill:#DEE3ED;" points="256,225.675 173.294,256 338.706,256 	"/>
	<path style="fill:#DEE3ED;" d="M391.85,272.961c2.112-0.894,3.805-2.585,4.697-4.697
		C395.655,270.376,393.962,272.068,391.85,272.961z"/>
	<path style="fill:#DEE3ED;" d="M122.684,273.61c-0.89-0.09-1.741-0.313-2.534-0.648
		C120.942,273.297,121.793,273.519,122.684,273.61z"/>
	<polygon style="fill:#DEE3ED;" points="230.367,216.276 132.414,180.36 132.414,252.192 	"/>
	<polygon style="fill:#DEE3ED;" points="281.633,216.276 379.586,252.192 379.586,180.36 	"/>
	<path style="fill:#DEE3ED;" d="M115.453,268.264c0.894,2.112,2.585,3.805,4.697,4.697
		C118.038,272.068,116.345,270.376,115.453,268.264z"/>
	<path style="fill:#DEE3ED;" d="M391.85,272.961c-0.792,0.335-1.643,0.557-2.534,0.648
		C390.207,273.519,391.058,273.297,391.85,272.961z"/>
	<path style="fill:#DEE3ED;" d="M115.453,268.264c-0.335-0.792-0.557-1.643-0.648-2.534
		C114.894,266.621,115.117,267.471,115.453,268.264z"/>
	<path style="fill:#DEE3ED;" d="M397.196,265.73c-0.09,0.891-0.313,1.741-0.648,2.534
		C396.883,267.471,397.106,266.621,397.196,265.73z"/>
	<path style="fill:#DEE3ED;" d="M120.15,159.591c0.792-0.335,1.643-0.557,2.534-0.648
		C121.793,159.032,120.942,159.255,120.15,159.591z"/>
	<path style="fill:#DEE3ED;" d="M117.971,160.913c0.654-0.54,1.387-0.986,2.179-1.322
		C119.358,159.925,118.625,160.373,117.971,160.913z"/>
	<path style="fill:#DEE3ED;" d="M117.971,160.913c-0.654,0.54-1.229,1.172-1.705,1.876
		C116.743,162.084,117.318,161.452,117.971,160.913z"/>
	<path style="fill:#DEE3ED;" d="M389.316,158.942c0.891,0.09,1.741,0.313,2.534,0.648
		C391.058,159.255,390.207,159.032,389.316,158.942z"/>
	<path style="fill:#DEE3ED;" d="M391.85,159.591c0.792,0.335,1.525,0.782,2.179,1.322
		C393.375,160.373,392.642,159.925,391.85,159.591z"/>
	<path style="fill:#DEE3ED;" d="M394.656,161.482c0.399,0.399,0.76,0.836,1.078,1.306
		C395.416,162.318,395.055,161.881,394.656,161.482z"/>
</g>
<path style="fill:#AFBBD0;" d="M394.656,161.482c-0.2-0.2-0.409-0.39-0.627-0.569c-0.654-0.54-1.387-0.986-2.179-1.322
	c-0.792-0.335-1.643-0.557-2.534-0.648c-0.297-0.031-0.598-0.046-0.903-0.046H123.586c-0.305,0-0.606,0.015-0.903,0.045
	c-0.89,0.09-1.741,0.313-2.534,0.648c-0.792,0.335-1.525,0.782-2.179,1.322c-0.654,0.54-1.229,1.172-1.705,1.876
	c-0.951,1.41-1.507,3.108-1.507,4.937v97.103c0,0.305,0.015,0.606,0.045,0.903c0.09,0.891,0.313,1.741,0.648,2.534
	c0.894,2.112,2.585,3.805,4.697,4.697c0.792,0.335,1.643,0.557,2.534,0.648c0.297,0.03,0.598,0.045,0.903,0.045h264.828
	c0.305,0,0.606-0.015,0.903-0.045c0.89-0.09,1.741-0.313,2.533-0.648c2.112-0.894,3.805-2.585,4.697-4.697
	c0.335-0.792,0.557-1.643,0.648-2.534c0.03-0.297,0.045-0.598,0.045-0.903v-97.103c0-1.828-0.556-3.527-1.507-4.936
	C395.416,162.318,395.055,161.881,394.656,161.482z M230.367,216.276l-97.953,35.916V180.36L230.367,216.276z M173.294,176.552
	h165.411L256,206.877L173.294,176.552z M256,225.675L338.706,256H173.294L256,225.675z M281.633,216.276l97.953-35.916v71.832
	L281.633,216.276z"/>
<g>
	<path style="fill:#DEE3ED;" d="M241.781,440.685c2.112-0.894,3.805-2.585,4.697-4.697
		C245.586,438.1,243.893,439.793,241.781,440.685z"/>
	<polygon style="fill:#DEE3ED;" points="169.518,366.345 132.414,321.373 132.414,411.317 	"/>
	<path style="fill:#DEE3ED;" d="M115.453,435.988c0.894,2.112,2.585,3.805,4.697,4.697
		C118.038,439.793,116.345,438.1,115.453,435.988z"/>
	<polygon style="fill:#DEE3ED;" points="192.413,366.345 229.517,411.317 229.517,321.373 	"/>
	<polygon style="fill:#DEE3ED;" points="145.073,308.966 180.966,352.47 216.858,308.966 	"/>
	<path style="fill:#DEE3ED;" d="M117.971,293.326c-0.654,0.54-1.229,1.172-1.705,1.876
		C116.743,294.498,117.318,293.866,117.971,293.326z"/>
	<polygon style="fill:#DEE3ED;" points="180.966,380.22 145.073,423.724 216.858,423.724 	"/>
	<path style="fill:#DEE3ED;" d="M122.684,441.334c-0.89-0.09-1.741-0.313-2.534-0.648
		C120.942,441.021,121.793,441.244,122.684,441.334z"/>
	<path style="fill:#DEE3ED;" d="M117.971,293.326c0.654-0.54,1.387-0.986,2.179-1.322
		C119.358,292.339,118.625,292.787,117.971,293.326z"/>
	<path style="fill:#DEE3ED;" d="M115.453,435.988c-0.335-0.792-0.557-1.643-0.648-2.534
		C114.894,434.345,115.117,435.196,115.453,435.988z"/>
	<path style="fill:#DEE3ED;" d="M241.781,440.685c-0.792,0.335-1.643,0.557-2.534,0.648
		C240.138,441.244,240.989,441.021,241.781,440.685z"/>
	<path style="fill:#DEE3ED;" d="M247.127,433.454c-0.09,0.89-0.313,1.741-0.648,2.534
		C246.814,435.196,247.037,434.345,247.127,433.454z"/>
	<path style="fill:#DEE3ED;" d="M241.781,292.004c0.792,0.335,1.525,0.782,2.179,1.322
		C243.306,292.787,242.573,292.339,241.781,292.004z"/>
	<path style="fill:#DEE3ED;" d="M239.247,291.356c0.89,0.09,1.741,0.313,2.534,0.648
		C240.989,291.669,240.138,291.446,239.247,291.356z"/>
	<path style="fill:#DEE3ED;" d="M244.587,293.896c0.399,0.399,0.76,0.836,1.078,1.306
		C245.347,294.732,244.986,294.295,244.587,293.896z"/>
	<path style="fill:#DEE3ED;" d="M120.15,292.004c0.792-0.335,1.643-0.557,2.534-0.648
		C121.793,291.446,120.942,291.669,120.15,292.004z"/>
</g>
<path style="fill:#AFBBD0;" d="M244.587,293.896c-0.2-0.2-0.409-0.39-0.627-0.569c-0.654-0.54-1.387-0.986-2.179-1.322
	c-0.792-0.335-1.643-0.557-2.534-0.648c-0.297-0.031-0.598-0.046-0.903-0.046H123.586c-0.305,0-0.606,0.015-0.903,0.045
	c-0.89,0.09-1.741,0.313-2.534,0.648c-0.792,0.335-1.525,0.782-2.179,1.322c-0.654,0.54-1.229,1.172-1.705,1.876
	c-0.951,1.41-1.507,3.108-1.507,4.937v132.414c0,0.305,0.015,0.606,0.045,0.903c0.09,0.89,0.313,1.741,0.648,2.534
	c0.894,2.112,2.585,3.805,4.697,4.697c0.792,0.335,1.643,0.557,2.534,0.648c0.297,0.03,0.598,0.045,0.903,0.045h114.759
	c0.305,0,0.606-0.015,0.903-0.045c0.891-0.09,1.741-0.313,2.534-0.648c2.112-0.894,3.805-2.585,4.697-4.697
	c0.335-0.792,0.557-1.643,0.648-2.534c0.03-0.297,0.045-0.598,0.045-0.903V300.138c0-1.828-0.556-3.527-1.507-4.936
	C245.347,294.732,244.986,294.295,244.587,293.896z M169.518,366.345l-37.105,44.972v-89.945L169.518,366.345z M145.073,308.966
	h71.785l-35.892,43.505L145.073,308.966z M180.966,380.22l35.893,43.505h-71.785L180.966,380.22z M192.413,366.345l37.105-44.972
	v89.945L192.413,366.345z"/>
<g>
	<path style="fill:#DEE3ED;" d="M389.316,291.356c0.891,0.09,1.741,0.313,2.534,0.648
		C391.058,291.669,390.207,291.446,389.316,291.356z"/>
	<path style="fill:#DEE3ED;" d="M272.753,441.334c-0.891-0.09-1.741-0.313-2.534-0.648
		C271.011,441.021,271.862,441.244,272.753,441.334z"/>
	<path style="fill:#DEE3ED;" d="M265.522,435.988c-0.335-0.792-0.557-1.643-0.648-2.534
		C264.963,434.345,265.186,435.196,265.522,435.988z"/>
	<path style="fill:#DEE3ED;" d="M268.04,293.326c0.654-0.54,1.387-0.986,2.179-1.322
		C269.427,292.339,268.694,292.787,268.04,293.326z"/>
	<path style="fill:#DEE3ED;" d="M391.85,440.685c-0.792,0.335-1.643,0.557-2.534,0.648
		C390.207,441.244,391.058,441.021,391.85,440.685z"/>
	<path style="fill:#DEE3ED;" d="M268.04,293.326c-0.654,0.54-1.229,1.172-1.705,1.876
		C266.812,294.498,267.386,293.866,268.04,293.326z"/>
	<path style="fill:#DEE3ED;" d="M270.219,292.004c0.792-0.335,1.643-0.557,2.534-0.648
		C271.862,291.446,271.011,291.669,270.219,292.004z"/>
	<path style="fill:#DEE3ED;" d="M394.656,293.896c0.399,0.399,0.76,0.836,1.078,1.306
		C395.416,294.732,395.055,294.295,394.656,293.896z"/>
	<path style="fill:#DEE3ED;" d="M391.85,292.004c0.792,0.335,1.525,0.782,2.179,1.322
		C393.375,292.787,392.642,292.339,391.85,292.004z"/>
	<path style="fill:#DEE3ED;" d="M397.196,433.454c-0.09,0.89-0.313,1.741-0.648,2.534
		C396.883,435.196,397.106,434.345,397.196,433.454z"/>
	<polygon style="fill:#DEE3ED;" points="295.142,308.966 331.034,352.47 366.927,308.966 	"/>
	<polygon style="fill:#DEE3ED;" points="319.587,366.345 282.483,321.373 282.483,411.317 	"/>
	<path style="fill:#DEE3ED;" d="M391.85,440.685c2.112-0.894,3.805-2.585,4.697-4.697C395.655,438.1,393.962,439.793,391.85,440.685
		z"/>
	<polygon style="fill:#DEE3ED;" points="342.482,366.345 379.586,411.317 379.586,321.373 	"/>
	<polygon style="fill:#DEE3ED;" points="331.034,380.22 295.142,423.724 366.927,423.724 	"/>
	<path style="fill:#DEE3ED;" d="M265.522,435.988c0.894,2.112,2.585,3.805,4.697,4.697
		C268.107,439.793,266.414,438.1,265.522,435.988z"/>
</g>
<g>
	<path style="fill:#AFBBD0;" d="M394.656,293.896c-0.2-0.2-0.409-0.39-0.627-0.569c-0.654-0.54-1.387-0.986-2.179-1.322
		c-0.792-0.335-1.643-0.557-2.534-0.648c-0.297-0.031-0.598-0.046-0.903-0.046H273.655c-0.305,0-0.606,0.015-0.903,0.045
		c-0.891,0.09-1.741,0.313-2.534,0.648c-0.792,0.335-1.525,0.782-2.179,1.322c-0.654,0.54-1.229,1.172-1.705,1.876
		c-0.951,1.41-1.507,3.108-1.507,4.937v132.414c0,0.305,0.015,0.606,0.045,0.903c0.09,0.89,0.313,1.741,0.648,2.534
		c0.894,2.112,2.585,3.805,4.697,4.697c0.792,0.335,1.643,0.557,2.534,0.648c0.297,0.03,0.598,0.045,0.903,0.045h114.759
		c0.305,0,0.606-0.015,0.903-0.045c0.89-0.09,1.741-0.313,2.534-0.648c2.112-0.894,3.805-2.585,4.697-4.697
		c0.335-0.792,0.557-1.643,0.648-2.534c0.03-0.297,0.045-0.598,0.045-0.903V300.138c0-1.828-0.556-3.527-1.507-4.936
		C395.416,294.732,395.055,294.295,394.656,293.896z M319.587,366.345l-37.105,44.972v-89.945L319.587,366.345z M295.142,308.966
		h71.785l-35.892,43.505L295.142,308.966z M331.034,380.22l35.893,43.505h-71.785L331.034,380.22z M342.482,366.345l37.105-44.972
		v89.945L342.482,366.345z"/>
	<path style="fill:#AFBBD0;" d="M158.897,132.414h194.207c4.875,0,8.828-3.948,8.828-8.828c0-4.879-3.953-8.828-8.828-8.828H158.897
		c-4.875,0-8.828,3.948-8.828,8.828C150.069,128.466,154.022,132.414,158.897,132.414z"/>
	<path style="fill:#AFBBD0;" d="M176.552,88.276c0,4.879,3.953,8.828,8.828,8.828h141.241c4.875,0,8.828-3.948,8.828-8.828
		c0-4.879-3.953-8.828-8.828-8.828H185.379C180.504,79.448,176.552,83.396,176.552,88.276z"/>
</g>
<g>
</g>
<g>
</g>
<g>
</g>
<g>
</g>
<g>
</g>
<g>
</g>
<g>
</g>
<g>
</g>
<g>
</g>
<g>
</g>
<g>
</g>
<g>
</g>
<g>
</g>
<g>
</g>
<g>
</g>
</svg>
