<?xml version="1.0" encoding="iso-8859-1"?>
<!-- Generator: Adobe Illustrator 19.0.0, SVG Export Plug-In . SVG Version: 6.00 Build 0)  -->
<svg version="1.1" id="Layer_1" xmlns="http://www.w3.org/2000/svg" xmlns:xlink="http://www.w3.org/1999/xlink" x="0px" y="0px"
	 viewBox="0 0 512 512" style="enable-background:new 0 0 512 512;" xml:space="preserve">
<g>
	<path style="fill:#BEC8DC;" d="M61.619,511.409c-0.444-0.056-0.889-0.104-1.33-0.169C60.73,511.305,61.175,511.352,61.619,511.409z
		"/>
	<path style="fill:#BEC8DC;" d="M58.055,510.862c-0.382-0.068-0.766-0.129-1.145-0.204C57.29,510.733,57.673,510.794,58.055,510.862
		z"/>
	<path style="fill:#BEC8DC;" d="M70.574,511.999c-1.155-0.001-2.303-0.032-3.445-0.087
		C68.277,511.968,69.426,511.998,70.574,511.999z"/>
	<path style="fill:#BEC8DC;" d="M54.663,510.167c-0.374-0.086-0.749-0.167-1.121-0.258C53.914,510.001,54.29,510.081,54.663,510.167
		z"/>
	<path style="fill:#BEC8DC;" d="M65.473,511.794c-0.595-0.043-1.192-0.078-1.783-0.136C64.284,511.715,64.878,511.75,65.473,511.794
		z"/>
	<path style="fill:#BEC8DC;" d="M94.007,453.806c-0.355,0.668-0.745,1.323-1.161,1.965C93.26,455.135,93.649,454.481,94.007,453.806
		z"/>
	<path style="fill:#BEC8DC;" d="M46.123,431.316c0.287-0.701,0.61-1.389,0.96-2.068C46.734,429.921,46.413,430.61,46.123,431.316z"
		/>
	<path style="fill:#BEC8DC;" d="M45.254,433.768c0.222-0.743,0.481-1.475,0.769-2.2C45.736,432.287,45.478,433.02,45.254,433.768z"
		/>
	<path style="fill:#BEC8DC;" d="M44.636,436.268c0.152-0.777,0.342-1.548,0.564-2.311C44.979,434.714,44.789,435.485,44.636,436.268
		z"/>
	<path style="fill:#BEC8DC;" d="M44.265,438.802c0.077-0.797,0.194-1.59,0.343-2.379C44.46,437.205,44.342,437.997,44.265,438.802z"
		/>
	<path style="fill:#BEC8DC;" d="M44.138,441.376c0-0.814,0.042-1.629,0.117-2.44C44.181,439.74,44.138,440.553,44.138,441.376z"/>
	<path style="fill:#BEC8DC;" d="M44.255,443.822c-0.075-0.812-0.117-1.625-0.117-2.44C44.138,442.206,44.181,443.019,44.255,443.822
		z"/>
	<path style="fill:#BEC8DC;" d="M47.234,428.951c0.355-0.668,0.744-1.322,1.16-1.963C47.981,427.625,47.593,428.278,47.234,428.951z
		"/>
	<path style="fill:#BEC8DC;" d="M54.025,420.748c0.626-0.505,1.269-0.978,1.928-1.417C55.287,419.774,54.645,420.248,54.025,420.748
		z"/>
	<path style="fill:#BEC8DC;" d="M51.894,422.653c0.63-0.63,1.286-1.218,1.96-1.771C53.173,421.44,52.518,422.03,51.894,422.653z"/>
	<path style="fill:#BEC8DC;" d="M56.23,419.153c0.641-0.416,1.295-0.804,1.963-1.16C57.519,418.351,56.866,418.74,56.23,419.153z"/>
	<path style="fill:#BEC8DC;" d="M48.572,426.711c0.439-0.659,0.913-1.302,1.417-1.928C49.49,425.404,49.015,426.046,48.572,426.711z
		"/>
	<path style="fill:#BEC8DC;" d="M50.123,424.614c0.553-0.675,1.142-1.331,1.772-1.961C51.272,423.276,50.681,423.932,50.123,424.614
		z"/>
	<path style="fill:#BEC8DC;" d="M53.855,461.877c-0.675-0.553-1.331-1.142-1.96-1.771C52.518,460.728,53.173,461.319,53.855,461.877
		z"/>
	<path style="fill:#BEC8DC;" d="M51.894,460.106c-0.63-0.63-1.218-1.286-1.772-1.961C50.681,458.827,51.272,459.482,51.894,460.106z
		"/>
	<path style="fill:#BEC8DC;" d="M55.953,463.428c-0.659-0.439-1.302-0.913-1.928-1.417C54.645,462.51,55.287,462.985,55.953,463.428
		z"/>
	<path style="fill:#BEC8DC;" d="M60.557,465.877c-0.701-0.287-1.389-0.609-2.068-0.959
		C59.162,465.266,59.851,465.587,60.557,465.877z"/>
	<path style="fill:#BEC8DC;" d="M58.193,464.766c-0.668-0.355-1.322-0.744-1.963-1.16C56.866,464.019,57.519,464.407,58.193,464.766
		z"/>
	<path style="fill:#BEC8DC;" d="M46.023,451.19c-0.288-0.724-0.547-1.458-0.769-2.2C45.478,449.739,45.736,450.472,46.023,451.19z"
		/>
	<path style="fill:#BEC8DC;" d="M63.009,466.746c-0.743-0.222-1.475-0.481-2.2-0.77C61.528,466.264,62.261,466.522,63.009,466.746z"
		/>
	<path style="fill:#BEC8DC;" d="M44.608,446.336c-0.149-0.788-0.266-1.582-0.343-2.379C44.342,444.761,44.46,445.554,44.608,446.336
		z"/>
	<path style="fill:#BEC8DC;" d="M49.99,457.975c-0.505-0.626-0.978-1.269-1.417-1.928C49.015,456.713,49.49,457.355,49.99,457.975z"
		/>
	<path style="fill:#BEC8DC;" d="M48.394,455.77c-0.416-0.641-0.804-1.295-1.16-1.963C47.593,454.481,47.981,455.134,48.394,455.77z"
		/>
	<path style="fill:#BEC8DC;" d="M47.082,453.511c-0.35-0.679-0.672-1.367-0.96-2.068C46.413,452.149,46.734,452.838,47.082,453.511z
		"/>
	<path style="fill:#BEC8DC;" d="M45.199,448.801c-0.222-0.764-0.413-1.534-0.564-2.311
		C44.789,447.274,44.979,448.044,45.199,448.801z"/>
	<path style="fill:#BEC8DC;" d="M94.158,429.247c0.35,0.679,0.673,1.368,0.961,2.069C94.828,430.61,94.507,429.921,94.158,429.247z"
		/>
	<path style="fill:#BEC8DC;" d="M95.218,431.566c0.289,0.725,0.548,1.46,0.77,2.202C95.764,433.02,95.506,432.286,95.218,431.566z"
		/>
	<path style="fill:#BEC8DC;" d="M92.846,426.987c0.417,0.642,0.806,1.297,1.161,1.965C93.649,428.278,93.26,427.624,92.846,426.987z
		"/>
	<path style="fill:#BEC8DC;" d="M96.041,433.955c0.223,0.765,0.413,1.536,0.565,2.314C96.452,435.485,96.263,434.713,96.041,433.955
		z"/>
	<path style="fill:#BEC8DC;" d="M91.251,424.782c0.505,0.627,0.979,1.27,1.419,1.93C92.226,426.046,91.752,425.404,91.251,424.782z"
		/>
	<path style="fill:#BEC8DC;" d="M85.288,419.33c0.66,0.439,1.303,0.914,1.93,1.418C86.596,420.248,85.954,419.774,85.288,419.33z"/>
	<path style="fill:#BEC8DC;" d="M87.386,461.878c1.365-1.118,2.615-2.368,3.733-3.733c-0.553,0.675-1.142,1.331-1.772,1.961
		C88.716,460.736,88.061,461.324,87.386,461.878z"/>
	<path style="fill:#BEC8DC;" d="M96.986,443.825c0.074-0.806,0.117-1.62,0.117-2.445C97.103,442.196,97.062,443.011,96.986,443.825z
		"/>
	<path style="fill:#BEC8DC;" d="M58.489,417.841c0.679-0.35,1.367-0.672,2.068-0.959C59.851,417.172,59.162,417.493,58.489,417.841z
		"/>
	<path style="fill:#BEC8DC;" d="M91.119,424.614c-1.118-1.365-2.368-2.615-3.733-3.733c0.675,0.553,1.331,1.142,1.961,1.772
		C89.977,423.284,90.566,423.939,91.119,424.614z"/>
	<path style="fill:#BEC8DC;" d="M96.633,436.422c0.15,0.789,0.266,1.583,0.343,2.381C96.899,437.997,96.781,437.204,96.633,436.422z
		"/>
	<path style="fill:#BEC8DC;" d="M96.986,438.934c0.075,0.813,0.117,1.629,0.117,2.445C97.103,440.554,97.06,439.74,96.986,438.934z"
		/>
	<path style="fill:#BEC8DC;" d="M70.624,414.897c0.814,0,1.629,0.042,2.441,0.117C72.26,414.94,71.447,414.897,70.624,414.897z"/>
	<path style="fill:#BEC8DC;" d="M68.178,415.013c0.811-0.075,1.625-0.117,2.44-0.117C69.794,414.897,68.981,414.94,68.178,415.013z"
		/>
	<path style="fill:#BEC8DC;" d="M83.049,417.993c0.668,0.355,1.322,0.745,1.964,1.161C84.375,418.74,83.722,418.351,83.049,417.993z
		"/>
	<path style="fill:#BEC8DC;" d="M60.81,416.781c0.724-0.288,1.458-0.547,2.2-0.77C62.261,416.236,61.528,416.494,60.81,416.781z"/>
	<path style="fill:#BEC8DC;" d="M63.199,415.958c0.764-0.222,1.534-0.413,2.311-0.564C64.726,415.548,63.956,415.737,63.199,415.958
		z"/>
	<path style="fill:#BEC8DC;" d="M65.664,415.367c0.788-0.149,1.582-0.266,2.379-0.343C67.239,415.101,66.446,415.219,65.664,415.367
		z"/>
	<path style="fill:#BEC8DC;" d="M80.684,416.882c0.701,0.287,1.389,0.61,2.068,0.96C82.079,417.493,81.39,417.172,80.684,416.882z"
		/>
	<path style="fill:#BEC8DC;" d="M78.231,416.012c0.743,0.222,1.476,0.481,2.2,0.77C79.713,416.494,78.98,416.236,78.231,416.012z"/>
	<path style="fill:#BEC8DC;" d="M73.198,415.023c0.797,0.077,1.59,0.194,2.379,0.343C74.795,415.219,74.003,415.101,73.198,415.023z
		"/>
	<path style="fill:#BEC8DC;" d="M51.394,509.329c-0.402-0.114-0.804-0.222-1.203-0.342
		C50.592,509.108,50.994,509.216,51.394,509.329z"/>
	<path style="fill:#BEC8DC;" d="M75.732,415.394c0.777,0.152,1.548,0.342,2.312,0.564C77.286,415.737,76.515,415.548,75.732,415.394
		z"/>
	<path style="fill:#BEC8DC;" d="M4.106,465.13c-0.159-0.446-0.306-0.897-0.456-1.347C3.799,464.232,3.946,464.683,4.106,465.13z"/>
	<path style="fill:#BEC8DC;" d="M5.368,468.407c-0.21-0.504-0.404-1.016-0.602-1.527C4.963,467.391,5.159,467.901,5.368,468.407z"/>
	<path style="fill:#BEC8DC;" d="M8.37,474.741c-0.328-0.609-0.638-1.229-0.947-1.848C7.732,473.512,8.042,474.13,8.37,474.741z"/>
	<path style="fill:#BEC8DC;" d="M6.793,471.618c-0.267-0.563-0.518-1.133-0.77-1.704C6.274,470.484,6.526,471.054,6.793,471.618z"/>
	<path style="fill:#BEC8DC;" d="M11.936,480.669c-0.425-0.633-0.832-1.281-1.236-1.929
		C11.104,479.388,11.509,480.033,11.936,480.669z"/>
	<path style="fill:#BEC8DC;" d="M10.087,477.759c-0.382-0.634-0.746-1.281-1.109-1.929C9.34,476.477,9.703,477.122,10.087,477.759z"
		/>
	<path style="fill:#BEC8DC;" d="M0.088,444.873C0.032,443.714,0,442.551,0,441.379C0,442.545,0.031,443.709,0.088,444.873z"/>
	<path style="fill:#BEC8DC;" d="M3.012,461.807c-0.12-0.398-0.228-0.802-0.342-1.204C2.784,461.005,2.892,461.408,3.012,461.807z"/>
	<path style="fill:#BEC8DC;" d="M0.343,448.31c-0.057-0.594-0.093-1.193-0.137-1.791C0.249,447.116,0.285,447.714,0.343,448.31z"/>
	<path style="fill:#BEC8DC;" d="M0.76,451.713c-0.065-0.444-0.114-0.892-0.17-1.337C0.648,450.822,0.695,451.268,0.76,451.713z"/>
	<path style="fill:#BEC8DC;" d="M13.916,483.471c-0.448-0.604-0.878-1.221-1.308-1.839
		C13.036,482.249,13.464,482.866,13.916,483.471z"/>
	<path style="fill:#BEC8DC;" d="M2.092,458.46c-0.093-0.374-0.173-0.751-0.26-1.128C1.919,457.707,1.999,458.084,2.092,458.46z"/>
	<path style="fill:#BEC8DC;" d="M1.342,455.093c-0.075-0.382-0.137-0.769-0.206-1.154C1.205,454.324,1.267,454.709,1.342,455.093z"
		/>
	<path style="fill:#BEC8DC;" d="M16.026,486.174c-0.441-0.537-0.864-1.091-1.29-1.642C15.162,485.081,15.583,485.634,16.026,486.174
		z"/>
	<path style="fill:#BEC8DC;" d="M42.084,505.977c-0.569-0.253-1.141-0.503-1.703-0.77C40.946,505.474,41.515,505.725,42.084,505.977
		z"/>
	<path style="fill:#BEC8DC;" d="M39.107,504.577c-0.62-0.31-1.239-0.62-1.848-0.947C37.87,503.958,38.488,504.268,39.107,504.577z"
		/>
	<path style="fill:#BEC8DC;" d="M48.218,508.351c-0.45-0.15-0.902-0.297-1.347-0.456C47.318,508.054,47.768,508.201,48.218,508.351z
		"/>
	<path style="fill:#BEC8DC;" d="M45.117,507.233c-0.509-0.198-1.02-0.392-1.523-0.6C44.099,506.841,44.608,507.036,45.117,507.233z"
		/>
	<path style="fill:#BEC8DC;" d="M36.17,503.022c-0.648-0.363-1.294-0.726-1.929-1.109C34.878,502.297,35.523,502.661,36.17,503.022z
		"/>
	<path style="fill:#BEC8DC;" d="M24.463,494.804c-0.416-0.36-0.84-0.711-1.247-1.08C23.626,494.094,24.049,494.443,24.463,494.804z"
		/>
	<path style="fill:#BEC8DC;" d="M18.276,488.782c-0.37-0.408-0.723-0.833-1.084-1.25C17.554,487.949,17.905,488.372,18.276,488.782z
		"/>
	<path style="fill:#BEC8DC;" d="M30.365,499.391c-0.617-0.429-1.234-0.859-1.836-1.305
		C29.133,498.535,29.749,498.963,30.365,499.391z"/>
	<path style="fill:#BEC8DC;" d="M33.258,501.299c-0.647-0.404-1.293-0.81-1.926-1.235C31.967,500.491,32.611,500.896,33.258,501.299
		z"/>
	<path style="fill:#BEC8DC;" d="M27.465,497.261c-0.55-0.425-1.101-0.846-1.638-1.287C26.366,496.417,26.916,496.836,27.465,497.261
		z"/>
	<path style="fill:#BEC8DC;" d="M68.043,467.735c-0.797-0.077-1.59-0.194-2.379-0.343C66.446,467.54,67.239,467.658,68.043,467.735z
		"/>
	<path style="fill:#BEC8DC;" d="M80.433,465.977c-0.725,0.288-1.459,0.547-2.2,0.77C78.98,466.522,79.713,466.264,80.433,465.977z"
		/>
	<path style="fill:#BEC8DC;" d="M78.044,466.801c-0.764,0.222-1.535,0.413-2.312,0.564
		C76.515,467.211,77.286,467.021,78.044,466.801z"/>
	<path style="fill:#BEC8DC;" d="M87.218,462.01c-0.627,0.505-1.27,0.979-1.93,1.418C85.954,462.985,86.596,462.51,87.218,462.01z"/>
	<path style="fill:#BEC8DC;" d="M75.577,467.392c-0.789,0.149-1.582,0.266-2.379,0.343C74.003,467.658,74.795,467.54,75.577,467.392
		z"/>
	<path style="fill:#BEC8DC;" d="M82.752,464.918c-0.679,0.35-1.368,0.672-2.068,0.96C81.39,465.587,82.079,465.266,82.752,464.918z"
		/>
	<path style="fill:#BEC8DC;" d="M65.51,467.364c-0.777-0.152-1.547-0.342-2.311-0.564C63.956,467.021,64.726,467.211,65.51,467.364z
		"/>
	<path style="fill:#BEC8DC;" d="M73.064,467.745c-0.812,0.075-1.625,0.117-2.441,0.117C71.447,467.862,72.26,467.819,73.064,467.745
		z"/>
	<path style="fill:#BEC8DC;" d="M70.617,467.862c-0.814,0-1.629-0.042-2.44-0.117C68.981,467.819,69.794,467.862,70.617,467.862z"/>
	<path style="fill:#BEC8DC;" d="M85.013,463.605c-0.642,0.416-1.297,0.806-1.964,1.161
		C83.722,464.407,84.375,464.019,85.013,463.605z"/>
	<path style="fill:#BEC8DC;" d="M96.606,446.489c-0.152,0.778-0.342,1.549-0.565,2.314
		C96.263,448.045,96.452,447.274,96.606,446.489z"/>
	<path style="fill:#BEC8DC;" d="M92.67,456.046c-0.44,0.66-0.914,1.303-1.419,1.93C91.752,457.355,92.226,456.713,92.67,456.046z"/>
	<path style="fill:#BEC8DC;" d="M96.977,443.956c-0.077,0.798-0.194,1.592-0.343,2.381
		C96.781,445.555,96.899,444.761,96.977,443.956z"/>
	<path style="fill:#BEC8DC;" d="M145.525,304.054c3.447-3.447,9.036-3.447,12.484,0l49.937,49.937c3.447,3.447,3.447,9.037,0,12.484
		l-4.284,4.284h37.452l179.061-179.061c6.895-6.895,6.894-18.073,0-24.968l-74.904-74.904c-6.894-6.894-18.073-6.895-24.968,0
		l-179.062,179.06v37.452L145.525,304.054z M264.125,185.455l56.179-56.179c3.447-3.447,9.036-3.447,12.484,0l49.937,49.937
		c3.447,3.447,3.447,9.036,0,12.484l-56.179,56.179c-3.447,3.447-9.037,3.447-12.484,0l-49.937-49.937
		C260.676,194.493,260.676,188.903,264.125,185.455z M176.736,272.844l56.179-56.179c3.447-3.447,9.037-3.447,12.484,0
		l49.937,49.937c3.447,3.447,3.447,9.036,0,12.484l-56.179,56.179c-3.447,3.447-9.037,3.447-12.484,0l-49.937-49.937
		C173.288,281.88,173.288,276.291,176.736,272.844z"/>
	<path style="fill:#BEC8DC;" d="M95.988,448.99c-0.222,0.744-0.481,1.477-0.77,2.202C95.506,450.473,95.764,449.739,95.988,448.99z"
		/>
	<path style="fill:#BEC8DC;" d="M95.119,451.443c-0.288,0.701-0.61,1.39-0.961,2.069C94.507,452.838,94.828,452.149,95.119,451.443z
		"/>
</g>
<path style="fill:#B98CFA;" d="M314.06,247.875c3.447,3.447,9.037,3.447,12.484,0l56.179-56.179c3.447-3.447,3.447-9.036,0-12.484
	l-49.937-49.937c-3.447-3.447-9.036-3.447-12.484,0l-56.179,56.179c-3.447,3.447-3.447,9.037,0,12.484L314.06,247.875z"/>
<path style="fill:#E1B4FF;" d="M226.671,335.264c3.447,3.447,9.036,3.447,12.484,0l56.179-56.179c3.447-3.447,3.447-9.037,0-12.484
	l-49.937-49.937c-3.447-3.447-9.036-3.447-12.484,0l-56.179,56.179c-3.447,3.447-3.447,9.037,0,12.484L226.671,335.264z"/>
<path style="fill:#B9EBFF;" d="M207.946,353.991l-49.937-49.937c-3.447-3.447-9.037-3.447-12.484,0l-4.284,4.284v62.421h62.421
	l4.284-4.284C211.393,363.028,211.393,357.438,207.946,353.991z"/>
<path style="fill:#D2DCF0;" d="M494.345,370.759h-253.23h-37.452h-62.421v26.483h79.448c4.875,0,8.828,3.953,8.828,8.828v70.621
	c0,4.875-3.953,8.828-8.828,8.828h-79.448c-4.875,0-8.828-3.953-8.828-8.828v-1.12C120.37,497.291,97.217,512,70.621,512h423.724
	c9.751,0,17.655-7.905,17.655-17.655V388.414C512,378.664,504.096,370.759,494.345,370.759z M353.103,476.69
	c0,4.875-3.953,8.828-8.828,8.828h-79.448c-4.875,0-8.828-3.953-8.828-8.828v-70.621c0-4.875,3.953-8.828,8.828-8.828h79.448
	c4.875,0,8.828,3.953,8.828,8.828V476.69z M476.69,476.69c0,4.875-3.953,8.828-8.828,8.828h-79.448
	c-4.875,0-8.828-3.953-8.828-8.828v-70.621c0-4.875,3.953-8.828,8.828-8.828h79.448c4.875,0,8.828,3.953,8.828,8.828V476.69z"/>
<path style="fill:#7DE6C3;" d="M467.862,397.241h-79.448c-4.875,0-8.828,3.953-8.828,8.828v70.621c0,4.875,3.953,8.828,8.828,8.828
	h79.448c4.875,0,8.828-3.953,8.828-8.828v-70.621C476.69,401.194,472.737,397.241,467.862,397.241z"/>
<path style="fill:#A0FFAA;" d="M344.276,397.241h-79.448c-4.875,0-8.828,3.953-8.828,8.828v70.621c0,4.875,3.953,8.828,8.828,8.828
	h79.448c4.875,0,8.828-3.953,8.828-8.828v-70.621C353.103,401.194,349.151,397.241,344.276,397.241z"/>
<path style="fill:#CDFF82;" d="M141.241,441.379c0,12.406-3.209,24.059-8.828,34.19v1.12c0,4.875,3.953,8.828,8.828,8.828h79.448
	c4.875,0,8.828-3.953,8.828-8.828v-70.621c0-4.875-3.953-8.828-8.828-8.828h-79.448V441.379z"/>
<path style="fill:#E4EAF6;" d="M132.414,475.57c5.619-10.132,8.828-21.784,8.828-34.19v-44.138v-26.483v-62.421v-37.452V17.655
	C141.241,7.904,133.336,0,123.586,0H17.655C7.905,0,0,7.904,0,17.655v423.724c0,1.172,0.032,2.335,0.088,3.493
	c0.026,0.553,0.078,1.098,0.118,1.647c0.043,0.598,0.078,1.197,0.137,1.791c0.067,0.693,0.16,1.378,0.247,2.065
	c0.057,0.446,0.105,0.895,0.17,1.337c0.109,0.747,0.243,1.486,0.376,2.226c0.07,0.385,0.13,0.771,0.206,1.154
	c0.148,0.751,0.318,1.495,0.49,2.239c0.087,0.376,0.168,0.755,0.26,1.128c0.179,0.721,0.378,1.433,0.579,2.145
	c0.114,0.402,0.222,0.806,0.342,1.204c0.2,0.663,0.418,1.32,0.637,1.974c0.15,0.45,0.297,0.901,0.456,1.347
	c0.21,0.588,0.436,1.17,0.661,1.751c0.198,0.511,0.393,1.023,0.602,1.527c0.21,0.507,0.433,1.006,0.654,1.506
	c0.253,0.57,0.503,1.142,0.77,1.704c0.203,0.428,0.418,0.851,0.63,1.274c0.31,0.62,0.62,1.239,0.947,1.848
	c0.196,0.366,0.404,0.726,0.607,1.089c0.363,0.648,0.727,1.294,1.109,1.929c0.2,0.331,0.408,0.654,0.614,0.981
	c0.405,0.648,0.811,1.295,1.236,1.929c0.218,0.326,0.448,0.642,0.672,0.963c0.429,0.618,0.86,1.236,1.308,1.839
	c0.267,0.359,0.548,0.707,0.822,1.06c0.426,0.551,0.849,1.103,1.29,1.642c0.38,0.461,0.776,0.907,1.166,1.358
	c0.361,0.417,0.713,0.842,1.084,1.25c1.565,1.727,3.214,3.375,4.941,4.941c0.407,0.369,0.831,0.721,1.247,1.08
	c0.454,0.392,0.9,0.79,1.363,1.171c0.536,0.44,1.088,0.862,1.638,1.287c0.355,0.275,0.704,0.556,1.064,0.824
	c0.602,0.448,1.219,0.876,1.836,1.305c0.322,0.224,0.64,0.455,0.967,0.674c0.632,0.425,1.279,0.83,1.926,1.235
	c0.328,0.205,0.652,0.415,0.983,0.615c0.634,0.382,1.281,0.746,1.929,1.109c0.363,0.203,0.723,0.41,1.089,0.607
	c0.609,0.328,1.229,0.638,1.848,0.947c0.424,0.212,0.845,0.427,1.274,0.63c0.562,0.267,1.133,0.518,1.703,0.77
	c0.501,0.222,1.002,0.445,1.51,0.655c0.503,0.209,1.014,0.403,1.523,0.6c0.583,0.226,1.164,0.451,1.753,0.662
	c0.446,0.16,0.897,0.306,1.347,0.456c0.655,0.218,1.311,0.437,1.974,0.637c0.398,0.12,0.801,0.228,1.203,0.342
	c0.713,0.201,1.426,0.401,2.147,0.579c0.371,0.092,0.747,0.172,1.121,0.258c0.746,0.172,1.491,0.343,2.246,0.491
	c0.38,0.075,0.764,0.136,1.145,0.204c0.743,0.134,1.484,0.267,2.234,0.377c0.44,0.065,0.886,0.113,1.33,0.169
	c0.689,0.088,1.376,0.181,2.071,0.248c0.59,0.057,1.188,0.093,1.783,0.136c0.552,0.04,1.101,0.092,1.656,0.118
	c1.142,0.056,2.29,0.086,3.445,0.087c0.015,0,0.031,0.001,0.046,0.001C97.217,512,120.37,497.291,132.414,475.57z M96.977,443.956
	c-0.077,0.806-0.195,1.599-0.343,2.381c-0.01,0.051-0.018,0.102-0.028,0.152c-0.153,0.785-0.344,1.556-0.565,2.314
	c-0.018,0.062-0.034,0.125-0.053,0.186c-0.224,0.749-0.483,1.483-0.77,2.203c-0.033,0.083-0.064,0.168-0.098,0.25
	c-0.29,0.706-0.612,1.396-0.961,2.069c-0.051,0.098-0.099,0.198-0.151,0.295c-0.359,0.673-0.747,1.327-1.161,1.965
	c-0.06,0.092-0.116,0.184-0.177,0.275c-0.444,0.665-0.918,1.309-1.419,1.93c-0.044,0.055-0.087,0.113-0.132,0.168
	c-1.118,1.365-2.368,2.615-3.733,3.733c-0.055,0.045-0.113,0.087-0.169,0.132c-0.621,0.501-1.265,0.975-1.93,1.418
	c-0.09,0.061-0.184,0.117-0.276,0.177c-0.637,0.414-1.291,0.802-1.964,1.161c-0.098,0.052-0.198,0.1-0.296,0.151
	c-0.674,0.348-1.363,0.67-2.068,0.96c-0.084,0.034-0.168,0.066-0.252,0.099c-0.719,0.287-1.452,0.545-2.2,0.77
	c-0.063,0.019-0.126,0.035-0.189,0.054c-0.758,0.221-1.528,0.412-2.312,0.564c-0.051,0.01-0.104,0.018-0.154,0.028
	c-0.781,0.148-1.575,0.266-2.379,0.343c-0.044,0.004-0.089,0.007-0.135,0.01c-0.804,0.074-1.617,0.117-2.441,0.117
	c-0.001,0-0.002,0-0.003,0c-0.001,0-0.002,0-0.003,0c-0.823,0-1.636-0.043-2.44-0.117c-0.045-0.004-0.09-0.006-0.135-0.01
	c-0.804-0.077-1.597-0.195-2.379-0.343c-0.052-0.01-0.104-0.018-0.154-0.028c-0.783-0.153-1.554-0.343-2.311-0.564
	c-0.063-0.019-0.127-0.035-0.189-0.054c-0.748-0.224-1.481-0.482-2.2-0.77c-0.084-0.033-0.169-0.065-0.253-0.099
	c-0.705-0.29-1.394-0.611-2.068-0.959c-0.099-0.051-0.199-0.1-0.297-0.152c-0.673-0.359-1.326-0.747-1.963-1.16
	c-0.092-0.06-0.185-0.117-0.277-0.178c-0.665-0.444-1.308-0.917-1.928-1.417c-0.056-0.045-0.115-0.088-0.17-0.134
	c-0.682-0.558-1.337-1.149-1.96-1.771c-0.623-0.623-1.213-1.278-1.772-1.961c-0.045-0.056-0.088-0.114-0.134-0.17
	c-0.5-0.621-0.974-1.263-1.417-1.928c-0.061-0.092-0.118-0.185-0.178-0.277c-0.413-0.637-0.801-1.29-1.16-1.963
	c-0.052-0.098-0.102-0.199-0.152-0.297c-0.348-0.673-0.67-1.362-0.96-2.068c-0.034-0.084-0.066-0.169-0.099-0.253
	c-0.287-0.718-0.545-1.452-0.769-2.2c-0.019-0.063-0.035-0.127-0.054-0.189c-0.221-0.757-0.41-1.527-0.564-2.311
	c-0.01-0.052-0.018-0.104-0.028-0.155c-0.148-0.781-0.266-1.575-0.343-2.379c-0.004-0.045-0.007-0.09-0.01-0.135
	c-0.074-0.804-0.117-1.617-0.117-2.44c0-0.001,0-0.002,0-0.003s0-0.002,0-0.003c0-0.823,0.043-1.636,0.117-2.44
	c0.004-0.045,0.006-0.09,0.01-0.135c0.077-0.804,0.195-1.597,0.343-2.379c0.01-0.052,0.018-0.104,0.028-0.155
	c0.153-0.783,0.343-1.554,0.564-2.311c0.019-0.063,0.035-0.127,0.054-0.189c0.224-0.748,0.482-1.481,0.769-2.2
	c0.033-0.084,0.065-0.169,0.099-0.253c0.29-0.705,0.611-1.394,0.96-2.068c0.051-0.099,0.1-0.199,0.152-0.297
	c0.359-0.673,0.747-1.326,1.16-1.963c0.06-0.092,0.117-0.185,0.178-0.277c0.444-0.665,0.917-1.308,1.417-1.928
	c0.045-0.056,0.088-0.115,0.134-0.17c0.558-0.682,1.149-1.337,1.772-1.961c0.623-0.622,1.278-1.213,1.96-1.771
	c0.056-0.046,0.114-0.088,0.17-0.134c0.621-0.5,1.262-0.974,1.928-1.417c0.092-0.061,0.185-0.118,0.277-0.178
	c0.637-0.414,1.29-0.802,1.963-1.16c0.098-0.052,0.199-0.102,0.297-0.152c0.673-0.348,1.362-0.67,2.068-0.959
	c0.084-0.034,0.169-0.066,0.253-0.099c0.718-0.287,1.452-0.545,2.2-0.77c0.063-0.019,0.127-0.035,0.189-0.054
	c0.757-0.221,1.527-0.412,2.311-0.564c0.052-0.01,0.104-0.018,0.154-0.028c0.781-0.148,1.575-0.266,2.379-0.343
	c0.045-0.004,0.09-0.007,0.135-0.01c0.804-0.074,1.617-0.117,2.44-0.117c0.001,0,0.002,0,0.003,0c0.001,0,0.002,0,0.003,0
	c0.823,0,1.636,0.043,2.441,0.117c0.044,0.004,0.089,0.006,0.135,0.01c0.804,0.077,1.597,0.195,2.379,0.343
	c0.051,0.01,0.104,0.018,0.154,0.028c0.783,0.153,1.554,0.344,2.312,0.564c0.063,0.019,0.126,0.035,0.189,0.054
	c0.748,0.224,1.482,0.483,2.2,0.77c0.084,0.033,0.169,0.065,0.252,0.099c0.706,0.29,1.395,0.612,2.068,0.96
	c0.098,0.051,0.199,0.099,0.296,0.151c0.673,0.359,1.327,0.747,1.964,1.161c0.092,0.06,0.185,0.116,0.276,0.177
	c0.665,0.444,1.309,0.918,1.93,1.418c0.055,0.045,0.114,0.087,0.169,0.132c1.365,1.118,2.615,2.368,3.733,3.733
	c0.045,0.055,0.087,0.113,0.132,0.168c0.501,0.621,0.975,1.265,1.419,1.93c0.061,0.09,0.117,0.183,0.177,0.275
	c0.414,0.637,0.802,1.291,1.161,1.965c0.052,0.097,0.1,0.196,0.151,0.295c0.349,0.674,0.67,1.364,0.961,2.069
	c0.034,0.083,0.065,0.167,0.098,0.25c0.287,0.719,0.546,1.453,0.77,2.202c0.019,0.062,0.034,0.125,0.053,0.186
	c0.221,0.758,0.412,1.529,0.565,2.314c0.01,0.051,0.018,0.102,0.028,0.152c0.148,0.782,0.266,1.576,0.343,2.381
	c0.004,0.044,0.006,0.088,0.01,0.131c0.074,0.806,0.117,1.62,0.117,2.445c0,0.825-0.043,1.64-0.117,2.445
	C96.983,443.869,96.981,443.913,96.977,443.956z M26.483,44.138c0-4.875,3.953-8.828,8.828-8.828h70.621
	c4.875,0,8.828,3.953,8.828,8.828v79.448c0,4.875-3.953,8.828-8.828,8.828H35.31c-4.875,0-8.828-3.953-8.828-8.828V44.138z
	 M26.483,167.724c0-4.875,3.953-8.828,8.828-8.828h70.621c4.875,0,8.828,3.953,8.828,8.828v79.448c0,4.875-3.953,8.828-8.828,8.828
	H35.31c-4.875,0-8.828-3.953-8.828-8.828V167.724z M26.483,291.31c0-4.875,3.953-8.828,8.828-8.828h70.621
	c4.875,0,8.828,3.953,8.828,8.828v79.448c0,4.875-3.953,8.828-8.828,8.828H35.31c-4.875,0-8.828-3.953-8.828-8.828V291.31z"/>
<path style="fill:#FF6469;" d="M35.31,132.414h70.621c4.875,0,8.828-3.953,8.828-8.828V44.138c0-4.875-3.953-8.828-8.828-8.828
	H35.31c-4.875,0-8.828,3.953-8.828,8.828v79.448C26.483,128.461,30.435,132.414,35.31,132.414z"/>
<path style="fill:#FFA064;" d="M35.31,256h70.621c4.875,0,8.828-3.953,8.828-8.828v-79.448c0-4.875-3.953-8.828-8.828-8.828H35.31
	c-4.875,0-8.828,3.953-8.828,8.828v79.448C26.483,252.047,30.435,256,35.31,256z"/>
<path style="fill:#FFCD64;" d="M35.31,379.586h70.621c4.875,0,8.828-3.953,8.828-8.828V291.31c0-4.875-3.953-8.828-8.828-8.828
	H35.31c-4.875,0-8.828,3.953-8.828,8.828v79.448C26.483,375.634,30.435,379.586,35.31,379.586z"/>
<g>
</g>
<g>
</g>
<g>
</g>
<g>
</g>
<g>
</g>
<g>
</g>
<g>
</g>
<g>
</g>
<g>
</g>
<g>
</g>
<g>
</g>
<g>
</g>
<g>
</g>
<g>
</g>
<g>
</g>
</svg>
