<?xml version="1.0" encoding="iso-8859-1"?>
<!-- Generator: Adobe Illustrator 19.0.0, SVG Export Plug-In . SVG Version: 6.00 Build 0)  -->
<svg version="1.1" id="Layer_1" xmlns="http://www.w3.org/2000/svg" xmlns:xlink="http://www.w3.org/1999/xlink" x="0px" y="0px"
	 viewBox="0 0 512.001 512.001" style="enable-background:new 0 0 512.001 512.001;" xml:space="preserve">
<path style="fill:#E4EAF6;" d="M494.345,70.621c0-4.867-3.96-8.828-8.828-8.828H26.483c-4.867,0-8.828,3.96-8.828,8.828v70.621
	c0,4.867,3.96,8.828,8.828,8.828h459.034c4.867,0,8.828-3.96,8.828-8.828V70.621z M105.931,105.932c0,4.875-3.953,8.828-8.828,8.828
	h-2.366l1.183,2.048c2.438,4.222,0.991,9.621-3.231,12.058c-4.222,2.438-9.621,0.991-12.058-3.231l-1.183-2.048l-1.183,2.048
	c-2.438,4.222-7.837,5.668-12.058,3.231s-5.668-7.837-3.231-12.058l1.183-2.048h-2.366c-4.875,0-8.828-3.953-8.828-8.828l0,0
	c0-4.875,3.953-8.828,8.828-8.828h2.366l-1.183-2.048c-2.438-4.222-0.991-9.621,3.231-12.058s9.621-0.991,12.058,3.231l1.183,2.048
	l1.183-2.048c2.438-4.222,7.837-5.668,12.058-3.231s5.668,7.837,3.231,12.058l-1.183,2.048h2.366
	C101.978,97.104,105.931,101.057,105.931,105.932L105.931,105.932z M176.552,105.932c0,4.875-3.953,8.828-8.828,8.828h-2.366
	l1.183,2.048c2.438,4.222,0.991,9.621-3.231,12.058c-4.222,2.438-9.621,0.991-12.058-3.231l-1.183-2.048l-1.183,2.048
	c-2.438,4.222-7.837,5.668-12.058,3.231c-4.222-2.438-5.668-7.837-3.231-12.058l1.183-2.048h-2.366
	c-4.875,0-8.828-3.953-8.828-8.828l0,0c0-4.875,3.953-8.828,8.828-8.828h2.366l-1.183-2.048c-2.438-4.222-0.991-9.621,3.231-12.058
	c4.222-2.438,9.621-0.991,12.058,3.231l1.183,2.048l1.183-2.048c2.438-4.222,7.837-5.668,12.058-3.231s5.668,7.837,3.231,12.058
	l-1.183,2.048h2.366C172.599,97.104,176.552,101.057,176.552,105.932L176.552,105.932z M247.172,105.932
	c0,4.875-3.953,8.828-8.828,8.828h-2.366l1.183,2.048c2.438,4.222,0.991,9.621-3.231,12.058s-9.621,0.991-12.058-3.231l-1.183-2.048
	l-1.183,2.048c-2.438,4.222-7.837,5.668-12.058,3.231c-4.222-2.438-5.668-7.837-3.231-12.058l1.183-2.048h-2.366
	c-4.875,0-8.828-3.953-8.828-8.828l0,0c0-4.875,3.953-8.828,8.828-8.828h2.366l-1.183-2.048c-2.438-4.222-0.991-9.621,3.231-12.058
	c4.222-2.438,9.621-0.991,12.058,3.231l1.183,2.048l1.183-2.048c2.438-4.222,7.837-5.668,12.058-3.231
	c4.222,2.438,5.668,7.837,3.231,12.058l-1.183,2.048h2.366C243.22,97.104,247.172,101.057,247.172,105.932L247.172,105.932z
	 M317.793,105.932c0,4.875-3.953,8.828-8.828,8.828H306.6l1.183,2.048c2.438,4.222,0.991,9.621-3.231,12.058
	s-9.621,0.991-12.059-3.231l-1.183-2.048l-1.183,2.048c-2.438,4.222-7.837,5.668-12.059,3.231
	c-4.222-2.438-5.668-7.837-3.231-12.058l1.183-2.048h-2.366c-4.875,0-8.828-3.953-8.828-8.828l0,0c0-4.875,3.953-8.828,8.828-8.828
	h2.366l-1.183-2.048c-2.438-4.222-0.991-9.621,3.231-12.058c4.222-2.438,9.621-0.991,12.058,3.231l1.183,2.048l1.183-2.048
	c2.438-4.222,7.837-5.668,12.059-3.231c4.222,2.438,5.668,7.837,3.231,12.058l-1.183,2.048h2.366
	C313.841,97.104,317.793,101.057,317.793,105.932L317.793,105.932z M388.414,105.932c0,4.875-3.953,8.828-8.828,8.828h-2.366
	l1.183,2.048c2.438,4.222,0.991,9.621-3.231,12.058s-9.621,0.991-12.059-3.231l-1.183-2.048l-1.183,2.048
	c-2.438,4.222-7.837,5.668-12.058,3.231s-5.668-7.837-3.231-12.058l1.183-2.048h-2.366c-4.875,0-8.828-3.953-8.828-8.828l0,0
	c0-4.875,3.953-8.828,8.828-8.828h2.366l-1.183-2.048c-2.438-4.222-0.991-9.621,3.231-12.058c4.222-2.438,9.621-0.991,12.058,3.231
	l1.183,2.048l1.183-2.048c2.438-4.222,7.837-5.668,12.059-3.231c4.222,2.438,5.668,7.837,3.231,12.058l-1.183,2.048h2.366
	C384.461,97.104,388.414,101.057,388.414,105.932L388.414,105.932z M459.034,105.932c0,4.875-3.953,8.828-8.828,8.828h-2.366
	l1.183,2.048c2.438,4.222,0.991,9.621-3.231,12.058c-4.222,2.438-9.621,0.991-12.058-3.231l-1.183-2.048l-1.183,2.048
	c-2.438,4.222-7.837,5.668-12.059,3.231c-4.222-2.438-5.668-7.837-3.231-12.058l1.183-2.048h-2.366
	c-4.875,0-8.828-3.953-8.828-8.828l0,0c0-4.875,3.953-8.828,8.828-8.828h2.366l-1.183-2.048c-2.438-4.222-0.991-9.621,3.231-12.058
	l0,0c4.222-2.438,9.621-0.991,12.059,3.231l1.183,2.048l1.183-2.048c2.438-4.222,7.837-5.668,12.058-3.231l0,0
	c4.222,2.438,5.668,7.837,3.231,12.058l-1.183,2.048h2.366C455.082,97.104,459.034,101.057,459.034,105.932L459.034,105.932z"/>
<path style="fill:#AFBBD0;" d="M97.103,97.104h-2.366l1.183-2.048c2.438-4.222,0.991-9.621-3.231-12.058
	c-4.222-2.438-9.621-0.991-12.058,3.231l-1.183,2.048l-1.183-2.048c-2.438-4.222-7.837-5.668-12.058-3.231
	s-5.668,7.837-3.231,12.058l1.183,2.048h-2.366c-4.875,0-8.828,3.953-8.828,8.828l0,0c0,4.875,3.953,8.828,8.828,8.828h2.366
	l-1.183,2.048c-2.438,4.222-0.991,9.621,3.231,12.058s9.621,0.991,12.058-3.231l1.183-2.048l1.183,2.048
	c2.438,4.222,7.837,5.668,12.058,3.231s5.668-7.837,3.231-12.058l-1.183-2.048h2.366c4.875,0,8.828-3.953,8.828-8.828l0,0
	C105.931,101.057,101.978,97.104,97.103,97.104z"/>
<path style="fill:#B4E173;" d="M511.166,64.003c-0.544-2.115-1.343-4.128-2.362-6.005c-0.407-0.75-0.851-1.479-1.326-2.184
	c-1.903-2.817-4.335-5.249-7.154-7.153c-0.704-0.476-1.433-0.919-2.184-1.326c-1.876-1.02-3.89-1.818-6.005-2.362
	c-2.114-0.545-4.332-0.834-6.617-0.834H26.483c-2.285,0-4.503,0.289-6.618,0.834c-2.115,0.544-4.129,1.343-6.005,2.362
	c-0.75,0.407-1.479,0.851-2.184,1.326c-2.818,1.903-5.249,4.335-7.154,7.153c-0.474,0.705-0.918,1.433-1.325,2.184
	c-1.02,1.876-1.818,3.89-2.362,6.005C0.289,66.118,0,68.336,0,70.621v70.621c0,2.285,0.289,4.503,0.834,6.618
	c0.544,2.115,1.343,4.128,2.362,6.005c0.407,0.75,0.851,1.479,1.326,2.184c1.903,2.817,4.335,5.249,7.154,7.153
	c0.704,0.476,1.433,0.919,2.184,1.326c1.876,1.02,3.89,1.818,6.005,2.362c2.114,0.545,4.332,0.834,6.617,0.834h459.034
	c2.285,0,4.503-0.289,6.618-0.834c2.115-0.544,4.129-1.343,6.005-2.362c0.75-0.407,1.479-0.851,2.184-1.326
	c2.818-1.903,5.249-4.335,7.154-7.153c0.476-0.704,0.919-1.433,1.326-2.184c1.02-1.876,1.818-3.89,2.362-6.005
	c0.544-2.115,0.834-4.333,0.834-6.618V70.621C512,68.336,511.711,66.118,511.166,64.003z M485.517,150.07H26.483
	c-4.867,0-8.828-3.96-8.828-8.828V70.621c0-4.867,3.96-8.828,8.828-8.828h459.034c4.867,0,8.828,3.96,8.828,8.828v70.621
	C494.345,146.109,490.385,150.07,485.517,150.07z"/>
<g>
	<path style="fill:#AFBBD0;" d="M167.724,97.104h-2.366l1.183-2.048c2.438-4.222,0.991-9.621-3.231-12.058
		c-4.222-2.438-9.621-0.991-12.058,3.231l-1.183,2.048l-1.183-2.048c-2.438-4.222-7.837-5.668-12.058-3.231
		c-4.222,2.438-5.668,7.837-3.231,12.058l1.183,2.048h-2.366c-4.875,0-8.828,3.953-8.828,8.828l0,0c0,4.875,3.953,8.828,8.828,8.828
		h2.366l-1.183,2.048c-2.438,4.222-0.991,9.621,3.231,12.058c4.222,2.438,9.621,0.991,12.058-3.231l1.183-2.048l1.183,2.048
		c2.438,4.222,7.837,5.668,12.058,3.231s5.668-7.837,3.231-12.058l-1.183-2.048h2.366c4.875,0,8.828-3.953,8.828-8.828l0,0
		C176.552,101.057,172.599,97.104,167.724,97.104z"/>
	<path style="fill:#AFBBD0;" d="M238.345,97.104h-2.366l1.183-2.048c2.438-4.222,0.991-9.621-3.231-12.058
		s-9.621-0.991-12.058,3.231l-1.183,2.048l-1.183-2.048c-2.438-4.222-7.837-5.668-12.058-3.231
		c-4.222,2.438-5.668,7.837-3.231,12.058l1.183,2.048h-2.366c-4.875,0-8.828,3.953-8.828,8.828l0,0c0,4.875,3.953,8.828,8.828,8.828
		h2.366l-1.183,2.048c-2.438,4.222-0.991,9.621,3.231,12.058c4.222,2.438,9.621,0.991,12.058-3.231l1.183-2.048l1.183,2.048
		c2.438,4.222,7.837,5.668,12.058,3.231c4.222-2.438,5.668-7.837,3.231-12.058l-1.183-2.048h2.366c4.875,0,8.828-3.953,8.828-8.828
		l0,0C247.172,101.057,243.22,97.104,238.345,97.104z"/>
	<path style="fill:#AFBBD0;" d="M308.966,97.104H306.6l1.183-2.048c2.438-4.222,0.991-9.621-3.231-12.058s-9.621-0.991-12.059,3.231
		l-1.183,2.048l-1.183-2.048c-2.438-4.222-7.837-5.668-12.059-3.231c-4.222,2.438-5.668,7.837-3.231,12.058l1.183,2.048h-2.366
		c-4.875,0-8.828,3.953-8.828,8.828l0,0c0,4.875,3.953,8.828,8.828,8.828h2.366l-1.183,2.048c-2.438,4.222-0.991,9.621,3.231,12.058
		c4.222,2.438,9.621,0.991,12.058-3.231l1.183-2.048l1.183,2.048c2.438,4.222,7.837,5.668,12.059,3.231
		c4.222-2.438,5.668-7.837,3.231-12.058l-1.183-2.048h2.366c4.875,0,8.828-3.953,8.828-8.828l0,0
		C317.793,101.057,313.841,97.104,308.966,97.104z"/>
	<path style="fill:#AFBBD0;" d="M379.586,97.104h-2.366l1.183-2.048c2.438-4.222,0.991-9.621-3.231-12.058
		s-9.621-0.991-12.059,3.231l-1.183,2.048l-1.183-2.048c-2.438-4.222-7.837-5.668-12.058-3.231s-5.668,7.837-3.231,12.058
		l1.183,2.048h-2.366c-4.875,0-8.828,3.953-8.828,8.828l0,0c0,4.875,3.953,8.828,8.828,8.828h2.366l-1.183,2.048
		c-2.438,4.222-0.991,9.621,3.231,12.058c4.222,2.438,9.621,0.991,12.058-3.231l1.183-2.048l1.183,2.048
		c2.438,4.222,7.837,5.668,12.059,3.231c4.222-2.438,5.668-7.837,3.231-12.058l-1.183-2.048h2.366c4.875,0,8.828-3.953,8.828-8.828
		l0,0C388.414,101.057,384.461,97.104,379.586,97.104z"/>
	<path style="fill:#AFBBD0;" d="M450.207,97.104h-2.366l1.183-2.048c2.438-4.222,0.991-9.621-3.231-12.058l0,0
		c-4.222-2.438-9.621-0.991-12.058,3.231l-1.183,2.048l-1.183-2.048c-2.438-4.222-7.837-5.668-12.059-3.231l0,0
		c-4.222,2.438-5.668,7.837-3.231,12.058l1.183,2.048h-2.366c-4.875,0-8.828,3.953-8.828,8.828l0,0c0,4.875,3.953,8.828,8.828,8.828
		h2.366l-1.183,2.048c-2.438,4.222-0.991,9.621,3.231,12.058s9.621,0.991,12.059-3.231l1.183-2.048l1.183,2.048
		c2.438,4.222,7.837,5.668,12.058,3.231s5.668-7.837,3.231-12.058l-1.183-2.048h2.366c4.875,0,8.828-3.953,8.828-8.828l0,0
		C459.034,101.057,455.082,97.104,450.207,97.104z"/>
</g>
<path style="fill:#E4EAF6;" d="M485.517,194.207H26.483C11.857,194.207,0,206.064,0,220.69v70.621
	c0,14.626,11.857,26.483,26.483,26.483h459.034c14.626,0,26.483-11.857,26.483-26.483V220.69
	C512,206.064,500.143,194.207,485.517,194.207z M105.931,256.001c0,4.875-3.953,8.828-8.828,8.828h-2.366l1.183,2.048
	c2.438,4.222,0.991,9.621-3.231,12.058c-4.222,2.438-9.621,0.991-12.058-3.231l-1.183-2.048l-1.183,2.048
	c-2.438,4.222-7.837,5.668-12.058,3.231c-4.222-2.438-5.668-7.837-3.231-12.058l1.183-2.048h-2.366
	c-4.875,0-8.828-3.953-8.828-8.828l0,0c0-4.875,3.953-8.828,8.828-8.828h2.366l-1.183-2.048c-2.438-4.222-0.991-9.621,3.231-12.058
	s9.621-0.991,12.058,3.231l1.183,2.048l1.183-2.048c2.438-4.222,7.837-5.668,12.058-3.231s5.668,7.837,3.231,12.058l-1.183,2.048
	h2.366C101.978,247.173,105.931,251.126,105.931,256.001L105.931,256.001z M176.552,256.001c0,4.875-3.953,8.828-8.828,8.828h-2.366
	l1.183,2.048c2.438,4.222,0.991,9.621-3.231,12.058c-4.222,2.438-9.621,0.991-12.058-3.231l-1.183-2.048l-1.183,2.048
	c-2.438,4.222-7.837,5.668-12.058,3.231c-4.222-2.438-5.668-7.837-3.231-12.058l1.183-2.048h-2.366
	c-4.875,0-8.828-3.953-8.828-8.828l0,0c0-4.875,3.953-8.828,8.828-8.828h2.366l-1.183-2.048c-2.438-4.222-0.991-9.621,3.231-12.058
	c4.222-2.438,9.621-0.991,12.058,3.231l1.183,2.048l1.183-2.048c2.438-4.222,7.837-5.668,12.058-3.231s5.668,7.837,3.231,12.058
	l-1.183,2.048h2.366C172.599,247.173,176.552,251.126,176.552,256.001L176.552,256.001z M247.172,256.001
	c0,4.875-3.953,8.828-8.828,8.828h-2.366l1.183,2.048c2.438,4.222,0.991,9.621-3.231,12.058c-4.222,2.438-9.621,0.991-12.058-3.231
	l-1.183-2.048l-1.183,2.048c-2.438,4.222-7.837,5.668-12.058,3.231c-4.222-2.438-5.668-7.837-3.231-12.058l1.183-2.048h-2.366
	c-4.875,0-8.828-3.953-8.828-8.828l0,0c0-4.875,3.953-8.828,8.828-8.828h2.366l-1.183-2.048c-2.438-4.222-0.991-9.621,3.231-12.058
	c4.222-2.438,9.621-0.991,12.058,3.231l1.183,2.048l1.183-2.048c2.438-4.222,7.837-5.668,12.058-3.231
	c4.222,2.438,5.668,7.837,3.231,12.058l-1.183,2.048h2.366C243.22,247.173,247.172,251.126,247.172,256.001L247.172,256.001z
	 M317.793,256.001c0,4.875-3.953,8.828-8.828,8.828H306.6l1.183,2.048c2.438,4.222,0.991,9.621-3.231,12.058
	c-4.222,2.438-9.621,0.991-12.059-3.231l-1.183-2.048l-1.183,2.048c-2.438,4.222-7.837,5.668-12.059,3.231
	c-4.222-2.438-5.668-7.837-3.231-12.058l1.183-2.048h-2.366c-4.875,0-8.828-3.953-8.828-8.828l0,0c0-4.875,3.953-8.828,8.828-8.828
	h2.366l-1.183-2.048c-2.438-4.222-0.991-9.621,3.231-12.058c4.222-2.438,9.621-0.991,12.058,3.231l1.183,2.048l1.183-2.048
	c2.438-4.222,7.837-5.668,12.059-3.231c4.222,2.438,5.668,7.837,3.231,12.058l-1.183,2.048h2.366
	C313.841,247.173,317.793,251.126,317.793,256.001L317.793,256.001z"/>
<g>
	<path style="fill:#B4E173;" d="M485.517,344.276H326.621c-14.626,0-26.483,11.857-26.483,26.483v70.621
		c0,14.626,11.857,26.483,26.483,26.483h158.897c14.626,0,26.483-11.857,26.483-26.483v-70.621
		C512,356.133,500.143,344.276,485.517,344.276z M406.069,414.897c0,14.603-11.88,26.483-26.483,26.483
		c-14.603,0-26.483-11.88-26.483-26.483v-17.655c0-14.603,11.88-26.483,26.483-26.483c14.603,0,26.483,11.88,26.483,26.483V414.897z
		 M457.551,427.656c2.702,4.056,1.608,9.539-2.449,12.242c-1.504,1.004-3.207,1.483-4.888,1.483c-2.854,0-5.651-1.379-7.353-3.932
		l-10.31-15.466v10.569c0,4.875-3.953,8.828-8.828,8.828c-4.875,0-8.828-3.953-8.828-8.828v-52.966c0-4.875,3.953-8.828,8.828-8.828
		c4.875,0,8.828,3.953,8.828,8.828v10.569l10.311-15.466c2.698-4.065,8.177-5.169,12.242-2.449
		c4.056,2.702,5.151,8.185,2.449,12.242l-14.391,21.587L457.551,427.656z"/>
	<path style="fill:#B4E173;" d="M379.586,388.414c-4.866,0-8.828,3.961-8.828,8.828v17.655c0,4.866,3.961,8.828,8.828,8.828
		s8.828-3.961,8.828-8.828v-17.655C388.414,392.376,384.452,388.414,379.586,388.414z"/>
</g>
<g>
	<path style="fill:#AFBBD0;" d="M97.103,247.173h-2.366l1.183-2.048c2.438-4.222,0.991-9.621-3.231-12.058
		c-4.222-2.438-9.621-0.991-12.058,3.231l-1.183,2.048l-1.183-2.048c-2.438-4.222-7.837-5.668-12.058-3.231
		s-5.668,7.837-3.231,12.058l1.183,2.048h-2.366c-4.875,0-8.828,3.953-8.828,8.828l0,0c0,4.875,3.953,8.828,8.828,8.828h2.366
		l-1.183,2.048c-2.438,4.222-0.991,9.621,3.231,12.058c4.222,2.438,9.621,0.991,12.058-3.231l1.183-2.048l1.183,2.048
		c2.438,4.222,7.837,5.668,12.058,3.231c4.222-2.438,5.668-7.837,3.231-12.058l-1.183-2.048h2.366c4.875,0,8.828-3.953,8.828-8.828
		l0,0C105.931,251.126,101.978,247.173,97.103,247.173z"/>
	<path style="fill:#AFBBD0;" d="M167.724,247.173h-2.366l1.183-2.048c2.438-4.222,0.991-9.621-3.231-12.058
		c-4.222-2.438-9.621-0.991-12.058,3.231l-1.183,2.048l-1.183-2.048c-2.438-4.222-7.837-5.668-12.058-3.231
		c-4.222,2.438-5.668,7.837-3.231,12.058l1.183,2.048h-2.366c-4.875,0-8.828,3.953-8.828,8.828l0,0c0,4.875,3.953,8.828,8.828,8.828
		h2.366l-1.183,2.048c-2.438,4.222-0.991,9.621,3.231,12.058c4.222,2.438,9.621,0.991,12.058-3.231l1.183-2.048l1.183,2.048
		c2.438,4.222,7.837,5.668,12.058,3.231c4.222-2.438,5.668-7.837,3.231-12.058l-1.183-2.048h2.366c4.875,0,8.828-3.953,8.828-8.828
		l0,0C176.552,251.126,172.599,247.173,167.724,247.173z"/>
	<path style="fill:#AFBBD0;" d="M238.345,247.173h-2.366l1.183-2.048c2.438-4.222,0.991-9.621-3.231-12.058
		s-9.621-0.991-12.058,3.231l-1.183,2.048l-1.183-2.048c-2.438-4.222-7.837-5.668-12.058-3.231
		c-4.222,2.438-5.668,7.837-3.231,12.058l1.183,2.048h-2.366c-4.875,0-8.828,3.953-8.828,8.828l0,0c0,4.875,3.953,8.828,8.828,8.828
		h2.366l-1.183,2.048c-2.438,4.222-0.991,9.621,3.231,12.058c4.222,2.438,9.621,0.991,12.058-3.231l1.183-2.048l1.183,2.048
		c2.438,4.222,7.837,5.668,12.058,3.231c4.222-2.438,5.668-7.837,3.231-12.058l-1.183-2.048h2.366c4.875,0,8.828-3.953,8.828-8.828
		l0,0C247.172,251.126,243.22,247.173,238.345,247.173z"/>
	<path style="fill:#AFBBD0;" d="M308.966,247.173H306.6l1.183-2.048c2.438-4.222,0.991-9.621-3.231-12.058
		s-9.621-0.991-12.059,3.231l-1.183,2.048l-1.183-2.048c-2.438-4.222-7.837-5.668-12.059-3.231
		c-4.222,2.438-5.668,7.837-3.231,12.058l1.183,2.048h-2.366c-4.875,0-8.828,3.953-8.828,8.828l0,0c0,4.875,3.953,8.828,8.828,8.828
		h2.366l-1.183,2.048c-2.438,4.222-0.991,9.621,3.231,12.058c4.222,2.438,9.621,0.991,12.058-3.231l1.183-2.048l1.183,2.048
		c2.438,4.222,7.837,5.668,12.059,3.231c4.222-2.438,5.668-7.837,3.231-12.058l-1.183-2.048h2.366c4.875,0,8.828-3.953,8.828-8.828
		l0,0C317.793,251.126,313.841,247.173,308.966,247.173z"/>
</g>
<g>
	<path style="fill:#FFFFFF;" d="M455.103,372.242c-4.065-2.72-9.543-1.617-12.242,2.449l-10.31,15.465v-10.569
		c0-4.875-3.953-8.828-8.828-8.828c-4.875,0-8.828,3.953-8.828,8.828v52.966c0,4.875,3.953,8.828,8.828,8.828
		c4.875,0,8.828-3.953,8.828-8.828v-10.569l10.311,15.466c1.703,2.552,4.5,3.932,7.353,3.932c1.681,0,3.383-0.479,4.888-1.483
		c4.056-2.702,5.151-8.185,2.449-12.242l-14.391-21.587l14.391-21.587C460.254,380.428,459.159,374.945,455.103,372.242z"/>
	<path style="fill:#FFFFFF;" d="M379.586,370.759c-14.603,0-26.483,11.88-26.483,26.483v17.655c0,14.603,11.88,26.483,26.483,26.483
		c14.603,0,26.483-11.88,26.483-26.483v-17.655C406.069,382.639,394.189,370.759,379.586,370.759z M388.414,414.897
		c0,4.866-3.961,8.828-8.828,8.828s-8.828-3.961-8.828-8.828v-17.655c0-4.866,3.961-8.828,8.828-8.828s8.828,3.961,8.828,8.828
		V414.897z"/>
</g>
<g>
</g>
<g>
</g>
<g>
</g>
<g>
</g>
<g>
</g>
<g>
</g>
<g>
</g>
<g>
</g>
<g>
</g>
<g>
</g>
<g>
</g>
<g>
</g>
<g>
</g>
<g>
</g>
<g>
</g>
</svg>
