<?xml version="1.0" encoding="iso-8859-1"?>
<!-- Generator: Adobe Illustrator 19.0.0, SVG Export Plug-In . SVG Version: 6.00 Build 0)  -->
<svg version="1.1" id="Layer_1" xmlns="http://www.w3.org/2000/svg" xmlns:xlink="http://www.w3.org/1999/xlink" x="0px" y="0px"
	 viewBox="0 0 512 512" style="enable-background:new 0 0 512 512;" xml:space="preserve">
<rect x="194.23" y="88.247" style="fill:#BE3746;" width="35.299" height="291.215"/>
<rect x="282.477" y="88.247" style="fill:#FF6469;" width="35.299" height="291.215"/>
<polygon style="fill:#D75055;" points="229.524,379.462 255.998,379.462 282.472,379.462 282.472,88.247 255.998,88.247 
	229.524,88.247 "/>
<path style="fill:#FFF0BE;" d="M291.297,0h-35.299v61.773h61.773V26.474C317.771,11.853,305.919,0,291.297,0z"/>
<path style="fill:#FFDC9B;" d="M255.998,0H220.7c-2.284,0-4.502,0.289-6.616,0.834s-4.128,1.342-6.003,2.362
	c-0.75,0.407-1.478,0.85-2.183,1.326c-2.817,1.903-5.247,4.334-7.151,7.151c-0.475,0.704-0.919,1.433-1.326,2.183
	c-1.019,1.875-1.818,3.888-2.362,6.003c-0.544,2.115-0.834,4.332-0.834,6.616v35.299h61.773V0H255.998z"/>
<path style="fill:#FFF0BE;" d="M255.998,379.462v70.598h30.886l-25.581,58.47c-1.012,2.313-3.159,3.469-5.306,3.469l0,0
	c-1.217,0-2.426-0.385-3.436-1.128c-0.772-0.568-1.431-1.339-1.87-2.342l-25.581-58.469l0,0l-30.886-70.598l56.467,129.068
	c2.024,4.626,8.588,4.626,10.612,0l56.467-129.068h-35.299H255.998z"/>
<g>
	<path style="fill:#FFDC9B;" d="M255.998,512L255.998,512c-1.217,0-2.426-0.385-3.436-1.128
		C253.573,511.615,254.782,512,255.998,512z"/>
	<polygon style="fill:#FFDC9B;" points="255.998,450.059 255.998,379.462 229.524,379.462 194.225,379.462 225.112,450.059 	"/>
</g>
<path style="fill:#D75055;" d="M225.112,450.059l25.581,58.47c0.439,1.003,1.098,1.774,1.87,2.342
	c1.01,0.743,2.219,1.128,3.436,1.128c2.147,0,4.293-1.156,5.306-3.469l25.581-58.471h-30.886H225.112L225.112,450.059z"/>
<polygon style="fill:#FFAA64;" points="255.998,88.247 255.998,61.773 194.225,61.773 194.225,88.247 229.524,88.247 "/>
<polygon style="fill:#FFCD73;" points="255.998,88.247 282.472,88.247 317.771,88.247 317.771,61.773 255.998,61.773 "/>
<g>
</g>
<g>
</g>
<g>
</g>
<g>
</g>
<g>
</g>
<g>
</g>
<g>
</g>
<g>
</g>
<g>
</g>
<g>
</g>
<g>
</g>
<g>
</g>
<g>
</g>
<g>
</g>
<g>
</g>
</svg>
