<?xml version="1.0" encoding="iso-8859-1"?>
<!-- Generator: Adobe Illustrator 19.0.0, SVG Export Plug-In . SVG Version: 6.00 Build 0)  -->
<svg version="1.1" id="Layer_1" xmlns="http://www.w3.org/2000/svg" xmlns:xlink="http://www.w3.org/1999/xlink" x="0px" y="0px"
	 viewBox="0 0 512 512" style="enable-background:new 0 0 512 512;" xml:space="preserve">
<g>
	<path style="fill:#FFAA64;" d="M214.846,159.907c0.744-0.262,1.501-0.492,2.285-0.652
		C216.346,159.416,215.59,159.647,214.846,159.907z"/>
	<path style="fill:#FFAA64;" d="M217.131,159.255c1.15-0.235,2.339-0.359,3.559-0.359
		C219.47,158.897,218.281,159.02,217.131,159.255z"/>
	<path style="fill:#FFAA64;" d="M203.617,172.124c0.099-0.384,0.203-0.766,0.328-1.14
		C203.82,171.357,203.716,171.738,203.617,172.124z"/>
	<path style="fill:#FFAA64;" d="M220.69,194.207c-1.219,0-2.409-0.124-3.559-0.359C218.281,194.083,219.47,194.207,220.69,194.207z"
		/>
	<path style="fill:#FFAA64;" d="M203.035,176.552L203.035,176.552c0,8.532,6.051,15.65,14.097,17.297
		C209.087,192.202,203.035,185.084,203.035,176.552z"/>
	<path style="fill:#FFAA64;" d="M291.31,158.897H256c-9.75,0-17.655,7.904-17.655,17.655c0,9.75,7.905,17.655,17.655,17.655h35.31
		c9.751,0,17.655-7.904,17.655-17.655l0,0C308.966,166.801,301.062,158.897,291.31,158.897z"/>
</g>
<g>
	<path style="fill:#FFCD73;" d="M243.176,44.07l6.379,114.827H256h35.31l6.379-114.827c1.294-23.295-16.719-42.986-39.784-44.02
		c4.405,0.23,8.579,1.24,12.527,2.702C253.777,8.924,242.13,25.239,243.176,44.07z"/>
	<path style="fill:#FFCD73;" d="M245.183,1.412c0.817-0.218,1.646-0.405,2.483-0.574C246.83,1.009,246.001,1.194,245.183,1.412z"/>
	<path style="fill:#FFCD73;" d="M256,0L256,0c0.007,0,0.013,0,0.02,0C256.013,0,256.007,0,256,0z"/>
	<path style="fill:#FFCD73;" d="M256,0c-0.749,0-1.493,0.02-2.232,0.058C254.507,0.02,255.251,0,256,0L256,0z"/>
</g>
<path style="fill:#FFAA64;" d="M243.176,44.07c-1.046-18.831,10.601-35.146,27.257-41.318c-3.948-1.462-8.122-2.473-12.527-2.702
	c-0.625-0.033-1.252-0.049-1.886-0.05c-0.007,0-0.013,0-0.02,0c-0.749,0-1.493,0.02-2.232,0.058c-2.08,0.109-4.115,0.378-6.101,0.78
	c-0.836,0.169-1.666,0.355-2.483,0.574c-18.609,4.973-31.994,22.463-30.873,42.657l6.379,114.827h28.865L243.176,44.07z"/>
<path style="fill:#EB915F;" d="M256,194.207c-9.75,0-17.655-7.905-17.655-17.655c0-9.751,7.905-17.655,17.655-17.655h-6.445H220.69
	c-1.219,0-2.409,0.124-3.559,0.359c-0.785,0.161-1.543,0.392-2.285,0.652c-5.135,1.804-9.181,5.901-10.901,11.075
	c-0.125,0.374-0.228,0.756-0.328,1.14c-0.367,1.419-0.583,2.897-0.583,4.429c0,8.532,6.052,15.65,14.097,17.297
	c1.15,0.235,2.339,0.359,3.559,0.359h26.483H256z"/>
<g>
	<path style="fill:#B9EBFF;" d="M221.048,462.593c-0.235-1.15-0.359-2.339-0.359-3.559
		C220.69,460.254,220.813,461.443,221.048,462.593z"/>
	<path style="fill:#B9EBFF;" d="M238.345,476.69c-1.219,0-2.409-0.124-3.559-0.359C235.936,476.566,237.126,476.69,238.345,476.69z"
		/>
	<path style="fill:#B9EBFF;" d="M221.048,462.593c1.411,6.895,6.842,12.328,13.738,13.738
		C227.891,474.92,222.46,469.489,221.048,462.593z"/>
	<path style="fill:#B9EBFF;" d="M247.172,459.034c0,9.75,7.905,17.655,17.655,17.655h8.828c9.751,0,17.655-7.904,17.655-17.655
		V211.862h-44.138V459.034z"/>
</g>
<path style="fill:#98D2EB;" d="M247.172,194.207H220.69v17.655v247.172c0,1.219,0.124,2.409,0.359,3.559
	c1.411,6.895,6.842,12.328,13.738,13.738c1.15,0.235,2.339,0.359,3.559,0.359v17.655c0,9.751,7.904,17.655,17.655,17.655
	c9.751,0,17.655-7.904,17.655-17.655V476.69h-8.828c-9.75,0-17.655-7.905-17.655-17.655V211.862h44.138v-17.655H256H247.172z"/>
<g>
</g>
<g>
</g>
<g>
</g>
<g>
</g>
<g>
</g>
<g>
</g>
<g>
</g>
<g>
</g>
<g>
</g>
<g>
</g>
<g>
</g>
<g>
</g>
<g>
</g>
<g>
</g>
<g>
</g>
</svg>
