<?xml version="1.0" encoding="iso-8859-1"?>
<!-- Generator: Adobe Illustrator 19.0.0, SVG Export Plug-In . SVG Version: 6.00 Build 0)  -->
<svg version="1.1" id="Layer_1" xmlns="http://www.w3.org/2000/svg" xmlns:xlink="http://www.w3.org/1999/xlink" x="0px" y="0px"
	 viewBox="0 0 512 512" style="enable-background:new 0 0 512 512;" xml:space="preserve">
<g>
	<path style="fill:#5B5C6C;" d="M194.207,80.345c-4.604,0.906-8.914,1.912-12.828,3.026c-1.61,0.454-3.231,0.652-4.828,0.651v35.15
		h17.655V80.345z"/>
	<path style="fill:#5B5C6C;" d="M317.793,80.345v38.827h17.655V84.052c-1.597-0.001-3.214-0.225-4.828-0.681
		C326.707,82.258,322.397,81.251,317.793,80.345z"/>
</g>
<path style="fill:#DCB488;" d="M441.379,119.172H335.448h-17.655H194.207h-17.655H70.621c0,39.002-31.618,70.621-70.621,70.621
	v211.862c39.002,0,70.621,31.618,70.621,70.621h370.759c0-39.002,31.618-70.621,70.621-70.621V189.793
	C472.997,189.793,441.379,158.175,441.379,119.172z M394.197,241.92l-16.495,16.495L254.539,381.578l-50.714,21.735l0,0
	l-36.081,15.464c-1.228,0.526-2.455,0.628-3.594,0.428c-2.621-0.459-4.737-2.575-5.196-5.196c-0.2-1.138-0.098-2.366,0.428-3.594
	l8.776-20.477l0,0l28.423-66.318l123.162-123.162l16.495-16.495c6.895-6.894,18.073-6.894,24.968,0l32.991,32.991
	C401.092,223.847,401.092,235.026,394.197,241.92z"/>
<g>
	<path style="fill:#C3A082;" d="M70.621,119.172H26.483c-2.285,0-4.503,0.289-6.618,0.834c-2.115,0.544-4.128,1.343-6.005,2.362
		c-0.75,0.407-1.479,0.851-2.184,1.326c-2.817,1.903-5.249,4.335-7.153,7.154c-0.476,0.704-0.919,1.433-1.326,2.184
		c-1.02,1.876-1.818,3.89-2.362,6.005C0.289,141.152,0,143.37,0,145.655v44.138C39.002,189.793,70.621,158.175,70.621,119.172z"/>
	<path style="fill:#C3A082;" d="M511.166,139.037c-0.544-2.115-1.343-4.129-2.362-6.005c-0.407-0.75-0.851-1.479-1.326-2.184
		c-1.903-2.818-4.335-5.249-7.153-7.154c-0.704-0.476-1.433-0.919-2.184-1.326c-1.876-1.02-3.89-1.818-6.005-2.362
		c-2.115-0.544-4.333-0.833-6.618-0.833h-44.138c0,39.002,31.618,70.621,70.621,70.621v-44.138
		C512,143.37,511.711,141.152,511.166,139.037z"/>
	<path style="fill:#C3A082;" d="M441.379,472.276h44.138c2.285,0,4.503-0.289,6.618-0.834c2.115-0.544,4.128-1.343,6.005-2.362
		c0.75-0.407,1.479-0.851,2.184-1.326c2.818-1.903,5.249-4.335,7.153-7.154c0.476-0.704,0.919-1.433,1.326-2.184
		c1.02-1.876,1.818-3.89,2.362-6.005c0.544-2.115,0.834-4.333,0.834-6.618v-44.138C472.997,401.655,441.379,433.273,441.379,472.276
		z"/>
	<path style="fill:#C3A082;" d="M0,401.655v44.138c0,2.285,0.289,4.503,0.834,6.618c0.544,2.115,1.343,4.129,2.362,6.005
		c0.407,0.75,0.851,1.479,1.326,2.184c1.903,2.818,4.335,5.249,7.153,7.154c0.704,0.476,1.433,0.919,2.184,1.326
		c1.876,1.02,3.89,1.819,6.005,2.362c2.115,0.544,4.333,0.833,6.618,0.833h44.138C70.621,433.273,39.002,401.655,0,401.655z"/>
</g>
<path style="fill:#707384;" d="M194.207,80.345c17.324-3.411,39.055-5.311,61.793-5.311s44.469,1.9,61.793,5.311
	c4.604,0.906,8.914,1.912,12.828,3.026c1.613,0.456,3.231,0.68,4.828,0.681c0.003,0,0.006,0,0.009,0
	c7.694,0,14.767-5.069,16.974-12.836c2.664-9.379-2.776-19.147-12.156-21.811c-21.97-6.241-51.896-9.681-84.276-9.681
	s-62.306,3.439-84.276,9.681c-9.379,2.664-14.819,12.431-12.156,21.811c2.202,7.767,9.29,12.799,16.983,12.807
	c1.597,0.001,3.218-0.198,4.828-0.651C185.293,82.258,189.603,81.251,194.207,80.345z"/>
<rect x="252.165" y="189.435" transform="matrix(-0.7071 -0.7071 0.7071 -0.7071 269.9208 664.8534)" style="fill:#D75055;" width="40.982" height="174.178"/>
<rect x="281.143" y="218.426" transform="matrix(0.7071 0.7071 -0.7071 0.7071 304.3782 -123.8039)" style="fill:#FF6469;" width="40.982" height="174.178"/>
<g>
	<path style="fill:#FFF0BE;" d="M361.206,183.961l16.495,16.495l-28.98,28.98l28.98,28.98l16.495-16.495
		c6.895-6.894,6.895-18.073,0-24.968L361.206,183.961z"/>
	<path style="fill:#FFF0BE;" d="M158.954,414.008c0.459,2.621,2.575,4.737,5.196,5.196
		C161.529,418.745,159.413,416.629,158.954,414.008z"/>
	<polygon style="fill:#FFF0BE;" points="196.58,323.619 225.56,352.599 189.335,388.823 203.826,403.313 254.539,381.578 
		225.56,352.599 	"/>
</g>
<polygon style="fill:#FFDC9B;" points="189.335,388.823 225.56,352.599 196.58,323.619 168.158,389.938 168.158,389.938 
	174.846,374.334 "/>
<path style="fill:#D75055;" d="M174.846,374.334l-6.688,15.604l-8.776,20.477c-0.526,1.228-0.628,2.455-0.428,3.594
	c0.459,2.621,2.575,4.737,5.196,5.196c1.138,0.2,2.366,0.098,3.594-0.428l36.081-15.464l0,0l-14.489-14.489L174.846,374.334z"/>
<path style="fill:#FFDC9B;" d="M377.702,200.457l-16.495-16.495c-6.894-6.894-18.073-6.894-24.968,0l-16.495,16.495l28.979,28.98
	L377.702,200.457z"/>
<g>
</g>
<g>
</g>
<g>
</g>
<g>
</g>
<g>
</g>
<g>
</g>
<g>
</g>
<g>
</g>
<g>
</g>
<g>
</g>
<g>
</g>
<g>
</g>
<g>
</g>
<g>
</g>
<g>
</g>
</svg>
