<?xml version="1.0" encoding="iso-8859-1"?>
<!-- Generator: Adobe Illustrator 19.0.0, SVG Export Plug-In . SVG Version: 6.00 Build 0)  -->
<svg version="1.1" id="Layer_1" xmlns="http://www.w3.org/2000/svg" xmlns:xlink="http://www.w3.org/1999/xlink" x="0px" y="0px"
	 viewBox="0 0 512 512" style="enable-background:new 0 0 512 512;" xml:space="preserve">
<g>
	<path style="fill:#BEC8DC;" d="M75.035,52.966c-24.337,0-44.138,19.801-44.138,44.138v44.138c0,24.337,19.801,44.138,44.138,44.138
		h158.897c14.603,0,26.483,11.88,26.483,26.483v52.966h17.655v-52.966c0-24.337-19.801-44.138-44.138-44.138H75.035
		c-14.603,0-26.483-11.88-26.483-26.483V97.103c0-7.826,3.414-14.866,8.828-19.719V56.706
		C62.796,54.329,68.751,52.966,75.035,52.966z"/>
	<path style="fill:#BEC8DC;" d="M72.541,70.742c-0.012,0.001-0.025,0.001-0.038,0.003C72.515,70.743,72.529,70.743,72.541,70.742z"
		/>
</g>
<polygon style="fill:#FFCD73;" points="463.448,44.138 75.035,44.138 75.035,52.966 75.035,70.621 75.035,97.103 463.448,97.103 
	463.448,70.621 463.448,52.966 "/>
<g>
	<path style="fill:#707384;" d="M234.29,497.903c-0.235-1.15-0.359-2.339-0.359-3.559
		C233.931,495.563,234.055,496.754,234.29,497.903z"/>
	<path style="fill:#707384;" d="M251.586,512c-1.219,0-2.409-0.124-3.559-0.359C249.177,511.876,250.367,512,251.586,512z"/>
	<path style="fill:#707384;" d="M233.931,291.31c0-0.609-0.062-1.205-0.18-1.779C233.869,290.105,233.931,290.701,233.931,291.31z"
		/>
	<path style="fill:#707384;" d="M251.586,264.828c-4.875,0-8.828,3.953-8.828,8.828s3.953,8.828,8.828,8.828
		c4.875,0,8.828,3.953,8.828,8.828v203.034c0,9.75,7.905,17.655,17.655,17.655h8.828c9.751,0,17.655-7.904,17.655-17.655V291.31
		c0-4.875,3.953-8.828,8.828-8.828s8.828-3.953,8.828-8.828s-3.953-8.828-8.828-8.828h-35.31h-17.655H251.586z"/>
	<path style="fill:#707384;" d="M226.882,282.663c-0.575-0.118-1.17-0.18-1.779-0.18
		C225.713,282.483,226.307,282.545,226.882,282.663z"/>
	<path style="fill:#707384;" d="M234.29,497.903c1.411,6.895,6.842,12.328,13.738,13.738
		C241.132,510.23,235.701,504.799,234.29,497.903z"/>
	<path style="fill:#707384;" d="M226.882,282.663c3.448,0.705,6.164,3.421,6.869,6.869
		C233.046,286.083,230.331,283.368,226.882,282.663z"/>
	<path style="fill:#707384;" d="M216.753,276.498c0.871,2.559,2.881,4.585,5.429,5.48
		C219.634,281.082,217.623,279.057,216.753,276.498z"/>
	<path style="fill:#707384;" d="M216.567,275.869c-0.11-0.427-0.2-0.862-0.246-1.312
		C216.367,275.007,216.457,275.443,216.567,275.869z"/>
</g>
<path style="fill:#535463;" d="M260.414,494.345V291.31c0-4.875-3.953-8.828-8.828-8.828c-4.875,0-8.828-3.953-8.828-8.828
	s3.953-8.828,8.828-8.828h-26.483c-4.875,0-8.828,3.953-8.828,8.828c0,0.305,0.015,0.606,0.045,0.903
	c0.045,0.449,0.135,0.885,0.246,1.312c0.055,0.213,0.115,0.423,0.185,0.628c0.871,2.559,2.881,4.585,5.429,5.48
	c0.916,0.322,1.897,0.505,2.922,0.505c0.609,0,1.204,0.062,1.779,0.18c3.448,0.705,6.164,3.421,6.869,6.869
	c0.118,0.575,0.18,1.17,0.18,1.779v203.034c0,1.218,0.124,2.409,0.359,3.559c1.411,6.895,6.842,12.328,13.738,13.738
	c1.15,0.235,2.339,0.359,3.559,0.359h26.483C268.319,512,260.414,504.095,260.414,494.345z"/>
<path style="fill:#FFE69B;" d="M463.448,26.483c0-2.285-0.289-4.503-0.834-6.618c-0.544-2.115-1.343-4.128-2.362-6.005
	c-0.407-0.75-0.851-1.479-1.326-2.184c-1.903-2.818-4.335-5.249-7.154-7.153c-0.704-0.476-1.433-0.919-2.184-1.326
	c-1.876-1.02-3.89-1.818-6.005-2.362C441.469,0.289,439.251,0,436.966,0H101.517c-2.285,0-4.503,0.289-6.618,0.834
	c-2.115,0.544-4.129,1.343-6.005,2.362c-0.75,0.407-1.479,0.851-2.184,1.326c-2.818,1.903-5.249,4.335-7.154,7.153
	c-0.476,0.704-0.919,1.433-1.326,2.184c-1.02,1.876-1.818,3.89-2.362,6.005s-0.833,4.333-0.833,6.618v17.655h388.414V26.483z"/>
<path style="fill:#FFB969;" d="M101.517,123.586h335.448l0,0c5.027,0,9.728-1.401,13.732-3.834c0.364-0.221,0.723-0.451,1.075-0.689
	c1.409-0.952,2.721-2.036,3.919-3.234c4.792-4.792,7.756-11.413,7.756-18.726H75.035C75.035,111.73,86.891,123.586,101.517,123.586z
	"/>
<path style="fill:#BEC8DC;" d="M472.276,52.966h-8.828v17.655h8.828c4.875,0,8.828-3.953,8.828-8.828S477.151,52.966,472.276,52.966
	z"/>
<path style="fill:#AAB6CA;" d="M57.379,56.707v20.679v0.124c4.107-3.703,9.326-6.196,15.124-6.764
	c0.012-0.001,0.025-0.001,0.038-0.003c0.821-0.079,1.652-0.121,2.494-0.121V52.966C68.751,52.966,62.796,54.329,57.379,56.707z"/>
<g>
</g>
<g>
</g>
<g>
</g>
<g>
</g>
<g>
</g>
<g>
</g>
<g>
</g>
<g>
</g>
<g>
</g>
<g>
</g>
<g>
</g>
<g>
</g>
<g>
</g>
<g>
</g>
<g>
</g>
</svg>
