<?xml version="1.0" encoding="iso-8859-1"?>
<!-- Generator: Adobe Illustrator 19.0.0, SVG Export Plug-In . SVG Version: 6.00 Build 0)  -->
<svg version="1.1" id="Layer_1" xmlns="http://www.w3.org/2000/svg" xmlns:xlink="http://www.w3.org/1999/xlink" x="0px" y="0px"
	 viewBox="0 0 512 512" style="enable-background:new 0 0 512 512;" xml:space="preserve">
<path style="fill:#FFDC69;" d="M300.138,0h-88.276c-9.75,0-17.655,7.904-17.655,17.655v476.69c0,9.75,7.905,17.655,17.655,17.655
	h88.276c9.75,0,17.655-7.905,17.655-17.655V476.69h-35.31c-4.875,0-8.828-3.948-8.828-8.828c0-4.879,3.953-8.828,8.828-8.828h35.31
	v-17.655h-17.655c-4.875,0-8.828-3.948-8.828-8.828c0-4.879,3.953-8.828,8.828-8.828h17.655v-17.655h-35.31
	c-4.875,0-8.828-3.948-8.828-8.828c0-4.879,3.953-8.828,8.828-8.828h35.31v-17.655h-17.655c-4.875,0-8.828-3.948-8.828-8.828
	s3.953-8.828,8.828-8.828h17.655v-17.655h-35.31c-4.875,0-8.828-3.948-8.828-8.828c0-4.879,3.953-8.828,8.828-8.828h35.31v-17.655
	h-17.655c-4.875,0-8.828-3.948-8.828-8.828c0-4.879,3.953-8.828,8.828-8.828h17.655v-17.655h-35.31
	c-4.875,0-8.828-3.948-8.828-8.828c0-4.879,3.953-8.828,8.828-8.828h35.31v-17.655h-17.655c-4.875,0-8.828-3.948-8.828-8.828
	s3.953-8.828,8.828-8.828h17.655v-17.655h-35.31c-4.875,0-8.828-3.948-8.828-8.828c0-4.879,3.953-8.828,8.828-8.828h35.31v-17.655
	h-17.655c-4.875,0-8.828-3.948-8.828-8.828c0-4.879,3.953-8.828,8.828-8.828h17.655v-17.655h-35.31
	c-4.875,0-8.828-3.948-8.828-8.828c0-4.879,3.953-8.828,8.828-8.828h35.31V88.276h-17.655c-4.875,0-8.828-3.948-8.828-8.828
	c0-4.879,3.953-8.828,8.828-8.828h17.655V52.966h-35.31c-4.875,0-8.828-3.948-8.828-8.828s3.953-8.828,8.828-8.828h35.31V17.655
	C317.793,7.904,309.888,0,300.138,0z M225.103,44.138c-7.313,0-13.241-5.929-13.241-13.241s5.929-13.241,13.241-13.241
	c7.313,0,13.241,5.929,13.241,13.241S232.416,44.138,225.103,44.138z"/>
<g>
	<path style="fill:#FFAA64;" d="M291.31,361.931c0,4.879,3.953,8.828,8.828,8.828h17.655v-17.655h-17.655
		C295.263,353.103,291.31,357.052,291.31,361.931z"/>
	<path style="fill:#FFAA64;" d="M291.31,291.31c0,4.879,3.953,8.828,8.828,8.828h17.655v-17.655h-17.655
		C295.263,282.483,291.31,286.431,291.31,291.31z"/>
	<path style="fill:#FFAA64;" d="M273.655,326.621c0,4.879,3.953,8.828,8.828,8.828h35.31v-17.655h-35.31
		C277.608,317.793,273.655,321.741,273.655,326.621z"/>
	<path style="fill:#FFAA64;" d="M273.655,397.241c0,4.879,3.953,8.828,8.828,8.828h35.31v-17.655h-35.31
		C277.608,388.414,273.655,392.362,273.655,397.241z"/>
	<path style="fill:#FFAA64;" d="M273.655,467.862c0,4.879,3.953,8.828,8.828,8.828h35.31v-17.655h-35.31
		C277.608,459.034,273.655,462.983,273.655,467.862z"/>
	<path style="fill:#FFAA64;" d="M291.31,432.552c0,4.879,3.953,8.828,8.828,8.828h17.655v-17.655h-17.655
		C295.263,423.724,291.31,427.672,291.31,432.552z"/>
	<path style="fill:#FFAA64;" d="M273.655,185.379c0,4.879,3.953,8.828,8.828,8.828h35.31v-17.655h-35.31
		C277.608,176.552,273.655,180.5,273.655,185.379z"/>
	<path style="fill:#FFAA64;" d="M273.655,256c0,4.879,3.953,8.828,8.828,8.828h35.31v-17.655h-35.31
		C277.608,247.172,273.655,251.121,273.655,256z"/>
	<path style="fill:#FFAA64;" d="M273.655,114.759c0,4.879,3.953,8.828,8.828,8.828h35.31v-17.655h-35.31
		C277.608,105.931,273.655,109.879,273.655,114.759z"/>
	<path style="fill:#FFAA64;" d="M273.655,44.138c0,4.879,3.953,8.828,8.828,8.828h35.31V35.31h-35.31
		C277.608,35.31,273.655,39.258,273.655,44.138z"/>
	<path style="fill:#FFAA64;" d="M291.31,79.448c0,4.879,3.953,8.828,8.828,8.828h17.655V70.621h-17.655
		C295.263,70.621,291.31,74.569,291.31,79.448z"/>
	<path style="fill:#FFAA64;" d="M291.31,220.69c0,4.879,3.953,8.828,8.828,8.828h17.655v-17.655h-17.655
		C295.263,211.862,291.31,215.81,291.31,220.69z"/>
	<path style="fill:#FFAA64;" d="M291.31,150.069c0,4.879,3.953,8.828,8.828,8.828h17.655v-17.655h-17.655
		C295.263,141.241,291.31,145.19,291.31,150.069z"/>
</g>
<g>
</g>
<g>
</g>
<g>
</g>
<g>
</g>
<g>
</g>
<g>
</g>
<g>
</g>
<g>
</g>
<g>
</g>
<g>
</g>
<g>
</g>
<g>
</g>
<g>
</g>
<g>
</g>
<g>
</g>
</svg>
