<?xml version="1.0" encoding="iso-8859-1"?>
<!-- Generator: Adobe Illustrator 19.0.0, SVG Export Plug-In . SVG Version: 6.00 Build 0)  -->
<svg version="1.1" id="Layer_1" xmlns="http://www.w3.org/2000/svg" xmlns:xlink="http://www.w3.org/1999/xlink" x="0px" y="0px"
	 viewBox="0 0 512 512" style="enable-background:new 0 0 512 512;" xml:space="preserve">
<g>
	<path style="fill:#AFBBD0;" d="M214.584,262.592l10.081-16.685l0,0l-67.255,111.319c-7.844-2.6-16.217-4.029-24.922-4.029
		c-43.78,0-79.402,35.617-79.402,79.402S88.707,512,132.487,512s79.402-35.617,79.402-79.402c0-22.395-9.334-42.638-24.297-57.086
		l56.903-94.185C232.468,278.659,221.996,271.908,214.584,262.592z M132.487,476.71c-24.322,0-44.112-19.79-44.112-44.112
		s19.79-44.112,44.112-44.112s44.112,19.79,44.112,44.112S156.808,476.71,132.487,476.71z"/>
	<path style="fill:#AFBBD0;" d="M286.46,211.87l98.731-163.416C395.269,31.772,389.916,10.078,373.233,0L256.001,194.04l0.217,0.36
		C269.116,194.478,280.368,201.476,286.46,211.87z"/>
</g>
<path style="fill:#A1A8BB;" d="M224.663,245.908l-10.081,16.685c7.412,9.316,17.884,16.067,29.911,18.735l0,0l9.905-16.395
	C241.441,264.354,230.308,256.786,224.663,245.908z"/>
<path style="fill:#D1D9E9;" d="M379.514,353.197c-8.704,0-17.078,1.428-24.922,4.029l-67.255-111.319
	c2.521-4.859,3.954-10.372,3.954-16.223c0-6.5-1.764-12.584-4.83-17.815c-6.092-10.393-17.344-17.391-30.242-17.469l-0.217-0.36
	L138.767,0c-16.682,10.078-22.036,31.772-11.958,48.454l98.73,163.416c-3.066,5.229-4.83,11.315-4.83,17.814
	c0,5.851,1.433,11.365,3.954,16.223l0,0c5.644,10.879,16.778,18.448,29.737,19.025c0.53,0.023,1.063,0.041,1.599,0.041
	s1.069-0.017,1.599-0.041l66.809,110.58c-14.963,14.449-24.296,34.691-24.296,57.086c0,43.784,35.622,79.402,79.402,79.402
	s79.402-35.617,79.402-79.402S423.294,353.197,379.514,353.197z M238.356,229.683c0-9.745,7.899-17.645,17.645-17.645
	c9.745,0,17.645,7.899,17.645,17.645c0,9.745-7.899,17.645-17.645,17.645C246.255,247.328,238.356,239.429,238.356,229.683z
	 M379.514,476.71c-24.322,0-44.112-19.79-44.112-44.112s19.79-44.112,44.112-44.112s44.112,19.79,44.112,44.112
	S403.835,476.71,379.514,476.71z"/>
<circle style="fill:#AFBBD0;" cx="256.004" cy="229.68" r="17.645"/>
<g>
</g>
<g>
</g>
<g>
</g>
<g>
</g>
<g>
</g>
<g>
</g>
<g>
</g>
<g>
</g>
<g>
</g>
<g>
</g>
<g>
</g>
<g>
</g>
<g>
</g>
<g>
</g>
<g>
</g>
</svg>
