<?xml version="1.0" encoding="iso-8859-1"?>
<!-- Generator: Adobe Illustrator 19.0.0, SVG Export Plug-In . SVG Version: 6.00 Build 0)  -->
<svg version="1.1" id="Layer_1" xmlns="http://www.w3.org/2000/svg" xmlns:xlink="http://www.w3.org/1999/xlink" x="0px" y="0px"
	 viewBox="0 0 512 512" style="enable-background:new 0 0 512 512;" xml:space="preserve">
<path style="fill:#D2DCF0;" d="M485.517,61.793H26.483C11.857,61.793,0,73.65,0,88.276v335.448
	c0,14.626,11.857,26.483,26.483,26.483h459.034c14.626,0,26.483-11.857,26.483-26.483V88.276
	C512,73.65,500.143,61.793,485.517,61.793z M441.379,79.448h8.828c4.875,0,8.828,3.953,8.828,8.828c0,4.875-3.953,8.828-8.828,8.828
	h-8.828c-4.875,0-8.828-3.953-8.828-8.828C432.552,83.401,436.504,79.448,441.379,79.448z M194.207,79.448h211.862
	c4.875,0,8.828,3.953,8.828,8.828c0,4.875-3.953,8.828-8.828,8.828H194.207c-4.875,0-8.828-3.953-8.828-8.828
	C185.379,83.401,189.332,79.448,194.207,79.448z M150.069,79.448h8.828c4.875,0,8.828,3.953,8.828,8.828
	c0,4.875-3.953,8.828-8.828,8.828h-8.828c-4.875,0-8.828-3.953-8.828-8.828C141.241,83.401,145.194,79.448,150.069,79.448z
	 M114.759,79.448h8.828c4.875,0,8.828,3.953,8.828,8.828c0,4.875-3.953,8.828-8.828,8.828h-8.828c-4.875,0-8.828-3.953-8.828-8.828
	C105.931,83.401,109.884,79.448,114.759,79.448z M79.448,79.448c4.875,0,8.828,3.953,8.828,8.828c0,4.875-3.953,8.828-8.828,8.828
	c-4.875,0-8.828-3.953-8.828-8.828C70.621,83.401,74.573,79.448,79.448,79.448z M52.966,79.448c4.875,0,8.828,3.953,8.828,8.828
	c0,4.875-3.953,8.828-8.828,8.828s-8.828-3.953-8.828-8.828C44.138,83.401,48.09,79.448,52.966,79.448z M26.483,79.448
	c4.875,0,8.828,3.953,8.828,8.828c0,4.875-3.953,8.828-8.828,8.828s-8.828-3.953-8.828-8.828
	C17.655,83.401,21.608,79.448,26.483,79.448z M494.345,423.724c0,4.875-3.953,8.828-8.828,8.828H26.483
	c-4.875,0-8.828-3.953-8.828-8.828V123.586c0-4.875,3.953-8.828,8.828-8.828h459.034c4.875,0,8.828,3.953,8.828,8.828V423.724z
	 M485.517,97.103h-8.828c-4.875,0-8.828-3.953-8.828-8.828c0-4.875,3.953-8.828,8.828-8.828h8.828c4.875,0,8.828,3.953,8.828,8.828
	C494.345,93.151,490.392,97.103,485.517,97.103z"/>
<path style="fill:#91E6BE;" d="M485.517,114.759H26.483c-4.875,0-8.828,3.953-8.828,8.828v300.138c0,4.875,3.953,8.828,8.828,8.828
	h459.034c4.875,0,8.828-3.953,8.828-8.828V123.586C494.345,118.711,490.392,114.759,485.517,114.759z M459.034,353.103H253.619
	c-3.054,5.272-8.743,8.828-15.274,8.828H220.69c-6.531,0-12.22-3.555-15.274-8.828h-17.588H52.966c-4.875,0-8.828-3.953-8.828-8.828
	c0-4.875,3.953-8.828,8.828-8.828h134.862h17.588c3.054-5.272,8.743-8.828,15.274-8.828h17.655c6.531,0,12.22,3.555,15.274,8.828
	h205.416c4.875,0,8.828,3.953,8.828,8.828C467.862,349.151,463.91,353.103,459.034,353.103z M459.034,282.483h-37.692
	c-3.054,5.272-8.743,8.828-15.274,8.828h-17.655c-6.531,0-12.22-3.555-15.274-8.828h-17.588H52.966
	c-4.875,0-8.828-3.953-8.828-8.828s3.953-8.828,8.828-8.828h302.586h17.588c3.054-5.272,8.743-8.828,15.274-8.828h17.655
	c6.531,0,12.22,3.555,15.274,8.828h37.692c4.875,0,8.828,3.953,8.828,8.828S463.91,282.483,459.034,282.483z M459.034,211.862
	H130.033c-3.054,5.272-8.743,8.828-15.274,8.828H97.103c-6.531,0-12.22-3.555-15.274-8.828H64.242H52.966
	c-4.875,0-8.828-3.953-8.828-8.828s3.953-8.828,8.828-8.828h11.276H81.83c3.054-5.272,8.743-8.828,15.274-8.828h17.655
	c6.531,0,12.22,3.555,15.274,8.828h329.002c4.875,0,8.828,3.953,8.828,8.828S463.91,211.862,459.034,211.862z"/>
<circle style="fill:#FF6469;" cx="26.483" cy="88.276" r="8.828"/>
<circle style="fill:#FFE169;" cx="52.966" cy="88.276" r="8.828"/>
<circle style="fill:#87E1AA;" cx="79.448" cy="88.276" r="8.828"/>
<g>
	<path style="fill:#E4EAF6;" d="M114.759,97.103h8.828c4.875,0,8.828-3.953,8.828-8.828c0-4.875-3.953-8.828-8.828-8.828h-8.828
		c-4.875,0-8.828,3.953-8.828,8.828C105.931,93.151,109.884,97.103,114.759,97.103z"/>
	<path style="fill:#E4EAF6;" d="M150.069,97.103h8.828c4.875,0,8.828-3.953,8.828-8.828c0-4.875-3.953-8.828-8.828-8.828h-8.828
		c-4.875,0-8.828,3.953-8.828,8.828C141.241,93.151,145.194,97.103,150.069,97.103z"/>
	<path style="fill:#E4EAF6;" d="M441.379,97.103h8.828c4.875,0,8.828-3.953,8.828-8.828c0-4.875-3.953-8.828-8.828-8.828h-8.828
		c-4.875,0-8.828,3.953-8.828,8.828C432.552,93.151,436.504,97.103,441.379,97.103z"/>
	<path style="fill:#E4EAF6;" d="M485.517,79.448h-8.828c-4.875,0-8.828,3.953-8.828,8.828c0,4.875,3.953,8.828,8.828,8.828h8.828
		c4.875,0,8.828-3.953,8.828-8.828C494.345,83.401,490.392,79.448,485.517,79.448z"/>
	<path style="fill:#E4EAF6;" d="M194.207,97.103h211.862c4.875,0,8.828-3.953,8.828-8.828c0-4.875-3.953-8.828-8.828-8.828H194.207
		c-4.875,0-8.828,3.953-8.828,8.828C185.379,93.151,189.332,97.103,194.207,97.103z"/>
</g>
<g>
	<path style="fill:#41BEA0;" d="M64.242,194.207H52.966c-4.875,0-8.828,3.953-8.828,8.828s3.953,8.828,8.828,8.828h11.276
		c-1.517-2.605-2.449-5.596-2.449-8.828C61.793,199.802,62.726,196.813,64.242,194.207z"/>
	<path style="fill:#41BEA0;" d="M459.034,194.207H130.033c1.505,2.599,2.381,5.608,2.381,8.828s-0.876,6.229-2.381,8.828h329.002
		c4.875,0,8.828-3.953,8.828-8.828S463.91,194.207,459.034,194.207z"/>
	<path style="fill:#41BEA0;" d="M459.034,264.828h-37.692c1.505,2.599,2.381,5.608,2.381,8.828c0,3.22-0.876,6.229-2.381,8.828
		h37.692c4.875,0,8.828-3.953,8.828-8.828S463.91,264.828,459.034,264.828z"/>
	<path style="fill:#41BEA0;" d="M355.552,264.828H52.966c-4.875,0-8.828,3.953-8.828,8.828s3.953,8.828,8.828,8.828h302.586
		c-1.517-2.605-2.449-5.596-2.449-8.828C353.103,270.423,354.036,267.434,355.552,264.828z"/>
	<path style="fill:#41BEA0;" d="M459.034,335.448H253.619c1.505,2.599,2.381,5.608,2.381,8.828c0,3.22-0.876,6.229-2.381,8.828
		h205.416c4.875,0,8.828-3.953,8.828-8.828C467.862,339.401,463.91,335.448,459.034,335.448z"/>
	<path style="fill:#41BEA0;" d="M187.828,335.448H52.966c-4.875,0-8.828,3.953-8.828,8.828c0,4.875,3.953,8.828,8.828,8.828h134.862
		c-1.517-2.605-2.449-5.596-2.449-8.828C185.379,341.044,186.312,338.055,187.828,335.448z"/>
</g>
<path style="fill:#00A087;" d="M81.83,194.207H64.242c-1.517,2.606-2.449,5.596-2.449,8.828c0,3.232,0.932,6.222,2.449,8.828H81.83
	c-1.505-2.599-2.381-5.608-2.381-8.828S80.324,196.806,81.83,194.207z"/>
<path style="fill:#FFC85A;" d="M97.103,203.034c0-9.75,7.904-17.655,17.655-17.655H97.103c-6.531,0-12.22,3.555-15.274,8.828
	c-1.505,2.599-2.381,5.608-2.381,8.828s0.876,6.229,2.381,8.828c3.054,5.272,8.743,8.828,15.274,8.828h17.655
	C105.007,220.69,97.103,212.785,97.103,203.034z"/>
<path style="fill:#FFDC69;" d="M130.033,194.207c-3.054-5.272-8.743-8.828-15.274-8.828c-9.751,0-17.655,7.905-17.655,17.655
	c0,9.75,7.904,17.655,17.655,17.655c6.531,0,12.22-3.555,15.274-8.828c1.505-2.599,2.381-5.608,2.381-8.828
	S131.538,196.806,130.033,194.207z"/>
<path style="fill:#00A087;" d="M373.14,264.828h-17.588c-1.517,2.606-2.449,5.596-2.449,8.828c0,3.232,0.932,6.222,2.449,8.828
	h17.588c-1.505-2.599-2.381-5.608-2.381-8.828C370.759,270.435,371.635,267.426,373.14,264.828z"/>
<path style="fill:#D2555F;" d="M388.414,273.655c0-9.75,7.904-17.655,17.655-17.655h-17.655c-6.531,0-12.22,3.555-15.274,8.828
	c-1.505,2.599-2.381,5.608-2.381,8.828c0,3.22,0.876,6.229,2.381,8.828c3.054,5.272,8.743,8.828,15.274,8.828h17.655
	C396.318,291.31,388.414,283.405,388.414,273.655z"/>
<path style="fill:#FF6469;" d="M421.343,264.828c-3.054-5.272-8.743-8.828-15.274-8.828c-9.751,0-17.655,7.905-17.655,17.655
	c0,9.75,7.904,17.655,17.655,17.655c6.531,0,12.22-3.555,15.274-8.828c1.505-2.599,2.381-5.608,2.381-8.828
	C423.724,270.435,422.848,267.426,421.343,264.828z"/>
<path style="fill:#00A087;" d="M205.416,335.448h-17.588c-1.517,2.606-2.449,5.596-2.449,8.828c0,3.232,0.932,6.222,2.449,8.828
	h17.588c-1.505-2.599-2.381-5.608-2.381-8.828C203.034,341.056,203.911,338.047,205.416,335.448z"/>
<path style="fill:#A09CFF;" d="M220.69,344.276c0-9.75,7.904-17.655,17.655-17.655H220.69c-6.531,0-12.22,3.555-15.274,8.828
	c-1.505,2.599-2.381,5.608-2.381,8.828c0,3.22,0.876,6.229,2.381,8.828c3.054,5.272,8.743,8.828,15.274,8.828h17.655
	C228.594,361.931,220.69,354.026,220.69,344.276z"/>
<path style="fill:#C3B4FA;" d="M253.619,335.448c-3.054-5.272-8.743-8.828-15.274-8.828c-9.751,0-17.655,7.905-17.655,17.655
	c0,9.75,7.904,17.655,17.655,17.655c6.531,0,12.22-3.555,15.274-8.828c1.505-2.599,2.381-5.608,2.381-8.828
	C256,341.056,255.124,338.047,253.619,335.448z"/>
<g>
</g>
<g>
</g>
<g>
</g>
<g>
</g>
<g>
</g>
<g>
</g>
<g>
</g>
<g>
</g>
<g>
</g>
<g>
</g>
<g>
</g>
<g>
</g>
<g>
</g>
<g>
</g>
<g>
</g>
</svg>
