<?xml version="1.0" encoding="iso-8859-1"?>
<!-- Generator: Adobe Illustrator 19.0.0, SVG Export Plug-In . SVG Version: 6.00 Build 0)  -->
<svg version="1.1" id="Layer_1" xmlns="http://www.w3.org/2000/svg" xmlns:xlink="http://www.w3.org/1999/xlink" x="0px" y="0px"
	 viewBox="0 0 512 512" style="enable-background:new 0 0 512 512;" xml:space="preserve">
<path style="fill:#DEE3ED;" d="M379.586,158.897c0,4.875-3.953,8.828-8.828,8.828H141.241c-4.875,0-8.828-3.953-8.828-8.828v-35.31
	h-26.483v370.759c0,9.75,7.904,17.655,17.655,17.655h264.828c9.751,0,17.655-7.905,17.655-17.655V123.586h-26.483V158.897z
	 M379.586,476.69c0,4.875-3.953,8.828-8.828,8.828H141.241c-4.875,0-8.828-3.953-8.828-8.828v-70.621
	c0-4.875,3.953-8.828,8.828-8.828h229.517c4.875,0,8.828,3.953,8.828,8.828V476.69z M379.586,370.759
	c0,4.875-3.953,8.828-8.828,8.828H141.241c-4.875,0-8.828-3.953-8.828-8.828v-70.621c0-4.875,3.953-8.828,8.828-8.828h229.517
	c4.875,0,8.828,3.953,8.828,8.828V370.759z M379.586,264.828c0,4.875-3.953,8.828-8.828,8.828H141.241
	c-4.875,0-8.828-3.953-8.828-8.828v-70.621c0-4.875,3.953-8.828,8.828-8.828h229.517c4.875,0,8.828,3.953,8.828,8.828V264.828z"/>
<path style="fill:#FF6469;" d="M388.414,0H123.586c-9.751,0-17.655,7.904-17.655,17.655v105.931h26.483v-35.31
	c0-4.875,3.953-8.828,8.828-8.828h229.517c4.875,0,8.828,3.953,8.828,8.828v35.31h26.483V17.655C406.069,7.904,398.165,0,388.414,0z
	 M203.034,39.724c0,7.313-5.929,13.241-13.241,13.241H163.31c-7.313,0-13.241-5.929-13.241-13.241l0,0
	c0-7.313,5.929-13.241,13.241-13.241h26.483C197.106,26.483,203.034,32.412,203.034,39.724L203.034,39.724z M269.241,52.966h-26.483
	c-7.313,0-13.241-5.929-13.241-13.241s5.929-13.241,13.241-13.241h26.483c7.313,0,13.241,5.929,13.241,13.241
	S276.554,52.966,269.241,52.966z M361.931,39.724c0,7.313-5.929,13.241-13.241,13.241h-26.483c-7.313,0-13.241-5.929-13.241-13.241
	l0,0c0-7.313,5.929-13.241,13.241-13.241h26.483C356.002,26.483,361.931,32.412,361.931,39.724L361.931,39.724z"/>
<path style="fill:#FFFFFF;" d="M370.759,185.379H141.241c-4.875,0-8.828,3.953-8.828,8.828v70.621c0,4.875,3.953,8.828,8.828,8.828
	h229.517c4.875,0,8.828-3.953,8.828-8.828v-70.621C379.586,189.332,375.634,185.379,370.759,185.379z M203.034,255.999h-44.138
	c-4.875,0-8.828-3.953-8.828-8.828c0-4.875,3.953-8.828,8.828-8.828h44.138c4.875,0,8.828,3.953,8.828,8.828
	C211.862,252.046,207.91,255.999,203.034,255.999z M256,256h-17.655c-4.875,0-8.828-3.953-8.828-8.828s3.953-8.828,8.828-8.828H256
	c4.875,0,8.828,3.953,8.828,8.828S260.875,256,256,256z M291.31,211.862c0,4.875-3.953,8.828-8.828,8.828H158.897
	c-4.875,0-8.828-3.953-8.828-8.828l0,0c0-4.875,3.953-8.828,8.828-8.828h123.586C287.358,203.034,291.31,206.987,291.31,211.862
	L291.31,211.862z M335.448,256c-14.626,0-26.483-11.857-26.483-26.483c0-14.626,11.857-26.483,26.483-26.483
	s26.483,11.857,26.483,26.483C361.931,244.143,350.074,256,335.448,256z"/>
<path style="fill:#AFBBD0;" d="M282.483,203.034H158.897c-4.875,0-8.828,3.953-8.828,8.828l0,0c0,4.875,3.953,8.828,8.828,8.828
	h123.586c4.875,0,8.828-3.953,8.828-8.828l0,0C291.31,206.987,287.358,203.034,282.483,203.034z"/>
<g>
	<path style="fill:#D2DCF0;" d="M203.034,238.344h-44.138c-4.875,0-8.828,3.953-8.828,8.828c0,4.875,3.953,8.828,8.828,8.828h44.138
		c4.875,0,8.828-3.953,8.828-8.828C211.862,242.296,207.91,238.344,203.034,238.344z"/>
	<path style="fill:#D2DCF0;" d="M256,238.345h-17.655c-4.875,0-8.828,3.953-8.828,8.828S233.47,256,238.345,256H256
		c4.875,0,8.828-3.953,8.828-8.828S260.875,238.345,256,238.345z"/>
</g>
<circle style="fill:#FF6469;" cx="335.448" cy="229.517" r="26.483"/>
<path style="fill:#FFFFFF;" d="M141.241,167.724h229.517c4.875,0,8.828-3.953,8.828-8.828v-35.31v-35.31
	c0-4.875-3.953-8.828-8.828-8.828H141.241c-4.875,0-8.828,3.953-8.828,8.828v35.31v35.31
	C132.414,163.772,136.366,167.724,141.241,167.724z M203.034,150.068h-44.138c-4.875,0-8.828-3.953-8.828-8.828
	s3.953-8.828,8.828-8.828h44.138c4.875,0,8.828,3.953,8.828,8.828S207.91,150.068,203.034,150.068z M256,150.069h-17.655
	c-4.875,0-8.828-3.953-8.828-8.828s3.953-8.828,8.828-8.828H256c4.875,0,8.828,3.953,8.828,8.828S260.875,150.069,256,150.069z
	 M335.448,97.103c14.626,0,26.483,11.857,26.483,26.483s-11.857,26.483-26.483,26.483s-26.483-11.857-26.483-26.483
	C308.966,108.961,320.822,97.103,335.448,97.103z M150.069,105.931c0-4.875,3.953-8.828,8.828-8.828h123.586
	c4.875,0,8.828,3.953,8.828,8.828l0,0c0,4.875-3.953,8.828-8.828,8.828H158.897C154.022,114.759,150.069,110.806,150.069,105.931
	L150.069,105.931z"/>
<path style="fill:#AFBBD0;" d="M158.897,114.759h123.586c4.875,0,8.828-3.953,8.828-8.828l0,0c0-4.875-3.953-8.828-8.828-8.828
	H158.897c-4.875,0-8.828,3.953-8.828,8.828l0,0C150.069,110.806,154.022,114.759,158.897,114.759z"/>
<g>
	<path style="fill:#D2DCF0;" d="M203.034,132.413h-44.138c-4.875,0-8.828,3.953-8.828,8.828c0,4.875,3.953,8.828,8.828,8.828h44.138
		c4.875,0,8.828-3.953,8.828-8.828S207.91,132.413,203.034,132.413z"/>
	<path style="fill:#D2DCF0;" d="M256,132.414h-17.655c-4.875,0-8.828,3.953-8.828,8.828s3.953,8.828,8.828,8.828H256
		c4.875,0,8.828-3.953,8.828-8.828S260.875,132.414,256,132.414z"/>
</g>
<circle style="fill:#FFE169;" cx="335.448" cy="123.586" r="26.483"/>
<path style="fill:#FFFFFF;" d="M370.759,291.31H141.241c-4.875,0-8.828,3.953-8.828,8.828v70.621c0,4.875,3.953,8.828,8.828,8.828
	h229.517c4.875,0,8.828-3.953,8.828-8.828v-70.621C379.586,295.263,375.634,291.31,370.759,291.31z M203.034,361.93h-44.138
	c-4.875,0-8.828-3.953-8.828-8.828s3.953-8.828,8.828-8.828h44.138c4.875,0,8.828,3.953,8.828,8.828S207.91,361.93,203.034,361.93z
	 M256,361.931h-17.655c-4.875,0-8.828-3.953-8.828-8.828s3.953-8.828,8.828-8.828H256c4.875,0,8.828,3.953,8.828,8.828
	S260.875,361.931,256,361.931z M291.31,317.793c0,4.875-3.953,8.828-8.828,8.828H158.897c-4.875,0-8.828-3.953-8.828-8.828l0,0
	c0-4.875,3.953-8.828,8.828-8.828h123.586C287.358,308.966,291.31,312.918,291.31,317.793L291.31,317.793z M335.448,361.931
	c-14.626,0-26.483-11.857-26.483-26.483s11.857-26.483,26.483-26.483s26.483,11.857,26.483,26.483S350.074,361.931,335.448,361.931z
	"/>
<path style="fill:#AFBBD0;" d="M282.483,308.966H158.897c-4.875,0-8.828,3.953-8.828,8.828l0,0c0,4.875,3.953,8.828,8.828,8.828
	h123.586c4.875,0,8.828-3.953,8.828-8.828l0,0C291.31,312.918,287.358,308.966,282.483,308.966z"/>
<g>
	<path style="fill:#D2DCF0;" d="M203.034,344.275h-44.138c-4.875,0-8.828,3.953-8.828,8.828s3.953,8.828,8.828,8.828h44.138
		c4.875,0,8.828-3.953,8.828-8.828S207.91,344.275,203.034,344.275z"/>
	<path style="fill:#D2DCF0;" d="M256,344.276h-17.655c-4.875,0-8.828,3.953-8.828,8.828s3.953,8.828,8.828,8.828H256
		c4.875,0,8.828-3.953,8.828-8.828S260.875,344.276,256,344.276z"/>
</g>
<circle style="fill:#B4E173;" cx="335.448" cy="335.448" r="26.483"/>
<path style="fill:#FFFFFF;" d="M370.759,397.241H141.241c-4.875,0-8.828,3.953-8.828,8.828v70.621c0,4.875,3.953,8.828,8.828,8.828
	h229.517c4.875,0,8.828-3.953,8.828-8.828v-70.621C379.586,401.194,375.634,397.241,370.759,397.241z M203.034,467.861h-44.138
	c-4.875,0-8.828-3.953-8.828-8.828c0-4.875,3.953-8.828,8.828-8.828h44.138c4.875,0,8.828,3.953,8.828,8.828
	C211.862,463.908,207.91,467.861,203.034,467.861z M264.828,459.034c0,4.875-3.953,8.828-8.828,8.828h-17.655
	c-4.875,0-8.828-3.953-8.828-8.828l0,0c0-4.875,3.953-8.828,8.828-8.828H256C260.875,450.207,264.828,454.159,264.828,459.034
	L264.828,459.034z M282.483,432.552H158.897c-4.875,0-8.828-3.953-8.828-8.828c0-4.875,3.953-8.828,8.828-8.828h123.586
	c4.875,0,8.828,3.953,8.828,8.828C291.31,428.599,287.358,432.552,282.483,432.552z M335.448,467.862
	c-14.626,0-26.483-11.857-26.483-26.483s11.857-26.483,26.483-26.483s26.483,11.857,26.483,26.483S350.074,467.862,335.448,467.862z
	"/>
<path style="fill:#AFBBD0;" d="M282.483,414.897H158.897c-4.875,0-8.828,3.953-8.828,8.828c0,4.875,3.953,8.828,8.828,8.828h123.586
	c4.875,0,8.828-3.953,8.828-8.828C291.31,418.849,287.358,414.897,282.483,414.897z"/>
<g>
	<path style="fill:#D2DCF0;" d="M203.034,450.206h-44.138c-4.875,0-8.828,3.953-8.828,8.828c0,4.875,3.953,8.828,8.828,8.828h44.138
		c4.875,0,8.828-3.953,8.828-8.828C211.862,454.158,207.91,450.206,203.034,450.206z"/>
	<path style="fill:#D2DCF0;" d="M256,450.207h-17.655c-4.875,0-8.828,3.953-8.828,8.828l0,0c0,4.875,3.953,8.828,8.828,8.828H256
		c4.875,0,8.828-3.953,8.828-8.828l0,0C264.828,454.159,260.875,450.207,256,450.207z"/>
</g>
<circle style="fill:#A0DCF0;" cx="335.448" cy="441.379" r="26.483"/>
<g>
	<path style="fill:#D75055;" d="M269.241,26.483h-26.483c-7.313,0-13.241,5.929-13.241,13.241s5.929,13.241,13.241,13.241h26.483
		c7.313,0,13.241-5.929,13.241-13.241S276.554,26.483,269.241,26.483z"/>
	<path style="fill:#D75055;" d="M189.793,26.483H163.31c-7.313,0-13.241,5.929-13.241,13.241l0,0
		c0,7.313,5.929,13.241,13.241,13.241h26.483c7.313,0,13.241-5.929,13.241-13.241l0,0C203.034,32.412,197.106,26.483,189.793,26.483
		z"/>
	<path style="fill:#D75055;" d="M348.69,26.483h-26.483c-7.313,0-13.241,5.929-13.241,13.241l0,0
		c0,7.313,5.929,13.241,13.241,13.241h26.483c7.313,0,13.241-5.929,13.241-13.241l0,0C361.931,32.412,356.002,26.483,348.69,26.483z
		"/>
</g>
<g>
</g>
<g>
</g>
<g>
</g>
<g>
</g>
<g>
</g>
<g>
</g>
<g>
</g>
<g>
</g>
<g>
</g>
<g>
</g>
<g>
</g>
<g>
</g>
<g>
</g>
<g>
</g>
<g>
</g>
</svg>
