<?xml version="1.0" encoding="iso-8859-1"?>
<!-- Generator: Adobe Illustrator 19.0.0, SVG Export Plug-In . SVG Version: 6.00 Build 0)  -->
<svg version="1.1" id="Layer_1" xmlns="http://www.w3.org/2000/svg" xmlns:xlink="http://www.w3.org/1999/xlink" x="0px" y="0px"
	 viewBox="0 0 512 512" style="enable-background:new 0 0 512 512;" xml:space="preserve">
<path style="fill:#DEE3ED;" d="M388.414,0H123.586c-9.751,0-17.655,7.904-17.655,17.655v476.69c0,9.75,7.904,17.655,17.655,17.655
	h264.828c9.751,0,17.655-7.905,17.655-17.655V17.655C406.069,7.904,398.165,0,388.414,0z M308.966,39.724
	c0-7.313,5.929-13.241,13.241-13.241h26.483c7.313,0,13.241,5.929,13.241,13.241l0,0c0,7.313-5.929,13.241-13.241,13.241h-26.483
	C314.894,52.966,308.966,47.037,308.966,39.724L308.966,39.724z M242.759,26.483h26.483c7.313,0,13.241,5.929,13.241,13.241
	s-5.929,13.241-13.241,13.241h-26.483c-7.313,0-13.241-5.929-13.241-13.241S235.446,26.483,242.759,26.483z M150.069,39.724
	c0-7.313,5.929-13.241,13.241-13.241h26.483c7.313,0,13.241,5.929,13.241,13.241l0,0c0,7.313-5.929,13.241-13.241,13.241H163.31
	C155.998,52.966,150.069,47.037,150.069,39.724L150.069,39.724z M379.586,476.69c0,4.57-3.474,8.33-7.925,8.781
	c-0.297,0.031-0.598,0.046-0.903,0.046H141.241c-0.305,0-0.606-0.015-0.903-0.046c-4.451-0.452-7.925-4.211-7.925-8.781v-70.621
	c0-0.305,0.015-0.606,0.045-0.903c0.422-4.155,3.725-7.457,7.88-7.88c0.297-0.03,0.598-0.045,0.903-0.045h229.517
	c0.305,0,0.606,0.015,0.903,0.045c4.155,0.421,7.457,3.724,7.88,7.88c0.03,0.297,0.045,0.598,0.045,0.903L379.586,476.69
	L379.586,476.69z M379.586,300.138v70.621l0,0c0,4.875-3.953,8.828-8.828,8.828H141.241c-4.875,0-8.828-3.953-8.828-8.828l0,0
	v-70.621l0,0c0-4.875,3.953-8.828,8.828-8.828h229.517C375.634,291.31,379.586,295.263,379.586,300.138L379.586,300.138z
	 M379.586,264.828c0,4.57-3.474,8.33-7.925,8.781c-0.297,0.031-0.598,0.046-0.903,0.046H141.241c-0.305,0-0.606-0.015-0.903-0.046
	c-4.451-0.452-7.925-4.211-7.925-8.781v-70.621c0-0.305,0.015-0.606,0.045-0.903c0.422-4.154,3.725-7.457,7.88-7.88
	c0.297-0.03,0.598-0.045,0.903-0.045h229.517c0.305,0,0.606,0.015,0.903,0.045c4.155,0.422,7.457,3.724,7.88,7.88
	c0.03,0.297,0.045,0.598,0.045,0.903L379.586,264.828L379.586,264.828z M379.586,88.276v70.621l0,0c0,4.875-3.953,8.828-8.828,8.828
	H141.241c-4.875,0-8.828-3.953-8.828-8.828l0,0V88.276l0,0c0-4.875,3.953-8.828,8.828-8.828h229.517
	C375.634,79.448,379.586,83.401,379.586,88.276L379.586,88.276z"/>
<g>
	<path style="fill:#AFBBD0;" d="M242.759,52.966h26.483c7.313,0,13.241-5.929,13.241-13.241s-5.929-13.241-13.241-13.241h-26.483
		c-7.313,0-13.241,5.929-13.241,13.241S235.446,52.966,242.759,52.966z"/>
	<path style="fill:#AFBBD0;" d="M163.31,52.966h26.483c7.313,0,13.241-5.929,13.241-13.241l0,0c0-7.313-5.929-13.241-13.241-13.241
		H163.31c-7.313,0-13.241,5.929-13.241,13.241l0,0C150.069,47.037,155.998,52.966,163.31,52.966z"/>
	<path style="fill:#AFBBD0;" d="M322.207,52.966h26.483c7.313,0,13.241-5.929,13.241-13.241l0,0c0-7.313-5.929-13.241-13.241-13.241
		h-26.483c-7.313,0-13.241,5.929-13.241,13.241l0,0C308.966,47.037,314.894,52.966,322.207,52.966z"/>
</g>
<g>
	<polygon style="fill:#FFFFFF;" points="286.009,123.586 361.931,146.946 361.931,100.226 	"/>
	<polygon style="fill:#FFFFFF;" points="256,132.82 199.94,150.069 312.06,150.069 	"/>
	<polygon style="fill:#FFFFFF;" points="150.069,100.226 150.069,146.946 225.991,123.586 	"/>
	<path style="fill:#FFFFFF;" d="M370.759,167.724H141.241c-4.875,0-8.828-3.951-8.828-8.828l0,0c0,4.875,3.953,8.828,8.828,8.828
		H370.759c4.875,0,8.828-3.953,8.828-8.828l0,0C379.586,163.773,375.634,167.724,370.759,167.724z"/>
	<polygon style="fill:#FFFFFF;" points="199.94,97.103 256,114.353 312.06,97.103 	"/>
</g>
<path style="fill:#AFBBD0;" d="M370.759,79.448H141.241c-4.875,0-8.828,3.953-8.828,8.828l0,0v70.621
	c0,4.876,3.953,8.828,8.828,8.828h229.517c4.875,0,8.828-3.951,8.828-8.828V88.276l0,0
	C379.586,83.401,375.634,79.448,370.759,79.448z M150.069,100.226l75.922,23.36l-75.922,23.36V100.226z M199.94,97.103h112.118
	L256,114.353L199.94,97.103z M256,132.82l56.06,17.249H199.94L256,132.82z M286.009,123.586l75.922-23.36v46.721L286.009,123.586z"
	/>
<g>
	<polygon style="fill:#FFFFFF;" points="225.991,229.517 150.069,206.157 150.069,252.877 	"/>
	<polygon style="fill:#FFFFFF;" points="199.94,203.034 256,220.284 312.06,203.034 	"/>
	<polygon style="fill:#FFFFFF;" points="256,238.751 199.94,256 312.06,256 	"/>
	<polygon style="fill:#FFFFFF;" points="286.009,229.517 361.931,252.877 361.931,206.157 	"/>
	<path style="fill:#FFFFFF;" d="M371.661,273.609c4.451-0.452,7.925-4.211,7.925-8.781
		C379.586,269.398,376.113,273.158,371.661,273.609z"/>
	<path style="fill:#FFFFFF;" d="M379.541,193.304c-0.422-4.154-3.725-7.457-7.88-7.88
		C375.816,185.847,379.118,189.15,379.541,193.304z"/>
	<path style="fill:#FFFFFF;" d="M140.339,185.425c-4.154,0.422-7.457,3.724-7.88,7.88
		C132.882,189.15,136.184,185.847,140.339,185.425z"/>
	<path style="fill:#FFFFFF;" d="M132.414,264.828c0,4.57,3.474,8.33,7.925,8.781C135.887,273.158,132.414,269.398,132.414,264.828z"
		/>
</g>
<path style="fill:#AFBBD0;" d="M371.661,185.425c-0.297-0.03-0.598-0.045-0.903-0.045H141.241c-0.305,0-0.606,0.015-0.903,0.045
	c-4.154,0.422-7.457,3.725-7.88,7.88c-0.03,0.297-0.045,0.598-0.045,0.903v70.621c0,4.57,3.474,8.33,7.925,8.781
	c0.297,0.03,0.598,0.046,0.903,0.046h229.517c0.305,0,0.606-0.015,0.903-0.046c4.451-0.452,7.925-4.212,7.925-8.781v-70.621
	c0-0.305-0.015-0.606-0.045-0.903C379.118,189.15,375.816,185.847,371.661,185.425z M225.991,229.517l-75.922,23.36v-46.72
	L225.991,229.517z M199.94,203.034h112.118L256,220.284L199.94,203.034z M256,238.751L312.06,256H199.94L256,238.751z
	 M286.009,229.517l75.922-23.36v46.721L286.009,229.517z"/>
<g>
	<polygon style="fill:#FFFFFF;" points="150.069,312.088 150.069,358.808 225.991,335.448 	"/>
	<polygon style="fill:#FFFFFF;" points="199.94,308.966 256,326.215 312.06,308.966 	"/>
	<path style="fill:#FFFFFF;" d="M370.759,379.586H141.241c-4.875,0-8.828-3.951-8.828-8.828l0,0c0,4.875,3.953,8.828,8.828,8.828
		H370.759c4.875,0,8.828-3.953,8.828-8.828l0,0C379.586,375.635,375.634,379.586,370.759,379.586z"/>
	<polygon style="fill:#FFFFFF;" points="286.009,335.448 361.931,358.808 361.931,312.088 	"/>
	<polygon style="fill:#FFFFFF;" points="256,344.682 199.94,361.931 312.06,361.931 	"/>
</g>
<path style="fill:#AFBBD0;" d="M370.759,291.31H141.241c-4.875,0-8.828,3.953-8.828,8.828l0,0v70.621
	c0,4.876,3.953,8.828,8.828,8.828h229.517c4.875,0,8.828-3.951,8.828-8.828v-70.621l0,0
	C379.586,295.263,375.634,291.31,370.759,291.31z M150.069,312.088l75.922,23.36l-75.922,23.36V312.088z M199.94,308.966h112.118
	L256,326.215L199.94,308.966z M256,344.682l56.06,17.249H199.94L256,344.682z M286.009,335.448l75.922-23.36v46.721L286.009,335.448
	z"/>
<g>
	<path style="fill:#FFFFFF;" d="M379.541,405.166c-0.422-4.155-3.725-7.457-7.88-7.88
		C375.816,397.709,379.118,401.012,379.541,405.166z"/>
	<path style="fill:#FFFFFF;" d="M140.339,397.287c-4.154,0.422-7.457,3.724-7.88,7.88
		C132.882,401.012,136.184,397.709,140.339,397.287z"/>
	<path style="fill:#FFFFFF;" d="M132.414,476.69c0,4.57,3.474,8.33,7.925,8.781C135.887,485.02,132.414,481.26,132.414,476.69z"/>
	<path style="fill:#FFFFFF;" d="M371.661,485.471c4.451-0.452,7.925-4.211,7.925-8.781
		C379.586,481.26,376.113,485.02,371.661,485.471z"/>
	<polygon style="fill:#FFFFFF;" points="286.009,441.379 361.931,464.739 361.931,418.019 	"/>
	<polygon style="fill:#FFFFFF;" points="225.991,441.379 150.069,418.019 150.069,464.739 	"/>
	<polygon style="fill:#FFFFFF;" points="256,450.613 199.94,467.862 312.06,467.862 	"/>
	<polygon style="fill:#FFFFFF;" points="199.94,414.897 256,432.146 312.06,414.897 	"/>
</g>
<path style="fill:#AFBBD0;" d="M371.661,397.287c-0.297-0.03-0.598-0.045-0.903-0.045H141.241c-0.305,0-0.606,0.015-0.903,0.045
	c-4.154,0.422-7.457,3.725-7.88,7.88c-0.03,0.297-0.045,0.598-0.045,0.903v70.621c0,4.57,3.474,8.33,7.925,8.781
	c0.297,0.03,0.598,0.046,0.903,0.046h229.517c0.305,0,0.606-0.015,0.903-0.046c4.451-0.452,7.925-4.212,7.925-8.781v-70.621
	c0-0.305-0.015-0.606-0.045-0.903C379.118,401.012,375.816,397.709,371.661,397.287z M225.991,441.379l-75.922,23.36v-46.72
	L225.991,441.379z M199.94,414.897h112.118L256,432.146L199.94,414.897z M256,450.613l56.06,17.249H199.94L256,450.613z
	 M286.009,441.379l75.922-23.36v46.721L286.009,441.379z"/>
<g>
</g>
<g>
</g>
<g>
</g>
<g>
</g>
<g>
</g>
<g>
</g>
<g>
</g>
<g>
</g>
<g>
</g>
<g>
</g>
<g>
</g>
<g>
</g>
<g>
</g>
<g>
</g>
<g>
</g>
</svg>
