<?xml version="1.0" encoding="iso-8859-1"?>
<!-- Generator: Adobe Illustrator 19.0.0, SVG Export Plug-In . SVG Version: 6.00 Build 0)  -->
<svg version="1.1" id="Layer_1" xmlns="http://www.w3.org/2000/svg" xmlns:xlink="http://www.w3.org/1999/xlink" x="0px" y="0px"
	 viewBox="0 0 512 512" style="enable-background:new 0 0 512 512;" xml:space="preserve">
<path style="fill:#DEE3ED;" d="M384,0H128c-9.426,0-17.067,7.642-17.067,17.067v477.867c0,9.425,7.641,17.067,17.067,17.067h256
	c9.426,0,17.067-7.642,17.067-17.067V17.067C401.067,7.642,393.426,0,384,0z M366.933,469.333c0,4.713-3.821,8.533-8.533,8.533
	h-51.2H153.6c-4.713,0-8.533-3.821-8.533-8.533v-68.267c0-4.713,3.821-8.533,8.533-8.533h153.6h51.2
	c4.713,0,8.533,3.821,8.533,8.533V469.333z M366.933,349.867c0,4.713-3.821,8.533-8.533,8.533h-51.2H153.6
	c-4.713,0-8.533-3.821-8.533-8.533V281.6c0-4.713,3.821-8.533,8.533-8.533h153.6h51.2c4.713,0,8.533,3.821,8.533,8.533V349.867z
	 M366.933,230.4c0,4.713-3.821,8.533-8.533,8.533h-51.2H153.6c-4.713,0-8.533-3.821-8.533-8.533v-68.267
	c0-4.713,3.821-8.533,8.533-8.533h153.6h51.2c4.713,0,8.533,3.821,8.533,8.533V230.4z M366.933,110.933
	c0,4.713-3.821,8.533-8.533,8.533h-51.2H153.6c-4.713,0-8.533-3.821-8.533-8.533V42.667c0-4.713,3.821-8.533,8.533-8.533h153.6h51.2
	c4.713,0,8.533,3.821,8.533,8.533V110.933z"/>
<path style="fill:#FFDC69;" d="M298.667,110.933V42.667c0-4.713,3.821-8.533,8.533-8.533H153.6c-4.713,0-8.533,3.821-8.533,8.533
	v68.267c0,4.713,3.821,8.533,8.533,8.533h153.6C302.487,119.467,298.667,115.646,298.667,110.933z M187.733,102.4h-17.067
	c-4.713,0-8.533-3.821-8.533-8.533s3.821-8.533,8.533-8.533h17.067c4.713,0,8.533,3.821,8.533,8.533S192.446,102.4,187.733,102.4z
	 M281.6,93.867c0,4.713-3.821,8.533-8.533,8.533h-51.2c-4.713,0-8.533-3.821-8.533-8.533l0,0c0-4.713,3.821-8.533,8.533-8.533h51.2
	C277.779,85.333,281.6,89.154,281.6,93.867L281.6,93.867z M273.067,68.267h-102.4c-4.713,0-8.533-3.821-8.533-8.533
	s3.821-8.533,8.533-8.533h102.4c4.713,0,8.533,3.821,8.533,8.533S277.779,68.267,273.067,68.267z"/>
<g>
	<path style="fill:#FFFFFF;" d="M358.4,34.133h-51.2c-4.713,0-8.533,3.821-8.533,8.533v68.267c0,4.713,3.821,8.533,8.533,8.533h51.2
		c4.713,0,8.533-3.821,8.533-8.533V42.667C366.933,37.954,363.113,34.133,358.4,34.133z M348.5,80.098l-23.376,23.376
		c-2.939,2.939-7.963,0.858-7.963-3.298V53.424c0-4.156,5.024-6.237,7.963-3.298L348.5,73.502
		C350.322,75.324,350.322,78.276,348.5,80.098z"/>
	<path style="fill:#FFFFFF;" d="M273.067,51.2h-102.4c-4.713,0-8.533,3.821-8.533,8.533s3.821,8.533,8.533,8.533h102.4
		c4.713,0,8.533-3.821,8.533-8.533S277.779,51.2,273.067,51.2z"/>
</g>
<g>
	<path style="fill:#FFAF5A;" d="M187.733,85.333h-17.067c-4.713,0-8.533,3.821-8.533,8.533s3.821,8.533,8.533,8.533h17.067
		c4.713,0,8.533-3.821,8.533-8.533S192.446,85.333,187.733,85.333z"/>
	<path style="fill:#FFAF5A;" d="M273.067,85.333h-51.2c-4.713,0-8.533,3.821-8.533,8.533l0,0c0,4.713,3.821,8.533,8.533,8.533h51.2
		c4.713,0,8.533-3.821,8.533-8.533l0,0C281.6,89.154,277.779,85.333,273.067,85.333z"/>
</g>
<path style="fill:#FFDC69;" d="M325.124,50.126c-2.939-2.939-7.963-0.858-7.963,3.298v46.753c0,4.156,5.024,6.237,7.963,3.298
	L348.5,80.099c1.822-1.822,1.822-4.775,0-6.597L325.124,50.126z"/>
<path style="fill:#A0DCF0;" d="M298.667,469.333v-68.267c0-4.713,3.821-8.533,8.533-8.533H153.6c-4.713,0-8.533,3.821-8.533,8.533
	v68.267c0,4.713,3.821,8.533,8.533,8.533h153.6C302.487,477.867,298.667,474.046,298.667,469.333z M187.733,460.8h-17.067
	c-4.713,0-8.533-3.821-8.533-8.533s3.821-8.533,8.533-8.533h17.067c4.713,0,8.533,3.821,8.533,8.533S192.446,460.8,187.733,460.8z
	 M281.6,452.267c0,4.713-3.821,8.533-8.533,8.533h-51.2c-4.713,0-8.533-3.821-8.533-8.533l0,0c0-4.713,3.821-8.533,8.533-8.533h51.2
	C277.779,443.733,281.6,447.554,281.6,452.267L281.6,452.267z M273.067,426.667h-102.4c-4.713,0-8.533-3.821-8.533-8.533
	s3.821-8.533,8.533-8.533h102.4c4.713,0,8.533,3.821,8.533,8.533S277.779,426.667,273.067,426.667z"/>
<g>
	<path style="fill:#FFFFFF;" d="M358.4,392.533h-51.2c-4.713,0-8.533,3.821-8.533,8.533v68.267c0,4.713,3.821,8.533,8.533,8.533
		h51.2c4.713,0,8.533-3.821,8.533-8.533v-68.267C366.933,396.354,363.113,392.533,358.4,392.533z M348.5,438.498l-23.376,23.376
		c-2.939,2.939-7.963,0.858-7.963-3.298v-46.753c0-4.156,5.024-6.237,7.963-3.298l23.376,23.376
		C350.322,433.724,350.322,436.676,348.5,438.498z"/>
	<path style="fill:#FFFFFF;" d="M273.067,409.6h-102.4c-4.713,0-8.533,3.821-8.533,8.533s3.821,8.533,8.533,8.533h102.4
		c4.713,0,8.533-3.821,8.533-8.533S277.779,409.6,273.067,409.6z"/>
</g>
<g>
	<path style="fill:#78B9C8;" d="M187.733,443.733h-17.067c-4.713,0-8.533,3.821-8.533,8.533s3.821,8.533,8.533,8.533h17.067
		c4.713,0,8.533-3.821,8.533-8.533S192.446,443.733,187.733,443.733z"/>
	<path style="fill:#78B9C8;" d="M273.067,443.733h-51.2c-4.713,0-8.533,3.821-8.533,8.533l0,0c0,4.713,3.821,8.533,8.533,8.533h51.2
		c4.713,0,8.533-3.821,8.533-8.533l0,0C281.6,447.554,277.779,443.733,273.067,443.733z"/>
</g>
<path style="fill:#A0DCF0;" d="M325.124,408.526c-2.939-2.939-7.963-0.858-7.963,3.298v46.753c0,4.156,5.024,6.237,7.963,3.298
	l23.376-23.376c1.822-1.822,1.822-4.775,0-6.597L325.124,408.526z"/>
<path style="fill:#FF6469;" d="M298.667,230.4v-68.267c0-4.713,3.821-8.533,8.533-8.533H153.6c-4.713,0-8.533,3.821-8.533,8.533
	V230.4c0,4.713,3.821,8.533,8.533,8.533h153.6C302.487,238.933,298.667,235.113,298.667,230.4z M187.733,221.867h-17.067
	c-4.713,0-8.533-3.821-8.533-8.533c0-4.713,3.821-8.533,8.533-8.533h17.067c4.713,0,8.533,3.821,8.533,8.533
	C196.267,218.046,192.446,221.867,187.733,221.867z M281.6,213.333c0,4.713-3.821,8.533-8.533,8.533h-51.2
	c-4.713,0-8.533-3.821-8.533-8.533l0,0c0-4.713,3.821-8.533,8.533-8.533h51.2C277.779,204.8,281.6,208.621,281.6,213.333
	L281.6,213.333z M273.067,187.733h-102.4c-4.713,0-8.533-3.821-8.533-8.533c0-4.713,3.821-8.533,8.533-8.533h102.4
	c4.713,0,8.533,3.821,8.533,8.533C281.6,183.913,277.779,187.733,273.067,187.733z"/>
<g>
	<path style="fill:#FFFFFF;" d="M358.4,153.6h-51.2c-4.713,0-8.533,3.821-8.533,8.533V230.4c0,4.713,3.821,8.533,8.533,8.533h51.2
		c4.713,0,8.533-3.821,8.533-8.533v-68.267C366.933,157.421,363.113,153.6,358.4,153.6z M348.5,199.565l-23.376,23.376
		c-2.939,2.939-7.963,0.858-7.963-3.298V172.89c0-4.156,5.024-6.237,7.963-3.298l23.376,23.376
		C350.322,194.79,350.322,197.743,348.5,199.565z"/>
	<path style="fill:#FFFFFF;" d="M273.067,170.667h-102.4c-4.713,0-8.533,3.821-8.533,8.533c0,4.713,3.821,8.533,8.533,8.533h102.4
		c4.713,0,8.533-3.821,8.533-8.533C281.6,174.487,277.779,170.667,273.067,170.667z"/>
</g>
<g>
	<path style="fill:#BE4650;" d="M187.733,204.8h-17.067c-4.713,0-8.533,3.821-8.533,8.533c0,4.713,3.821,8.533,8.533,8.533h17.067
		c4.713,0,8.533-3.821,8.533-8.533C196.267,208.621,192.446,204.8,187.733,204.8z"/>
	<path style="fill:#BE4650;" d="M273.067,204.8h-51.2c-4.713,0-8.533,3.821-8.533,8.533l0,0c0,4.713,3.821,8.533,8.533,8.533h51.2
		c4.713,0,8.533-3.821,8.533-8.533l0,0C281.6,208.621,277.779,204.8,273.067,204.8z"/>
</g>
<path style="fill:#FF6469;" d="M325.124,169.593c-2.939-2.939-7.963-0.858-7.963,3.298v46.753c0,4.156,5.024,6.237,7.963,3.298
	l23.376-23.376c1.822-1.822,1.822-4.775,0-6.597L325.124,169.593z"/>
<path style="fill:#B4E173;" d="M298.667,349.867V281.6c0-4.713,3.821-8.533,8.533-8.533H153.6c-4.713,0-8.533,3.821-8.533,8.533
	v68.267c0,4.713,3.821,8.533,8.533,8.533h153.6C302.487,358.4,298.667,354.579,298.667,349.867z M187.733,341.333h-17.067
	c-4.713,0-8.533-3.821-8.533-8.533s3.821-8.533,8.533-8.533h17.067c4.713,0,8.533,3.821,8.533,8.533
	S192.446,341.333,187.733,341.333z M281.6,332.8c0,4.713-3.821,8.533-8.533,8.533h-51.2c-4.713,0-8.533-3.821-8.533-8.533l0,0
	c0-4.713,3.821-8.533,8.533-8.533h51.2C277.779,324.267,281.6,328.087,281.6,332.8L281.6,332.8z M273.067,307.2h-102.4
	c-4.713,0-8.533-3.821-8.533-8.533s3.821-8.533,8.533-8.533h102.4c4.713,0,8.533,3.821,8.533,8.533S277.779,307.2,273.067,307.2z"/>
<g>
	<path style="fill:#FFFFFF;" d="M358.4,273.067h-51.2c-4.713,0-8.533,3.821-8.533,8.533v68.267c0,4.713,3.821,8.533,8.533,8.533
		h51.2c4.713,0,8.533-3.821,8.533-8.533V281.6C366.933,276.887,363.113,273.067,358.4,273.067z M348.5,319.031l-23.376,23.376
		c-2.939,2.939-7.963,0.858-7.963-3.298v-46.753c0-4.156,5.024-6.237,7.963-3.298l23.376,23.376
		C350.322,314.257,350.322,317.21,348.5,319.031z"/>
	<path style="fill:#FFFFFF;" d="M273.067,290.133h-102.4c-4.713,0-8.533,3.821-8.533,8.533s3.821,8.533,8.533,8.533h102.4
		c4.713,0,8.533-3.821,8.533-8.533S277.779,290.133,273.067,290.133z"/>
</g>
<g>
	<path style="fill:#96B95A;" d="M187.733,324.267h-17.067c-4.713,0-8.533,3.821-8.533,8.533s3.821,8.533,8.533,8.533h17.067
		c4.713,0,8.533-3.821,8.533-8.533S192.446,324.267,187.733,324.267z"/>
	<path style="fill:#96B95A;" d="M273.067,324.267h-51.2c-4.713,0-8.533,3.821-8.533,8.533l0,0c0,4.713,3.821,8.533,8.533,8.533h51.2
		c4.713,0,8.533-3.821,8.533-8.533l0,0C281.6,328.087,277.779,324.267,273.067,324.267z"/>
</g>
<path style="fill:#B4E173;" d="M325.124,289.059c-2.939-2.939-7.963-0.858-7.963,3.298v46.753c0,4.156,5.024,6.237,7.963,3.298
	l23.376-23.376c1.822-1.822,1.822-4.775,0-6.597L325.124,289.059z"/>
<g>
</g>
<g>
</g>
<g>
</g>
<g>
</g>
<g>
</g>
<g>
</g>
<g>
</g>
<g>
</g>
<g>
</g>
<g>
</g>
<g>
</g>
<g>
</g>
<g>
</g>
<g>
</g>
<g>
</g>
</svg>
