<?xml version="1.0" encoding="iso-8859-1"?>
<!-- Generator: Adobe Illustrator 19.0.0, SVG Export Plug-In . SVG Version: 6.00 Build 0)  -->
<svg version="1.1" id="Layer_1" xmlns="http://www.w3.org/2000/svg" xmlns:xlink="http://www.w3.org/1999/xlink" x="0px" y="0px"
	 viewBox="0 0 512 512" style="enable-background:new 0 0 512 512;" xml:space="preserve">
<path style="fill:#FFDC69;" d="M476.69,52.191H35.31C15.809,52.191,0,68,0,87.501v238.345c0,19.501,15.809,35.31,35.31,35.31
	h353.103l93.447,93.447c11.123,11.122,30.14,3.245,30.14-12.484V87.501C512,68,496.191,52.191,476.69,52.191z M189.793,113.983
	h123.586c7.313,0,13.241,5.929,13.241,13.241s-5.929,13.241-13.241,13.241H189.793c-7.313,0-13.241-5.929-13.241-13.241
	S182.481,113.983,189.793,113.983z M66.207,113.984h70.621c7.313,0,13.241,5.929,13.241,13.241c0,7.313-5.929,13.241-13.241,13.241
	H66.207c-7.313,0-13.241-5.929-13.241-13.241C52.966,119.913,58.894,113.984,66.207,113.984z M66.207,166.949h176.552
	c7.313,0,13.241,5.929,13.241,13.241c0,7.313-5.929,13.241-13.241,13.241H66.207c-7.313,0-13.241-5.929-13.241-13.241
	C52.966,172.878,58.894,166.949,66.207,166.949z M339.862,219.914c7.313,0,13.241,5.929,13.241,13.241l0,0
	c0,7.313-5.929,13.241-13.241,13.241H233.931c-7.313,0-13.241-5.929-13.241-13.241l0,0c0-7.313,5.929-13.241,13.241-13.241H339.862z
	 M52.966,233.155c0-7.313,5.929-13.241,13.241-13.241h114.759c7.313,0,13.241,5.929,13.241,13.241l0,0
	c0,7.313-5.929,13.241-13.241,13.241H66.207C58.894,246.397,52.966,240.469,52.966,233.155L52.966,233.155z M308.966,286.121
	c0,7.313-5.929,13.241-13.241,13.241H66.207c-7.313,0-13.241-5.929-13.241-13.241l0,0c0-7.313,5.929-13.241,13.241-13.241h229.517
	C303.037,272.879,308.966,278.808,308.966,286.121L308.966,286.121z M467.862,286.121c0,7.313-5.929,13.241-13.241,13.241H348.69
	c-7.313,0-13.241-5.929-13.241-13.241l0,0c0-7.313,5.929-13.241,13.241-13.241h105.931
	C461.933,272.879,467.862,278.808,467.862,286.121L467.862,286.121z M467.862,233.155c0,7.313-5.929,13.241-13.241,13.241h-61.793
	c-7.313,0-13.241-5.929-13.241-13.241l0,0c0-7.313,5.929-13.241,13.241-13.241h61.793
	C461.933,219.914,467.862,225.843,467.862,233.155L467.862,233.155z M454.621,193.431H295.724c-7.313,0-13.241-5.929-13.241-13.241
	c0-7.313,5.929-13.241,13.241-13.241h158.897c7.313,0,13.241,5.929,13.241,13.241C467.862,187.502,461.933,193.431,454.621,193.431z
	 M467.862,127.224c0,7.313-5.929,13.241-13.241,13.241h-97.103c-7.313,0-13.241-5.929-13.241-13.241l0,0
	c0-7.313,5.929-13.241,13.241-13.241h97.103C461.933,113.983,467.862,119.912,467.862,127.224L467.862,127.224z"/>
<g>
	<path style="fill:#FFB45A;" d="M66.207,140.467h70.621c7.313,0,13.241-5.929,13.241-13.241c0-7.313-5.929-13.241-13.241-13.241
		H66.207c-7.313,0-13.241,5.929-13.241,13.241C52.966,134.538,58.894,140.467,66.207,140.467z"/>
	<path style="fill:#FFB45A;" d="M454.621,113.983h-97.103c-7.313,0-13.241,5.929-13.241,13.241l0,0
		c0,7.313,5.929,13.241,13.241,13.241h97.103c7.313,0,13.241-5.929,13.241-13.241l0,0
		C467.862,119.912,461.933,113.983,454.621,113.983z"/>
	<path style="fill:#FFB45A;" d="M66.207,193.432h176.552c7.313,0,13.241-5.929,13.241-13.241c0-7.313-5.929-13.241-13.241-13.241
		H66.207c-7.313,0-13.241,5.929-13.241,13.241C52.966,187.503,58.894,193.432,66.207,193.432z"/>
	<path style="fill:#FFB45A;" d="M220.69,233.155L220.69,233.155c0,7.313,5.929,13.241,13.241,13.241h105.931
		c7.313,0,13.241-5.929,13.241-13.241l0,0c0-7.313-5.929-13.241-13.241-13.241H233.931
		C226.618,219.914,220.69,225.843,220.69,233.155z"/>
</g>
<g>
	<path style="fill:#FFA050;" d="M454.621,219.914h-61.793c-7.313,0-13.241,5.929-13.241,13.241l0,0
		c0,7.313,5.929,13.241,13.241,13.241h61.793c7.313,0,13.241-5.929,13.241-13.241l0,0
		C467.862,225.843,461.933,219.914,454.621,219.914z"/>
	<path style="fill:#FFA050;" d="M454.621,272.879H348.69c-7.313,0-13.241,5.929-13.241,13.241l0,0
		c0,7.313,5.929,13.241,13.241,13.241h105.931c7.313,0,13.241-5.929,13.241-13.241l0,0
		C467.862,278.808,461.933,272.879,454.621,272.879z"/>
	<path style="fill:#FFA050;" d="M66.207,246.397h114.759c7.313,0,13.241-5.929,13.241-13.241l0,0
		c0-7.313-5.929-13.241-13.241-13.241H66.207c-7.313,0-13.241,5.929-13.241,13.241l0,0
		C52.966,240.469,58.894,246.397,66.207,246.397z"/>
	<path style="fill:#FFA050;" d="M454.621,166.948H295.724c-7.313,0-13.241,5.929-13.241,13.241c0,7.313,5.929,13.241,13.241,13.241
		h158.897c7.313,0,13.241-5.929,13.241-13.241C467.862,172.877,461.933,166.948,454.621,166.948z"/>
	<path style="fill:#FFA050;" d="M189.793,140.466h123.586c7.313,0,13.241-5.929,13.241-13.241s-5.929-13.241-13.241-13.241H189.793
		c-7.313,0-13.241,5.929-13.241,13.241S182.481,140.466,189.793,140.466z"/>
</g>
<path style="fill:#FFB45A;" d="M295.724,272.879H66.207c-7.313,0-13.241,5.929-13.241,13.241l0,0
	c0,7.313,5.929,13.241,13.241,13.241h229.517c7.313,0,13.241-5.929,13.241-13.241l0,0
	C308.966,278.808,303.037,272.879,295.724,272.879z"/>
<g>
</g>
<g>
</g>
<g>
</g>
<g>
</g>
<g>
</g>
<g>
</g>
<g>
</g>
<g>
</g>
<g>
</g>
<g>
</g>
<g>
</g>
<g>
</g>
<g>
</g>
<g>
</g>
<g>
</g>
</svg>
