<?xml version="1.0" encoding="iso-8859-1"?>
<!-- Generator: Adobe Illustrator 19.0.0, SVG Export Plug-In . SVG Version: 6.00 Build 0)  -->
<svg version="1.1" id="Layer_1" xmlns="http://www.w3.org/2000/svg" xmlns:xlink="http://www.w3.org/1999/xlink" x="0px" y="0px"
	 viewBox="0 0 512 512" style="enable-background:new 0 0 512 512;" xml:space="preserve">
<g>
	<path style="fill:#707384;" d="M485.517,79.448H26.483C11.857,79.448,0,91.305,0,105.931v300.138
		c0,14.626,11.857,26.483,26.483,26.483h459.034c14.626,0,26.483-11.857,26.483-26.483V105.931
		C512,91.305,500.143,79.448,485.517,79.448z M79.448,388.414c0,4.875-3.953,8.828-8.828,8.828H35.31
		c-4.875,0-8.828-3.953-8.828-8.828v-8.828c0-4.875,3.953-8.828,8.828-8.828h35.31c4.875,0,8.828,3.953,8.828,8.828V388.414z
		 M79.448,353.103c0,4.875-3.953,8.828-8.828,8.828H35.31c-4.875,0-8.828-3.953-8.828-8.828v-8.828c0-4.875,3.953-8.828,8.828-8.828
		h35.31c4.875,0,8.828,3.953,8.828,8.828V353.103z M79.448,317.793c0,4.875-3.953,8.828-8.828,8.828H35.31
		c-4.875,0-8.828-3.953-8.828-8.828v-8.828c0-4.875,3.953-8.828,8.828-8.828h35.31c4.875,0,8.828,3.953,8.828,8.828V317.793z
		 M52.966,282.483c-14.626,0-26.483-11.857-26.483-26.483s11.857-26.483,26.483-26.483S79.448,241.374,79.448,256
		S67.592,282.483,52.966,282.483z M79.448,203.034c0,4.875-3.953,8.828-8.828,8.828H35.31c-4.875,0-8.828-3.953-8.828-8.828v-8.828
		c0-4.875,3.953-8.828,8.828-8.828h35.31c4.875,0,8.828,3.953,8.828,8.828V203.034z M79.448,167.724
		c0,4.875-3.953,8.828-8.828,8.828H35.31c-4.875,0-8.828-3.953-8.828-8.828v-8.828c0-4.875,3.953-8.828,8.828-8.828h35.31
		c4.875,0,8.828,3.953,8.828,8.828V167.724z M79.448,132.414c0,4.875-3.953,8.828-8.828,8.828H35.31
		c-4.875,0-8.828-3.953-8.828-8.828v-8.828c0-4.875,3.953-8.828,8.828-8.828h35.31c4.875,0,8.828,3.953,8.828,8.828V132.414z
		 M476.69,388.414c0,4.875-3.953,8.828-8.828,8.828H114.759c-4.875,0-8.828-3.953-8.828-8.828V123.586
		c0-4.875,3.953-8.828,8.828-8.828h353.103c4.875,0,8.828,3.953,8.828,8.828V388.414z"/>
	<circle style="fill:#707384;" cx="52.966" cy="256" r="8.828"/>
</g>
<path style="fill:#464655;" d="M467.862,114.759H114.759c-4.875,0-8.828,3.953-8.828,8.828v264.828c0,4.875,3.953,8.828,8.828,8.828
	h353.103c4.875,0,8.828-3.953,8.828-8.828V123.586C476.69,118.711,472.737,114.759,467.862,114.759z M150.073,379.586h-17.66
	c-4.875,0-8.828-3.948-8.828-8.828v-17.655c0-4.879,3.953-8.828,8.828-8.828c4.875,0,8.828,3.948,8.828,8.828v8.828h8.832
	c4.875,0,8.828,3.948,8.828,8.828C158.901,375.638,154.948,379.586,150.073,379.586z M150.073,150.069h-8.823v8.828
	c0,4.879-3.953,8.828-8.828,8.828c-4.875,0-8.828-3.948-8.828-8.828v-17.655c0-4.879,3.953-8.828,8.828-8.828h17.651
	c4.875,0,8.828,3.948,8.828,8.828S154.948,150.069,150.073,150.069z M459.034,370.759c0,4.879-3.953,8.828-8.828,8.828h-17.651
	c-4.875,0-8.828-3.948-8.828-8.828c0-4.879,3.953-8.828,8.828-8.828h8.823v-8.828c0-4.879,3.953-8.828,8.828-8.828
	c4.875,0,8.828,3.948,8.828,8.828V370.759z M459.034,158.897c0,4.879-3.953,8.828-8.828,8.828c-4.875,0-8.828-3.948-8.828-8.828
	v-8.828h-8.832c-4.875,0-8.828-3.948-8.828-8.828s3.953-8.828,8.828-8.828h17.66c4.875,0,8.828,3.948,8.828,8.828V158.897z"/>
<g>
	<path style="fill:#707384;" d="M150.073,361.931h-8.832v-8.828c0-4.879-3.953-8.828-8.828-8.828c-4.875,0-8.828,3.948-8.828,8.828
		v17.655c0,4.879,3.953,8.828,8.828,8.828h17.66c4.875,0,8.828-3.948,8.828-8.828C158.901,365.879,154.948,361.931,150.073,361.931z
		"/>
	<path style="fill:#707384;" d="M450.207,344.276c-4.875,0-8.828,3.948-8.828,8.828v8.828h-8.823c-4.875,0-8.828,3.948-8.828,8.828
		c0,4.879,3.953,8.828,8.828,8.828h17.651c4.875,0,8.828-3.948,8.828-8.828v-17.655
		C459.034,348.224,455.082,344.276,450.207,344.276z"/>
	<path style="fill:#707384;" d="M450.207,132.414h-17.66c-4.875,0-8.828,3.948-8.828,8.828s3.953,8.828,8.828,8.828h8.832v8.828
		c0,4.879,3.953,8.828,8.828,8.828c4.875,0,8.828-3.948,8.828-8.828v-17.655C459.034,136.362,455.082,132.414,450.207,132.414z"/>
	<path style="fill:#707384;" d="M150.073,132.414h-17.651c-4.875,0-8.828,3.948-8.828,8.828v17.655c0,4.879,3.953,8.828,8.828,8.828
		c4.875,0,8.828-3.948,8.828-8.828v-8.828h8.823c4.875,0,8.828-3.948,8.828-8.828S154.948,132.414,150.073,132.414z"/>
</g>
<g>
	<path style="fill:#535463;" d="M52.966,229.517c-14.626,0-26.483,11.857-26.483,26.483s11.857,26.483,26.483,26.483
		S79.448,270.626,79.448,256S67.592,229.517,52.966,229.517z M52.966,264.828c-4.875,0-8.828-3.953-8.828-8.828
		s3.953-8.828,8.828-8.828s8.828,3.953,8.828,8.828S57.841,264.828,52.966,264.828z"/>
	<path style="fill:#535463;" d="M70.621,185.379H35.31c-4.875,0-8.828,3.953-8.828,8.828v8.828c0,4.875,3.953,8.828,8.828,8.828
		h35.31c4.875,0,8.828-3.953,8.828-8.828v-8.828C79.448,189.332,75.496,185.379,70.621,185.379z"/>
	<path style="fill:#535463;" d="M70.621,150.069H35.31c-4.875,0-8.828,3.953-8.828,8.828v8.828c0,4.875,3.953,8.828,8.828,8.828
		h35.31c4.875,0,8.828-3.953,8.828-8.828v-8.828C79.448,154.022,75.496,150.069,70.621,150.069z"/>
	<path style="fill:#535463;" d="M70.621,114.759H35.31c-4.875,0-8.828,3.953-8.828,8.828v8.828c0,4.875,3.953,8.828,8.828,8.828
		h35.31c4.875,0,8.828-3.953,8.828-8.828v-8.828C79.448,118.711,75.496,114.759,70.621,114.759z"/>
	<path style="fill:#535463;" d="M70.621,370.759H35.31c-4.875,0-8.828,3.953-8.828,8.828v8.828c0,4.875,3.953,8.828,8.828,8.828
		h35.31c4.875,0,8.828-3.953,8.828-8.828v-8.828C79.448,374.711,75.496,370.759,70.621,370.759z"/>
	<path style="fill:#535463;" d="M70.621,335.448H35.31c-4.875,0-8.828,3.953-8.828,8.828v8.828c0,4.875,3.953,8.828,8.828,8.828
		h35.31c4.875,0,8.828-3.953,8.828-8.828v-8.828C79.448,339.401,75.496,335.448,70.621,335.448z"/>
	<path style="fill:#535463;" d="M70.621,300.138H35.31c-4.875,0-8.828,3.953-8.828,8.828v8.828c0,4.875,3.953,8.828,8.828,8.828
		h35.31c4.875,0,8.828-3.953,8.828-8.828v-8.828C79.448,304.09,75.496,300.138,70.621,300.138z"/>
</g>
<g>
</g>
<g>
</g>
<g>
</g>
<g>
</g>
<g>
</g>
<g>
</g>
<g>
</g>
<g>
</g>
<g>
</g>
<g>
</g>
<g>
</g>
<g>
</g>
<g>
</g>
<g>
</g>
<g>
</g>
</svg>
