<?xml version="1.0" encoding="iso-8859-1"?>
<!-- Generator: Adobe Illustrator 19.0.0, SVG Export Plug-In . SVG Version: 6.00 Build 0)  -->
<svg version="1.1" id="Layer_1" xmlns="http://www.w3.org/2000/svg" xmlns:xlink="http://www.w3.org/1999/xlink" x="0px" y="0px"
	 viewBox="0 0 512 512" style="enable-background:new 0 0 512 512;" xml:space="preserve">
<path style="fill:#B4E173;" d="M359.974,111.148l-91.32-105.37C265.315,1.927,260.657,0,255.999,0v70.625
	c14.626,0,26.482,11.856,26.482,26.482s-11.856,26.482-26.482,26.482v35.31h79.447c4.875,0,8.827,3.952,8.827,8.827v300.135
	c0,4.875-3.952,8.827-8.827,8.827h-79.447V512h97.102c9.75,0,17.655-7.905,17.655-17.655V140.056
	C370.757,129.435,366.929,119.172,359.974,111.148z"/>
<g>
	<path style="fill:#AAD764;" d="M185.38,476.69c-4.57,0-8.33-3.474-8.782-7.925c-0.03-0.297-0.045-0.598-0.045-0.903V167.728
		c0-0.305,0.015-0.606,0.045-0.903c0.452-4.451,4.211-7.925,8.782-7.925h70.62v-35.31c-14.626,0-26.482-11.856-26.482-26.482
		s11.856-26.482,26.482-26.482V0l0,0c-4.658,0-9.315,1.925-12.653,5.778l-91.32,105.37c-6.955,8.023-10.783,18.286-10.783,28.907
		v354.289c0,9.75,7.905,17.655,17.655,17.655h97.102v-35.31H185.38V476.69z"/>
	<path style="fill:#AAD764;" d="M335.447,476.69c4.875,0,8.827-3.953,8.827-8.827V167.728c0-4.875-3.952-8.827-8.827-8.827h-79.447
		v317.79H335.447z"/>
</g>
<path style="fill:#95C364;" d="M176.598,166.825c-0.03,0.297-0.045,0.598-0.045,0.903v300.135c0,0.305,0.015,0.606,0.045,0.903
	c0.452,4.451,4.211,7.925,8.782,7.925h70.62V158.9h-70.62C180.809,158.9,177.05,162.374,176.598,166.825z"/>
<g>
</g>
<g>
</g>
<g>
</g>
<g>
</g>
<g>
</g>
<g>
</g>
<g>
</g>
<g>
</g>
<g>
</g>
<g>
</g>
<g>
</g>
<g>
</g>
<g>
</g>
<g>
</g>
<g>
</g>
</svg>
