<?xml version="1.0" encoding="iso-8859-1"?>
<!-- Generator: Adobe Illustrator 19.0.0, SVG Export Plug-In . SVG Version: 6.00 Build 0)  -->
<svg version="1.1" id="Layer_1" xmlns="http://www.w3.org/2000/svg" xmlns:xlink="http://www.w3.org/1999/xlink" x="0px" y="0px"
	 viewBox="0 0 512 512" style="enable-background:new 0 0 512 512;" xml:space="preserve">
<path style="fill:#BEC8DC;" d="M282.483,136.828c0-36.509-29.698-66.207-66.207-66.207s-66.207,29.698-66.207,66.207
	c0,25.354,14.33,47.412,35.31,58.531v-21.107c-10.776-8.913-17.655-22.38-17.655-37.425c0-26.772,21.78-48.552,48.552-48.552
	s48.552,21.78,48.552,48.552c0,15.044-6.879,28.512-17.655,37.425v21.107C268.152,184.239,282.483,162.182,282.483,136.828z"/>
<path style="fill:#D2DCF0;" d="M317.793,136.828c0-55.978-45.539-101.517-101.517-101.517S114.759,80.85,114.759,136.828
	c0,45.209,29.705,83.603,70.621,96.705v-18.765c-30.99-12.33-52.966-42.606-52.966-77.939c0-46.241,37.621-83.862,83.862-83.862
	s83.862,37.621,83.862,83.862c0,35.332-21.975,65.609-52.966,77.939v18.766C288.088,220.43,317.793,182.037,317.793,136.828z"/>
<path style="fill:#E4EAF6;" d="M97.103,136.828c0-65.711,53.461-119.172,119.172-119.172s119.172,53.461,119.172,119.172
	c0,55.029-37.495,101.458-88.276,115.103v18.207c0.371-0.086,0.737-0.182,1.106-0.27c0.002-0.007,0.004-0.013,0.006-0.021
	c0.062-0.222,0.128-0.441,0.194-0.662c0.078-0.26,0.154-0.521,0.239-0.778c0.052-0.158,0.11-0.313,0.164-0.47
	c4.366-12.577,16.621-21.464,30.847-20.719c4.457,0.234,8.611,1.48,12.314,3.488c36.782-24.554,61.06-66.431,61.06-113.877
	C353.103,61.379,291.724,0,216.276,0S79.448,61.379,79.448,136.828c0,64.826,45.314,119.266,105.931,133.31V251.93
	C134.599,238.285,97.103,191.857,97.103,136.828z"/>
<g>
	<path style="fill:#F5DCAA;" d="M185.455,134.764c-0.011,0.17-0.026,0.339-0.035,0.51
		C185.428,135.103,185.444,134.934,185.455,134.764z"/>
	<path style="fill:#F5DCAA;" d="M248.285,269.846c-0.002,0.007-0.004,0.013-0.006,0.021c-0.064,0.232-0.121,0.465-0.18,0.698
		C248.159,270.325,248.218,270.084,248.285,269.846z"/>
	<path style="fill:#F5DCAA;" d="M185.831,131.583c-0.038,0.218-0.074,0.437-0.107,0.657
		C185.757,132.02,185.793,131.801,185.831,131.583z"/>
	<path style="fill:#F5DCAA;" d="M185.607,133.131c-0.024,0.204-0.051,0.408-0.072,0.614
		C185.556,133.539,185.582,133.335,185.607,133.131z"/>
	<path style="fill:#F5DCAA;" d="M186.925,127.165c-0.085,0.257-0.161,0.516-0.238,0.776
		C186.764,127.681,186.84,127.422,186.925,127.165z"/>
	<path style="fill:#F5DCAA;" d="M186.125,130.078c-0.051,0.227-0.098,0.455-0.143,0.683
		C186.027,130.532,186.074,130.305,186.125,130.078z"/>
	<path style="fill:#F5DCAA;" d="M186.492,128.605c-0.065,0.237-0.126,0.477-0.185,0.717
		C186.366,129.082,186.425,128.842,186.492,128.605z"/>
	<path style="fill:#F5DCAA;" d="M247.249,276.003c-0.011,0.171-0.028,0.341-0.035,0.513
		C247.221,276.344,247.238,276.174,247.249,276.003z"/>
	<path style="fill:#F5DCAA;" d="M403.316,264.872c-14.226-0.746-26.481,8.142-30.847,20.719
		c3.733-10.728,13.221-18.751,24.772-20.407v48.195c0,7.313-5.929,13.241-13.241,13.241s-13.241-5.929-13.241-13.241v-17.655v-7.078
		c0-16.73-12.527-31.727-29.235-32.602c-14.226-0.745-26.481,8.142-30.847,20.719c3.733-10.728,13.221-18.751,24.772-20.407v48.195
		c0,7.313-5.929,13.241-13.241,13.241s-13.241-5.929-13.241-13.241v-17.655v-7.078c0-12.268-6.74-23.595-16.92-29.116
		c-3.703-2.008-7.858-3.254-12.315-3.488c-14.226-0.745-26.481,8.142-30.847,20.719c3.733-10.728,13.222-18.751,24.772-20.407
		v48.196c0,7.313-5.929,13.241-13.241,13.241c-7.313,0-13.241-5.929-13.241-13.241v-17.655v-7.932V251.93v-18.398v-18.766v-19.407
		v-21.107v-35.674c0-16.73-12.527-31.727-29.236-32.602c-14.226-0.745-26.479,8.141-30.847,20.717
		c3.734-10.726,13.222-18.749,24.771-20.404v251.229c0,7.313-5.929,13.241-13.241,13.241c-7.313,0-13.241-5.929-13.241-13.241
		v-22.069l-10.371,10.371c-4.501,4.501-6.23,11.076-4.527,17.209l34.293,123.455c4.189,15.08,17.919,25.516,33.57,25.516h150.069
		c24.376,0,44.138-19.762,44.138-44.138V297.474C432.552,280.744,420.024,265.747,403.316,264.872z"/>
	<path style="fill:#F5DCAA;" d="M247.4,274.37c-0.024,0.205-0.051,0.409-0.072,0.617C247.349,274.781,247.375,274.575,247.4,274.37z
		"/>
	<path style="fill:#F5DCAA;" d="M247.624,272.823c-0.038,0.22-0.074,0.438-0.107,0.659
		C247.55,273.261,247.586,273.042,247.624,272.823z"/>
	<path style="fill:#F5DCAA;" d="M247.919,271.319c-0.051,0.227-0.098,0.456-0.145,0.685
		C247.82,271.775,247.868,271.546,247.919,271.319z"/>
	<path style="fill:#F5DCAA;" d="M309.891,279.393c0.061-0.241,0.12-0.481,0.186-0.719
		C310.012,278.912,309.952,279.153,309.891,279.393z"/>
	<path style="fill:#F5DCAA;" d="M309.568,280.832c0.045-0.23,0.094-0.458,0.145-0.685
		C309.662,280.374,309.613,280.602,309.568,280.832z"/>
	<path style="fill:#F5DCAA;" d="M309.006,285.344c0.009-0.172,0.024-0.342,0.035-0.513
		C309.031,285.002,309.014,285.172,309.006,285.344z"/>
	<path style="fill:#F5DCAA;" d="M372.065,286.839c0.078-0.26,0.155-0.521,0.239-0.778
		C372.22,286.318,372.143,286.579,372.065,286.839z"/>
	<path style="fill:#F5DCAA;" d="M309.31,282.31c0.033-0.221,0.069-0.44,0.107-0.659C309.379,281.87,309.343,282.089,309.31,282.31z"
		/>
	<path style="fill:#F5DCAA;" d="M309.121,283.815c0.021-0.206,0.047-0.412,0.072-0.617
		C309.169,283.403,309.142,283.608,309.121,283.815z"/>
	<path style="fill:#F5DCAA;" d="M370.799,294.172c0.009-0.172,0.024-0.342,0.035-0.513
		C370.824,293.829,370.807,293.999,370.799,294.172z"/>
	<path style="fill:#F5DCAA;" d="M310.272,278.012c0.078-0.26,0.154-0.521,0.239-0.778
		C310.426,277.491,310.35,277.751,310.272,278.012z"/>
	<path style="fill:#F5DCAA;" d="M370.914,292.642c0.021-0.206,0.047-0.412,0.072-0.617
		C370.962,292.231,370.935,292.436,370.914,292.642z"/>
	<path style="fill:#F5DCAA;" d="M371.103,291.137c0.033-0.221,0.07-0.44,0.107-0.659
		C371.172,290.698,371.136,290.916,371.103,291.137z"/>
	<path style="fill:#F5DCAA;" d="M371.361,289.66c0.045-0.23,0.094-0.458,0.145-0.685C371.455,289.202,371.406,289.43,371.361,289.66
		z"/>
	<path style="fill:#F5DCAA;" d="M371.684,288.221c0.061-0.241,0.12-0.481,0.186-0.719
		C371.805,287.74,371.745,287.98,371.684,288.221z"/>
	<path style="fill:#F5DCAA;" d="M248.479,269.184c0.078-0.26,0.154-0.521,0.239-0.778
		C248.633,268.663,248.557,268.924,248.479,269.184z"/>
</g>
<g>
	<path style="fill:#EBC89B;" d="M248.479,269.184c-0.066,0.22-0.132,0.44-0.194,0.662c-0.066,0.238-0.126,0.479-0.186,0.719
		c-0.063,0.25-0.124,0.501-0.18,0.754c-0.051,0.227-0.098,0.456-0.145,0.685c-0.054,0.271-0.104,0.545-0.151,0.819
		c-0.038,0.218-0.074,0.438-0.107,0.659c-0.044,0.295-0.081,0.591-0.117,0.888c-0.024,0.205-0.051,0.409-0.072,0.617
		c-0.033,0.337-0.057,0.676-0.079,1.016c-0.011,0.171-0.026,0.341-0.035,0.513c-0.024,0.514-0.04,1.032-0.04,1.553v17.655
		c0,7.313,5.929,13.241,13.241,13.241c7.313,0,13.241-5.929,13.241-13.241v-48.195c-11.55,1.656-21.039,9.679-24.772,20.407
		c-0.055,0.157-0.113,0.312-0.164,0.47C248.633,268.663,248.557,268.924,248.479,269.184z"/>
	<path style="fill:#EBC89B;" d="M322.207,317.793c7.313,0,13.241-5.929,13.241-13.241v-48.195
		c-11.55,1.656-21.039,9.679-24.772,20.407c-0.055,0.157-0.113,0.312-0.164,0.47c-0.085,0.257-0.161,0.518-0.239,0.778
		c-0.066,0.22-0.132,0.44-0.194,0.662c-0.066,0.238-0.126,0.479-0.186,0.719c-0.063,0.25-0.124,0.501-0.18,0.754
		c-0.051,0.227-0.098,0.456-0.145,0.685c-0.054,0.271-0.104,0.545-0.151,0.819c-0.038,0.218-0.074,0.438-0.107,0.659
		c-0.044,0.295-0.081,0.591-0.117,0.888c-0.024,0.205-0.051,0.409-0.072,0.617c-0.033,0.337-0.057,0.676-0.079,1.016
		c-0.011,0.171-0.026,0.341-0.035,0.513c-0.024,0.514-0.04,1.032-0.04,1.553v17.655
		C308.966,311.864,314.894,317.793,322.207,317.793z"/>
	<path style="fill:#EBC89B;" d="M384,326.621c7.313,0,13.241-5.929,13.241-13.241v-48.195c-11.55,1.656-21.039,9.679-24.772,20.407
		c-0.055,0.157-0.113,0.312-0.164,0.47c-0.085,0.257-0.161,0.518-0.239,0.778c-0.066,0.22-0.132,0.44-0.194,0.662
		c-0.066,0.238-0.126,0.479-0.186,0.719c-0.063,0.25-0.124,0.501-0.18,0.754c-0.051,0.227-0.098,0.456-0.145,0.685
		c-0.054,0.271-0.104,0.545-0.151,0.819c-0.038,0.219-0.074,0.438-0.107,0.659c-0.044,0.295-0.081,0.591-0.117,0.888
		c-0.024,0.205-0.051,0.409-0.072,0.617c-0.033,0.337-0.057,0.676-0.079,1.016c-0.011,0.171-0.026,0.341-0.035,0.513
		c-0.024,0.514-0.04,1.032-0.04,1.553v17.655C370.759,320.692,376.687,326.621,384,326.621z"/>
	<path style="fill:#EBC89B;" d="M204.775,486.484l-34.293-123.455c-1.704-6.133,0.026-12.708,4.527-17.209l10.37-10.371v22.069
		c0,7.313,5.929,13.241,13.241,13.241c7.313,0,13.241-5.929,13.241-13.241v-251.23c-11.55,1.656-21.038,9.678-24.771,20.404
		c-0.055,0.158-0.113,0.314-0.166,0.473c-0.085,0.257-0.161,0.516-0.238,0.776c-0.066,0.221-0.134,0.441-0.195,0.664
		c-0.065,0.237-0.126,0.478-0.185,0.717c-0.063,0.25-0.124,0.502-0.18,0.756c-0.051,0.227-0.098,0.455-0.143,0.683
		c-0.054,0.273-0.105,0.546-0.151,0.821c-0.038,0.218-0.074,0.437-0.107,0.657c-0.044,0.296-0.082,0.593-0.117,0.892
		c-0.024,0.204-0.051,0.408-0.072,0.614c-0.033,0.338-0.057,0.679-0.081,1.02c-0.011,0.17-0.026,0.339-0.035,0.51
		c-0.025,0.514-0.041,1.032-0.041,1.553l0,0v37.426v21.107v19.407v18.765v18.398v18.207v34.417l-24.342,22.314
		c-12.078,11.072-17.03,27.924-12.86,43.769l26.81,101.879C181.111,495.783,202.15,512,226.21,512h12.135
		C222.694,512,208.963,501.564,204.775,486.484z"/>
</g>
<g>
</g>
<g>
</g>
<g>
</g>
<g>
</g>
<g>
</g>
<g>
</g>
<g>
</g>
<g>
</g>
<g>
</g>
<g>
</g>
<g>
</g>
<g>
</g>
<g>
</g>
<g>
</g>
<g>
</g>
</svg>
