<?xml version="1.0" encoding="iso-8859-1"?>
<!-- Generator: Adobe Illustrator 19.0.0, SVG Export Plug-In . SVG Version: 6.00 Build 0)  -->
<svg version="1.1" id="Layer_1" xmlns="http://www.w3.org/2000/svg" xmlns:xlink="http://www.w3.org/1999/xlink" x="0px" y="0px"
	 viewBox="0 0 512 512" style="enable-background:new 0 0 512 512;" xml:space="preserve">
<path style="fill:#D2DCF0;" d="M485.517,88.276H26.483C11.857,88.276,0,100.132,0,114.759v282.483
	c0,14.626,11.857,26.483,26.483,26.483h459.034c14.626,0,26.483-11.857,26.483-26.483V114.759
	C512,100.132,500.143,88.276,485.517,88.276z M388.414,114.759h52.966c9.751,0,17.655,7.905,17.655,17.655
	c0,9.75-7.904,17.655-17.655,17.655h-52.966c-9.751,0-17.655-7.905-17.655-17.655C370.759,122.664,378.663,114.759,388.414,114.759z
	 M282.483,114.759h52.966c9.751,0,17.655,7.905,17.655,17.655c0,9.75-7.904,17.655-17.655,17.655h-52.966
	c-9.751,0-17.655-7.905-17.655-17.655C264.828,122.664,272.732,114.759,282.483,114.759z M176.552,114.759h52.966
	c9.751,0,17.655,7.905,17.655,17.655c0,9.75-7.904,17.655-17.655,17.655h-52.966c-9.751,0-17.655-7.905-17.655-17.655
	C158.897,122.664,166.801,114.759,176.552,114.759z M70.621,114.759L70.621,114.759h52.966c9.751,0,17.655,7.905,17.655,17.655
	c0,9.75-7.904,17.655-17.655,17.655H70.621l0,0c-9.751,0-17.655-7.905-17.655-17.655C52.966,122.664,60.87,114.759,70.621,114.759z
	 M70.621,397.241L70.621,397.241c-9.751,0-17.655-7.905-17.655-17.655s7.904-17.655,17.655-17.655l0,0
	c9.751,0,17.655,7.905,17.655,17.655S80.372,397.241,70.621,397.241z M123.586,397.241L123.586,397.241
	c-9.751,0-17.655-7.905-17.655-17.655s7.904-17.655,17.655-17.655l0,0c9.75,0,17.655,7.905,17.655,17.655
	S133.337,397.241,123.586,397.241z M176.552,397.241c-9.751,0-17.655-7.905-17.655-17.655s7.904-17.655,17.655-17.655
	s17.655,7.905,17.655,17.655S186.303,397.241,176.552,397.241z M335.448,397.241h-35.31c-9.751,0-17.655-7.905-17.655-17.655
	s7.904-17.655,17.655-17.655h35.31c9.751,0,17.655,7.905,17.655,17.655S345.199,397.241,335.448,397.241z M459.034,397.241h-70.621
	c-9.751,0-17.655-7.905-17.655-17.655s7.904-17.655,17.655-17.655h70.621c9.751,0,17.655,7.905,17.655,17.655
	S468.786,397.241,459.034,397.241z M476.69,326.621c0,4.875-3.953,8.828-8.828,8.828H44.138c-4.875,0-8.828-3.953-8.828-8.828
	V185.379c0-4.875,3.953-8.828,8.828-8.828h423.724c4.875,0,8.828,3.953,8.828,8.828V326.621z"/>
<path style="fill:#FFFFFF;" d="M467.862,176.552H44.138c-4.875,0-8.828,3.953-8.828,8.828v141.241c0,4.875,3.953,8.828,8.828,8.828
	h423.724c4.875,0,8.828-3.953,8.828-8.828V185.379C476.69,180.504,472.737,176.552,467.862,176.552z M52.966,238.345
	c0-4.875,3.953-8.828,8.828-8.828H220.69c4.875,0,8.828,3.953,8.828,8.828c0,4.875-3.953,8.828-8.828,8.828H61.793
	C56.918,247.172,52.966,243.22,52.966,238.345L52.966,238.345z M176.552,317.793H61.793c-4.875,0-8.828-3.953-8.828-8.828
	s3.953-8.828,8.828-8.828h114.759c4.875,0,8.828,3.953,8.828,8.828S181.427,317.793,176.552,317.793z M264.828,282.483H61.793
	c-4.875,0-8.828-3.953-8.828-8.828s3.953-8.828,8.828-8.828h203.034c4.875,0,8.828,3.953,8.828,8.828
	S269.703,282.483,264.828,282.483z M388.414,211.862H61.793c-4.875,0-8.828-3.953-8.828-8.828s3.953-8.828,8.828-8.828h326.621
	c4.875,0,8.828,3.953,8.828,8.828S393.289,211.862,388.414,211.862z"/>
<g>
	<path style="fill:#E4EAF6;" d="M88.276,132.414c0,9.75-7.904,17.655-17.655,17.655h52.966c9.751,0,17.655-7.905,17.655-17.655
		c0-9.75-7.904-17.655-17.655-17.655H70.621C80.372,114.759,88.276,122.664,88.276,132.414z"/>
	<path style="fill:#E4EAF6;" d="M300.138,132.414c0,9.75-7.904,17.655-17.655,17.655h52.966c9.751,0,17.655-7.905,17.655-17.655
		c0-9.75-7.904-17.655-17.655-17.655h-52.966C292.234,114.759,300.138,122.664,300.138,132.414z"/>
	<path style="fill:#E4EAF6;" d="M335.448,361.931h-35.31c-9.751,0-17.655,7.905-17.655,17.655s7.904,17.655,17.655,17.655h35.31
		c9.751,0,17.655-7.905,17.655-17.655S345.199,361.931,335.448,361.931z"/>
</g>
<path style="fill:#FF6469;" d="M459.034,361.931h-70.621c-9.751,0-17.655,7.905-17.655,17.655s7.904,17.655,17.655,17.655h70.621
	c9.751,0,17.655-7.905,17.655-17.655S468.786,361.931,459.034,361.931z"/>
<g>
	<path style="fill:#E4EAF6;" d="M406.069,132.414c0,9.75-7.904,17.655-17.655,17.655h52.966c9.751,0,17.655-7.905,17.655-17.655
		c0-9.75-7.904-17.655-17.655-17.655h-52.966C398.165,114.759,406.069,122.664,406.069,132.414z"/>
	<path style="fill:#E4EAF6;" d="M194.207,132.414c0,9.75-7.904,17.655-17.655,17.655h52.966c9.751,0,17.655-7.905,17.655-17.655
		c0-9.75-7.904-17.655-17.655-17.655h-52.966C186.303,114.759,194.207,122.664,194.207,132.414z"/>
</g>
<path style="fill:#FFDC69;" d="M70.621,150.069L70.621,150.069c9.751,0,17.655-7.905,17.655-17.655
	c0-9.75-7.904-17.655-17.655-17.655l0,0c-9.751,0-17.655,7.905-17.655,17.655C52.966,142.164,60.87,150.069,70.621,150.069z"/>
<circle style="fill:#FF6469;" cx="176.552" cy="132.414" r="17.655"/>
<circle style="fill:#B4E173;" cx="282.483" cy="132.414" r="17.655"/>
<g>
	<path style="fill:#BEC8DC;" d="M70.621,361.931L70.621,361.931c-9.751,0-17.655,7.905-17.655,17.655s7.904,17.655,17.655,17.655
		l0,0c9.751,0,17.655-7.905,17.655-17.655S80.372,361.931,70.621,361.931z"/>
	<path style="fill:#BEC8DC;" d="M123.586,361.931L123.586,361.931c-9.751,0-17.655,7.905-17.655,17.655s7.904,17.655,17.655,17.655
		l0,0c9.751,0,17.655-7.905,17.655-17.655S133.337,361.931,123.586,361.931z"/>
	<circle style="fill:#BEC8DC;" cx="176.552" cy="379.586" r="17.655"/>
</g>
<circle style="fill:#A0DCF0;" cx="388.414" cy="132.414" r="17.655"/>
<g>
	<path style="fill:#BEC8DC;" d="M388.414,194.207H61.793c-4.875,0-8.828,3.953-8.828,8.828s3.953,8.828,8.828,8.828h326.621
		c4.875,0,8.828-3.953,8.828-8.828S393.289,194.207,388.414,194.207z"/>
	<path style="fill:#BEC8DC;" d="M264.828,264.828H61.793c-4.875,0-8.828,3.953-8.828,8.828s3.953,8.828,8.828,8.828h203.034
		c4.875,0,8.828-3.953,8.828-8.828S269.703,264.828,264.828,264.828z"/>
	<path style="fill:#BEC8DC;" d="M176.552,300.138H61.793c-4.875,0-8.828,3.953-8.828,8.828s3.953,8.828,8.828,8.828h114.759
		c4.875,0,8.828-3.953,8.828-8.828S181.427,300.138,176.552,300.138z"/>
	<path style="fill:#BEC8DC;" d="M61.793,247.172H220.69c4.875,0,8.828-3.953,8.828-8.828c0-4.875-3.953-8.828-8.828-8.828H61.793
		c-4.875,0-8.828,3.953-8.828,8.828l0,0C52.966,243.22,56.918,247.172,61.793,247.172z"/>
</g>
<g>
</g>
<g>
</g>
<g>
</g>
<g>
</g>
<g>
</g>
<g>
</g>
<g>
</g>
<g>
</g>
<g>
</g>
<g>
</g>
<g>
</g>
<g>
</g>
<g>
</g>
<g>
</g>
<g>
</g>
</svg>
