<?xml version="1.0" encoding="iso-8859-1"?>
<!-- Generator: Adobe Illustrator 19.0.0, SVG Export Plug-In . SVG Version: 6.00 Build 0)  -->
<svg version="1.1" id="Layer_1" xmlns="http://www.w3.org/2000/svg" xmlns:xlink="http://www.w3.org/1999/xlink" x="0px" y="0px"
	 viewBox="0 0 512 512" style="enable-background:new 0 0 512 512;" xml:space="preserve">
<path style="fill:#B4E173;" d="M397.241,384h-8.785L268.246,92.061c-2.044-4.957-6.88-8.199-12.246-8.199
	c-5.366,0-10.202,3.242-12.246,8.199L123.543,384h-8.785c-7.315,0-13.241,5.931-13.241,13.241c0,7.31,5.927,13.241,13.241,13.241
	h17.694c0.052,0,0.103,0.001,0.153,0h17.463c7.315,0,13.241-5.931,13.241-13.241c0-6.614-4.866-12.052-11.207-13.036l25.528-61.998
	h112.597l25.529,61.998c-6.34,0.984-11.207,6.422-11.207,13.036c0,7.31,5.927,13.241,13.241,13.241h79.448
	c7.315,0,13.241-5.931,13.241-13.241C410.483,389.931,404.556,384,397.241,384z M188.536,295.724l45.394-110.243l45.395,110.243
	H188.536z"/>
<g>
	<path style="fill:#BEC8DC;" d="M17.655,238.345c0,4.879,3.953,8.828,8.828,8.828s8.828-3.948,8.828-8.828V220.69
		c0-4.879-3.953-8.828-8.828-8.828s-8.828,3.948-8.828,8.828V238.345z"/>
	<path style="fill:#BEC8DC;" d="M17.655,185.379c0,4.879,3.953,8.828,8.828,8.828s8.828-3.948,8.828-8.828v-17.655
		c0-4.879-3.953-8.828-8.828-8.828s-8.828,3.948-8.828,8.828V185.379z"/>
	<path style="fill:#BEC8DC;" d="M17.655,291.31c0,4.879,3.953,8.828,8.828,8.828s8.828-3.948,8.828-8.828v-17.655
		c0-4.879-3.953-8.828-8.828-8.828s-8.828,3.948-8.828,8.828V291.31z"/>
	<path style="fill:#BEC8DC;" d="M26.483,141.241c4.875,0,8.828-3.948,8.828-8.828v-17.655c0-4.879-3.953-8.828-8.828-8.828
		s-8.828,3.948-8.828,8.828v17.655C17.655,137.293,21.608,141.241,26.483,141.241z"/>
	<path style="fill:#BEC8DC;" d="M17.655,344.276c0,4.879,3.953,8.828,8.828,8.828s8.828-3.948,8.828-8.828v-17.655
		c0-4.879-3.953-8.828-8.828-8.828s-8.828,3.948-8.828,8.828V344.276z"/>
	<path style="fill:#BEC8DC;" d="M17.655,397.241c0,4.879,3.953,8.828,8.828,8.828s8.828-3.948,8.828-8.828v-17.655
		c0-4.879-3.953-8.828-8.828-8.828s-8.828,3.948-8.828,8.828V397.241z"/>
	<path style="fill:#BEC8DC;" d="M476.69,238.345c0,4.879,3.953,8.828,8.828,8.828s8.828-3.948,8.828-8.828V220.69
		c0-4.879-3.953-8.828-8.828-8.828s-8.828,3.948-8.828,8.828V238.345z"/>
	<path style="fill:#BEC8DC;" d="M476.69,185.379c0,4.879,3.953,8.828,8.828,8.828s8.828-3.948,8.828-8.828v-17.655
		c0-4.879-3.953-8.828-8.828-8.828s-8.828,3.948-8.828,8.828V185.379z"/>
	<path style="fill:#BEC8DC;" d="M476.69,291.31c0,4.879,3.953,8.828,8.828,8.828s8.828-3.948,8.828-8.828v-17.655
		c0-4.879-3.953-8.828-8.828-8.828s-8.828,3.948-8.828,8.828V291.31z"/>
	<path style="fill:#BEC8DC;" d="M485.517,141.241c4.875,0,8.828-3.948,8.828-8.828v-17.655c0-4.879-3.953-8.828-8.828-8.828
		s-8.828,3.948-8.828,8.828v17.655C476.69,137.293,480.642,141.241,485.517,141.241z"/>
	<path style="fill:#BEC8DC;" d="M476.69,344.276c0,4.879,3.953,8.828,8.828,8.828s8.828-3.948,8.828-8.828v-17.655
		c0-4.879-3.953-8.828-8.828-8.828s-8.828,3.948-8.828,8.828V344.276z"/>
	<path style="fill:#BEC8DC;" d="M476.69,397.241c0,4.879,3.953,8.828,8.828,8.828s8.828-3.948,8.828-8.828v-17.655
		c0-4.879-3.953-8.828-8.828-8.828s-8.828,3.948-8.828,8.828V397.241z"/>
	<path style="fill:#BEC8DC;" d="M238.345,476.69H220.69c-4.875,0-8.828,3.948-8.828,8.828s3.953,8.828,8.828,8.828h17.655
		c4.875,0,8.828-3.948,8.828-8.828S243.22,476.69,238.345,476.69z"/>
	<path style="fill:#BEC8DC;" d="M185.379,476.69h-17.655c-4.875,0-8.828,3.948-8.828,8.828s3.953,8.828,8.828,8.828h17.655
		c4.875,0,8.828-3.948,8.828-8.828S190.254,476.69,185.379,476.69z"/>
	<path style="fill:#BEC8DC;" d="M291.31,476.69h-17.655c-4.875,0-8.828,3.948-8.828,8.828s3.953,8.828,8.828,8.828h17.655
		c4.875,0,8.828-3.948,8.828-8.828S296.185,476.69,291.31,476.69z"/>
	<path style="fill:#BEC8DC;" d="M132.414,476.69h-17.655c-4.875,0-8.828,3.948-8.828,8.828s3.953,8.828,8.828,8.828h17.655
		c4.875,0,8.828-3.948,8.828-8.828S137.289,476.69,132.414,476.69z"/>
	<path style="fill:#BEC8DC;" d="M79.448,476.69H52.966v-8.828c0-4.875-3.953-8.828-8.828-8.828H35.31v-26.483
		c0-4.879-3.953-8.828-8.828-8.828s-8.828,3.948-8.828,8.828v26.483H8.828c-4.875,0-8.828,3.953-8.828,8.828v35.31
		C0,508.047,3.953,512,8.828,512h35.31c4.875,0,8.828-3.953,8.828-8.828v-8.828h26.483c4.875,0,8.828-3.948,8.828-8.828
		S84.323,476.69,79.448,476.69z"/>
	<path style="fill:#BEC8DC;" d="M344.276,476.69h-17.655c-4.875,0-8.828,3.948-8.828,8.828s3.953,8.828,8.828,8.828h17.655
		c4.875,0,8.828-3.948,8.828-8.828S349.151,476.69,344.276,476.69z"/>
	<path style="fill:#BEC8DC;" d="M397.241,476.69h-17.655c-4.875,0-8.828,3.948-8.828,8.828s3.953,8.828,8.828,8.828h17.655
		c4.875,0,8.828-3.948,8.828-8.828S402.116,476.69,397.241,476.69z"/>
	<path style="fill:#BEC8DC;" d="M220.69,35.31h17.655c4.875,0,8.828-3.948,8.828-8.828s-3.953-8.828-8.828-8.828H220.69
		c-4.875,0-8.828,3.948-8.828,8.828S215.815,35.31,220.69,35.31z"/>
	<path style="fill:#BEC8DC;" d="M167.724,35.31h17.655c4.875,0,8.828-3.948,8.828-8.828s-3.953-8.828-8.828-8.828h-17.655
		c-4.875,0-8.828,3.948-8.828,8.828S162.849,35.31,167.724,35.31z"/>
	<path style="fill:#BEC8DC;" d="M273.655,35.31h17.655c4.875,0,8.828-3.948,8.828-8.828s-3.953-8.828-8.828-8.828h-17.655
		c-4.875,0-8.828,3.948-8.828,8.828S268.78,35.31,273.655,35.31z"/>
	<path style="fill:#BEC8DC;" d="M114.759,35.31h17.655c4.875,0,8.828-3.948,8.828-8.828s-3.953-8.828-8.828-8.828h-17.655
		c-4.875,0-8.828,3.948-8.828,8.828S109.884,35.31,114.759,35.31z"/>
	<path style="fill:#BEC8DC;" d="M79.448,17.655H52.966V8.828C52.966,3.953,49.013,0,44.138,0H8.828C3.953,0,0,3.953,0,8.828v35.31
		c0,4.875,3.953,8.828,8.828,8.828h8.828v26.483c0,4.879,3.953,8.828,8.828,8.828s8.828-3.948,8.828-8.828V52.966h8.828
		c4.875,0,8.828-3.953,8.828-8.828V35.31h26.483c4.875,0,8.828-3.948,8.828-8.828S84.323,17.655,79.448,17.655z"/>
	<path style="fill:#BEC8DC;" d="M326.621,35.31h17.655c4.875,0,8.828-3.948,8.828-8.828s-3.953-8.828-8.828-8.828h-17.655
		c-4.875,0-8.828,3.948-8.828,8.828S321.746,35.31,326.621,35.31z"/>
	<path style="fill:#BEC8DC;" d="M379.586,35.31h17.655c4.875,0,8.828-3.948,8.828-8.828s-3.953-8.828-8.828-8.828h-17.655
		c-4.875,0-8.828,3.948-8.828,8.828S374.711,35.31,379.586,35.31z"/>
	<path style="fill:#BEC8DC;" d="M503.172,0h-35.31c-4.875,0-8.828,3.953-8.828,8.828v8.828h-26.483
		c-4.875,0-8.828,3.948-8.828,8.828s3.953,8.828,8.828,8.828h26.483v8.828c0,4.875,3.953,8.828,8.828,8.828h8.828v26.483
		c0,4.879,3.953,8.828,8.828,8.828s8.828-3.948,8.828-8.828V52.966h8.828c4.875,0,8.828-3.953,8.828-8.828V8.828
		C512,3.953,508.047,0,503.172,0z"/>
	<path style="fill:#BEC8DC;" d="M503.172,459.034h-8.828v-26.483c0-4.879-3.953-8.828-8.828-8.828s-8.828,3.948-8.828,8.828v26.483
		h-8.828c-4.875,0-8.828,3.953-8.828,8.828v8.828h-26.483c-4.875,0-8.828,3.948-8.828,8.828s3.953,8.828,8.828,8.828h26.483v8.828
		c0,4.875,3.953,8.828,8.828,8.828h35.31c4.875,0,8.828-3.953,8.828-8.828v-35.31C512,462.987,508.047,459.034,503.172,459.034z"/>
</g>
<g>
</g>
<g>
</g>
<g>
</g>
<g>
</g>
<g>
</g>
<g>
</g>
<g>
</g>
<g>
</g>
<g>
</g>
<g>
</g>
<g>
</g>
<g>
</g>
<g>
</g>
<g>
</g>
<g>
</g>
</svg>
