<?xml version="1.0" encoding="iso-8859-1"?>
<!-- Generator: Adobe Illustrator 19.0.0, SVG Export Plug-In . SVG Version: 6.00 Build 0)  -->
<svg version="1.1" id="Layer_1" xmlns="http://www.w3.org/2000/svg" xmlns:xlink="http://www.w3.org/1999/xlink" x="0px" y="0px"
	 viewBox="0 0 512.001 512.001" style="enable-background:new 0 0 512.001 512.001;" xml:space="preserve">
<path style="fill:#BEA0FF;" d="M391.035,37.748H9.094C4.072,37.748,0,41.82,0,46.842v72.751c0,5.022,4.072,9.094,9.094,9.094
	s9.094-4.072,9.094-9.094v-9.094c0-30.135,24.428-54.563,54.563-54.563h100.032v381.941c0,10.044-8.144,18.188-18.188,18.188
	c-5.022,0-9.094,4.067-9.094,9.094c0,5.027,4.072,9.094,9.094,9.094h90.938c5.022,0,9.094-4.067,9.094-9.094
	c0-5.027-4.072-9.094-9.094-9.094c-10.044,0-18.188-8.144-18.188-18.188V55.936h100.032c30.135,0,54.563,24.428,54.563,54.563v9.094
	c0,5.022,4.072,9.094,9.094,9.094s9.094-4.072,9.094-9.094V46.842C400.129,41.819,396.057,37.748,391.035,37.748z"/>
<path style="fill:#464655;" d="M502.894,401.502h-20.92V110.499h20.92c6.934,0,11.317-7.449,7.949-13.51l-30.014-54.025
	c-3.465-6.237-12.434-6.237-15.898,0l-30.014,54.025c-3.367,6.061,1.015,13.51,7.949,13.51h20.92v291.003h-20.92
	c-6.934,0-11.317,7.449-7.949,13.51l30.014,54.025c3.465,6.236,12.434,6.236,15.898,0l30.014-54.025
	C514.21,408.95,509.828,401.502,502.894,401.502z"/>
<g>
</g>
<g>
</g>
<g>
</g>
<g>
</g>
<g>
</g>
<g>
</g>
<g>
</g>
<g>
</g>
<g>
</g>
<g>
</g>
<g>
</g>
<g>
</g>
<g>
</g>
<g>
</g>
<g>
</g>
</svg>
