<?xml version="1.0" encoding="iso-8859-1"?>
<!-- Generator: Adobe Illustrator 19.0.0, SVG Export Plug-In . SVG Version: 6.00 Build 0)  -->
<svg version="1.1" id="Layer_1" xmlns="http://www.w3.org/2000/svg" xmlns:xlink="http://www.w3.org/1999/xlink" x="0px" y="0px"
	 viewBox="0 0 512 512" style="enable-background:new 0 0 512 512;" xml:space="preserve">
<g>
	<path style="fill:#00C3E1;" d="M485.517,51.616H26.483C11.857,51.616,0,63.472,0,78.099v256c0,14.626,11.857,26.483,26.483,26.483
		h459.034c14.626,0,26.483-11.857,26.483-26.483v-256C512,63.472,500.143,51.616,485.517,51.616z M194.528,312.8h-28.839
		c-3.506,0-6.666-2.118-8.001-5.356L79.147,116.699h-5.74c-4.779,0-8.651-3.875-8.651-8.652s3.872-8.651,8.651-8.651h11.614h0.007
		h40.288c4.779,0,8.651,3.875,8.651,8.651c0,4.321-3.179,7.874-7.321,8.518l67.883,164.86l67.827-164.726h-4.383
		c-4.779,0-8.651-3.875-8.651-8.652c0-4.777,3.872-8.651,8.651-8.651h17.192c0.024,0,0.047,0,0.072,0h11.574
		c4.779,0,8.651,3.875,8.651,8.651s-3.872,8.652-8.651,8.652h-5.74l-78.542,190.744C201.194,310.682,198.034,312.8,194.528,312.8z
		 M428.295,312.8h-51.908c-4.779,0-8.651-3.875-8.651-8.651c0-4.321,3.179-7.874,7.321-8.518l-16.68-40.508H284.81l-16.68,40.508
		c4.142,0.643,7.321,4.196,7.321,8.518c0,4.776-3.872,8.651-8.651,8.651h-11.412c-0.033,0-0.067,0-0.1,0H243.73
		c-4.779,0-8.651-3.875-8.651-8.651c0-4.777,3.872-8.652,8.651-8.652h5.74l78.541-190.744c1.335-3.239,4.494-5.356,8.001-5.356
		c3.507,0,6.666,2.118,8.001,5.356l78.542,190.744h5.74c4.779,0,8.651,3.875,8.651,8.652
		C436.946,308.925,433.074,312.8,428.295,312.8z"/>
	<polygon style="fill:#00C3E1;" points="291.933,237.821 351.251,237.821 321.591,165.791 	"/>
</g>
<g>
	<path style="fill:#FFFFFF;" d="M428.295,295.497h-5.74l-78.542-190.744c-1.335-3.239-4.494-5.356-8.001-5.356
		c-3.506,0-6.666,2.118-8.001,5.356l-78.542,190.744h-5.74c-4.779,0-8.651,3.875-8.651,8.652c0,4.776,3.872,8.651,8.651,8.651
		h11.559c0.033,0,0.067,0,0.1,0h11.412c4.779,0,8.651-3.875,8.651-8.651c0-4.321-3.179-7.874-7.321-8.518l16.68-40.508h73.567
		l16.68,40.508c-4.142,0.643-7.321,4.196-7.321,8.518c0,4.776,3.872,8.651,8.651,8.651h51.908c4.779,0,8.651-3.875,8.651-8.651
		C436.946,299.372,433.074,295.497,428.295,295.497z M291.933,237.821l29.658-72.03l29.66,72.03H291.933z"/>
	<path style="fill:#FFFFFF;" d="M286.81,116.699c4.779,0,8.651-3.875,8.651-8.652s-3.872-8.651-8.651-8.651h-11.574
		c-0.024,0-0.047,0-0.072,0h-17.192c-4.779,0-8.651,3.875-8.651,8.651s3.872,8.652,8.651,8.652h4.383l-67.827,164.726
		l-67.883-164.86c4.142-0.643,7.321-4.196,7.321-8.518c0-4.777-3.872-8.651-8.651-8.651H85.027h-0.007H73.407
		c-4.779,0-8.651,3.875-8.651,8.651s3.872,8.652,8.651,8.652h5.74l78.542,190.744c1.335,3.239,4.494,5.356,8.001,5.356h28.839
		c3.507,0,6.666-2.118,8.001-5.356l78.542-190.744h5.738V116.699z"/>
</g>
<path style="fill:#464655;" d="M507.459,414.692l-52.444-29.135c-5.884-3.268-13.114,0.985-13.114,7.716v20.308H70.621v-20.308
	c0-6.731-7.231-10.986-13.114-7.716L5.063,414.692c-6.054,3.363-6.054,12.07,0,15.433l52.444,29.135
	c5.884,3.268,13.114-0.985,13.114-7.716v-20.308h371.281v20.308c0,6.731,7.231,10.986,13.114,7.716l52.444-29.135
	C513.514,426.762,513.514,418.056,507.459,414.692z"/>
<g>
</g>
<g>
</g>
<g>
</g>
<g>
</g>
<g>
</g>
<g>
</g>
<g>
</g>
<g>
</g>
<g>
</g>
<g>
</g>
<g>
</g>
<g>
</g>
<g>
</g>
<g>
</g>
<g>
</g>
</svg>
