<?xml version="1.0" encoding="iso-8859-1"?>
<!-- Generator: Adobe Illustrator 19.0.0, SVG Export Plug-In . SVG Version: 6.00 Build 0)  -->
<svg version="1.1" id="Layer_1" xmlns="http://www.w3.org/2000/svg" xmlns:xlink="http://www.w3.org/1999/xlink" x="0px" y="0px"
	 viewBox="0 0 512.001 512.001" style="enable-background:new 0 0 512.001 512.001;" xml:space="preserve">
<g>
	<path style="fill:#FFDC69;" d="M255.52,335.437c-0.514-0.007-1.027-0.02-1.536-0.049
		C254.493,335.417,255.006,335.43,255.52,335.437z"/>
	<path style="fill:#FFDC69;" d="M253.299,335.335c-0.417-0.032-0.833-0.066-1.246-0.111
		C252.466,335.27,252.882,335.304,253.299,335.335z"/>
	<path style="fill:#FFDC69;" d="M230.836,324.901c-0.366-0.372-0.726-0.751-1.076-1.14
		C230.109,324.15,230.47,324.528,230.836,324.901z"/>
	<path style="fill:#FFDC69;" d="M224.224,315.55c-0.268-0.552-0.525-1.111-0.765-1.679
		C223.7,314.438,223.956,314.997,224.224,315.55z"/>
	<path style="fill:#FFDC69;" d="M223.399,313.715c-0.216-0.519-0.42-1.043-0.612-1.572
		C222.977,312.673,223.182,313.197,223.399,313.715z"/>
	<path style="fill:#FFDC69;" d="M225.075,317.185c-0.203-0.367-0.396-0.743-0.586-1.118
		C224.68,316.442,224.872,316.817,225.075,317.185z"/>
	<path style="fill:#FFDC69;" d="M222.585,311.548c-0.134-0.391-0.265-0.782-0.384-1.18
		C222.321,310.766,222.452,311.158,222.585,311.548z"/>
	<path style="fill:#FFDC69;" d="M251.307,335.129c-0.388-0.052-0.776-0.108-1.161-0.172
		C250.531,335.021,250.919,335.077,251.307,335.129z"/>
	<path style="fill:#FFDC69;" d="M227.028,320.313c-0.212-0.303-0.418-0.61-0.62-0.92
		C226.61,319.703,226.816,320.009,227.028,320.313z"/>
	<path style="fill:#FFDC69;" d="M226.009,318.772c-0.201-0.322-0.394-0.65-0.585-0.98
		C225.615,318.121,225.809,318.449,226.009,318.772z"/>
	<path style="fill:#FFDC69;" d="M221.17,305.924c-0.064-0.386-0.118-0.776-0.169-1.166
		C221.052,305.148,221.106,305.538,221.17,305.924z"/>
	<path style="fill:#FFDC69;" d="M220.746,302.093c-0.035-0.647-0.056-1.299-0.056-1.954
		C220.69,300.795,220.711,301.446,220.746,302.093z"/>
	<path style="fill:#FFDC69;" d="M220.907,304.022c-0.047-0.43-0.082-0.863-0.113-1.298
		C220.825,303.158,220.86,303.591,220.907,304.022z"/>
	<path style="fill:#FFDC69;" d="M273.655,52.966h-8.828v201.491c0,6.293,3.367,12.084,8.819,15.225
		c12.751,7.349,20.489,22.364,16.697,38.836c-2.924,12.703-13.226,23.023-25.926,25.956c-2.878,0.665-5.716,0.977-8.48,0.971
		c0.021,0,0.041,0.001,0.062,0.001v123.586h61.793c1.802-65.76,41.845-130.05,56.49-151.443c3.276-4.786,4.019-10.841,1.961-16.265
		L282.483,44.138C282.483,49.014,278.53,52.966,273.655,52.966z"/>
	<path style="fill:#FFDC69;" d="M222.002,309.668c-0.104-0.371-0.204-0.743-0.296-1.118
		C221.798,308.925,221.898,309.297,222.002,309.668z"/>
	<path style="fill:#FFDC69;" d="M221.534,307.804c-0.082-0.371-0.158-0.745-0.228-1.12
		C221.376,307.059,221.452,307.433,221.534,307.804z"/>
	<path style="fill:#FFDC69;" d="M229.351,323.289c-0.263-0.302-0.524-0.606-0.776-0.917
		C228.826,322.683,229.087,322.986,229.351,323.289z"/>
	<path style="fill:#FFDC69;" d="M228.134,321.811c-0.23-0.296-0.457-0.593-0.678-0.896
		C227.677,321.219,227.904,321.516,228.134,321.811z"/>
	<path style="fill:#FFDC69;" d="M249.394,334.822c-0.381-0.072-0.758-0.151-1.134-0.235
		C248.636,334.672,249.013,334.75,249.394,334.822z"/>
	<path style="fill:#FFDC69;" d="M239.961,331.593c-0.355-0.182-0.71-0.365-1.058-0.558
		C239.252,331.227,239.606,331.411,239.961,331.593z"/>
	<path style="fill:#FFDC69;" d="M243.946,333.336c-0.584-0.212-1.161-0.438-1.729-0.68
		C242.785,332.898,243.362,333.124,243.946,333.336z"/>
	<path style="fill:#FFDC69;" d="M241.906,332.516c-0.461-0.201-0.918-0.408-1.368-0.628
		C240.986,332.108,241.444,332.315,241.906,332.516z"/>
	<path style="fill:#FFDC69;" d="M245.717,333.923c-0.435-0.132-0.865-0.277-1.293-0.426
		C244.852,333.646,245.282,333.79,245.717,333.923z"/>
	<path style="fill:#FFDC69;" d="M232.335,326.343c-0.451-0.408-0.894-0.826-1.323-1.257
		C231.442,325.517,231.884,325.935,232.335,326.343z"/>
	<path style="fill:#FFDC69;" d="M233.722,327.529c-0.333-0.271-0.659-0.553-0.983-0.836
		C233.064,326.977,233.389,327.258,233.722,327.529z"/>
	<path style="fill:#FFDC69;" d="M238.278,330.674c-0.324-0.189-0.647-0.381-0.964-0.579
		C237.631,330.294,237.953,330.486,238.278,330.674z"/>
	<path style="fill:#FFDC69;" d="M247.532,334.419c-0.388-0.096-0.772-0.201-1.156-0.309
		C246.76,334.218,247.144,334.324,247.532,334.419z"/>
	<path style="fill:#FFDC69;" d="M235.174,328.647c-0.309-0.226-0.611-0.459-0.911-0.694
		C234.562,328.188,234.865,328.421,235.174,328.647z"/>
	<path style="fill:#FFDC69;" d="M236.691,329.697c-0.31-0.203-0.617-0.412-0.921-0.625
		C236.074,329.285,236.381,329.492,236.691,329.697z"/>
</g>
<path style="fill:#FFC85A;" d="M256,335.449c-0.021,0-0.041-0.001-0.062-0.001c-0.14,0-0.278-0.009-0.418-0.011
	c-0.514-0.007-1.027-0.02-1.536-0.049c-0.23-0.013-0.457-0.034-0.685-0.052c-0.417-0.032-0.833-0.066-1.246-0.111
	c-0.249-0.028-0.498-0.062-0.746-0.095c-0.388-0.052-0.776-0.108-1.161-0.172c-0.252-0.042-0.503-0.087-0.753-0.135
	c-0.381-0.072-0.758-0.151-1.134-0.235c-0.243-0.054-0.486-0.108-0.727-0.168c-0.388-0.096-0.772-0.201-1.156-0.309
	c-0.22-0.062-0.441-0.121-0.66-0.188c-0.435-0.132-0.865-0.277-1.293-0.426c-0.159-0.055-0.321-0.105-0.479-0.162
	c-0.584-0.212-1.161-0.438-1.729-0.68c-0.105-0.044-0.206-0.095-0.311-0.14c-0.461-0.201-0.918-0.408-1.368-0.628
	c-0.194-0.095-0.383-0.196-0.575-0.295c-0.355-0.182-0.71-0.365-1.058-0.558c-0.211-0.117-0.418-0.239-0.626-0.36
	c-0.324-0.189-0.647-0.381-0.964-0.579c-0.209-0.13-0.416-0.264-0.622-0.399c-0.31-0.203-0.617-0.412-0.921-0.625
	c-0.2-0.14-0.401-0.28-0.597-0.425c-0.309-0.226-0.611-0.459-0.911-0.694c-0.18-0.14-0.362-0.279-0.538-0.424
	c-0.333-0.271-0.659-0.553-0.983-0.836c-0.135-0.117-0.273-0.231-0.405-0.35c-0.451-0.408-0.894-0.826-1.323-1.257
	c-0.061-0.061-0.117-0.125-0.177-0.185c-0.366-0.373-0.726-0.751-1.076-1.14c-0.139-0.155-0.273-0.316-0.409-0.472
	c-0.263-0.302-0.524-0.606-0.776-0.917c-0.15-0.184-0.295-0.373-0.44-0.561c-0.23-0.296-0.457-0.593-0.678-0.896
	c-0.146-0.199-0.287-0.401-0.428-0.602c-0.212-0.303-0.418-0.61-0.62-0.92c-0.135-0.206-0.268-0.412-0.398-0.621
	c-0.201-0.322-0.394-0.65-0.585-0.98c-0.117-0.202-0.236-0.403-0.35-0.608c-0.203-0.367-0.396-0.743-0.586-1.118
	c-0.087-0.172-0.18-0.342-0.265-0.516c-0.268-0.552-0.525-1.111-0.765-1.679c-0.022-0.051-0.04-0.104-0.062-0.156
	c-0.216-0.519-0.42-1.043-0.612-1.572c-0.071-0.196-0.134-0.396-0.201-0.594c-0.134-0.391-0.265-0.782-0.384-1.18
	c-0.071-0.232-0.134-0.467-0.199-0.701c-0.104-0.371-0.204-0.743-0.296-1.118c-0.061-0.247-0.117-0.497-0.172-0.746
	c-0.082-0.371-0.158-0.745-0.228-1.12c-0.047-0.253-0.094-0.505-0.136-0.76c-0.064-0.386-0.118-0.776-0.169-1.166
	c-0.032-0.245-0.066-0.49-0.094-0.737c-0.047-0.43-0.082-0.863-0.113-1.298c-0.015-0.211-0.036-0.419-0.047-0.63
	c-0.035-0.647-0.056-1.298-0.056-1.954c0-13.056,7.118-24.378,17.666-30.457c5.451-3.142,8.817-8.932,8.817-15.224V52.966h-8.828
	c-4.875,0-8.828-3.953-8.828-8.828l-93.761,247.189c-2.057,5.423-1.315,11.478,1.961,16.265
	c14.645,21.393,54.688,85.683,56.49,151.443H256V335.449z"/>
<g>
	<path style="fill:#BEC8DC;" d="M345.675,35.311h-63.192v1.581c100.031,12.057,180.566,92.591,192.626,192.626h17.762
		C483.108,141.878,424.708,67.802,345.675,35.311z"/>
	<path style="fill:#BEC8DC;" d="M166.325,35.311C87.292,67.802,28.892,141.878,19.129,229.518h17.762
		C48.951,129.484,129.486,48.95,229.517,36.892v-1.581H166.325z"/>
</g>
<g>
	<path style="fill:#707384;" d="M177.134,472.262c0.099-0.384,0.203-0.766,0.328-1.14
		C177.337,471.495,177.234,471.877,177.134,472.262z"/>
	<path style="fill:#707384;" d="M176.91,497.904c-0.235-1.15-0.359-2.339-0.359-3.559
		C176.552,495.564,176.675,496.754,176.91,497.904z"/>
	<path style="fill:#707384;" d="M238.345,476.69v17.655c0,9.75,7.905,17.655,17.655,17.655h61.793
		c9.751,0,17.655-7.904,17.655-17.655V476.69c0-9.751-7.904-17.655-17.655-17.655H256
		C246.25,459.035,238.345,466.939,238.345,476.69z"/>
	<path style="fill:#707384;" d="M190.648,459.394c1.15-0.235,2.339-0.359,3.559-0.359
		C192.988,459.035,191.798,459.159,190.648,459.394z"/>
	<path style="fill:#707384;" d="M188.363,460.046c0.744-0.262,1.501-0.492,2.285-0.652
		C189.864,459.555,189.107,459.785,188.363,460.046z"/>
	<path style="fill:#707384;" d="M176.91,497.904c1.411,6.895,6.842,12.328,13.738,13.738
		C183.753,510.231,178.322,504.799,176.91,497.904z"/>
	<path style="fill:#707384;" d="M194.207,512.001c-1.219,0-2.409-0.124-3.559-0.359
		C191.798,511.877,192.988,512.001,194.207,512.001z"/>
</g>
<g>
	<path style="fill:#E4EAF6;" d="M8.828,229.518c-4.875,0-8.828,3.953-8.828,8.828v35.31c0,4.875,3.953,8.828,8.828,8.828h35.31
		c4.875,0,8.828-3.953,8.828-8.828v-35.31c0-4.875-3.953-8.828-8.828-8.828h-7.246H19.129H8.828z"/>
	<path style="fill:#E4EAF6;" d="M503.172,229.518h-10.302h-17.762h-7.246c-4.875,0-8.828,3.953-8.828,8.828v35.31
		c0,4.875,3.953,8.828,8.828,8.828h35.31c4.875,0,8.828-3.953,8.828-8.828v-35.31C512,233.47,508.047,229.518,503.172,229.518z"/>
</g>
<path style="fill:#707384;" d="M345.675,35.311h114.873c3.636,10.284,13.44,17.655,24.97,17.655
	c14.626,0,26.483-11.857,26.483-26.483S500.143,0.001,485.517,0.001c-11.53,0-21.334,7.371-24.97,17.655H282.483V8.828
	c0-4.875-3.953-8.828-8.828-8.828h-35.31c-4.875,0-8.828,3.953-8.828,8.828v8.828H51.453C47.817,7.372,38.013,0.001,26.483,0.001
	C11.857,0.001,0,11.857,0,26.483s11.857,26.483,26.483,26.483c11.53,0,21.334-7.371,24.97-17.655h114.873h63.191v1.581v7.246
	c0,4.875,3.953,8.828,8.828,8.828h8.828h17.655h8.828c4.875,0,8.828-3.953,8.828-8.828v-7.246v-1.581H345.675z"/>
<path style="fill:#464655;" d="M238.345,494.345V476.69c0-9.751,7.905-17.655,17.655-17.655h-61.793
	c-1.219,0-2.409,0.124-3.559,0.359c-0.785,0.161-1.543,0.392-2.285,0.652c-5.135,1.804-9.181,5.901-10.901,11.075
	c-0.125,0.374-0.228,0.756-0.328,1.14c-0.367,1.418-0.583,2.897-0.583,4.429v17.655c0,1.218,0.124,2.409,0.359,3.559
	c1.411,6.895,6.842,12.328,13.738,13.738c1.15,0.235,2.339,0.359,3.559,0.359H256C246.25,512.001,238.345,504.095,238.345,494.345z"
	/>
<g>
</g>
<g>
</g>
<g>
</g>
<g>
</g>
<g>
</g>
<g>
</g>
<g>
</g>
<g>
</g>
<g>
</g>
<g>
</g>
<g>
</g>
<g>
</g>
<g>
</g>
<g>
</g>
<g>
</g>
</svg>
