<?xml version="1.0" encoding="iso-8859-1"?>
<!-- Generator: Adobe Illustrator 19.0.0, SVG Export Plug-In . SVG Version: 6.00 Build 0)  -->
<svg version="1.1" id="Layer_1" xmlns="http://www.w3.org/2000/svg" xmlns:xlink="http://www.w3.org/1999/xlink" x="0px" y="0px"
	 viewBox="0 0 512 512" style="enable-background:new 0 0 512 512;" xml:space="preserve">
<path style="fill:#D2DCF0;" d="M485.517,61.793H26.483C11.857,61.793,0,73.65,0,88.276v335.448
	c0,14.626,11.857,26.483,26.483,26.483h459.034c14.626,0,26.483-11.857,26.483-26.483V88.276
	C512,73.65,500.143,61.793,485.517,61.793z M441.379,79.448h8.828c4.875,0,8.828,3.953,8.828,8.828c0,4.875-3.953,8.828-8.828,8.828
	h-8.828c-4.875,0-8.828-3.953-8.828-8.828C432.552,83.401,436.504,79.448,441.379,79.448z M194.207,79.448h211.862
	c4.875,0,8.828,3.953,8.828,8.828c0,4.875-3.953,8.828-8.828,8.828H194.207c-4.875,0-8.828-3.953-8.828-8.828
	C185.379,83.401,189.332,79.448,194.207,79.448z M150.069,79.448h8.828c4.875,0,8.828,3.953,8.828,8.828
	c0,4.875-3.953,8.828-8.828,8.828h-8.828c-4.875,0-8.828-3.953-8.828-8.828C141.241,83.401,145.194,79.448,150.069,79.448z
	 M114.759,79.448h8.828c4.875,0,8.828,3.953,8.828,8.828c0,4.875-3.953,8.828-8.828,8.828h-8.828c-4.875,0-8.828-3.953-8.828-8.828
	C105.931,83.401,109.884,79.448,114.759,79.448z M79.448,79.448c4.875,0,8.828,3.953,8.828,8.828c0,4.875-3.953,8.828-8.828,8.828
	c-4.875,0-8.828-3.953-8.828-8.828C70.621,83.401,74.573,79.448,79.448,79.448z M52.966,79.448c4.875,0,8.828,3.953,8.828,8.828
	c0,4.875-3.953,8.828-8.828,8.828s-8.828-3.953-8.828-8.828C44.138,83.401,48.09,79.448,52.966,79.448z M26.483,79.448
	c4.875,0,8.828,3.953,8.828,8.828c0,4.875-3.953,8.828-8.828,8.828s-8.828-3.953-8.828-8.828
	C17.655,83.401,21.608,79.448,26.483,79.448z M494.345,423.724c0,4.875-3.953,8.828-8.828,8.828H26.483
	c-4.875,0-8.828-3.953-8.828-8.828V123.586c0-4.875,3.953-8.828,8.828-8.828h459.034c4.875,0,8.828,3.953,8.828,8.828V423.724z
	 M485.517,97.103h-8.828c-4.875,0-8.828-3.953-8.828-8.828c0-4.875,3.953-8.828,8.828-8.828h8.828c4.875,0,8.828,3.953,8.828,8.828
	C494.345,93.151,490.392,97.103,485.517,97.103z"/>
<g>
	<path style="fill:#FF6469;" d="M485.517,114.759H26.483c-4.875,0-8.828,3.953-8.828,8.828v300.138c0,4.875,3.953,8.828,8.828,8.828
		h459.034c4.875,0,8.828-3.953,8.828-8.828V123.586C494.345,118.711,490.392,114.759,485.517,114.759z M459.034,406.069H138.86
		c-3.054,5.272-8.743,8.828-15.274,8.828h-17.655c-6.531,0-12.22-3.555-15.274-8.828H73.069H52.966
		c-4.875,0-8.828-3.953-8.828-8.828c0-4.875,3.953-8.828,8.828-8.828h20.104h17.588c3.054-5.272,8.743-8.828,15.274-8.828h17.655
		c6.531,0,12.22,3.555,15.274,8.828h320.174c4.875,0,8.828,3.953,8.828,8.828C467.862,402.116,463.91,406.069,459.034,406.069z
		 M467.862,353.103c0,4.875-3.953,8.828-8.828,8.828H52.966c-4.875,0-8.828-3.953-8.828-8.828V150.069
		c0-4.875,3.953-8.828,8.828-8.828h406.069c4.875,0,8.828,3.953,8.828,8.828V353.103z"/>
	<circle style="fill:#FF6469;" cx="26.483" cy="88.276" r="8.828"/>
</g>
<circle style="fill:#FFE169;" cx="52.966" cy="88.276" r="8.828"/>
<circle style="fill:#87E1AA;" cx="79.448" cy="88.276" r="8.828"/>
<g>
	<path style="fill:#E4EAF6;" d="M114.759,97.103h8.828c4.875,0,8.828-3.953,8.828-8.828c0-4.875-3.953-8.828-8.828-8.828h-8.828
		c-4.875,0-8.828,3.953-8.828,8.828C105.931,93.151,109.884,97.103,114.759,97.103z"/>
	<path style="fill:#E4EAF6;" d="M150.069,97.103h8.828c4.875,0,8.828-3.953,8.828-8.828c0-4.875-3.953-8.828-8.828-8.828h-8.828
		c-4.875,0-8.828,3.953-8.828,8.828C141.241,93.151,145.194,97.103,150.069,97.103z"/>
	<path style="fill:#E4EAF6;" d="M441.379,97.103h8.828c4.875,0,8.828-3.953,8.828-8.828c0-4.875-3.953-8.828-8.828-8.828h-8.828
		c-4.875,0-8.828,3.953-8.828,8.828C432.552,93.151,436.504,97.103,441.379,97.103z"/>
	<path style="fill:#E4EAF6;" d="M485.517,79.448h-8.828c-4.875,0-8.828,3.953-8.828,8.828c0,4.875,3.953,8.828,8.828,8.828h8.828
		c4.875,0,8.828-3.953,8.828-8.828C494.345,83.401,490.392,79.448,485.517,79.448z"/>
	<path style="fill:#E4EAF6;" d="M194.207,97.103h211.862c4.875,0,8.828-3.953,8.828-8.828c0-4.875-3.953-8.828-8.828-8.828H194.207
		c-4.875,0-8.828,3.953-8.828,8.828C185.379,93.151,189.332,97.103,194.207,97.103z"/>
</g>
<g>
	<path style="fill:#D2555F;" d="M73.069,388.414H52.966c-4.875,0-8.828,3.953-8.828,8.828c0,4.875,3.953,8.828,8.828,8.828h20.104
		c-1.517-2.605-2.449-5.596-2.449-8.828C70.621,394.009,71.553,391.02,73.069,388.414z"/>
	<path style="fill:#D2555F;" d="M459.034,388.414H138.86c1.505,2.599,2.381,5.608,2.381,8.828c0,3.22-0.876,6.229-2.381,8.828
		h320.174c4.875,0,8.828-3.953,8.828-8.828C467.862,392.366,463.91,388.414,459.034,388.414z"/>
</g>
<path style="fill:#BE4650;" d="M90.657,388.414H73.069c-1.517,2.606-2.449,5.596-2.449,8.828c0,3.232,0.932,6.222,2.449,8.828
	h17.588c-1.505-2.599-2.381-5.608-2.381-8.828C88.276,394.022,89.152,391.012,90.657,388.414z"/>
<path style="fill:#FFC85A;" d="M105.931,397.241c0-9.75,7.904-17.655,17.655-17.655h-17.655c-6.531,0-12.22,3.555-15.274,8.828
	c-1.505,2.599-2.381,5.608-2.381,8.828c0,3.22,0.876,6.229,2.381,8.828c3.054,5.272,8.743,8.828,15.274,8.828h17.655
	C113.835,414.897,105.931,406.991,105.931,397.241z"/>
<g>
	<path style="fill:#FFDC69;" d="M138.86,388.414c-3.054-5.272-8.743-8.828-15.274-8.828c-9.751,0-17.655,7.905-17.655,17.655
		c0,9.75,7.904,17.655,17.655,17.655c6.531,0,12.22-3.555,15.274-8.828c1.505-2.599,2.381-5.608,2.381-8.828
		C141.241,394.022,140.365,391.012,138.86,388.414z"/>
	<path style="fill:#FFDC69;" d="M459.034,141.241H52.966c-4.875,0-8.828,3.953-8.828,8.828v203.034c0,4.875,3.953,8.828,8.828,8.828
		h406.069c4.875,0,8.828-3.953,8.828-8.828V150.069C467.862,145.194,463.91,141.241,459.034,141.241z M310.628,261.145
		l-82.406,46.991c-6.941,3.958-15.403-1.294-15.403-9.56v-93.983c0-8.266,8.462-13.517,15.403-9.56l82.406,46.991
		C317.866,246.154,317.866,257.018,310.628,261.145z"/>
</g>
<path style="fill:#D2555F;" d="M310.628,242.027l-82.406-46.991c-6.941-3.958-15.403,1.294-15.403,9.56v93.983
	c0,8.266,8.462,13.517,15.403,9.56l82.406-46.991C317.866,257.018,317.866,246.154,310.628,242.027z"/>
<g>
</g>
<g>
</g>
<g>
</g>
<g>
</g>
<g>
</g>
<g>
</g>
<g>
</g>
<g>
</g>
<g>
</g>
<g>
</g>
<g>
</g>
<g>
</g>
<g>
</g>
<g>
</g>
<g>
</g>
</svg>
