<?xml version="1.0" encoding="utf-8"?>
<!-- Generator: Adobe Illustrator 21.1.0, SVG Export Plug-In . SVG Version: 6.00 Build 0)  -->
<svg version="1.1" id="Layer_1" xmlns="http://www.w3.org/2000/svg" xmlns:xlink="http://www.w3.org/1999/xlink" x="0px" y="0px"
	 viewBox="0 0 470 470" style="enable-background:new 0 0 470 470;" xml:space="preserve">
<style type="text/css">
	.st0{fill:#FFFFFF;}
</style>
<g>
	<path class="st0" d="M452.2,16.4H17.8C8,16.4,0,24.4,0,34.2v329.2c0,9.8,8,17.8,17.8,17.8h163.8v57.4h-70.7c-4.1,0-7.5,3.4-7.5,7.5
		s3.4,7.5,7.5,7.5h248.2c4.1,0,7.5-3.4,7.5-7.5s-3.4-7.5-7.5-7.5h-70.7v-57.4h163.8c9.8,0,17.8-8,17.8-17.8V34.2
		C470,24.4,462,16.4,452.2,16.4z M273.4,438.6h-76.7v-57.4h76.7V438.6z M455,363.4c0,1.5-1.3,2.8-2.8,2.8H17.8
		c-1.5,0-2.8-1.3-2.8-2.8V34.2c0-1.5,1.3-2.8,2.8-2.8h434.3c1.5,0,2.8,1.3,2.8,2.8V363.4z"/>
	<path class="st0" d="M431.5,305.2h-393c-4.1,0-7.5,3.4-7.5,7.5s3.4,7.5,7.5,7.5h393c4.1,0,7.5-3.4,7.5-7.5S435.6,305.2,431.5,305.2
		z"/>
	<path class="st0" d="M110,280.2h40c4.1,0,7.5-3.4,7.5-7.5V163.9c0-4.1-3.4-7.5-7.5-7.5h-40c-4.1,0-7.5,3.4-7.5,7.5v108.8
		C102.5,276.9,105.9,280.2,110,280.2z M117.5,171.4h25v93.8h-25V171.4z"/>
	<path class="st0" d="M180,280.2h40c4.1,0,7.5-3.4,7.5-7.5V128.4c0-4.1-3.4-7.5-7.5-7.5h-40c-4.1,0-7.5,3.4-7.5,7.5v144.3
		C172.5,276.9,175.9,280.2,180,280.2z M187.5,135.9h25v129.3h-25V135.9z"/>
	<path class="st0" d="M250,280.2h40c4.1,0,7.5-3.4,7.5-7.5V94.9c0-4.1-3.4-7.5-7.5-7.5h-40c-4.1,0-7.5,3.4-7.5,7.5v177.8
		C242.5,276.9,245.9,280.2,250,280.2z M257.5,102.4h25v162.8h-25V102.4z"/>
	<path class="st0" d="M320,280.2h40c4.1,0,7.5-3.4,7.5-7.5v-74.3c0-4.1-3.4-7.5-7.5-7.5h-40c-4.1,0-7.5,3.4-7.5,7.5v74.3
		C312.5,276.9,315.9,280.2,320,280.2z M327.5,205.9h25v59.3h-25V205.9z"/>
</g>
</svg>
