<?xml version="1.0" encoding="utf-8"?>
<!-- Generator: Adobe Illustrator 21.1.0, SVG Export Plug-In . SVG Version: 6.00 Build 0)  -->
<svg version="1.1" id="Layer_1" xmlns="http://www.w3.org/2000/svg" xmlns:xlink="http://www.w3.org/1999/xlink" x="0px" y="0px"
	 viewBox="0 0 470 470" style="enable-background:new 0 0 470 470;" xml:space="preserve">
<style type="text/css">
	.st0{fill:#FFFFFF;}
</style>
<g>
	<path class="st0" d="M462.5,22.5H7.5C3.4,22.5,0,25.9,0,30v410c0,4.1,3.4,7.5,7.5,7.5h455c4.1,0,7.5-3.4,7.5-7.5v-80
		c0-4.1-3.4-7.5-7.5-7.5s-7.5,3.4-7.5,7.5v72.5H15v-335h440V330c0,4.1,3.4,7.5,7.5,7.5s7.5-3.4,7.5-7.5V30
		C470,25.9,466.6,22.5,462.5,22.5z M15,37.5h277.5v45H15V37.5z M307.5,82.5v-45H455v45H307.5z"/>
	<path class="st0" d="M381.5,52c-4.4,0-8,3.6-8,8s3.6,8,8,8s8-3.6,8-8S385.9,52,381.5,52z"/>
	<path class="st0" d="M340.5,52c-4.4,0-8,3.6-8,8s3.6,8,8,8s8-3.6,8-8S344.9,52,340.5,52z"/>
	<path class="st0" d="M422.5,52c-4.4,0-8,3.6-8,8s3.6,8,8,8s8-3.6,8-8S426.9,52,422.5,52z"/>
	<path class="st0" d="M151.4,147.8l60.4,60.4c2.9,2.9,7.7,2.9,10.6,0c2.9-2.9,2.9-7.7,0-10.6l-65.7-65.7c-2.9-2.9-7.7-2.9-10.6,0
		l-44.3,44c-1.4,1.4-2.2,3.3-2.2,5.3s0.8,3.9,2.2,5.3l29,29c0,0,36.8,36.8,36.8,36.8c1.5,1.5,3.4,2.2,5.3,2.2s3.8-0.7,5.3-2.2
		c2.9-2.9,2.9-7.7,0-10.6l-2.5-2.5l17.2-17.2c2.9-2.9,2.9-7.7,0-10.6c-2.9-2.9-7.7-2.9-10.6,0l-17.2,17.2l-18.4-18.4l17.2-17.2
		c2.9-2.9,2.9-7.7,0-10.6c-2.9-2.9-7.7-2.9-10.6,0l-17.2,17.2l-18.4-18.4L151.4,147.8L151.4,147.8z"/>
	<path class="st0" d="M255.5,340.1c0,0,58,58,58,58c1.4,1.4,3.3,2.2,5.3,2.2s3.9-0.8,5.3-2.2l44.1-44.1c2.9-2.9,2.9-7.7,0-10.6
		l-65.8-65.8c-2.9-2.9-7.7-2.9-10.6,0s-2.9,7.7,0,10.6l60.4,60.4l-33.5,33.5l-18.4-18.4l17.2-17.2c2.9-2.9,2.9-7.7,0-10.6
		c-2.9-2.9-7.7-2.9-10.6,0l-17.2,17.2l-18.4-18.4l17.2-17.2c2.9-2.9,2.9-7.7,0-10.6c-2.9-2.9-7.7-2.9-10.6,0l-17.2,17.2l-2.5-2.5
		c-2.9-2.9-7.7-2.9-10.6,0s-2.9,7.7,0,10.6L255.5,340.1L255.5,340.1z"/>
	<path class="st0" d="M107.7,399.8c1,0,2-0.2,2.9-0.6l65.6-28c0,0,0.1-0.1,0.1-0.1c0.1,0,0.1-0.1,0.2-0.1c0.1-0.1,0.3-0.1,0.4-0.2
		c0.1,0,0.2-0.1,0.2-0.1c0.1-0.1,0.3-0.1,0.4-0.2c0.1-0.1,0.2-0.1,0.3-0.2c0.1-0.1,0.2-0.1,0.3-0.2c0.2-0.2,0.4-0.3,0.5-0.5
		l162.1-162.1c0,0,19.1-19.1,19.1-19.1c6.4-6.4,10-15,10-24.1c0-9.1-3.5-17.7-10-24.1s-15-10-24.1-10c-9.1,0-17.7,3.5-24.1,10
		l-19.1,19.1c0,0-162.1,162.1-162.1,162.1c-0.2,0.2-0.3,0.4-0.5,0.5c-0.1,0.1-0.1,0.2-0.2,0.3c-0.1,0.1-0.1,0.2-0.2,0.3
		c-0.1,0.1-0.2,0.3-0.2,0.4c0,0.1-0.1,0.2-0.1,0.2c-0.1,0.1-0.1,0.3-0.2,0.4c0,0.1-0.1,0.1-0.1,0.2l0,0.1c0,0-28,65.7-28,65.7
		c-1.2,2.8-0.6,6.1,1.6,8.2C103.8,399.1,105.7,399.8,107.7,399.8L107.7,399.8z M297.8,175.1l27.1,27.1L173.4,353.7l-27.1-27.1
		L297.8,175.1z M322.2,150.8c3.6-3.6,8.4-5.6,13.5-5.6c5.1,0,9.9,2,13.5,5.6c3.6,3.6,5.6,8.4,5.6,13.5c0,5.1-2,9.9-5.6,13.5
		l-13.8,13.8l-27.1-27.1L322.2,150.8L322.2,150.8z M138.3,339.7l22,22l-38.4,16.4L138.3,339.7z"/>
</g>
</svg>
