<?xml version="1.0" encoding="utf-8"?>
<!-- Generator: Adobe Illustrator 21.1.0, SVG Export Plug-In . SVG Version: 6.00 Build 0)  -->
<svg version="1.1" id="Layer_1" xmlns="http://www.w3.org/2000/svg" xmlns:xlink="http://www.w3.org/1999/xlink" x="0px" y="0px"
	 viewBox="0 0 470.5 470.5" style="enable-background:new 0 0 470.5 470.5;" xml:space="preserve">
<style type="text/css">
	.st0{fill:#FFFFFF;}
</style>
<g>
	<path class="st0" d="M363.9,127.2c-78.7,0-106.6,51.1-106.6,94.9v153.2c0,43.8,27.9,94.9,106.6,94.9s106.6-51.1,106.6-94.9V222.1
		C470.5,178.4,442.6,127.2,363.9,127.2z M455.5,375.3c0,9.2-1.8,32.7-18.2,51.9c-15.8,18.6-40.5,28-73.4,28s-57.6-9.4-73.4-28
		c-16.4-19.2-18.2-42.7-18.2-51.9V222.1c0-9.2,1.8-32.7,18.2-51.9c15.8-18.6,40.5-28,73.4-28s57.6,9.4,73.4,28
		c16.4,19.2,18.2,42.7,18.2,51.9V375.3z"/>
	<path class="st0" d="M299.4,15.2c31.4,0,57,25.6,57,57v32.5c0,4.1,3.4,7.5,7.5,7.5s7.5-3.4,7.5-7.5V72.3c0-39.7-32.3-72-72-72
		c-39.7,0-72,32.1-72,71.6v199.7c0,31.2-25.6,56.6-57,56.6s-57-25.6-57-57v-59.7c54.8-3.9,98.3-49.7,98.3-105.5
		c0-58.3-47.5-105.8-105.8-105.8S0,47.7,0,106c0,55.8,43.4,101.7,98.3,105.5v59.7c0,39.7,32.3,72,72,72s72-32.1,72-71.6V71.9
		C242.3,40.6,267.9,15.2,299.4,15.2z M15,106c0-50.1,40.7-90.8,90.8-90.8S196.6,56,196.6,106s-40.7,90.8-90.8,90.8S15,156.1,15,106z
		"/>
	<path class="st0" d="M105.8,127.5c-3.1,0-5.6-2.5-5.6-5.6c0-4.1-3.4-7.5-7.5-7.5s-7.5,3.4-7.5,7.5c0,8.7,5.5,16.2,13.1,19.2v3.2
		c0,4.1,3.4,7.5,7.5,7.5c4.1,0,7.5-3.4,7.5-7.5v-3.2c7.7-3,13.1-10.5,13.1-19.2c0-14.5-11.8-20-17.4-22.6c-6.9-3.2-8.8-5.2-8.8-9.1
		c0-3.1,2.5-5.6,5.6-5.6s5.6,2.5,5.6,5.6c0,4.1,3.4,7.5,7.5,7.5s7.5-3.4,7.5-7.5c0-8.7-5.5-16.2-13.1-19.2v-3.2
		c0-4.1-3.4-7.5-7.5-7.5c-4.1,0-7.5,3.4-7.5,7.5V71c-7.7,3-13.1,10.5-13.1,19.2c0,14.5,11.8,20,17.4,22.6c6.9,3.2,8.8,5.2,8.8,9.1
		C111.4,125,108.9,127.5,105.8,127.5L105.8,127.5z"/>
	<path class="st0" d="M181.6,106c0-41.8-34-75.8-75.8-75.8c-17.3,0-34.2,6-47.6,16.9C44.9,57.9,35.6,72.9,31.9,89.4
		c-0.9,4,1.6,8.1,5.7,9c4,0.9,8.1-1.6,9-5.7c6.2-27.5,31.1-47.4,59.3-47.4c33.5,0,60.8,27.3,60.8,60.8s-27.3,60.8-60.8,60.8
		c-28.2,0-53.1-19.9-59.3-47.4c-0.9-4-4.9-6.6-9-5.7c-4,0.9-6.6,4.9-5.7,9c3.7,16.5,13.1,31.5,26.3,42.2
		c13.4,10.9,30.4,16.9,47.6,16.9C147.6,181.8,181.6,147.8,181.6,106z"/>
	<path class="st0" d="M371.4,291.2v-26.1c11.1-3.3,19.3-13.6,19.3-25.7v-35.6c0-12.2-8.2-22.5-19.3-25.7v-13.3
		c0-4.1-3.4-7.5-7.5-7.5s-7.5,3.4-7.5,7.5v13.3c-11.1,3.3-19.3,13.6-19.3,25.7v35.6c0,12.2,8.2,22.5,19.3,25.7v26.1h-61.6
		c-4.1,0-7.5,3.4-7.5,7.5s3.4,7.5,7.5,7.5H433c4.1,0,7.5-3.4,7.5-7.5s-3.4-7.5-7.5-7.5L371.4,291.2L371.4,291.2z M352.1,239.4v-35.6
		c0-6.5,5.3-11.8,11.8-11.8s11.8,5.3,11.8,11.8v35.6c0,6.5-5.3,11.8-11.8,11.8S352.1,245.9,352.1,239.4z"/>
</g>
</svg>
