<?xml version="1.0" encoding="utf-8"?>
<!-- Generator: Adobe Illustrator 21.1.0, SVG Export Plug-In . SVG Version: 6.00 Build 0)  -->
<svg version="1.1" id="Layer_1" xmlns="http://www.w3.org/2000/svg" xmlns:xlink="http://www.w3.org/1999/xlink" x="0px" y="0px"
	 viewBox="0 0 512 512" style="enable-background:new 0 0 512 512;" xml:space="preserve">
<style type="text/css">
	.st0{fill:#FFFFFF;}
</style>
<g>
	<g>
		<path class="st0" d="M504,4.3H8c-4.4,0-8,3.6-8,8v487.4c0,4.4,3.6,8,8,8h496c4.4,0,8-3.6,8-8V12.3C512,7.9,508.4,4.3,504,4.3z
			 M496,491.7H16V20.3H496L496,491.7L496,491.7z"/>
	</g>
</g>
<g>
	<g>
		<path class="st0" d="M469.2,122.4V55c0-4.4-3.6-8-8-8h-98.3H256H149.1H50.8c-4.4,0-8,3.6-8,8v94.1v102.6v74.3
			c-12.3,3.5-21.4,14.8-21.4,28.3c0,13.4,9.1,24.8,21.4,28.3V457c0,4.4,3.6,8,8,8h98.3H256h106.9h98.3c4.4,0,8-3.6,8-8V354.3V251.7
			v-75.9c10.2-4.7,17.1-15.1,17.1-26.7S479.4,127.2,469.2,122.4z M370.9,63.1h82.3V120c-11.8,1.5-21.4,10-24.5,21.1h-57.8V63.1z
			 M370.9,157.1h57.8c0.7,2.6,1.8,5.1,3.3,7.4l-55.9,61c-1.7-0.8-3.4-1.5-5.2-2L370.9,157.1L370.9,157.1z M264,63.1h90.9v78H264
			L264,63.1L264,63.1z M264,157.1h90.9v66.3c-9.8,2.8-17.5,10.5-20.3,20.3H264V157.1z M264,259.7h70.6c0.6,2,1.4,3.9,2.3,5.8
			L270.8,329c-2.1-1.3-4.4-2.2-6.8-2.9V259.7z M157.1,63.1H248v78h-90.9V63.1z M157.1,157.1H248v86.6h-70.6
			c-2.8-9.8-10.5-17.5-20.3-20.3L157.1,157.1L157.1,157.1z M175.1,265.5c1-1.8,1.8-3.8,2.3-5.8H248v66.3c-2.4,0.7-4.7,1.7-6.8,2.9
			L175.1,265.5z M230.1,340.5c-1,1.8-1.8,3.8-2.3,5.8h-70.6V280c2.4-0.7,4.7-1.7,6.8-2.9L230.1,340.5z M58.8,63.1h82.3v78H58.8V63.1
			z M58.8,157.1h82.3v66.3c-9.8,2.8-17.5,10.5-20.3,20.3h-62V157.1z M58.8,259.7h62.1c0.7,2.6,1.8,5.1,3.2,7.3l-57.5,62.5
			c-2.4-1.5-5-2.7-7.8-3.5C58.8,326.1,58.8,259.7,58.8,259.7z M37.4,354.3c0-7.4,6-13.4,13.4-13.4c4,0,7.7,1.8,10.3,4.8c0,0,0,0,0,0
			c2,2.4,3.1,5.4,3.1,8.5c0,7.4-6,13.4-13.4,13.4C43.4,367.7,37.4,361.7,37.4,354.3z M141.1,448.9H58.8v-66.3
			c9.8-2.8,17.5-10.5,20.3-20.3h62V448.9z M141.1,346.3H79c-0.5-1.6-1-3.2-1.8-4.7l58.6-63.7c1.7,0.8,3.4,1.5,5.2,2L141.1,346.3
			L141.1,346.3z M140.1,261.5C140.1,261.5,140.1,261.5,140.1,261.5c-2.8-2.6-4.3-6.1-4.3-9.8c0-7.4,6-13.4,13.4-13.4
			s13.4,6,13.4,13.4c0,3.4-1.3,6.7-3.7,9.2c0,0,0,0,0,0c-2.6,2.7-6,4.1-9.6,4.1C145.8,265.1,142.6,263.8,140.1,261.5z M248,448.9
			h-90.9v-86.6h70.6c2.8,9.8,10.5,17.5,20.3,20.3V448.9z M242.6,354.3c0-3.5,1.3-6.7,3.7-9.2c0,0,0,0,0,0c2.6-2.7,6-4.1,9.6-4.1
			s7.1,1.5,9.6,4.1c0,0,0,0,0,0c2.4,2.5,3.7,5.8,3.7,9.2c0,7.4-6,13.4-13.4,13.4C248.6,367.7,242.6,361.7,242.6,354.3z M354.9,448.9
			H264v-66.3c9.8-2.8,17.5-10.5,20.3-20.3h70.6L354.9,448.9L354.9,448.9z M354.9,346.3h-70.6c-0.6-2-1.4-3.9-2.3-5.8l66.1-63.5
			c2.1,1.3,4.4,2.2,6.8,2.9V346.3z M353.3,261C353.3,261,353.3,261,353.3,261c-2.4-2.5-3.7-5.8-3.7-9.2c0-7.4,6-13.4,13.4-13.4
			c3.3,0,6.5,1.3,9,3.5c0,0,0,0,0,0c0,0,0,0,0,0c2.8,2.6,4.3,6.1,4.3,9.8c0,7.4-6,13.4-13.4,13.4C359.2,265.1,355.8,263.6,353.3,261
			z M453.2,448.9h-82.3v-86.6h82.3V448.9z M453.2,346.3h-82.3V280c9.8-2.8,17.5-10.5,20.3-20.3h62V346.3z M453.2,243.7h-62.1
			c-0.7-2.6-1.8-5.1-3.3-7.4l55.9-61c3,1.5,6.1,2.5,9.5,2.9L453.2,243.7L453.2,243.7z M459.6,162.2
			C459.6,162.2,459.6,162.2,459.6,162.2c-0.9,0.2-1.8,0.3-2.7,0.3c-3.3,0-6.5-1.3-9-3.5c0,0,0,0,0,0c0,0,0,0,0,0
			c-2.8-2.6-4.3-6.1-4.3-9.8c0-7.4,6-13.4,13.4-13.4c0.9,0,1.8,0.1,2.7,0.3c0,0,0,0,0,0c6.2,1.3,10.7,6.8,10.7,13.1
			C470.3,155.4,465.8,160.9,459.6,162.2z"/>
	</g>
</g>
</svg>
