<?xml version="1.0" encoding="iso-8859-1"?>
<!-- Generator: Adobe Illustrator 19.0.0, SVG Export Plug-In . SVG Version: 6.00 Build 0)  -->
<svg version="1.1" id="Layer_1" xmlns="http://www.w3.org/2000/svg" xmlns:xlink="http://www.w3.org/1999/xlink" x="0px" y="0px"
	 viewBox="0 0 512 512" style="enable-background:new 0 0 512 512;" xml:space="preserve">
<g>
	<g>
		<path d="M118.195,318.012c-26.595,0-48.232,21.636-48.232,48.232c0,26.595,21.637,48.232,48.232,48.232
			c26.595,0,48.232-21.637,48.232-48.232C166.427,339.649,144.79,318.012,118.195,318.012z M118.195,398.576
			c-17.827,0-32.331-14.505-32.331-32.331s14.505-32.331,32.331-32.331s32.331,14.505,32.331,32.331
			S136.021,398.576,118.195,398.576z"/>
	</g>
</g>
<g>
	<g>
		<path d="M116.075,416.452c-32.772,0-59.434,26.661-59.434,59.433v28.164c0,4.392,3.56,7.95,7.95,7.95h102.366
			c4.325,0,7.856-3.457,7.948-7.781l0.602-28.163c0.001-0.056,0.002-0.112,0.002-0.17
			C175.509,443.114,148.847,416.452,116.075,416.452z M159.175,496.099H72.541v-20.213c0-24.005,19.529-43.533,43.534-43.533
			c23.977,0,43.488,19.485,43.534,43.45L159.175,496.099z"/>
	</g>
</g>
<g>
	<g>
		<path d="M393.805,318.012c-26.595,0-48.232,21.636-48.232,48.232c0,26.595,21.637,48.232,48.232,48.232
			c26.595,0,48.232-21.637,48.232-48.232C442.037,339.649,420.401,318.012,393.805,318.012z M393.805,398.576
			c-17.827,0-32.331-14.505-32.331-32.331s14.505-32.331,32.331-32.331c17.827,0,32.331,14.505,32.331,32.331
			S411.632,398.576,393.805,398.576z"/>
	</g>
</g>
<g>
	<g>
		<path d="M395.925,416.452c-32.772,0-59.434,26.661-59.434,59.433c0,0.057,0.001,0.113,0.002,0.17l0.602,28.163
			c0.092,4.324,3.623,7.781,7.948,7.781H447.41c4.392,0,7.95-3.559,7.95-7.95v-28.163
			C455.36,443.114,428.698,416.452,395.925,416.452z M352.824,496.099l-0.434-20.294c0.042-23.969,19.556-43.452,43.534-43.452
			c24.006,0,43.534,19.529,43.534,43.533v20.214H352.824z"/>
	</g>
</g>
<g>
	<g>
		<path d="M257.518,318.012c-26.595,0-48.232,21.636-48.232,48.232c0,26.595,21.636,48.232,48.232,48.232
			c26.595,0,48.232-21.637,48.232-48.232C305.75,339.649,284.113,318.012,257.518,318.012z M257.518,398.576
			c-17.827,0-32.331-14.505-32.331-32.331s14.505-32.331,32.331-32.331c17.827,0,32.331,14.505,32.331,32.331
			S275.345,398.576,257.518,398.576z"/>
	</g>
</g>
<g>
	<g>
		<path d="M255.398,416.452c-32.772,0-59.433,26.661-59.433,59.433v28.164c0,4.392,3.559,7.95,7.95,7.95H306.28
			c4.325,0,7.856-3.457,7.948-7.781l0.602-28.163c0.001-0.056,0.002-0.112,0.002-0.17
			C314.832,443.114,288.17,416.452,255.398,416.452z M298.498,496.099h-86.633v-20.213c0-24.005,19.529-43.533,43.533-43.533
			c23.977,0,43.488,19.485,43.534,43.45L298.498,496.099z"/>
	</g>
</g>
<g>
	<g>
		<path d="M316.174,83.004c-0.533-3.304-1.348-6.589-2.422-9.762c-1.409-4.161-5.925-6.39-10.08-4.982
			c-4.161,1.409-6.392,5.921-4.983,10.08c0.793,2.341,1.393,4.763,1.787,7.199c0.631,3.906,4.006,6.685,7.84,6.685
			c0.42,0,0.847-0.033,1.276-0.103C313.927,91.421,316.874,87.34,316.174,83.004z"/>
	</g>
</g>
<g>
	<g>
		<path d="M302.799,53.735C291.158,39.796,274.1,31.801,256,31.801c-4.392,0-7.95,3.559-7.95,7.95c0,4.392,3.559,7.95,7.95,7.95
			c13.373,0,25.983,5.914,34.593,16.226c1.572,1.883,3.831,2.854,6.107,2.854c1.797,0,3.604-0.605,5.092-1.848
			C305.163,62.12,305.613,57.105,302.799,53.735z"/>
	</g>
</g>
<g>
	<g>
		<path d="M387.445,267.13H263.95V244.87h25.971c4.392,0,7.95-3.559,7.95-7.95v-29.681v-29.681c0-0.667-0.091-1.311-0.246-1.931
			c30.297-15.279,51.128-46.686,51.128-82.872C348.754,41.609,307.145,0,256,0c-51.145,0-92.754,41.609-92.754,92.754
			c0,36.186,20.831,67.593,51.128,82.872c-0.155,0.619-0.246,1.264-0.246,1.931v29.681v29.681c0,4.392,3.559,7.95,7.95,7.95h25.971
			v22.261H116.075c-4.392,0-7.95,3.559-7.95,7.95v21.201c0,4.392,3.559,7.95,7.95,7.95c4.392,0,7.95-3.559,7.95-7.95v-13.25H248.05
			v13.25c0,4.392,3.559,7.95,7.95,7.95c4.392,0,7.95-3.559,7.95-7.95v-13.25h115.544v13.25c0,4.392,3.559,7.95,7.95,7.95
			c4.392,0,7.95-3.559,7.95-7.95v-21.201C395.395,270.689,391.837,267.13,387.445,267.13z M281.971,199.288h-51.942v-13.781H256
			h25.971V199.288z M242.75,168.44v-59.255h26.501v59.255c-4.308,0.753-8.731,1.167-13.251,1.167S247.057,169.192,242.75,168.44z
			 M226.849,88.513v4.77h-9.01c-4.392,0-7.95,3.559-7.95,7.95c0,4.392,3.559,7.95,7.95,7.95h9.01v54.663
			c-27.96-11.507-47.702-39.033-47.702-71.094c0-42.377,34.476-76.853,76.853-76.853s76.853,34.476,76.853,76.853
			c0,32.062-19.742,59.587-47.702,71.094v-54.663h9.01c4.392,0,7.95-3.559,7.95-7.95c0-4.392-3.559-7.95-7.95-7.95h-9.01v-4.77
			c0-4.392-3.559-7.95-7.95-7.95c-4.392,0-7.95,3.559-7.95,7.95v4.77H242.75v-4.77c0-4.392-3.559-7.95-7.95-7.95
			C230.407,80.563,226.849,84.122,226.849,88.513z M256,228.969h-25.971v-13.781h51.942v13.781H256z"/>
	</g>
</g>
<g>
	<g>
		<path d="M128.036,59.438h-32.98c-4.392,0-7.95,3.559-7.95,7.95c0,4.392,3.559,7.95,7.95,7.95h32.98c4.392,0,7.95-3.559,7.95-7.95
			C135.986,62.996,132.428,59.438,128.036,59.438z"/>
	</g>
</g>
<g>
	<g>
		<path d="M142.867,88.751c-3.106-3.104-8.139-3.104-11.245,0l-20.988,20.988c-3.105,3.106-3.105,8.139,0,11.244
			c1.553,1.552,3.588,2.328,5.622,2.328c2.034,0,4.07-0.776,5.622-2.328l20.988-20.988
			C145.972,96.889,145.972,91.856,142.867,88.751z"/>
	</g>
</g>
<g>
	<g>
		<path d="M142.654,34.782l-20.988-20.988c-3.106-3.104-8.139-3.104-11.244,0c-3.105,3.106-3.105,8.139,0,11.244l20.987,20.988
			c1.553,1.552,3.588,2.328,5.622,2.328s4.07-0.776,5.622-2.328C145.759,42.92,145.759,37.887,142.654,34.782z"/>
	</g>
</g>
<g>
	<g>
		<path d="M425.424,59.438h-32.98c-4.392,0-7.95,3.56-7.95,7.95c0,4.392,3.559,7.95,7.95,7.95h32.98c4.392,0,7.95-3.559,7.95-7.95
			C433.375,62.996,429.816,59.438,425.424,59.438z"/>
	</g>
</g>
<g>
	<g>
		<path d="M409.846,109.739l-20.988-20.988c-3.106-3.104-8.139-3.104-11.244,0c-3.105,3.106-3.105,8.139,0,11.244l20.987,20.988
			c1.553,1.552,3.588,2.328,5.622,2.328c2.034,0,4.069-0.776,5.622-2.328C412.951,117.877,412.951,112.844,409.846,109.739z"/>
	</g>
</g>
<g>
	<g>
		<path d="M410.059,13.794c-3.106-3.104-8.139-3.104-11.244,0l-20.988,20.988c-3.105,3.106-3.105,8.139,0,11.244
			c1.553,1.552,3.587,2.328,5.621,2.328s4.07-0.776,5.622-2.328l20.988-20.988C413.164,21.932,413.164,16.899,410.059,13.794z"/>
	</g>
</g>
<g>
</g>
<g>
</g>
<g>
</g>
<g>
</g>
<g>
</g>
<g>
</g>
<g>
</g>
<g>
</g>
<g>
</g>
<g>
</g>
<g>
</g>
<g>
</g>
<g>
</g>
<g>
</g>
<g>
</g>
</svg>
