<?xml version="1.0" encoding="iso-8859-1"?>
<!-- Generator: Adobe Illustrator 19.0.0, SVG Export Plug-In . SVG Version: 6.00 Build 0)  -->
<svg version="1.1" id="Layer_1" xmlns="http://www.w3.org/2000/svg" xmlns:xlink="http://www.w3.org/1999/xlink" x="0px" y="0px"
	 viewBox="0 0 512 512" style="enable-background:new 0 0 512 512;" xml:space="preserve">
<g>
	<g>
		<path d="M483.976,348.464l-89.843-89.844c-31.126-31.125-79.137-36.841-116.513-14.691l-9.548-9.549
			c22.151-37.377,16.434-85.389-14.691-116.513l-89.844-89.843C145.464,9.953,121.401,0.001,95.78,0.001
			c-25.621,0-49.685,9.953-67.756,28.025C9.953,46.097,0,70.159,0,95.78c0,25.621,9.952,49.685,28.023,67.756l89.843,89.842
			c18.072,18.072,42.136,28.024,67.757,28.024c17.309,0,34.032-4.593,48.766-13.323l9.54,9.54
			c-22.15,37.377-16.433,85.389,14.692,116.512l89.842,89.843c18.072,18.072,42.135,28.024,67.756,28.024
			c25.621,0,49.685-9.953,67.756-28.024C502.046,465.903,512,441.841,512,416.219C512,390.599,502.046,366.535,483.976,348.464z
			 M185.624,265.52c-21.38,0.002-41.455-8.299-56.527-23.371l-89.842-89.843c-31.169-31.169-31.169-81.883,0-113.051
			c31.166-31.169,81.884-31.169,113.05,0l89.844,89.842c24.983,24.982,30.345,63.005,14.259,93.619l-11.912-11.912
			c10.115-23.768,4.914-51.985-13.576-70.477l-89.844-89.843c-24.977-24.975-65.615-24.977-90.593,0
			c-24.975,24.976-24.975,65.615,0,90.592l89.843,89.842c12.248,12.248,28.766,18.67,45.431,18.67c8.495,0,17.028-1.67,25.054-5.085
			l11.908,11.908C211.334,262.388,198.681,265.52,185.624,265.52z M135.835,169.527l62.518,62.518
			c-16.398,4.437-34.472-0.033-46.795-12.356l-89.843-89.843c-18.783-18.783-18.783-49.347,0-68.131
			c18.783-18.783,49.347-18.783,68.13,0l89.844,89.842c12.323,12.326,16.794,30.399,12.355,46.797l-62.518-62.518
			c-9.29-9.289-24.402-9.288-33.69,0c-4.5,4.499-6.979,10.482-6.979,16.846C128.858,159.045,131.337,165.028,135.835,169.527z
			 M241.112,252.343l-23.052-23.053l-0.068-0.068c-0.007-0.007-0.015-0.015-0.021-0.021l-70.906-70.905
			c-1.499-1.5-2.325-3.493-2.325-5.615c0-2.121,0.826-4.115,2.326-5.615c3.096-3.096,8.134-3.096,11.229,0l70.903,70.903
			c0.011,0.011,0.021,0.02,0.031,0.031l0.06,0.06l23.052,23.052l18.543,18.544c0.003,0.003,0.007,0.006,0.011,0.01l0.109,0.109
			c0.001,0.001,0.002,0.002,0.003,0.003l22.923,22.921c0.003,0.003,0.006,0.007,0.01,0.011l0.058,0.058
			c0.012,0.012,0.023,0.023,0.035,0.035l55.928,55.928c1.499,1.5,2.325,3.493,2.325,5.615c0,2.121-0.826,4.115-2.326,5.615
			c-1.499,1.5-3.494,2.326-5.615,2.326s-4.116-0.826-5.615-2.326l-55.927-55.928c-0.012-0.012-0.023-0.023-0.035-0.035l-0.058-0.058
			c-0.003-0.003-0.007-0.006-0.011-0.01l-22.921-22.92c-0.002-0.002-0.005-0.005-0.007-0.007l-0.105-0.105
			c-0.003-0.003-0.006-0.007-0.01-0.011L241.112,252.343z M361.191,327.5l-47.546-47.546c16.398-4.44,34.472,0.032,46.796,12.356
			l89.843,89.844c18.783,18.783,18.783,49.347,0,68.131c-18.783,18.783-49.346,18.783-68.13,0l-89.843-89.843
			c-12.325-12.326-16.796-30.398-12.356-46.797l47.545,47.546c4.5,4.5,10.482,6.978,16.846,6.978c6.363,0,12.346-2.478,16.845-6.978
			c4.5-4.5,6.979-10.482,6.979-16.846C368.168,337.982,365.69,331.999,361.191,327.5z M472.745,472.745
			c-15.071,15.072-35.146,23.373-56.526,23.373s-41.453-8.301-56.525-23.373l-89.843-89.842
			c-24.983-24.983-30.346-63.006-14.259-93.62l11.913,11.913c-10.117,23.767-4.916,51.986,13.576,70.477l89.842,89.843
			c12.489,12.488,28.892,18.732,45.296,18.732s32.807-6.244,45.296-18.732c24.975-24.976,24.975-65.615,0-90.592l-89.843-89.844
			c-18.492-18.491-46.71-23.693-70.478-13.576l-11.913-11.912c30.614-16.086,68.637-10.724,93.62,14.258l89.843,89.843
			c15.072,15.072,23.373,35.146,23.373,56.525S487.817,457.673,472.745,472.745z"/>
	</g>
</g>
<g>
	<g>
		<path d="M391.509,116.257c-3.102-3.101-8.13-3.101-11.231,0l-44.47,44.47c-3.101,3.101-3.101,8.13,0,11.23
			c1.55,1.551,3.583,2.326,5.615,2.326s4.065-0.775,5.616-2.326l44.47-44.47C394.61,124.385,394.61,119.357,391.509,116.257z"/>
	</g>
</g>
<g>
	<g>
		<path d="M307.541,81.476c-4.387,0-7.941,3.555-7.941,7.941v62.89c0,4.386,3.555,7.941,7.941,7.941
			c4.387,0,7.941-3.555,7.941-7.941v-62.89C315.482,85.031,311.928,81.476,307.541,81.476z"/>
	</g>
</g>
<g>
	<g>
		<path d="M418.347,192.282h-62.89c-4.386,0-7.941,3.555-7.941,7.941c0,4.386,3.554,7.941,7.941,7.941h62.89
			c4.387,0,7.941-3.555,7.941-7.941C426.289,195.838,422.734,192.282,418.347,192.282z"/>
	</g>
</g>
<g>
</g>
<g>
</g>
<g>
</g>
<g>
</g>
<g>
</g>
<g>
</g>
<g>
</g>
<g>
</g>
<g>
</g>
<g>
</g>
<g>
</g>
<g>
</g>
<g>
</g>
<g>
</g>
<g>
</g>
</svg>
