<?xml version="1.0" encoding="utf-8"?>
<!-- Generator: Adobe Illustrator 21.1.0, SVG Export Plug-In . SVG Version: 6.00 Build 0)  -->
<svg version="1.1" id="Layer_1" xmlns="http://www.w3.org/2000/svg" xmlns:xlink="http://www.w3.org/1999/xlink" x="0px" y="0px"
	 viewBox="0 0 512 512" style="enable-background:new 0 0 512 512;" xml:space="preserve">
<style type="text/css">
	.st0{fill:#FFFFFF;}
</style>
<g>
	<g>
		<path class="st0" d="M434.4,312.3c46-32.9,73.3-84,73.3-138.2c0-96-83.9-174.1-187-174.1C260,0,203.3,27.3,168.2,73.3H12.4
			c-4.5,0-8.1,3.6-8.1,8.1V422c0,4.5,3.6,8.1,8.1,8.1h60.9v73.8c0,3.3,1.9,6.2,4.9,7.4c1,0.4,2.1,0.6,3.1,0.6c2.1,0,4.1-0.8,5.6-2.3
			l81.7-79.6h145.5c4.5,0,8.1-3.6,8.1-8.1v-73.9c15.2-0.1,30.3-1.9,44.9-5.4l82.1,30.8c0.9,0.3,1.9,0.5,2.8,0.5c2.3,0,4.4-0.9,6-2.7
			c2.2-2.5,2.7-6.1,1.2-9L434.4,312.3z M306.1,413.9H165.5c-2.1,0-4.1,0.8-5.6,2.3l-70.3,68.5V422c0-4.5-3.6-8.1-8.1-8.1H20.5V89.5
			h136.7c-9.8,16.4-16.7,34.4-20.4,52.8H72.8c-4.5,0-8.1,3.6-8.1,8.1v25.9c0,4.5,3.6,8.1,8.1,8.1H134c0.9,15.1,4,29.9,9,44.2H72.8
			c-4.5,0-8.1,3.6-8.1,8.1v25.9c0,4.5,3.6,8.1,8.1,8.1H165c12.3,17.2,27.7,32.1,45.5,44.2H72.8c-4.5,0-8.1,3.6-8.1,8.1v25.9
			c0,4.5,3.6,8.1,8.1,8.1h181.1c4.5,0,8.1-3.6,8.1-8.1v-9.3c14.3,4.4,29.1,7.2,44.2,8.2L306.1,413.9L306.1,413.9z M134.4,158.5
			c-0.3,3.2-0.6,6.5-0.7,9.7H80.8v-9.7H134.4z M149.7,244.7c1.6,3.3,3.2,6.5,5,9.7H80.8v-9.7H149.7z M239.5,330.9
			c2.1,0.9,4.2,1.8,6.3,2.7v7H80.8v-9.7H239.5z M370.5,326.7c-1.5-0.6-3.2-0.7-4.8-0.3c-14.6,3.7-29.8,5.6-45.1,5.6
			c-1.9,0-3.8,0-6.2-0.1h0c-20-0.7-39.4-4.5-57.8-11.3c-4.1-1.5-8.1-3.2-12.1-5c-28.2-13-51.9-32.9-68.7-57.5c0,0,0,0,0,0
			c0,0,0,0,0,0c0,0,0,0,0,0c-5.3-7.8-9.8-16-13.6-24.5c0,0,0,0,0,0c0,0,0-0.1,0-0.1c0,0,0,0,0,0c-8-18.2-12.2-37.4-12.4-57.2
			c0,0,0,0,0,0v0l0-0.7c0-0.4,0-0.9,0-1.3c0-7.5,0.6-15,1.7-22.5v0c3.6-23.6,12.8-45.6,27.2-65.5c31.8-43.8,84.9-70,141.9-70
			c94.2,0,170.8,70.8,170.8,157.9c0,51-26.9,99.2-72,128.8c-3.4,2.3-4.6,6.7-2.8,10.4l19,37.9L370.5,326.7z"/>
	</g>
</g>
<g>
	<g>
		<path class="st0" d="M459.8,112.1c-2.1-3.9-7-5.4-10.9-3.3c-3.9,2.1-5.4,7-3.3,10.9c9.1,17.1,13.7,35.4,13.7,54.4
			c0,4.5,3.6,8.1,8.1,8.1s8.1-3.6,8.1-8.1C475.4,152.4,470.1,131.5,459.8,112.1z"/>
	</g>
</g>
<g>
	<g>
		<path class="st0" d="M431.9,75.6c-29.4-27.9-68.9-43.3-111.2-43.3c-4.5,0-8.1,3.6-8.1,8.1c0,4.5,3.6,8.1,8.1,8.1
			c38.1,0,73.6,13.8,100.1,38.9c1.6,1.5,3.6,2.2,5.6,2.2c2.1,0,4.3-0.8,5.9-2.5C435.2,83.8,435.1,78.7,431.9,75.6z"/>
	</g>
</g>
<g>
	<g>
		<path class="st0" d="M312.1,155.2c-17.5,0-31.8,14.3-31.8,31.8s14.3,31.8,31.8,31.8s31.8-14.3,31.8-31.8
			C343.8,169.5,329.6,155.2,312.1,155.2z M312.1,202.6c-8.6,0-15.6-7-15.6-15.6c0-8.6,7-15.6,15.6-15.6c8.6,0,15.6,7,15.6,15.6
			C327.7,195.6,320.7,202.6,312.1,202.6z"/>
	</g>
</g>
<g>
	<g>
		<path class="st0" d="M398.3,155.2c-17.5,0-31.8,14.3-31.8,31.8s14.3,31.8,31.8,31.8s31.8-14.3,31.8-31.8
			C430.1,169.5,415.8,155.2,398.3,155.2z M398.3,202.6c-8.6,0-15.6-7-15.6-15.6c0-8.6,7-15.6,15.6-15.6s15.6,7,15.6,15.6
			C413.9,195.6,406.9,202.6,398.3,202.6z"/>
	</g>
</g>
<g>
	<g>
		<path class="st0" d="M225.8,155.2c-17.5,0-31.8,14.3-31.8,31.8s14.3,31.8,31.8,31.8s31.8-14.3,31.8-31.8S243.4,155.2,225.8,155.2z
			 M225.8,202.6c-8.6,0-15.6-7-15.6-15.6c0-8.6,7-15.6,15.6-15.6c8.6,0,15.6,7,15.6,15.6C241.4,195.6,234.4,202.6,225.8,202.6z"/>
	</g>
</g>
</svg>
