<?xml version="1.0" encoding="iso-8859-1"?>
<!-- Generator: Adobe Illustrator 19.0.0, SVG Export Plug-In . SVG Version: 6.00 Build 0)  -->
<svg version="1.1" id="Layer_1" xmlns="http://www.w3.org/2000/svg" xmlns:xlink="http://www.w3.org/1999/xlink" x="0px" y="0px"
	 viewBox="0 0 512 512" style="enable-background:new 0 0 512 512;" xml:space="preserve">
<g>
	<g>
		<path d="M419.782,147.724l26.48-26.48c3.105-3.106,3.105-8.139,0-11.244l-38.978-38.978c-1.49-1.49-3.513-2.328-5.621-2.328
			c-2.108,0-4.131,0.837-5.621,2.328l-33.598,33.599c-23.083-11.939-48.269-19.583-74.127-22.589v-32.21h17.491
			c4.391,0,7.95-3.559,7.95-7.95V7.95c0-4.392-3.56-7.95-7.95-7.95h-84.803c-4.391,0-7.95,3.559-7.95,7.95v33.921
			c0,4.392,3.56,7.95,7.95,7.95h17.491V82.01C131.24,94.401,47.688,185.761,47.688,296.282C47.688,415.229,144.459,512,263.406,512
			s215.718-96.771,215.718-215.718C479.125,240.417,458.104,187.981,419.782,147.724z M401.663,87.888l27.734,27.734l-20.981,20.981
			c-9.804-8.909-20.403-16.874-31.637-23.829L401.663,87.888z M228.955,33.921V15.901h68.903v18.021h-17.491h-33.921H228.955z
			 M272.416,49.822v26.501h-18.021V49.822H272.416z M263.406,496.099c-110.18,0-199.818-89.637-199.818-199.818
			S153.225,96.464,263.406,96.464c33.811,0,67.23,8.61,96.644,24.898c15.664,8.673,30.124,19.438,42.977,31.995
			c0.001,0.001,0.002,0.003,0.003,0.004c38.816,37.927,60.192,88.684,60.192,142.92
			C463.224,406.462,373.586,496.099,263.406,496.099z"/>
	</g>
</g>
<g>
	<g>
		<path d="M263.406,241.689c-11.897,0-23.211,3.783-32.575,10.774l-30.895-30.896c17.708-15.091,39.949-23.34,63.47-23.34
			c4.391,0,7.95-3.559,7.95-7.95v-46.642c0-4.392-3.56-7.95-7.95-7.95c-9.536,0-19.095,0.844-28.41,2.507
			c-0.003,0.001-0.007,0.001-0.011,0.001c-2.628,0.47-5.265,1.009-7.84,1.605c0,0-0.002,0.001-0.003,0.001
			c-8.953,2.066-17.783,4.929-26.246,8.509c-0.001,0.001-0.003,0.001-0.004,0.002c-2.404,1.018-4.799,2.099-7.116,3.217
			c-0.003,0.002-0.006,0.004-0.011,0.005c-2.315,1.115-4.637,2.303-6.898,3.532c-0.005,0.003-0.011,0.004-0.016,0.007
			c-2.265,1.231-4.527,2.532-6.727,3.868c-0.001,0.001-0.002,0.001-0.003,0.002c-1.101,0.669-2.193,1.352-3.278,2.045
			c-0.002,0.001-0.004,0.003-0.006,0.004c-4.304,2.759-8.534,5.767-12.571,8.938c-0.004,0.003-0.008,0.006-0.014,0.01
			c-3.018,2.371-5.987,4.884-8.829,7.466c-2.836,2.577-5.611,5.287-8.251,8.056c-0.005,0.005-0.011,0.01-0.016,0.015
			c-1.767,1.853-3.51,3.772-5.183,5.703c-1.677,1.937-3.326,3.936-4.903,5.942c-0.001,0.002-0.003,0.003-0.004,0.005
			c-1.586,2.017-3.141,4.097-4.623,6.181c-0.001,0.001-0.001,0.002-0.002,0.003c-2.981,4.193-5.79,8.575-8.348,13.024
			c0,0.001-0.001,0.001-0.001,0.002c-2.58,4.486-4.966,9.146-7.093,13.851c0,0.001-0.001,0.002-0.001,0.004
			c-1.605,3.547-3.099,7.205-4.442,10.871c-0.001,0.004-0.002,0.008-0.004,0.013c-0.449,1.225-0.883,2.457-1.303,3.696
			c0,0.001-0.001,0.002-0.001,0.003c-1.263,3.733-2.401,7.561-3.383,11.375c-0.001,0.004-0.002,0.008-0.003,0.013
			c-0.33,1.278-0.642,2.564-0.941,3.855c-1.199,5.194-2.149,10.517-2.823,15.818c0,0.001,0,0.002,0,0.003
			c-0.511,4.021-0.876,8.12-1.08,12.183c-0.139,2.733-0.209,5.511-0.209,8.258c0,4.392,3.56,7.95,7.95,7.95h46.642
			c4.391,0,7.95-3.559,7.95-7.95c0-23.52,8.249-45.762,23.34-63.47l30.896,30.896c-6.991,9.363-10.773,20.677-10.773,32.574
			c0,30.102,24.49,54.592,54.592,54.592c30.102,0,54.592-24.49,54.592-54.592C318,266.177,293.508,241.689,263.406,241.689z
			 M188.645,210.277l-12.902-12.902c-3.105-3.104-8.139-3.104-11.243,0c-3.105,3.106-3.105,8.139,0,11.244l12.901,12.901
			c-16.342,18.746-25.974,42.001-27.672,66.811h-30.794c0.19-3.5,0.499-7.025,0.939-10.486c0-0.001,0-0.001,0-0.002
			c0.607-4.777,1.463-9.569,2.542-14.246c0.269-1.165,0.552-2.325,0.849-3.479c0-0.002,0.001-0.003,0.002-0.005
			c0.883-3.435,1.908-6.881,3.045-10.243c0-0.001,0-0.002,0-0.002c0.378-1.118,0.77-2.228,1.175-3.333
			c0.001-0.002,0.002-0.003,0.002-0.005c1.21-3.303,2.555-6.598,4-9.792c0-0.001,0.001-0.001,0.001-0.002
			c1.914-4.236,4.064-8.432,6.387-12.472v-0.001c2.306-4.009,4.836-7.959,7.523-11.738c0-0.001,0.001-0.001,0.001-0.002
			c1.336-1.877,2.737-3.75,4.166-5.569c0.001-0.001,0.001-0.001,0.002-0.002c1.422-1.81,2.91-3.614,4.424-5.362
			c0.596-0.688,1.208-1.372,1.821-2.053c0.163-0.181,0.322-0.367,0.487-0.548c0.779-0.858,1.569-1.706,2.364-2.539
			c0.002-0.002,0.004-0.005,0.007-0.008c2.383-2.498,4.888-4.944,7.447-7.271c2.561-2.327,5.239-4.592,7.959-6.729
			c0.003-0.002,0.005-0.004,0.007-0.006c3.64-2.859,7.453-5.571,11.332-8.057c0.001-0.001,0.002-0.001,0.003-0.002
			c0.978-0.628,1.966-1.243,2.96-1.847l0.001-0.001c0.001-0.001,0.001-0.001,0.002-0.001c1.98-1.204,4.018-2.376,6.058-3.483
			c0.003-0.002,0.006-0.004,0.01-0.005c2.042-1.109,4.135-2.18,6.225-3.188c0.002-0.001,0.004-0.001,0.006-0.002
			c2.085-1.006,4.24-1.98,6.407-2.896c0.002-0.001,0.004-0.002,0.005-0.003c7.618-3.223,15.568-5.798,23.626-7.659
			c0,0,0.001,0,0.002,0c2.319-0.535,4.696-1.022,7.064-1.445c0.002,0,0.004-0.001,0.006-0.001
			c5.808-1.036,11.722-1.711,17.663-2.033v30.793C230.644,184.302,207.39,193.935,188.645,210.277z M263.406,334.973
			c-21.334,0-38.692-17.357-38.692-38.692c0-10.335,4.024-20.051,11.332-27.359c0.001-0.001,0.002-0.002,0.003-0.004
			c7.307-7.306,17.022-11.33,27.355-11.33c21.334,0,38.691,17.357,38.691,38.692S284.74,334.973,263.406,334.973z"/>
	</g>
</g>
<g>
	<g>
		<path d="M186.083,58.096c-1.484-4.132-6.039-6.278-10.17-4.794c-35.802,12.866-67.774,33.208-95.027,60.462
			c-19.066,19.065-34.921,40.73-47.124,64.39c-2.013,3.902-0.481,8.697,3.422,10.711c1.166,0.6,2.411,0.886,3.638,0.886
			c2.881,0,5.661-1.571,7.073-4.308c11.451-22.201,26.332-42.534,44.236-60.435c25.584-25.585,55.582-44.675,89.16-56.742
			C185.422,66.782,187.569,62.228,186.083,58.096z"/>
	</g>
</g>
<g>
	<g>
		<path d="M134.701,39.71c-2.103-3.855-6.932-5.275-10.787-3.172c-33.686,18.38-63.216,42.72-87.766,72.343
			c-2.804,3.38-2.334,8.393,1.047,11.194c1.484,1.23,3.281,1.83,5.069,1.83c2.284,0,4.553-0.981,6.126-2.877
			c23.257-28.066,51.23-51.123,83.139-68.531C135.384,48.394,136.804,43.565,134.701,39.71z"/>
	</g>
</g>
<g>
</g>
<g>
</g>
<g>
</g>
<g>
</g>
<g>
</g>
<g>
</g>
<g>
</g>
<g>
</g>
<g>
</g>
<g>
</g>
<g>
</g>
<g>
</g>
<g>
</g>
<g>
</g>
<g>
</g>
</svg>
