<?xml version="1.0" encoding="utf-8"?>
<!-- Generator: Adobe Illustrator 21.1.0, SVG Export Plug-In . SVG Version: 6.00 Build 0)  -->
<svg version="1.1" id="Layer_1" xmlns="http://www.w3.org/2000/svg" xmlns:xlink="http://www.w3.org/1999/xlink" x="0px" y="0px"
	 viewBox="0 0 512 512" style="enable-background:new 0 0 512 512;" xml:space="preserve">
<style type="text/css">
	.st0{fill:#FFFFFF;}
</style>
<g>
	<g>
		<path class="st0" d="M363.2,271.1c-3.5-2.8-8.5-2.2-11.3,1.3c-2.9,3.6-6,7.1-9.3,10.4c-6.8,6.8-14.3,12.8-22.5,17.7
			c-3.8,2.3-5,7.3-2.6,11c1.5,2.5,4.1,3.8,6.8,3.8c1.4,0,2.9-0.4,4.2-1.2c9.2-5.6,17.7-12.4,25.4-20.1c3.7-3.7,7.3-7.7,10.5-11.8
			C367.3,278.9,366.7,273.9,363.2,271.1z"/>
	</g>
</g>
<g>
	<g>
		<path class="st0" d="M386.4,188.1c-4.4,0-8,3.6-8,8c0,16.8-3.3,33-9.7,48.2c-1.7,4.1,0.2,8.8,4.2,10.5c1,0.4,2.1,0.6,3.1,0.6
			c3.1,0,6.1-1.8,7.4-4.9c7.3-17.2,11-35.5,11-54.4C394.4,191.7,390.8,188.1,386.4,188.1z"/>
	</g>
</g>
<g>
	<g>
		<path class="st0" d="M439.9,175.3c-4.5,0-9,0.4-13.4,1.3v-15.2h17.6c4.4,0,8-3.6,8-8v-47c0-4.4-3.6-8-8-8h-25.7H93.5H67.9
			c-4.4,0-8,3.6-8,8v47c0,4.4,3.6,8,8,8h17.6v15.2c-4.4-0.8-8.9-1.3-13.4-1.3C32.4,175.3,0,207.7,0,247.4s32.4,72.1,72.2,72.1
			c18.3,0,35.6-6.9,48.8-19.1c26.1,33.8,63.9,56.3,105.6,63.6v70.3c-38.3,6.7-73.4,26.3-99.3,55.8c-2.1,2.4-2.6,5.7-1.3,8.6
			c1.3,2.9,4.2,4.7,7.3,4.7h245.2c3.1,0,6-1.8,7.3-4.7c1.3-2.9,0.8-6.2-1.3-8.6c-25.9-29.5-60.9-49.1-99.3-55.8v-70.3
			c41.7-7.3,79.5-29.8,105.6-63.6c13.2,12.2,30.6,19.1,48.8,19.1c39.8,0,72.1-32.4,72.1-72.1S479.6,175.3,439.9,175.3z M75.9,145.4
			v-31h17.6h324.9h17.6v31h-17.6H93.5H75.9z M439.9,225.5c12.1,0,21.9,9.8,21.9,21.9s-9.8,21.9-21.9,21.9c-11.5,0-20.8-8.7-21.8-20
			c1.6-4.8,2.9-9.8,4.1-14.9C426.3,228.9,432.8,225.5,439.9,225.5z M93.9,249.4c-1,11.3-10.3,20-21.8,20c-12.1,0-21.9-9.8-21.9-21.9
			s9.8-21.9,21.9-21.9c7,0,13.6,3.3,17.7,9C91,239.6,92.4,244.6,93.9,249.4z M72.2,303.6c-30.9,0-56.1-25.2-56.1-56.1
			s25.2-56.1,56.1-56.1c4.5,0,9,0.6,13.4,1.6v3.2c0,5.4,0.3,10.7,0.8,16.1c-4.4-1.8-9.2-2.7-14.1-2.7c-20.9,0-37.9,17-37.9,37.9
			s17,37.9,37.9,37.9c12.4,0,23.3-5.8,30.3-15c2.8,5.8,5.9,11.4,9.3,16.8C101.2,297.7,87.1,303.6,72.2,303.6z M359.4,487.4H152.6
			c23.2-20.8,52.1-34.2,83.1-38.2c4-0.5,7-3.9,7-7.9v-74.6h26.7v74.6c0,4,3,7.4,7,7.9C307.3,453.3,336.3,466.7,359.4,487.4z
			 M383.6,283.5C383.6,283.5,383.6,283.5,383.6,283.5c-28.8,42-76.4,67.1-127.6,67.1s-98.8-25.1-127.6-67.1c0,0,0,0,0,0
			c-8-11.6-14.3-24.3-18.8-37.6c-1.8-5.3-3.3-10.8-4.5-16.3c0,0,0,0,0,0c-2.4-10.9-3.6-22.2-3.6-33.4V187v-25.6h308.9V187v9.2
			c0,11.2-1.2,22.5-3.6,33.4c0,0,0,0,0,0c-1.2,5.6-2.7,11.1-4.5,16.3C397.9,259.2,391.5,271.8,383.6,283.5z M439.9,303.6
			c-15,0-29.1-5.9-39.6-16.3c3.4-5.4,6.5-11,9.3-16.8c6.9,9.1,17.9,15,30.3,15c20.9,0,37.9-17,37.9-37.9s-17-37.9-37.9-37.9
			c-4.9,0-9.7,0.9-14.1,2.7c0.5-5.3,0.8-10.7,0.8-16.1V193c4.4-1.1,8.8-1.6,13.4-1.6c30.9,0,56.1,25.2,56.1,56.1
			S470.8,303.6,439.9,303.6z"/>
	</g>
</g>
<g>
	<g>
		<path class="st0" d="M332,232c-1.1-3.2-4.2-5.4-7.6-5.4h-45.7l-15.2-41.8c-1.2-3.2-4.2-5.3-7.5-5.3s-6.4,2.1-7.5,5.3l-15.2,41.8
			h-45.7c-3.4,0-6.4,2.2-7.6,5.4c-1.1,3.2-0.1,6.8,2.6,8.9l38.6,30.7l-11.4,41.9c-0.9,3.3,0.4,6.9,3.3,8.8c2.9,1.9,6.6,1.8,9.4-0.3
			l33.6-26.1l33.6,26.1c1.4,1.1,3.2,1.7,4.9,1.7c1.5,0,3.1-0.4,4.4-1.3c2.9-1.9,4.2-5.5,3.3-8.8l-11.4-41.9l38.6-30.7
			C332.1,238.8,333.1,235.2,332,232z M276.7,262.3c-2.5,2-3.6,5.3-2.7,8.4l6.5,23.8l-19.5-15.2c-1.4-1.1-3.2-1.7-4.9-1.7
			s-3.5,0.6-4.9,1.7l-19.5,15.2l6.5-23.8c0.8-3.1-0.2-6.4-2.7-8.4l-24.8-19.7h28.3c3.4,0,6.4-2.1,7.5-5.3L256,211l9.6,26.3
			c1.2,3.2,4.2,5.3,7.5,5.3h28.3L276.7,262.3z"/>
	</g>
</g>
<g>
	<g>
		<path class="st0" d="M277.4,29.9H264V16.6c0-4.4-3.6-8-8-8c-4.4,0-8,3.6-8,8v13.4h-13.4c-4.4,0-8,3.6-8,8c0,4.4,3.6,8,8,8H248
			v13.4c0,4.4,3.6,8,8,8c4.4,0,8-3.6,8-8V46h13.4c4.4,0,8-3.6,8-8C285.4,33.5,281.8,29.9,277.4,29.9z"/>
	</g>
</g>
<g>
	<g>
		<path class="st0" d="M397.1,29.9h-13.4V16.6c0-4.4-3.6-8-8-8c-4.4,0-8,3.6-8,8v13.4h-13.4c-4.4,0-8,3.6-8,8c0,4.4,3.6,8,8,8h13.4
			v13.4c0,4.4,3.6,8,8,8c4.4,0,8-3.6,8-8V46h13.4c4.4,0,8-3.6,8-8C405.1,33.5,401.5,29.9,397.1,29.9z"/>
	</g>
</g>
<g>
	<g>
		<path class="st0" d="M166.2,29.9h-13.4V16.6c0-4.4-3.6-8-8-8c-4.4,0-8,3.6-8,8v13.4h-13.4c-4.4,0-8,3.6-8,8c0,4.4,3.6,8,8,8h13.4
			v13.4c0,4.4,3.6,8,8,8c4.4,0,8-3.6,8-8V46h13.4c4.4,0,8-3.6,8-8C174.2,33.5,170.6,29.9,166.2,29.9z"/>
	</g>
</g>
</svg>
