<?xml version="1.0" encoding="iso-8859-1"?>
<!-- Generator: Adobe Illustrator 19.0.0, SVG Export Plug-In . SVG Version: 6.00 Build 0)  -->
<svg version="1.1" id="Layer_1" xmlns="http://www.w3.org/2000/svg" xmlns:xlink="http://www.w3.org/1999/xlink" x="0px" y="0px"
	 viewBox="0 0 512 512" style="enable-background:new 0 0 512 512;" xml:space="preserve">
<g>
	<g>
		<path d="M486.319,369.228c-1.385-4.195-5.903-6.476-10.105-5.091c-4.196,1.383-6.475,5.907-5.091,10.103
			c1.998,6.055,3.01,12.39,3.01,18.828c0,2.521-0.157,5.058-0.469,7.539c-0.548,4.384,2.56,8.383,6.945,8.932
			c0.337,0.042,0.672,0.063,1.004,0.063c3.975,0,7.421-2.96,7.929-7.007c0.393-3.139,0.592-6.345,0.592-9.527
			C490.133,384.924,488.85,376.903,486.319,369.228z"/>
	</g>
</g>
<g>
	<g>
		<path d="M35.785,364.135c-4.196-1.385-8.719,0.896-10.102,5.092c-2.532,7.677-3.815,15.697-3.815,23.839
			c0,3.185,0.2,6.39,0.593,9.529c0.508,4.047,3.953,7.006,7.929,7.006c0.332,0,0.667-0.021,1.005-0.063
			c4.384-0.55,7.492-4.549,6.943-8.933c-0.311-2.48-0.468-5.017-0.468-7.538c0-6.436,1.012-12.771,3.01-18.828
			C42.26,370.043,39.98,365.519,35.785,364.135z"/>
	</g>
</g>
<g>
	<g>
		<path d="M464.533,309.649v-27.516c0-4.418-3.581-8-8-8H440V184C440,82.542,357.458,0,256,0S72,82.542,72,184v90.133H55.467
			c-4.418,0-8,3.582-8,8v27.516c-29.065,17.67-46.933,49.195-46.933,83.418c0,34.223,17.869,65.747,46.933,83.418V504
			c0,4.418,3.582,8,8,8h81.067c4.418,0,8-3.582,8-8V282.133c0-4.418-3.582-8-8-8h-12.267V184
			c0-72.638,59.095-131.733,131.733-131.733c72.639,0,131.733,59.095,131.733,131.733v90.133h-12.267c-4.419,0-8,3.582-8,8V504
			c0,4.418,3.581,8,8,8h81.067c4.419,0,8-3.582,8-8v-27.516c29.065-17.67,46.933-49.195,46.933-83.418
			C511.467,358.844,493.598,327.321,464.533,309.649z M47.467,457.039c-19.355-15.333-30.933-38.781-30.933-63.972
			s11.579-48.639,30.933-63.972V457.039z M128.533,290.133V496H63.467v-24.093c0-0.019,0-0.039,0-0.059V314.286
			c0-0.019,0-0.039,0-0.059v-24.094H80h36.267H128.533z M256,36.267c-81.46,0-147.733,66.273-147.733,147.733v90.133H88V184
			c0-92.636,75.364-168,168-168s168,75.364,168,168v90.133h-20.267V184C403.733,102.54,337.46,36.267,256,36.267z M448.533,314.228
			c0,0.019,0,0.037,0,0.057V471.85c0,0.018,0,0.037,0,0.057V496h-65.067V290.133h12.267H432h16.533V314.228z M464.533,457.039
			V329.094c19.355,15.333,30.933,38.781,30.933,63.972S483.888,441.706,464.533,457.039z"/>
	</g>
</g>
<g>
</g>
<g>
</g>
<g>
</g>
<g>
</g>
<g>
</g>
<g>
</g>
<g>
</g>
<g>
</g>
<g>
</g>
<g>
</g>
<g>
</g>
<g>
</g>
<g>
</g>
<g>
</g>
<g>
</g>
</svg>
