<?xml version="1.0" encoding="iso-8859-1"?>
<!-- Generator: Adobe Illustrator 19.0.0, SVG Export Plug-In . SVG Version: 6.00 Build 0)  -->
<svg version="1.1" id="Layer_1" xmlns="http://www.w3.org/2000/svg" xmlns:xlink="http://www.w3.org/1999/xlink" x="0px" y="0px"
	 viewBox="0 0 512 512" style="enable-background:new 0 0 512 512;" xml:space="preserve">
<g>
	<g>
		<path d="M503.983,397.628h-9.086V72.15V37.946c0-4.428-3.588-8.017-8.017-8.017H25.119c-4.428,0-8.017,3.588-8.017,8.017V72.15
			v325.478H8.017c-4.428,0-8.017,3.588-8.017,8.017v36.342c0,22.103,17.981,40.083,40.083,40.083h431.833
			c22.103,0,40.083-17.981,40.083-40.083v-36.342C512,401.217,508.412,397.628,503.983,397.628z M33.136,45.962h445.729v18.171
			H33.136V45.962z M33.136,80.167h445.729v317.461H298.756h-85.511H33.136V80.167z M290.739,413.662v18.171h-69.478v-18.171H290.739
			z M495.967,441.987c0,13.261-10.789,24.05-24.05,24.05H40.083c-13.261,0-24.05-10.789-24.05-24.05v-28.326h9.086h180.109v26.188
			c0,4.428,3.588,8.017,8.017,8.017h85.511c4.428,0,8.017-3.588,8.017-8.017v-26.188h180.109h9.086V441.987z"/>
	</g>
</g>
<g>
	<g>
		<path d="M444.125,440.384h-94.063c-4.428,0-8.017,3.588-8.017,8.017c0,4.428,3.588,8.017,8.017,8.017h94.063
			c4.428,0,8.017-3.588,8.017-8.017C452.142,443.972,448.554,440.384,444.125,440.384z"/>
	</g>
</g>
<g>
	<g>
		<path d="M161.937,440.384H67.875c-4.428,0-8.017,3.588-8.017,8.017c0,4.428,3.588,8.017,8.017,8.017h94.063
			c4.428,0,8.017-3.588,8.017-8.017C169.954,443.972,166.366,440.384,161.937,440.384z"/>
	</g>
</g>
<g>
	<g>
		<path d="M381.994,268.633l-33.045-8.854c-2.054-0.555-4.245-0.264-6.085,0.802c-1.843,1.065-3.184,2.817-3.735,4.872
			c-3.884,14.535-11.59,27.869-22.285,38.564c-3.131,3.132-3.131,8.207,0,11.338l24.186,24.186c1.566,1.565,3.618,2.347,5.669,2.347
			s4.103-0.782,5.669-2.347c16.934-16.936,29.139-38.061,35.296-61.094C388.806,274.171,386.268,269.779,381.994,268.633z
			 M346.51,322.345l-12.882-12.882c8.128-9.515,14.445-20.445,18.612-32.204l17.605,4.717
			C364.793,296.788,356.853,310.523,346.51,322.345z"/>
	</g>
</g>
<g>
	<g>
		<path d="M195.156,170.992l-24.186-24.186c-3.132-3.13-8.207-3.13-11.338,0c-16.934,16.936-29.139,38.06-35.296,61.094
			c-1.143,4.276,1.395,8.668,5.669,9.814l33.045,8.854c0.683,0.184,1.38,0.274,2.075,0.274c1.396,0,2.781-0.365,4.01-1.075
			c1.843-1.065,3.184-2.817,3.735-4.872c3.884-14.535,11.59-27.869,22.285-38.564C198.287,179.198,198.287,174.123,195.156,170.992z
			 M159.761,209.087l-17.605-4.717c5.051-14.812,12.989-28.547,23.334-40.369l12.882,12.882
			C170.244,186.399,163.928,197.328,159.761,209.087z"/>
	</g>
</g>
<g>
	<g>
		<path d="M374.043,175.015c-2.215-3.832-7.117-5.143-10.949-2.93l-29.628,17.106c-1.843,1.064-3.185,2.815-3.736,4.87
			c-0.55,2.055-0.261,4.245,0.804,6.085c7.53,13.027,11.511,27.905,11.511,43.027c0,4.428,3.588,8.017,8.017,8.017h34.205
			c4.428,0,8.017-3.588,8.017-8.017C392.284,219.226,385.976,195.657,374.043,175.015z M357.764,235.158v-0.001
			c-0.981-12.474-4.243-24.671-9.61-35.931l15.785-9.113c6.902,14.045,11,29.371,12.045,45.045H357.764z"/>
	</g>
</g>
<g>
	<g>
		<path d="M352.368,146.807c-16.936-16.935-38.061-29.139-61.094-35.296c-4.27-1.138-8.668,1.396-9.814,5.671l-8.854,33.045
			c-0.552,2.055-0.262,4.245,0.802,6.085c1.064,1.841,2.815,3.183,4.871,3.734c14.535,3.884,27.869,11.59,38.564,22.285
			c1.566,1.565,3.618,2.347,5.669,2.347c2.051,0,4.104-0.782,5.669-2.347l24.186-24.186
			C355.499,155.013,355.499,149.938,352.368,146.807z M322.291,165.546c-9.515-8.129-20.445-14.445-32.204-18.612l4.717-17.605
			c14.812,5.051,28.546,12.989,40.369,23.334L322.291,165.546z"/>
	</g>
</g>
<g>
	<g>
		<path d="M256,106.889c-23.949,0-47.518,6.308-68.158,18.241c-3.831,2.215-5.143,7.116-2.93,10.949l17.105,29.628
			c1.064,1.843,2.815,3.185,4.87,3.736c0.683,0.183,1.379,0.273,2.073,0.273c1.397,0,2.781-0.366,4.013-1.076
			c13.027-7.53,27.905-11.511,43.027-11.511c4.428,0,8.017-3.588,8.017-8.017v-34.205C264.017,110.478,260.428,106.889,256,106.889z
			 M247.983,141.409c-12.474,0.981-24.671,4.244-35.931,9.61l-9.113-15.785c14.044-6.901,29.37-10.999,45.044-12.044V141.409z"/>
	</g>
</g>
<g>
	<g>
		<path d="M290.205,260.81c-13.851,0-25.119,11.268-25.119,25.119c0,13.851,11.268,25.119,25.119,25.119
			c13.851,0,25.119-11.268,25.119-25.119C315.324,272.078,304.055,260.81,290.205,260.81z M290.205,295.015
			c-5.009,0-9.086-4.077-9.086-9.086s4.077-9.086,9.086-9.086s9.086,4.077,9.086,9.086S295.213,295.015,290.205,295.015z"/>
	</g>
</g>
<g>
	<g>
		<path d="M217.52,188.125c-13.851,0-25.119,11.268-25.119,25.119s11.268,25.119,25.119,25.119s25.119-11.268,25.119-25.119
			S231.371,188.125,217.52,188.125z M217.52,222.33c-5.009,0-9.086-4.077-9.086-9.086s4.077-9.086,9.086-9.086
			s9.086,4.077,9.086,9.086S222.529,222.33,217.52,222.33z"/>
	</g>
</g>
<g>
	<g>
		<path d="M304.425,194.749c-3.132-3.13-8.207-3.13-11.338,0l-85.511,85.511c-3.131,3.132-3.131,8.207,0,11.338
			c1.565,1.565,3.617,2.347,5.668,2.347s4.104-0.782,5.669-2.347l85.511-85.512C307.556,202.955,307.556,197.88,304.425,194.749z"/>
	</g>
</g>
<g>
	<g>
		<path d="M327.088,350.268l-17.106-29.628c-1.064-1.843-2.815-3.185-4.87-3.736c-2.057-0.552-4.243-0.261-6.085,0.804
			c-13.027,7.53-27.905,11.511-43.027,11.511c-4.428,0-8.017,3.588-8.017,8.017v34.205c0,4.428,3.588,8.017,8.017,8.017
			c23.949,0,47.518-6.308,68.158-18.241C327.989,359.002,329.302,354.101,327.088,350.268z M264.017,363.157v-18.219
			c12.474-0.981,24.671-4.243,35.931-9.61l9.113,15.785C295.017,358.014,279.691,362.111,264.017,363.157z"/>
	</g>
</g>
<g>
	<g>
		<path d="M238.591,330.037c-1.063-1.842-2.815-3.185-4.871-3.734c-14.536-3.886-27.87-11.593-38.564-22.286
			c-3.132-3.13-8.207-3.13-11.338,0l-24.186,24.186c-3.131,3.132-3.131,8.207,0,11.339c16.936,16.935,38.06,29.139,61.094,35.296
			c0.693,0.185,1.39,0.274,2.075,0.274c3.539,0,6.779-2.362,7.738-5.944l8.854-33.045
			C239.944,334.067,239.654,331.878,238.591,330.037z M217.196,357.017c-14.811-5.05-28.546-12.989-40.369-23.334l12.882-12.882
			c9.514,8.127,20.446,14.444,32.204,18.612L217.196,357.017z"/>
	</g>
</g>
<g>
	<g>
		<path d="M181.465,286.201c-7.53-13.027-11.511-27.905-11.511-43.027c0-4.428-3.588-8.017-8.017-8.017h-34.205
			c-4.428,0-8.017,3.588-8.017,8.017c0,23.949,6.308,47.518,18.241,68.158c1.487,2.57,4.178,4.005,6.948,4.005
			c1.361,0,2.74-0.346,4.001-1.075l29.628-17.105c1.843-1.064,3.186-2.815,3.736-4.87
			C182.819,290.23,182.53,288.041,181.465,286.201z M148.062,296.235c-6.902-14.045-11-29.371-12.045-45.045h18.219
			c0.981,12.474,4.243,24.671,9.61,35.931L148.062,296.235z"/>
	</g>
</g>
<g>
</g>
<g>
</g>
<g>
</g>
<g>
</g>
<g>
</g>
<g>
</g>
<g>
</g>
<g>
</g>
<g>
</g>
<g>
</g>
<g>
</g>
<g>
</g>
<g>
</g>
<g>
</g>
<g>
</g>
</svg>
