<?xml version="1.0" encoding="iso-8859-1"?>
<!-- Generator: Adobe Illustrator 19.0.0, SVG Export Plug-In . SVG Version: 6.00 Build 0)  -->
<svg version="1.1" id="Layer_1" xmlns="http://www.w3.org/2000/svg" xmlns:xlink="http://www.w3.org/1999/xlink" x="0px" y="0px"
	 viewBox="0 0 512.001 512.001" style="enable-background:new 0 0 512.001 512.001;" xml:space="preserve">
<g>
	<g>
		<path d="M500.469,131.36H340.072l-11.794-74.702c-0.618-3.908-3.987-6.787-7.943-6.787H191.667c-3.956,0-7.327,2.879-7.943,6.787
			l-11.796,74.702h-40.842V96.512c0-4.441-3.601-8.042-8.042-8.042H62.999c-4.441,0-8.042,3.601-8.042,8.042v34.847H11.532
			c-4.441,0-8.042,3.601-8.042,8.042v90.067v274.491c0,4.441,3.601,8.042,8.042,8.042h488.936c4.441,0,8.042-3.601,8.042-8.042
			V229.469v-90.067C508.51,134.959,504.91,131.36,500.469,131.36z M198.538,65.954h114.925l10.328,65.406H188.211L198.538,65.954z
			 M71.041,104.554h43.961v26.806H71.041V104.554z M492.427,495.917H19.574V237.51h136.022
			c-20.527,23.868-32.016,54.4-32.016,86.314c0,21.423,5.164,42.406,14.996,61.237c-11.708,6.62-19.285,19.122-19.285,33.119
			c0,20.989,17.075,38.064,38.064,38.064c13.224,0,25.367-7.001,32.225-17.852c20.128,11.7,42.9,17.852,66.42,17.852
			c73.017,0,132.42-59.404,132.42-132.42c0-31.915-11.489-62.447-32.016-86.314h136.022V495.917z M156.968,384.889
			c-0.01-0.016-0.02-0.031-0.03-0.047c-0.003-0.005-0.006-0.011-0.01-0.016c-11.295-18.301-17.265-39.396-17.265-61.002
			c0-33.939,14.779-66.108,40.546-88.257c0.001-0.001,0.002-0.002,0.003-0.003c21.064-18.105,47.979-28.076,75.787-28.076
			c27.807,0,54.722,9.971,75.787,28.076c0.001,0.001,0.002,0.002,0.003,0.003c25.768,22.15,40.546,54.319,40.546,88.257
			c0,64.148-52.189,116.337-116.337,116.337c-23.441,0.001-46.036-6.942-65.344-20.074c-0.002-0.001-0.005-0.003-0.008-0.005
			c-0.018-0.013-0.035-0.026-0.054-0.038C177.147,410.882,165.521,398.728,156.968,384.889z M176.189,429.484
			c-3.915,6.474-11.048,10.676-18.834,10.676c-12.12,0-21.981-9.86-21.981-21.981c0-8.234,4.536-15.573,11.509-19.337
			C154.926,410.497,164.904,420.93,176.189,429.484z M492.427,221.427H339.96c-23.622-19.383-53.315-30.022-83.96-30.022
			s-60.339,10.64-83.96,30.022H19.574v-73.984h43.425h60.045H178.8h154.368c0.008,0,0.015,0.001,0.024,0.001
			c0.004,0,0.009-0.001,0.013-0.001h159.223V221.427z"/>
	</g>
</g>
<g>
	<g>
		<path d="M256,234.294c-49.368,0-89.531,40.164-89.531,89.531s40.164,89.531,89.531,89.531s89.531-40.164,89.531-89.531
			S305.368,234.294,256,234.294z M256,397.272c-40.499,0-73.448-32.948-73.448-73.448s32.949-73.448,73.448-73.448
			s73.448,32.949,73.448,73.448S296.5,397.272,256,397.272z"/>
	</g>
</g>
<g>
	<g>
		<path d="M296.998,352.362c-3.189-3.091-8.28-3.013-11.371,0.176c-7.857,8.104-18.378,12.568-29.626,12.568
			c-4.441,0-8.042,3.601-8.042,8.042s3.601,8.042,8.042,8.042c15.637,0,30.259-6.2,41.173-17.456
			C300.265,360.544,300.187,355.453,296.998,352.362z"/>
	</g>
</g>
<g>
	<g>
		<path d="M256,266.46c-4.441,0-8.042,3.601-8.042,8.042c0,4.441,3.601,8.042,8.042,8.042c22.762,0,41.281,18.518,41.281,41.281
			c0,3.654-0.479,7.276-1.423,10.768c-1.16,4.287,1.376,8.702,5.664,9.862c0.703,0.19,1.409,0.281,2.104,0.281
			c3.544,0,6.789-2.36,7.758-5.944c1.315-4.859,1.982-9.896,1.982-14.967C313.365,292.194,287.631,266.46,256,266.46z"/>
	</g>
</g>
<g>
	<g>
		<path d="M453.29,260.027c-4.441,0-8.042,3.601-8.042,8.042V461.07c0,4.441,3.601,8.042,8.042,8.042s8.042-3.601,8.042-8.042
			V268.069C461.332,263.626,457.732,260.027,453.29,260.027z"/>
	</g>
</g>
<g>
	<g>
		<path d="M453.29,157.093c-4.441,0-8.042,3.601-8.042,8.042v34.311c0,4.441,3.601,8.042,8.042,8.042s8.042-3.601,8.042-8.042
			v-34.311C461.332,160.694,457.732,157.093,453.29,157.093z"/>
	</g>
</g>
<g>
	<g>
		<path d="M397.318,48.525h-33.359c-4.441,0-8.042,3.601-8.042,8.042s3.601,8.042,8.042,8.042h33.359
			c4.441,0,8.042-3.601,8.042-8.042S401.759,48.525,397.318,48.525z"/>
	</g>
</g>
<g>
	<g>
		<path d="M381.559,99.404L360.33,78.175c-3.141-3.141-8.233-3.141-11.372,0c-3.141,3.141-3.141,8.233,0,11.372l21.229,21.229
			c1.57,1.57,3.628,2.356,5.686,2.356s4.116-0.785,5.686-2.356C384.7,107.635,384.7,102.543,381.559,99.404z"/>
	</g>
</g>
<g>
	<g>
		<path d="M381.776,2.355c-3.141-3.141-8.233-3.141-11.372,0l-21.229,21.229c-3.141,3.141-3.141,8.233,0,11.373
			c1.57,1.57,3.627,2.356,5.686,2.356c2.058,0,4.116-0.785,5.686-2.356l21.229-21.229C384.917,10.588,384.917,5.496,381.776,2.355z"
			/>
	</g>
</g>
<g>
</g>
<g>
</g>
<g>
</g>
<g>
</g>
<g>
</g>
<g>
</g>
<g>
</g>
<g>
</g>
<g>
</g>
<g>
</g>
<g>
</g>
<g>
</g>
<g>
</g>
<g>
</g>
<g>
</g>
</svg>
