<?xml version="1.0" encoding="iso-8859-1"?>
<!-- Generator: Adobe Illustrator 19.0.0, SVG Export Plug-In . SVG Version: 6.00 Build 0)  -->
<svg version="1.1" id="Layer_1" xmlns="http://www.w3.org/2000/svg" xmlns:xlink="http://www.w3.org/1999/xlink" x="0px" y="0px"
	 viewBox="0 0 512 512" style="enable-background:new 0 0 512 512;" xml:space="preserve">
<g>
	<g>
		<path d="M264.551,0c-42.141,0-76.426,34.285-76.426,76.426s34.285,76.426,76.426,76.426s76.426-34.285,76.426-76.426
			C340.977,34.285,306.692,0,264.551,0z M256.534,76.96h-9.62V50.238h9.62V76.96z M256.534,34.205h-17.637
			c-4.427,0-8.017,3.588-8.017,8.017v42.756c0,4.428,3.589,8.017,8.017,8.017h17.637v18.171h-17.637
			c-4.427,0-8.017,3.588-8.017,8.017s3.589,8.017,8.017,8.017h17.637v9.072c-29.522-3.936-52.376-29.263-52.376-59.844
			s22.854-55.909,52.376-59.844V34.205z M272.568,92.994h9.62v18.171h-9.62V92.994z M272.568,136.27v-9.072h17.637
			c4.427,0,8.017-3.588,8.017-8.017V84.977c0-4.428-3.589-8.017-8.017-8.017h-17.637V50.238h17.637c4.427,0,8.017-3.588,8.017-8.017
			c0-4.428-3.589-8.017-8.017-8.017h-17.637V16.582c29.522,3.936,52.376,29.263,52.376,59.844S302.09,132.334,272.568,136.27z"/>
	</g>
</g>
<g>
	<g>
		<path d="M414.694,377.029c-3.998-1.903-8.782-0.206-10.685,3.79c-11.049,23.199-34.742,38.187-60.36,38.187
			c-4.427,0-8.017,3.588-8.017,8.017c0,4.428,3.589,8.017,8.017,8.017c31.768,0,61.142-18.576,74.835-47.324
			C420.388,383.717,418.692,378.933,414.694,377.029z"/>
	</g>
</g>
<g>
	<g>
		<path d="M418.472,265.086c-4.427,0-8.017,3.588-8.017,8.017v51.309c0,4.427,3.589,8.017,8.017,8.017
			c4.427,0,8.017-3.589,8.017-8.017v-51.309C426.489,268.674,422.899,265.086,418.472,265.086z"/>
	</g>
</g>
<g>
	<g>
		<path d="M452.676,171.023c-4.427,0-8.017,3.588-8.017,8.017s3.589,8.017,8.017,8.017c23.87,0,43.29,19.42,43.29,43.29
			c0,21.164-15.27,38.817-35.369,42.551c-2.363-61.289-52.952-110.425-114.811-110.425H208.293l-66.017-74.269
			c-2.21-2.488-5.729-3.35-8.841-2.168c-3.112,1.183-5.168,4.164-5.168,7.493v70.843c-53.443,9.834-94.063,56.764-94.063,113.007
			v8.886l-27.506,4.585C2.834,291.493,0,294.837,0,298.756v68.409c0,3.919,2.833,7.263,6.699,7.907l30.429,5.072
			c11.202,48.841,53.204,84.898,103.144,88.73l5.178,36.243c0.564,3.95,3.946,6.884,7.937,6.884h51.307
			c3.989,0,7.372-2.933,7.937-6.884l5.124-35.872h76.492l5.124,35.872c0.564,3.95,3.946,6.884,7.937,6.884h51.307
			c3.989,0,7.372-2.933,7.937-6.884l5.559-38.917c51.666-12.074,88.583-58.21,88.583-111.861v-65.225
			C489.625,285.186,512,260.338,512,230.347C512,197.636,485.388,171.023,452.676,171.023z M16.033,360.374v-54.828l18.171-3.028
			v51.82c0,3.045,0.138,6.092,0.377,9.127L16.033,360.374z M144.301,114.614l42.541,47.858h-37.731h-4.81V114.614z M197.74,495.967
			h-37.401l-3.817-26.722h45.036L197.74,495.967z M351.661,495.967H314.26l-3.818-26.722h35.345c3.252,0,6.508-0.15,9.752-0.423
			L351.661,495.967z M444.66,281.653v72.685c0,47.852-34.117,88.765-81.122,97.282c-5.826,1.055-11.799,1.591-17.751,1.591h-44.588
			h-90.397h-61.691c-0.479,0-0.957-0.009-1.432-0.017l-0.266-0.005h-0.001c-0.001,0-0.001,0-0.001,0
			c-47.187-0.795-87.412-35.05-95.646-81.449c-1.013-5.707-1.526-11.561-1.526-17.402v-61.283v-15.677
			c0-54.519,44.354-98.873,98.873-98.873h55.582h141.094c54.519,0,98.873,44.354,98.873,98.873V281.653z"/>
	</g>
</g>
<g>
	<g>
		<path d="M110.631,247.983c-18.566,0-33.67,15.105-33.67,33.67s15.105,33.67,33.67,33.67s33.67-15.105,33.67-33.67
			S129.196,247.983,110.631,247.983z M110.631,299.29c-9.725,0-17.637-7.912-17.637-17.637s7.912-17.637,17.637-17.637
			s17.637,7.912,17.637,17.637S120.355,299.29,110.631,299.29z"/>
	</g>
</g>
<g>
	<g>
		<path d="M332.96,213.779h-145.37c-4.427,0-8.017,3.588-8.017,8.017v42.756c0,4.428,3.589,8.017,8.017,8.017h145.37
			c4.427,0,8.017-3.588,8.017-8.017v-42.756C340.977,217.367,337.388,213.779,332.96,213.779z M324.944,256.534H195.608v-26.722
			h129.336V256.534z"/>
	</g>
</g>
<g>
</g>
<g>
</g>
<g>
</g>
<g>
</g>
<g>
</g>
<g>
</g>
<g>
</g>
<g>
</g>
<g>
</g>
<g>
</g>
<g>
</g>
<g>
</g>
<g>
</g>
<g>
</g>
<g>
</g>
</svg>
