<?xml version="1.0" encoding="iso-8859-1"?>
<!-- Generator: Adobe Illustrator 19.0.0, SVG Export Plug-In . SVG Version: 6.00 Build 0)  -->
<svg version="1.1" id="Layer_1" xmlns="http://www.w3.org/2000/svg" xmlns:xlink="http://www.w3.org/1999/xlink" x="0px" y="0px"
	 viewBox="0 0 511.999 511.999" style="enable-background:new 0 0 511.999 511.999;" xml:space="preserve">
<g>
	<g>
		<path d="M443.017,33.948c-3.223-3.221-8.446-3.221-11.67,0l-18.67,18.67c-3.222,3.223-3.222,8.446,0,11.669
			c1.612,1.611,3.724,2.416,5.835,2.416c2.111,0,4.223-0.805,5.835-2.416l18.67-18.67C446.239,42.393,446.239,37.17,443.017,33.948z
			"/>
	</g>
</g>
<g>
	<g>
		<path d="M486.576,15.279c-20.374-20.371-53.523-20.371-73.898,0l-31.504,31.504l-25.28-25.281c-3.223-3.221-8.446-3.221-11.669,0
			l-31.116,31.116c-3.222,3.223-3.222,8.446,0,11.668l25.281,25.282l-45.606,45.605H213.58c-4.558,0-8.251,3.694-8.251,8.251v79.204
			l-30.645,30.645V143.423c0-4.557-3.693-8.251-8.251-8.251H18.394c-4.558,0-8.251,3.694-8.251,8.251v157.91
			c0,4.558,3.693,8.251,8.251,8.251h113.583l-18.121,28.005H18.394c-4.558,0-8.251,3.693-8.251,8.251v157.91
			c0,4.558,3.693,8.251,8.251,8.251h148.04c4.558,0,8.251-3.693,8.251-8.251V381.26l30.645-19.829v142.318
			c0,4.558,3.693,8.251,8.251,8.251h148.041c4.558,0,8.251-3.693,8.251-8.251V345.84c0-4.558-3.693-8.251-8.251-8.251H238.167
			l28.005-28.005h95.449c4.558,0,8.251-3.693,8.251-8.251v-95.449l42.418-42.419l25.281,25.281c1.548,1.547,3.647,2.416,5.835,2.416
			c2.188,0,4.287-0.869,5.835-2.417l31.114-31.116c3.222-3.222,3.222-8.445,0-11.669l-25.279-25.279l31.503-31.504
			C506.95,68.804,506.95,35.654,486.576,15.279z M221.831,151.674h54.452l-54.452,54.452V151.674z M26.644,293.083v-141.41h131.538
			v118.101l-0.65,0.65c-0.41,0.411-0.776,0.864-1.091,1.352l-13.787,21.306H26.644z M158.184,495.5H26.644v-0.001V354.091h76.535
			l-15.191,23.478c-2.113,3.266-1.658,7.565,1.092,10.317l24.892,24.892c1.594,1.593,3.706,2.416,5.838,2.416
			c1.547,0,3.104-0.435,4.478-1.323l33.895-21.931V495.5z M353.37,354.091v141.408H221.831V354.091H353.37z M353.37,293.083h-70.697
			l70.697-70.697V293.083z M355.786,196.632l-98.867,98.867l-36.536,36.537l-10.628,6.877c-0.072,0.046-0.135,0.099-0.205,0.147
			c-0.037,0.026-0.08,0.045-0.118,0.071c-0.048,0.029-0.091,0.065-0.14,0.094c-0.064,0.04-0.131,0.072-0.194,0.112l-47.146,30.505
			l-41.028,26.547l-15.46-15.457l19.806-30.611l28.798-44.506l15.751-24.342l2.448-2.448l47.146-47.145l82.622-82.622l48.021-48.021
			l50.561,50.56L355.786,196.632z M462.85,151.797l-19.445,19.448l-25.282-25.282l-62.23-62.229
			c-0.003-0.003-0.008-0.007-0.011-0.01l-25.27-25.271l19.447-19.447l25.28,25.281l62.231,62.231L462.85,151.797z M474.909,77.512
			l-31.502,31.503l-50.562-50.562l31.503-31.504c13.941-13.94,36.623-13.939,50.562-0.001
			C488.848,40.887,488.848,63.571,474.909,77.512z"/>
	</g>
</g>
<g>
	<g>
		<path d="M225.21,251.755c-3.222-3.222-8.446-3.223-11.669,0l-24.892,24.893c-3.222,3.222-3.222,8.446,0.001,11.669
			c1.611,1.611,3.723,2.416,5.834,2.416c2.111,0,4.223-0.805,5.835-2.417l24.892-24.893
			C228.433,260.201,228.433,254.976,225.21,251.755z"/>
	</g>
</g>
<g>
	<g>
		<path d="M337.225,139.74c-3.222-3.22-8.445-3.222-11.67,0l-87.121,87.122c-3.222,3.223-3.222,8.446,0,11.669
			c1.612,1.611,3.724,2.416,5.835,2.416s4.223-0.805,5.835-2.416l87.121-87.122C340.447,148.185,340.447,142.962,337.225,139.74z"/>
	</g>
</g>
<g>
</g>
<g>
</g>
<g>
</g>
<g>
</g>
<g>
</g>
<g>
</g>
<g>
</g>
<g>
</g>
<g>
</g>
<g>
</g>
<g>
</g>
<g>
</g>
<g>
</g>
<g>
</g>
<g>
</g>
</svg>
