<?xml version="1.0" encoding="iso-8859-1"?>
<!-- Generator: Adobe Illustrator 19.0.0, SVG Export Plug-In . SVG Version: 6.00 Build 0)  -->
<svg version="1.1" id="Layer_1" xmlns="http://www.w3.org/2000/svg" xmlns:xlink="http://www.w3.org/1999/xlink" x="0px" y="0px"
	 viewBox="0 0 512 512" style="enable-background:new 0 0 512 512;" xml:space="preserve">
<g>
	<g>
		<path d="M74.914,254.383H31.798c-4.465,0-8.084,3.62-8.084,8.084v43.116c0,4.465,3.62,8.084,8.084,8.084h43.116
			c4.465,0,8.084-3.62,8.084-8.084v-43.116C82.998,258.003,79.378,254.383,74.914,254.383z M66.829,297.499H39.882v-26.947h26.947
			V297.499z"/>
	</g>
</g>
<g>
	<g>
		<path d="M92.16,323.368H49.044c-4.465,0-8.084,3.62-8.084,8.084v43.116c0,4.465,3.62,8.084,8.084,8.084H92.16
			c4.465,0,8.084-3.62,8.084-8.084v-43.116C100.244,326.988,96.625,323.368,92.16,323.368z M84.076,366.484H57.128v-26.947h26.947
			V366.484z"/>
	</g>
</g>
<g>
	<g>
		<path d="M277.558,452.716h-43.116c-4.465,0-8.084,3.62-8.084,8.084v43.116c0,4.465,3.62,8.084,8.084,8.084h43.116
			c4.465,0,8.084-3.62,8.084-8.084V460.8C285.642,456.335,282.023,452.716,277.558,452.716z M269.474,495.832h-26.947v-26.947
			h26.947V495.832z"/>
	</g>
</g>
<g>
	<g>
		<path d="M195.638,439.781h-43.116c-4.465,0-8.084,3.62-8.084,8.084v43.116c0,4.465,3.62,8.084,8.084,8.084h43.116
			c4.465,0,8.084-3.62,8.084-8.084v-43.116C203.722,443.401,200.103,439.781,195.638,439.781z M187.554,482.897h-26.947v-26.947
			h26.947V482.897z"/>
	</g>
</g>
<g>
	<g>
		<path d="M126.653,392.354H83.537c-4.465,0-8.084,3.62-8.084,8.084v43.116c0,4.465,3.62,8.084,8.084,8.084h43.116
			c4.465,0,8.084-3.62,8.084-8.084v-43.116C134.737,395.973,131.117,392.354,126.653,392.354z M118.568,435.469H91.621v-26.947
			h26.947V435.469z"/>
	</g>
</g>
<g>
	<g>
		<path d="M480.202,254.383h-43.116c-4.465,0-8.084,3.62-8.084,8.084v43.116c0,4.465,3.62,8.084,8.084,8.084h43.116
			c4.465,0,8.084-3.62,8.084-8.084v-43.116C488.286,258.003,484.667,254.383,480.202,254.383z M472.118,297.499h-26.947v-26.947
			h26.947V297.499z"/>
	</g>
</g>
<g>
	<g>
		<path d="M462.956,323.368H419.84c-4.465,0-8.084,3.62-8.084,8.084v43.116c0,4.465,3.62,8.084,8.084,8.084h43.116
			c4.465,0,8.084-3.62,8.084-8.084v-43.116C471.04,326.988,467.42,323.368,462.956,323.368z M454.872,366.484h-26.947v-26.947
			h26.947V366.484z"/>
	</g>
</g>
<g>
	<g>
		<path d="M359.478,439.781h-43.116c-4.465,0-8.084,3.62-8.084,8.084v43.116c0,4.465,3.62,8.084,8.084,8.084h43.116
			c4.465,0,8.084-3.62,8.084-8.084v-43.116C367.562,443.401,363.943,439.781,359.478,439.781z M351.394,482.897h-26.947v-26.947
			h26.947V482.897z"/>
	</g>
</g>
<g>
	<g>
		<path d="M428.463,392.354h-43.116c-4.465,0-8.084,3.62-8.084,8.084v43.116c0,4.465,3.62,8.084,8.084,8.084h43.116
			c4.465,0,8.084-3.62,8.084-8.084v-43.116C436.547,395.973,432.928,392.354,428.463,392.354z M420.379,435.469h-26.947v-26.947
			h26.947V435.469z"/>
	</g>
</g>
<g>
	<g>
		<path d="M296.37,217.668L307.189,8.501c0.114-2.213-0.686-4.376-2.212-5.984C303.451,0.91,301.332,0,299.116,0h-86.232
			c-2.216,0-4.336,0.91-5.863,2.517c-1.526,1.607-2.326,3.772-2.212,5.984l10.819,209.167c-25.428,14.483-41.01,41.086-41.01,70.669
			c0,18.151,12.66,50.668,37.628,96.646c18.25,33.608,36.755,62.633,36.94,62.922c1.485,2.325,4.054,3.732,6.812,3.732
			c2.758,0,5.327-1.407,6.812-3.732c0.184-0.289,18.69-29.314,36.939-62.922c24.969-45.979,37.629-78.496,37.629-96.646
			C337.381,258.754,321.799,232.15,296.37,217.668z M290.603,16.168l-4.963,95.933h-59.281l-4.963-95.933H290.603z M284.803,128.269
			l-4.265,82.453c-7.885-2.5-16.098-3.766-24.538-3.766c-8.44,0-16.653,1.267-24.539,3.766l-4.265-82.453H284.803z M256,428.317
			c-23.011-37.402-65.213-111.819-65.213-139.98c0-25.153,14.056-47.623,36.684-58.653c0.017-0.009,0.033-0.016,0.051-0.025
			c8.916-4.336,18.498-6.536,28.478-6.536c9.98,0,19.562,2.199,28.478,6.536c0.016,0.009,0.033,0.016,0.05,0.024
			c22.629,11.031,36.685,33.501,36.685,58.654C321.213,316.498,279.011,390.915,256,428.317z"/>
	</g>
</g>
<g>
	<g>
		<path d="M285.084,324.129c-4.043-1.892-8.856-0.147-10.748,3.898c-4.703,10.055-10.437,21.326-17.042,33.5
			c-2.129,3.925-0.674,8.832,3.251,10.961c1.226,0.665,2.546,0.98,3.848,0.98c2.869,0,5.649-1.532,7.113-4.231
			c6.757-12.455,12.637-24.016,17.475-34.359C290.873,330.833,289.128,326.021,285.084,324.129z"/>
	</g>
</g>
<g>
	<g>
		<path d="M256,239.293c-4.465,0-8.084,3.62-8.084,8.084c0,4.465,3.62,8.084,8.084,8.084c18.088,0,32.811,14.684,32.876,32.757
			c-0.04,0.516-0.555,5.784-5.519,18.795c-1.592,4.171,0.5,8.843,4.672,10.435c0.949,0.362,1.922,0.534,2.88,0.534
			c3.255,0,6.325-1.981,7.555-5.205c6.106-16.007,6.581-22.753,6.581-24.44C305.044,261.294,283.043,239.293,256,239.293z"/>
	</g>
</g>
<g>
</g>
<g>
</g>
<g>
</g>
<g>
</g>
<g>
</g>
<g>
</g>
<g>
</g>
<g>
</g>
<g>
</g>
<g>
</g>
<g>
</g>
<g>
</g>
<g>
</g>
<g>
</g>
<g>
</g>
</svg>
