<?xml version="1.0" encoding="iso-8859-1"?>
<!-- Generator: Adobe Illustrator 19.0.0, SVG Export Plug-In . SVG Version: 6.00 Build 0)  -->
<svg version="1.1" id="Layer_1" xmlns="http://www.w3.org/2000/svg" xmlns:xlink="http://www.w3.org/1999/xlink" x="0px" y="0px"
	 viewBox="0 0 512 512" style="enable-background:new 0 0 512 512;" xml:space="preserve">
<g>
	<g>
		<path d="M347.312,121.749c-16.484,0-29.894,13.411-29.894,29.894c0,7.215,2.597,14.052,7.165,19.396l-36.711,55.067h-0.944
			l-17.934-86.681c10.142-4.856,16.899-15.145,16.899-26.915c0-16.483-13.41-29.894-29.894-29.894s-29.894,13.411-29.894,29.894
			c0,11.772,6.757,22.061,16.899,26.915l-17.934,86.681h-0.944l-36.711-55.067c4.567-5.344,7.165-12.182,7.165-19.396
			c0-16.483-13.41-29.894-29.894-29.894s-29.894,13.411-29.894,29.894c0,15.124,11.293,27.653,25.889,29.618l8.896,62.275v38.553
			c0,4.504,3.65,8.153,8.153,8.153h156.535c4.503,0,8.153-3.649,8.153-8.153v-38.553l8.896-62.275
			c14.596-1.964,25.889-14.494,25.889-29.618C377.206,135.16,363.796,121.749,347.312,121.749z M242.412,112.51
			c0-7.493,6.095-13.588,13.588-13.588s13.588,6.095,13.588,13.588c0,6.674-4.783,12.303-11.373,13.384
			c-1.681,0.276-2.749,0.276-4.429,0c0,0,0,0-0.001,0C247.195,124.813,242.412,119.184,242.412,112.51z M255.999,157.097
			l14.278,69.009h-28.556L255.999,157.097z M172.22,162.95c-0.001,0.001-0.002,0.001-0.002,0.001
			c-1.671,1.116-3.557,1.83-5.604,2.12c0,0-0.002,0-0.003,0.001c-0.002,0-0.004,0-0.005,0s-0.002,0.001-0.004,0.001
			c-0.765,0.109-1.374,0.16-1.914,0.16c-7.492-0.001-13.587-6.096-13.587-13.589s6.095-13.588,13.588-13.588
			s13.588,6.095,13.588,13.588C178.276,156.189,176.012,160.416,172.22,162.95z M177.842,186.071l26.689,40.035h-20.97
			L177.842,186.071z M326.115,242.955v30.981H185.885v-30.981v-0.544h33.869c0.005,0,0.012,0.001,0.017,0.001
			c0.005,0,0.01-0.001,0.015-0.001h11.89c0.014,0,0.027,0.002,0.041,0.002c0.016,0,0.033-0.002,0.049-0.002h48.465
			c0.016,0,0.033,0.002,0.049,0.002c0.014,0,0.028-0.002,0.041-0.002h11.89c0.005,0,0.01,0.001,0.015,0.001s0.012-0.001,0.017-0.001
			h33.869V242.955z M328.439,226.106h-20.97l26.689-40.035L328.439,226.106z M347.312,165.231c-0.54,0-1.149-0.051-1.914-0.16
			c-0.001,0-0.002-0.001-0.004-0.001c-0.002,0-0.004,0-0.005,0s-0.002,0-0.002,0c-2.048-0.29-3.934-1.003-5.604-2.119
			c0,0-0.001-0.001-0.002-0.001c-3.792-2.535-6.056-6.761-6.056-11.307c0-7.493,6.095-13.588,13.588-13.588
			s13.588,6.095,13.588,13.588S354.805,165.231,347.312,165.231z"/>
	</g>
</g>
<g>
	<g>
		<path d="M256,0C150.805,0,65.223,85.582,65.223,190.777c0,102.704,177.06,309.63,184.597,318.389
			c1.549,1.799,3.806,2.834,6.18,2.834c2.374,0,4.631-1.035,6.18-2.834c7.538-8.759,184.597-215.685,184.597-318.389
			C446.777,85.582,361.195,0,256,0z M255.999,491.195c-31.715-38.024-174.47-214.008-174.47-300.418
			c0-96.204,78.268-174.471,174.471-174.471s174.471,78.268,174.471,174.471C430.471,277.163,287.715,453.167,255.999,491.195z"/>
	</g>
</g>
<g>
	<g>
		<path d="M256,43.482c-81.219,0-147.295,66.076-147.295,147.295S174.781,338.072,256,338.072s147.295-66.076,147.295-147.295
			S337.219,43.482,256,43.482z M256,321.766c-72.228,0-130.989-58.762-130.989-130.989S183.772,59.788,256,59.788
			s130.989,58.762,130.989,130.989S328.228,321.766,256,321.766z"/>
	</g>
</g>
<g>
</g>
<g>
</g>
<g>
</g>
<g>
</g>
<g>
</g>
<g>
</g>
<g>
</g>
<g>
</g>
<g>
</g>
<g>
</g>
<g>
</g>
<g>
</g>
<g>
</g>
<g>
</g>
<g>
</g>
</svg>
