<?xml version="1.0" encoding="iso-8859-1"?>
<!-- Generator: Adobe Illustrator 19.0.0, SVG Export Plug-In . SVG Version: 6.00 Build 0)  -->
<svg version="1.1" id="Layer_1" xmlns="http://www.w3.org/2000/svg" xmlns:xlink="http://www.w3.org/1999/xlink" x="0px" y="0px"
	 viewBox="0 0 512 512" style="enable-background:new 0 0 512 512;" xml:space="preserve">
<g>
	<g>
		<path d="M503.983,55.582H67.875C30.448,55.582,0,86.031,0,123.457v260.81c0,0.388,0.037,0.767,0.091,1.142
			c-0.006,0.129-0.016,0.257-0.022,0.386c0,0.001,0,0.003,0,0.004c0,0.007,0,0.015-0.001,0.022c0,0.01-0.001,0.018-0.001,0.027
			c0,0.001,0,0.002,0,0.003C0.031,386.746,0,387.641,0,388.543c0,1.16,0.03,2.332,0.088,3.486c0.115,2.282,0.348,4.579,0.693,6.828
			c0.001,0.004,0.001,0.009,0.001,0.013c0.171,1.117,0.371,2.241,0.596,3.34c0,0.001,0,0.002,0,0.003
			c0.893,4.362,2.224,8.652,3.958,12.752c0.001,0.001,0.001,0.002,0.002,0.003c1.701,4.019,3.804,7.896,6.254,11.523
			c0.001,0.002,0.002,0.003,0.003,0.005c1.21,1.791,2.523,3.547,3.9,5.217c0.002,0.002,0.003,0.004,0.005,0.007
			c2.759,3.341,5.852,6.435,9.194,9.194c0.001,0.001,0.002,0.001,0.003,0.002c1.672,1.38,3.428,2.694,5.22,3.904l0.002,0.001
			c11.231,7.587,24.354,11.596,37.954,11.596h436.109c4.428,0,8.017-3.589,8.017-8.017V63.599
			C512,59.172,508.412,55.582,503.983,55.582z M16.033,123.457c0-28.585,23.256-51.841,51.841-51.841
			c28.585,0,51.841,23.256,51.841,51.841v221.414c-12.517-14.812-31.203-24.203-51.841-24.203s-39.325,9.391-51.841,24.203V123.457z
			 M110.868,417.523c-0.925,1.369-1.929,2.712-2.983,3.99c0,0-0.001,0.001-0.002,0.002c-2.111,2.558-4.478,4.924-7.034,7.034
			c-0.001,0.001-0.001,0.001-0.002,0.002c-1.278,1.054-2.621,2.059-3.99,2.983c-0.001,0-0.001,0.001-0.002,0.001
			c-8.568,5.789-18.589,8.848-28.979,8.848s-20.411-3.059-28.978-8.848c-0.001,0-0.001-0.001-0.002-0.001
			c-1.369-0.925-2.712-1.929-3.99-2.983c0,0-0.001-0.001-0.002-0.002c-2.558-2.111-4.924-4.478-7.035-7.034
			c-0.001-0.001-0.001-0.001-0.001-0.001c-1.055-1.279-2.059-2.621-2.984-3.99c0,0-0.001-0.001-0.001-0.002
			c-1.872-2.771-3.478-5.73-4.776-8.799c0,0,0-0.002-0.001-0.002c-1.322-3.124-2.337-6.395-3.018-9.721v-0.001
			c-0.171-0.838-0.324-1.695-0.454-2.55c0-0.001-0.001-0.003-0.001-0.004c-0.263-1.72-0.441-3.478-0.53-5.226
			c-0.045-0.885-0.067-1.785-0.067-2.675c0-0.68,0.027-1.355,0.052-2.029c0.026-0.561,0.057-1.121,0.096-1.679
			c0-0.001,0-0.001,0-0.002c1.907-26.99,24.613-48.131,51.693-48.131s49.786,21.142,51.693,48.131c0,0.001,0,0.001,0,0.001
			c0.04,0.559,0.071,1.119,0.096,1.68c0.026,0.673,0.052,1.349,0.052,2.029c0,0.89-0.023,1.79-0.067,2.674
			c-0.089,1.748-0.267,3.506-0.53,5.226c0,0.001-0.001,0.003-0.001,0.004c-0.13,0.854-0.283,1.712-0.454,2.55v0.001
			c-0.681,3.325-1.695,6.595-3.017,9.721c0,0.001,0,0.002-0.001,0.002c-1.298,3.069-2.904,6.029-4.776,8.799
			C110.869,417.522,110.868,417.522,110.868,417.523z M495.967,440.384h-384.3c3.104-2.625,5.994-5.529,8.581-8.662
			c0.002-0.002,0.003-0.005,0.005-0.007c1.378-1.671,2.69-3.426,3.9-5.217c0.001-0.002,0.002-0.003,0.003-0.005
			c2.45-3.627,4.555-7.504,6.254-11.523c0-0.001,0.001-0.002,0.002-0.003c1.734-4.099,3.066-8.39,3.958-12.752
			c0-0.001,0-0.002,0-0.003c0.226-1.099,0.425-2.223,0.596-3.34c0.001-0.004,0.001-0.009,0.001-0.013
			c0.344-2.249,0.577-4.546,0.693-6.828c0.059-1.153,0.089-2.326,0.089-3.486c0-0.902-0.031-1.797-0.066-2.692
			c0-0.001,0-0.002,0-0.003c0-0.009-0.001-0.018-0.002-0.027c0-0.007,0-0.015,0-0.022c0-0.001,0-0.003,0-0.004
			c-0.006-0.129-0.016-0.257-0.022-0.386c0.053-0.374,0.091-0.753,0.091-1.142v-260.81c0-20.771-9.387-39.381-24.131-51.841h384.348
			V440.384z"/>
	</g>
</g>
<g>
	<g>
		<path d="M67.875,354.873c-18.566,0-33.67,15.105-33.67,33.67c0,18.566,15.105,33.67,33.67,33.67s33.67-15.105,33.67-33.67
			C101.545,369.977,86.44,354.873,67.875,354.873z M67.875,406.18c-9.725,0-17.637-7.912-17.637-17.637s7.912-17.637,17.637-17.637
			s17.637,7.912,17.637,17.637S77.6,406.18,67.875,406.18z"/>
	</g>
</g>
<g>
	<g>
		<path d="M93.528,179.574c-4.427,0-8.017,3.589-8.017,8.017v98.338c0,4.427,3.589,8.017,8.017,8.017s8.017-3.589,8.017-8.017
			v-98.338C101.545,183.163,97.956,179.574,93.528,179.574z"/>
	</g>
</g>
<g>
	<g>
		<path d="M218.23,326.484l30.611-30.611c3.131-3.131,3.131-8.207,0-11.337c-3.131-3.131-8.207-3.131-11.337,0l-30.611,30.611
			l-30.611-30.611c-3.131-3.131-8.207-3.131-11.337,0c-3.131,3.131-3.131,8.207,0,11.337l30.611,30.611l-30.611,30.611
			c-3.131,3.131-3.131,8.207,0,11.337c1.565,1.566,3.617,2.348,5.668,2.348s4.103-0.782,5.668-2.348l30.611-30.611l30.611,30.611
			c1.565,1.565,3.617,2.348,5.668,2.348s4.104-0.782,5.668-2.348c3.131-3.131,3.131-8.207,0-11.337L218.23,326.484z"/>
	</g>
</g>
<g>
	<g>
		<path d="M235.333,142.635l30.611-30.611c3.131-3.131,3.131-8.207,0-11.337c-3.132-3.131-8.208-3.131-11.338,0l-30.611,30.611
			l-30.611-30.611c-3.131-3.131-8.207-3.131-11.337,0c-3.131,3.131-3.131,8.207,0,11.337l30.611,30.611l-30.611,30.611
			c-3.131,3.13-3.131,8.206,0,11.337c1.565,1.566,3.617,2.348,5.668,2.348s4.103-0.782,5.668-2.348l30.611-30.611l30.611,30.611
			c1.565,1.565,3.617,2.348,5.668,2.348s4.104-0.782,5.669-2.348c3.131-3.131,3.131-8.207,0-11.337L235.333,142.635z"/>
	</g>
</g>
<g>
	<g>
		<path d="M440.439,369.24l30.611-30.611c3.131-3.131,3.131-8.207,0-11.337c-3.132-3.131-8.207-3.131-11.338,0l-30.611,30.611
			l-30.613-30.611c-3.132-3.131-8.207-3.131-11.338,0s-3.131,8.207,0,11.337l30.611,30.611l-30.611,30.611
			c-3.131,3.131-3.131,8.207,0,11.337c1.566,1.566,3.617,2.348,5.669,2.348c2.051,0,4.104-0.782,5.669-2.348l30.611-30.61
			l30.611,30.61c1.566,1.565,3.618,2.348,5.669,2.348s4.103-0.782,5.669-2.348c3.131-3.131,3.131-8.207,0-11.337L440.439,369.24z"/>
	</g>
</g>
<g>
	<g>
		<path d="M389.937,267.434l-25.653-25.653l-2.138-2.138c-3.132-3.131-8.207-3.131-11.338,0l-32.067,32.067
			c-3.131,3.131-3.131,8.207,0,11.337c1.566,1.565,3.618,2.348,5.669,2.348c2.051,0,4.104-0.782,5.669-2.348l19.674-19.674
			c-7.979,75.352-71.906,134.256-149.336,134.256c-4.427,0-8.017,3.589-8.017,8.017c0,4.427,3.589,8.017,8.017,8.017
			c85.453,0,156.039-64.823,165.196-147.875l12.984,12.984c1.566,1.565,3.618,2.348,5.669,2.348c2.051,0,4.104-0.782,5.669-2.348
			C393.067,275.64,393.067,270.564,389.937,267.434z"/>
	</g>
</g>
<g>
	<g>
		<path d="M365.027,106.889c-29.174,0-52.91,23.736-52.91,52.91c0,29.174,23.736,52.91,52.91,52.91s52.91-23.736,52.91-52.91
			C417.937,130.625,394.202,106.889,365.027,106.889z M365.027,196.676c-20.334,0-36.877-16.543-36.877-36.877
			s16.543-36.877,36.877-36.877s36.877,16.543,36.877,36.877S385.361,196.676,365.027,196.676z"/>
	</g>
</g>
<g>
</g>
<g>
</g>
<g>
</g>
<g>
</g>
<g>
</g>
<g>
</g>
<g>
</g>
<g>
</g>
<g>
</g>
<g>
</g>
<g>
</g>
<g>
</g>
<g>
</g>
<g>
</g>
<g>
</g>
</svg>
