<?xml version="1.0" encoding="iso-8859-1"?>
<!-- Generator: Adobe Illustrator 19.0.0, SVG Export Plug-In . SVG Version: 6.00 Build 0)  -->
<svg version="1.1" id="Layer_1" xmlns="http://www.w3.org/2000/svg" xmlns:xlink="http://www.w3.org/1999/xlink" x="0px" y="0px"
	 viewBox="0 0 512 512" style="enable-background:new 0 0 512 512;" xml:space="preserve">
<g>
	<g>
		<path d="M409.921,0h-76.96c-4.428,0-8.017,3.588-8.017,8.017v48.87l-216.674,139.79H16.568c-4.427,0-8.017,3.588-8.017,8.017
			v102.614c0,0.066,0.009,0.131,0.01,0.197c0.003,0.143,0.011,0.285,0.021,0.43c0.012,0.144,0.027,0.286,0.046,0.429
			c0.009,0.065,0.011,0.13,0.02,0.196l25.653,162.472c0.616,3.897,3.974,6.766,7.918,6.766h68.409c4.427,0,8.017-3.588,8.017-8.017
			v-60.392h17.637c4.427,0,8.017-3.588,8.017-8.017v-42.756c0-4.428-3.589-8.017-8.017-8.017h-17.636V322.42l206.297,139.749v41.814
			c0,4.428,3.588,8.017,8.017,8.017h76.96c4.428,0,8.017-3.588,8.017-8.017V8.017C417.937,3.588,414.349,0,409.921,0z
			 M102.614,358.614v42.756v60.393H49.072L25.95,315.324h76.664V358.614z M102.614,299.29H24.585v-86.58h78.029V299.29z
			 M128.267,366.63v26.722h-9.62V366.63H128.267z M324.944,442.805l-206.297-139.75v-93.994L324.944,75.967V442.805z
			 M401.904,495.967h-60.927v-38.022c0-0.007,0-0.015,0-0.021v-0.006V61.255V16.033h60.927V495.967z"/>
	</g>
</g>
<g>
	<g>
		<path d="M84.977,230.881H50.772c-4.427,0-8.017,3.588-8.017,8.017s3.589,8.017,8.017,8.017h34.205
			c4.427,0,8.017-3.588,8.017-8.017S89.404,230.881,84.977,230.881z"/>
	</g>
</g>
<g>
	<g>
		<path d="M495.432,239.432h-34.205c-4.428,0-8.017,3.588-8.017,8.017c0,4.428,3.588,8.017,8.017,8.017h34.205
			c4.428,0,8.017-3.588,8.017-8.017C503.449,243.02,499.861,239.432,495.432,239.432z"/>
	</g>
</g>
<g>
	<g>
		<path d="M478.316,153.653c-2.213-3.835-7.119-5.147-10.951-2.934l-29.622,17.102c-3.834,2.214-5.148,7.117-2.934,10.951
			c1.485,2.572,4.179,4.009,6.95,4.009c1.36,0,2.74-0.346,4.001-1.075l29.622-17.102
			C479.216,162.391,480.53,157.488,478.316,153.653z"/>
	</g>
</g>
<g>
	<g>
		<path d="M475.382,330.293l-29.622-17.102c-3.836-2.214-8.738-0.902-10.951,2.934c-2.214,3.834-0.9,8.737,2.934,10.951
			l29.622,17.102c1.263,0.729,2.641,1.075,4.001,1.075c2.771,0,5.465-1.438,6.95-4.009
			C480.531,337.41,479.216,332.507,475.382,330.293z"/>
	</g>
</g>
<g>
	<g>
		<path d="M384.267,34.205c-4.428,0-8.017,3.588-8.017,8.017v102.614c0,4.428,3.588,8.017,8.017,8.017
			c4.428,0,8.017-3.588,8.017-8.017V42.221C392.284,37.793,388.696,34.205,384.267,34.205z"/>
	</g>
</g>
<g>
	<g>
		<path d="M384.267,171.023c-4.428,0-8.017,3.588-8.017,8.017v42.756c0,4.428,3.588,8.017,8.017,8.017
			c4.428,0,8.017-3.588,8.017-8.017V179.04C392.284,174.611,388.696,171.023,384.267,171.023z"/>
	</g>
</g>
<g>
</g>
<g>
</g>
<g>
</g>
<g>
</g>
<g>
</g>
<g>
</g>
<g>
</g>
<g>
</g>
<g>
</g>
<g>
</g>
<g>
</g>
<g>
</g>
<g>
</g>
<g>
</g>
<g>
</g>
</svg>
