<?xml version="1.0" encoding="iso-8859-1"?>
<!-- Generator: Adobe Illustrator 19.0.0, SVG Export Plug-In . SVG Version: 6.00 Build 0)  -->
<svg version="1.1" id="Layer_1" xmlns="http://www.w3.org/2000/svg" xmlns:xlink="http://www.w3.org/1999/xlink" x="0px" y="0px"
	 viewBox="0 0 512 512" style="enable-background:new 0 0 512 512;" xml:space="preserve">
<g>
	<g>
		<path d="M511.153,500.397L387.162,252.414L263.17,4.432C261.812,1.716,259.037,0,256,0c-3.037,0-5.813,1.716-7.17,4.432
			L124.838,252.414L0.847,500.397c-1.243,2.485-1.11,5.436,0.351,7.8c1.46,2.363,4.04,3.802,6.82,3.802h247.949
			c0.009,0,0.018,0.001,0.028,0.001c0.002,0,0.004,0,0.006,0c0.002,0,0.004,0,0.006,0c0.009,0,0.018-0.001,0.028-0.001h247.949
			c2.779,0,5.359-1.439,6.82-3.802C512.262,505.834,512.396,502.882,511.153,500.397z M256,25.943l111.02,222.04H144.98L256,25.943z
			 M20.988,495.966l111.02-222.041l111.02,222.041H20.988z M256,486.057L144.98,264.016H367.02L256,486.057z M268.971,495.966
			l111.02-222.041l111.02,222.041H268.971z"/>
	</g>
</g>
<g>
</g>
<g>
</g>
<g>
</g>
<g>
</g>
<g>
</g>
<g>
</g>
<g>
</g>
<g>
</g>
<g>
</g>
<g>
</g>
<g>
</g>
<g>
</g>
<g>
</g>
<g>
</g>
<g>
</g>
</svg>
