<?xml version="1.0" encoding="iso-8859-1"?>
<!-- Generator: Adobe Illustrator 19.0.0, SVG Export Plug-In . SVG Version: 6.00 Build 0)  -->
<svg version="1.1" id="Layer_1" xmlns="http://www.w3.org/2000/svg" xmlns:xlink="http://www.w3.org/1999/xlink" x="0px" y="0px"
	 viewBox="0 0 512 512" style="enable-background:new 0 0 512 512;" xml:space="preserve">
<g>
	<g>
		<path d="M448.401,324.944h-17.102c-4.427,0-8.017,3.588-8.017,8.017c0,4.428,3.589,8.017,8.017,8.017h17.102
			c4.427,0,8.017-3.588,8.017-8.017C456.418,328.532,452.828,324.944,448.401,324.944z"/>
	</g>
</g>
<g>
	<g>
		<path d="M491.157,162.472h-45.579c-13.228-20.102-30.817-37.459-51.105-50.378c-20.034-12.757-42.828-21.224-66.323-24.716V8.017
			c0-4.428-3.589-8.017-8.017-8.017h-51.307H63.599c-4.427,0-8.017,3.588-8.017,8.017v188.125c0,4.428,3.589,8.017,8.017,8.017
			h76.982c-4.53,14.18-7.162,28.853-7.852,43.825H37.946c-4.427,0-8.017,3.588-8.017,8.017v205.762h-9.086
			c-4.427,0-8.017,3.588-8.017,8.017v34.205c0,4.428,3.589,8.017,8.017,8.017h17.102h290.739h17.102
			c4.427,0,8.017-3.588,8.017-8.017v-34.205c0-4.428-3.589-8.017-8.017-8.017h-9.086v-38.617
			c37.367-7.488,71.139-27.334,96.041-56.515h58.414c4.427,0,8.017-3.588,8.017-8.017v-51.307V170.489
			C499.173,166.06,495.584,162.472,491.157,162.472z M276.843,97.147V16.033h35.273v78.362c0,0.01,0,0.019,0,0.029v93.701h-35.273
			V97.147z M71.616,188.125V16.033H260.81v81.114v90.978H151.952H71.616z M45.962,264.017h94.597h180.109v152.432v45.314H45.962
			V264.017z M337.77,477.795v18.171h-9.086H37.946H28.86v-18.171h9.086h290.739H337.77z M336.701,406.758V256
			c0-4.428-3.589-8.017-8.017-8.017H148.786c0.765-15.029,3.692-29.717,8.723-43.825h111.318h51.307
			c4.427,0,8.017-3.588,8.017-8.017v-92.551c38.658,6.387,73.923,27.706,97.763,58.881h-37.371c-4.427,0-8.017,3.588-8.017,8.017
			v136.818v51.307c0,4.428,3.589,8.017,8.017,8.017h22.267C390.289,386.643,364.67,400.541,336.701,406.758z M483.14,350.597
			h-54.147H396.56v-35.273h86.58V350.597z M483.14,299.29h-86.58V178.505h44.624c0.005,0,0.011,0.001,0.017,0.001
			c0.005,0,0.011-0.001,0.015-0.001h41.924V299.29z"/>
	</g>
</g>
<g>
	<g>
		<path d="M294.48,76.96c-4.427,0-8.017,3.588-8.017,8.017v25.653c0,4.428,3.589,8.017,8.017,8.017s8.017-3.588,8.017-8.017V84.977
			C302.497,80.549,298.908,76.96,294.48,76.96z"/>
	</g>
</g>
<g>
</g>
<g>
</g>
<g>
</g>
<g>
</g>
<g>
</g>
<g>
</g>
<g>
</g>
<g>
</g>
<g>
</g>
<g>
</g>
<g>
</g>
<g>
</g>
<g>
</g>
<g>
</g>
<g>
</g>
</svg>
