<?xml version="1.0" encoding="utf-8"?>
<!-- Generator: Adobe Illustrator 21.1.0, SVG Export Plug-In . SVG Version: 6.00 Build 0)  -->
<svg version="1.1" id="Layer_1" xmlns="http://www.w3.org/2000/svg" xmlns:xlink="http://www.w3.org/1999/xlink" x="0px" y="0px"
	 viewBox="0 0 512 512" style="enable-background:new 0 0 512 512;" xml:space="preserve">
<style type="text/css">
	.st0{fill:#FFFFFF;}
</style>
<g>
	<g>
		<path class="st0" d="M501.8,0H10.2c-4.4,0-8,3.6-8,8.1v349.2V422c0,4.5,3.6,8.1,8.1,8.1h210.4l-5.6,35.6h-19.4
			c-16.3,0-29.6,13.3-29.6,29.6v8.6c0,4.5,3.6,8.1,8.1,8.1h43.1h77.6H338c4.5,0,8.1-3.6,8.1-8.1v-8.6c0-16.3-13.3-29.6-29.6-29.6
			h-19.4l-5.6-35.6h210.4c4.5,0,8.1-3.6,8.1-8.1v-64.7V8.1C509.8,3.6,506.2,0,501.8,0z M316.4,481.8c7.4,0,13.5,6,13.5,13.5v0.5h-35
			h-77.6h-35v-0.5c0-7.4,6-13.5,13.5-13.5H222l0,0l0,0h68l0,0l0,0H316.4z M231.4,465.7l5.6-35.6h38l5.6,35.6H231.4z M493.7,413.9
			H281.9h-51.7H18.3v-48.5h475.4L493.7,413.9L493.7,413.9z M493.7,349.2H18.3v-333h475.4L493.7,349.2L493.7,349.2z"/>
	</g>
</g>
<g>
	<g>
		<path class="st0" d="M268.9,375.1H243c-4.5,0-8.1,3.6-8.1,8.1s3.6,8.1,8.1,8.1h25.9c4.5,0,8.1-3.6,8.1-8.1
			S273.4,375.1,268.9,375.1z"/>
	</g>
</g>
<g>
	<g>
		<path class="st0" d="M402.6,375.1h-86.2c-4.5,0-8.1,3.6-8.1,8.1s3.6,8.1,8.1,8.1h86.2c4.5,0,8.1-3.6,8.1-8.1
			C410.7,378.7,407.1,375.1,402.6,375.1z"/>
	</g>
</g>
<g>
	<g>
		<path class="st0" d="M467.3,375.1h-30.2c-4.5,0-8.1,3.6-8.1,8.1s3.6,8.1,8.1,8.1h30.2c4.5,0,8.1-3.6,8.1-8.1
			S471.7,375.1,467.3,375.1z"/>
	</g>
</g>
<g>
	<g>
		<path class="st0" d="M139,190.4V46.9c0-4.5-3.6-8.1-8.1-8.1s-8.1,3.6-8.1,8.1v143.5c-24.4,3.9-43.1,25.1-43.1,50.6
			s18.7,46.7,43.1,50.6v22.7c0,4.5,3.6,8.1,8.1,8.1s8.1-3.6,8.1-8.1v-22.7c24.4-3.9,43.1-25.1,43.1-50.6S163.5,194.2,139,190.4z
			 M131,275.9c-19.3,0-35-15.7-35-35s15.7-35,35-35s35,15.7,35,35S150.3,275.9,131,275.9z"/>
	</g>
</g>
<g>
	<g>
		<path class="st0" d="M264.1,69.6V46.9c0-4.5-3.6-8.1-8.1-8.1s-8.1,3.6-8.1,8.1v22.7c-24.4,3.9-43.1,25.1-43.1,50.6
			s18.7,46.7,43.1,50.6v143.5c0,4.5,3.6,8.1,8.1,8.1s8.1-3.6,8.1-8.1V170.7c24.4-3.9,43.1-25.1,43.1-50.6S288.5,73.5,264.1,69.6z
			 M256,155.2c-19.3,0-35-15.7-35-35s15.7-35,35-35s35,15.7,35,35S275.3,155.2,256,155.2z"/>
	</g>
</g>
<g>
	<g>
		<path class="st0" d="M389.1,168.8V46.9c0-4.5-3.6-8.1-8.1-8.1s-8.1,3.6-8.1,8.1v121.9c-24.4,3.9-43.1,25.1-43.1,50.6
			s18.7,46.7,43.1,50.6v44.3c0,4.5,3.6,8.1,8.1,8.1s8.1-3.6,8.1-8.1V270c24.4-3.9,43.1-25.1,43.1-50.6S413.5,172.7,389.1,168.8z
			 M381,254.4c-19.3,0-35-15.7-35-35s15.7-35,35-35s35,15.7,35,35S400.4,254.4,381,254.4z"/>
	</g>
</g>
</svg>
