<?xml version="1.0" encoding="iso-8859-1"?>
<!-- Generator: Adobe Illustrator 19.0.0, SVG Export Plug-In . SVG Version: 6.00 Build 0)  -->
<svg version="1.1" id="Layer_1" xmlns="http://www.w3.org/2000/svg" xmlns:xlink="http://www.w3.org/1999/xlink" x="0px" y="0px"
	 viewBox="0 0 512 512" style="enable-background:new 0 0 512 512;" xml:space="preserve">
<g>
	<g>
		<path d="M251.652,169.58c-30.869,0-55.983,25.114-55.983,55.983c0,30.869,25.114,55.983,55.983,55.983
			c30.869,0,55.983-25.114,55.983-55.983C307.635,194.694,282.521,169.58,251.652,169.58z M251.652,265.24
			c-21.878,0-39.677-17.799-39.677-39.677c0-21.878,17.799-39.677,39.677-39.677c21.878,0,39.677,17.799,39.677,39.677
			C291.329,247.441,273.53,265.24,251.652,265.24z"/>
	</g>
</g>
<g>
	<g>
		<path d="M251.652,395.686c-23.676,0-42.938,19.263-42.938,42.938c0,20.889,30.35,62.092,36.436,70.14
			c1.54,2.038,3.948,3.236,6.503,3.236c2.556,0,4.962-1.198,6.503-3.236c6.085-8.047,36.436-49.251,36.436-70.14
			C294.59,414.948,275.328,395.686,251.652,395.686z M251.652,489.973c-12.646-18.06-26.633-41.706-26.633-51.349
			c0-14.685,11.948-26.633,26.633-26.633c14.685,0,26.633,11.948,26.633,26.633C278.285,448.267,264.297,471.913,251.652,489.973z"
			/>
	</g>
</g>
<g>
	<g>
		<path d="M448.409,371.674l-79.899-71.489v-152.89c0-0.08-0.01-0.159-0.012-0.239c-0.004-0.159-0.01-0.316-0.024-0.475
			c-0.01-0.117-0.026-0.234-0.041-0.35c-0.02-0.148-0.04-0.295-0.067-0.441c-0.023-0.123-0.051-0.245-0.079-0.365
			c-0.031-0.136-0.065-0.271-0.104-0.405c-0.037-0.127-0.078-0.251-0.121-0.375c-0.043-0.125-0.087-0.25-0.137-0.374
			c-0.052-0.129-0.108-0.254-0.166-0.38c-0.052-0.114-0.105-0.227-0.164-0.34c-0.068-0.133-0.142-0.261-0.219-0.388
			c-0.06-0.101-0.119-0.202-0.183-0.301c-0.087-0.134-0.18-0.262-0.275-0.39c-0.047-0.064-0.087-0.132-0.137-0.195L258.075,3.133
			C256.532,1.157,254.162,0,251.652,0c-2.51,0-4.88,1.157-6.424,3.134L136.522,142.276c-0.049,0.063-0.089,0.13-0.137,0.195
			c-0.095,0.128-0.188,0.257-0.275,0.39c-0.064,0.099-0.123,0.2-0.183,0.301c-0.075,0.128-0.15,0.257-0.219,0.388
			c-0.058,0.112-0.111,0.226-0.163,0.34c-0.058,0.126-0.114,0.251-0.166,0.38c-0.05,0.124-0.094,0.249-0.137,0.374
			c-0.042,0.124-0.085,0.248-0.121,0.375c-0.039,0.135-0.072,0.27-0.104,0.405c-0.028,0.121-0.057,0.242-0.079,0.365
			c-0.027,0.147-0.048,0.294-0.067,0.441c-0.015,0.116-0.032,0.233-0.041,0.35c-0.014,0.159-0.02,0.316-0.024,0.475
			c-0.002,0.08-0.012,0.159-0.012,0.239v152.89l-79.899,71.489c-2.519,2.253-3.386,5.828-2.18,8.986
			c1.206,3.157,4.236,5.242,7.616,5.242h82.616h217.41h82.616c3.38,0,6.409-2.085,7.616-5.243
			C451.795,377.502,450.929,373.927,448.409,371.674z M134.794,369.597H81.67l53.124-47.531V369.597z M251.652,21.395
			l91.989,117.747H159.662L251.652,21.395z M352.204,369.597H151.1v-57.614h201.104V369.597z M352.204,295.677H151.1V155.448
			h201.104V295.677z M368.51,369.597v-47.531l53.124,47.531H368.51z"/>
	</g>
</g>
<g>
	<g>
		<path d="M261.765,202.405c-3.184-3.184-8.346-3.184-11.529,0l-21.741,21.741c-3.184,3.184-3.184,8.346,0,11.529
			c1.591,1.593,3.679,2.388,5.765,2.388s4.173-0.796,5.765-2.388l21.741-21.741C264.949,210.75,264.949,205.588,261.765,202.405z"/>
	</g>
</g>
<g>
	<g>
		<path d="M274.809,224.146c-3.184-3.184-8.346-3.184-11.529,0l-13.045,13.045c-3.184,3.184-3.184,8.346,0,11.529
			c1.591,1.591,3.679,2.388,5.765,2.388c2.086,0,4.173-0.796,5.765-2.388l13.045-13.045
			C277.993,232.492,277.993,227.329,274.809,224.146z"/>
	</g>
</g>
<g>
	<g>
		<path d="M486.454,252.195c-4.503,0-8.153,3.65-8.153,8.153v147.839c0,4.503,3.65,8.153,8.153,8.153
			c4.503,0,8.153-3.65,8.153-8.153V260.348C494.607,255.846,490.957,252.195,486.454,252.195z"/>
	</g>
</g>
<g>
	<g>
		<path d="M434.276,217.41c-4.503,0-8.153,3.65-8.153,8.153v52.178c0,4.503,3.65,8.153,8.153,8.153c4.503,0,8.153-3.65,8.153-8.153
			v-52.178C442.429,221.06,438.779,217.41,434.276,217.41z"/>
	</g>
</g>
<g>
	<g>
		<path d="M25.546,260.892c-4.503,0-8.153,3.65-8.153,8.153v173.928c0,4.503,3.65,8.153,8.153,8.153s8.153-3.65,8.153-8.153V269.045
			C33.698,264.542,30.048,260.892,25.546,260.892z"/>
	</g>
</g>
<g>
	<g>
		<path d="M77.724,182.624c-4.503,0-8.153,3.65-8.153,8.153v78.268c0,4.503,3.65,8.153,8.153,8.153s8.153-3.65,8.153-8.153v-78.268
			C85.877,186.275,82.227,182.624,77.724,182.624z"/>
	</g>
</g>
<g>
</g>
<g>
</g>
<g>
</g>
<g>
</g>
<g>
</g>
<g>
</g>
<g>
</g>
<g>
</g>
<g>
</g>
<g>
</g>
<g>
</g>
<g>
</g>
<g>
</g>
<g>
</g>
<g>
</g>
</svg>
