<?xml version="1.0" encoding="utf-8"?>
<!-- Generator: Adobe Illustrator 21.1.0, SVG Export Plug-In . SVG Version: 6.00 Build 0)  -->
<svg version="1.1" id="Layer_1" xmlns="http://www.w3.org/2000/svg" xmlns:xlink="http://www.w3.org/1999/xlink" x="0px" y="0px"
	 viewBox="0 0 512 512" style="enable-background:new 0 0 512 512;" xml:space="preserve">
<style type="text/css">
	.st0{fill:#FFFFFF;}
</style>
<g>
	<g>
		<path class="st0" d="M444.8,202.5c-2.6-9.1-5.9-18.1-9.7-26.8c-1.8-4-6.6-5.8-10.6-4c-4,1.8-5.8,6.6-4,10.6
			c3.6,7.9,6.6,16.2,8.9,24.6c1,3.5,4.2,5.8,7.7,5.8c0.7,0,1.5-0.1,2.2-0.3C443.5,211.2,446,206.8,444.8,202.5z"/>
	</g>
</g>
<g>
	<g>
		<path class="st0" d="M407.3,131.2C388.2,108,363.6,89.2,336.2,77c-4-1.8-8.8,0-10.6,4c-1.8,4,0,8.8,4,10.6
			c25.1,11.3,47.7,28.5,65.3,49.8c1.6,1.9,3.9,2.9,6.2,2.9c1.8,0,3.6-0.6,5.1-1.8C409.6,139.6,410.1,134.6,407.3,131.2z"/>
	</g>
</g>
<g>
	<g>
		<path class="st0" d="M504,248h-26.3C473.5,132,380,38.5,264,34.4V8c0-4.4-3.6-8-8-8c-4.4,0-8,3.6-8,8v26.3
			C132,38.5,38.5,132,34.4,248H8c-4.4,0-8,3.6-8,8c0,4.4,3.6,8,8,8h26.3C38.5,380,132,473.5,248,477.6V504c0,4.4,3.6,8,8,8
			c4.4,0,8-3.6,8-8v-26.3C380,473.5,473.5,380,477.6,264H504c4.4,0,8-3.6,8-8C512,251.6,508.4,248,504,248z M264,50.4
			c107.1,4.1,193.4,90.5,197.6,197.6h-35.3C422.2,160.3,351.7,89.8,264,85.7L264,50.4L264,50.4z M248,50.4v35.3
			C160.3,89.8,89.8,160.3,85.7,248H50.4C54.5,140.9,140.9,54.5,248,50.4z M248,461.6C140.9,457.5,54.5,371.1,50.4,264h35.3
			c4.1,87.6,74.6,158.2,162.3,162.3V461.6z M256,393.4c-4.4,0-8,3.6-8,8v8.9c-78.8-4-142.2-67.4-146.2-146.2h8.9c4.4,0,8-3.6,8-8
			c0-4.4-3.6-8-8-8h-8.9c4-78.8,67.4-142.2,146.2-146.2v8.9c0,4.4,3.6,8,8,8c4.4,0,8-3.6,8-8v-8.9c78.8,4,142.2,67.4,146.2,146.2
			h-8.9c-4.4,0-8,3.6-8,8c0,4.4,3.6,8,8,8h8.9c-4,78.8-67.4,142.2-146.2,146.2v-8.9C264,396.9,260.4,393.4,256,393.4z M264,461.6
			v-35.3c87.6-4.1,158.2-74.6,162.3-162.3h35.3C457.5,371.1,371.1,457.5,264,461.6z"/>
	</g>
</g>
<g>
	<g>
		<path class="st0" d="M256,128.3c-70.4,0-127.7,57.3-127.7,127.7S185.6,383.7,256,383.7S383.7,326.4,383.7,256
			S326.4,128.3,256,128.3z M354.9,204.2c7,13.3,11.4,28.1,12.5,43.8h-26.6c-0.6-15.2-3-30-7.1-43.8H354.9z M344.6,188.1h-16.5
			c-4.6-11-10.2-20.8-16.6-29C324.4,166.5,335.6,176.4,344.6,188.1z M298.1,248c-0.3-15.2-1.4-30.1-3.2-43.8h22
			c4.5,13.6,7.1,28.5,7.8,43.8H298.1z M324.8,264c-0.7,15.3-3.3,30.2-7.8,43.8h-22c1.8-13.8,2.9-28.6,3.2-43.8H324.8z M310.6,188.1
			h-18.2c-2.1-11.1-5.4-24.2-10.2-35.3C293.2,160.3,303.1,172.5,310.6,188.1z M256,144.3c3.7,0,13.4,11.3,20,43.8h-40
			C242.6,155.6,252.3,144.3,256,144.3z M200.5,159.1c-6.4,8.3-12,18-16.6,29h-16.5C176.4,176.4,187.6,166.5,200.5,159.1z M213.9,248
			h-26.6c0.7-15.3,3.3-30.2,7.8-43.8h22C215.2,217.9,214.1,232.8,213.9,248z M217.1,307.8h-22c-4.5-13.6-7.1-28.5-7.8-43.8h26.6
			C214.1,279.2,215.2,294.1,217.1,307.8z M157.1,204.2h21.2c-4,13.8-6.4,28.7-7.1,43.8h-26.6C145.7,232.3,150.1,217.4,157.1,204.2z
			 M157.1,307.8c-7-13.3-11.4-28.1-12.5-43.8h26.6c0.6,15.2,3,30,7.1,43.8H157.1z M167.4,323.9h16.5c4.6,11,10.2,20.8,16.6,29
			C187.6,345.5,176.4,335.6,167.4,323.9z M201.4,323.9h18.2c2.1,11.1,5.4,24.2,10.2,35.3C218.8,351.7,208.9,339.5,201.4,323.9z
			 M219.7,188.1h-18.2c7.5-15.7,17.3-27.8,28.4-35.3C225,163.9,221.8,177,219.7,188.1z M256,367.7c-3.7,0-13.4-11.3-20-43.8h40
			C269.4,356.4,259.7,367.7,256,367.7z M278.7,307.8h-45.5c-1.9-13.6-3.1-28.6-3.4-43.8h52.2C281.8,279.3,280.7,294.2,278.7,307.8z
			 M229.9,248c0.3-15.3,1.4-30.2,3.4-43.8h45.5c1.9,13.6,3.1,28.6,3.4,43.8H229.9z M282.2,359.1c4.8-11.1,8.1-24.2,10.2-35.3h18.2
			C303.1,339.5,293.2,351.7,282.2,359.1z M311.5,352.9c6.4-8.3,12-18,16.6-29h16.5C335.6,335.6,324.4,345.5,311.5,352.9z
			 M354.9,307.8h-21.2c4-13.8,6.4-28.7,7.1-43.8h26.6C366.3,279.7,361.9,294.6,354.9,307.8z"/>
	</g>
</g>
</svg>
