<?xml version="1.0" encoding="iso-8859-1"?>
<!-- Generator: Adobe Illustrator 19.0.0, SVG Export Plug-In . SVG Version: 6.00 Build 0)  -->
<svg version="1.1" id="Layer_1" xmlns="http://www.w3.org/2000/svg" xmlns:xlink="http://www.w3.org/1999/xlink" x="0px" y="0px"
	 viewBox="0 0 512 512" style="enable-background:new 0 0 512 512;" xml:space="preserve">
<g>
	<g>
		<path d="M503.983,55.582h-34.739v-43.29c0-4.428-3.588-8.017-8.017-8.017c-4.428,0-8.017,3.588-8.017,8.017v43.29h-52.376v-43.29
			c0-4.428-3.588-8.017-8.017-8.017c-4.428,0-8.017,3.588-8.017,8.017v43.29h-52.376v-43.29c0-4.428-3.588-8.017-8.017-8.017
			c-4.428,0-8.017,3.588-8.017,8.017v43.29h-52.376v-43.29c0-4.428-3.588-8.017-8.017-8.017c-4.427,0-8.017,3.588-8.017,8.017v43.29
			h-52.376v-43.29c0-4.428-3.589-8.017-8.017-8.017s-8.017,3.588-8.017,8.017v43.29h-52.376v-43.29c0-4.428-3.589-8.017-8.017-8.017
			s-8.017,3.588-8.017,8.017v43.29H58.789v-43.29c0-4.428-3.589-8.017-8.017-8.017s-8.017,3.588-8.017,8.017v43.29H8.017
			C3.589,55.582,0,59.171,0,63.599v436.109c0,4.428,3.589,8.017,8.017,8.017h495.967c4.428,0,8.017-3.588,8.017-8.017V63.599
			C512,59.171,508.412,55.582,503.983,55.582z M495.967,491.691H16.033V71.616h26.722v17.637c0,4.428,3.589,8.017,8.017,8.017
			s8.017-3.588,8.017-8.017V71.616h52.376v17.637c0,4.428,3.589,8.017,8.017,8.017s8.017-3.588,8.017-8.017V71.616h52.376v17.637
			c0,4.428,3.589,8.017,8.017,8.017s8.017-3.588,8.017-8.017V71.616h52.376v17.637c0,4.428,3.589,8.017,8.017,8.017
			c4.428,0,8.017-3.588,8.017-8.017V71.616h52.376v17.637c0,4.428,3.588,8.017,8.017,8.017c4.428,0,8.017-3.588,8.017-8.017V71.616
			h52.376v17.637c0,4.428,3.588,8.017,8.017,8.017c4.428,0,8.017-3.588,8.017-8.017V71.616h52.376v17.637
			c0,4.428,3.588,8.017,8.017,8.017c4.428,0,8.017-3.588,8.017-8.017V71.616h26.722V491.691z"/>
	</g>
</g>
<g>
	<g>
		<path d="M469.779,252.259H42.221c-4.427,0-8.017,3.588-8.017,8.017v68.409c0,4.428,3.589,8.017,8.017,8.017h427.557
			c4.428,0,8.017-3.588,8.017-8.017v-68.409C477.795,255.847,474.207,252.259,469.779,252.259z M461.762,320.668H50.238v-52.376
			h411.524V320.668z"/>
	</g>
</g>
<g>
	<g>
		<path d="M187.591,123.992H50.772c-4.427,0-8.017,3.588-8.017,8.017v76.96c0,4.428,3.589,8.017,8.017,8.017h47.016l14.722,22.083
			c1.487,2.231,3.989,3.57,6.67,3.57s5.184-1.339,6.67-3.57l14.724-22.083h47.016c4.427,0,8.017-3.588,8.017-8.017v-76.96
			C195.608,127.58,192.018,123.992,187.591,123.992z M179.574,200.952h-43.29c-2.681,0-5.184,1.339-6.67,3.57l-10.432,15.649
			l-10.432-15.649c-1.487-2.231-3.989-3.57-6.67-3.57h-43.29v-60.927h120.785V200.952z"/>
	</g>
</g>
<g>
	<g>
		<path d="M161.937,149.645c-4.427,0-8.017,3.588-8.017,8.017v25.653c0,4.428,3.589,8.017,8.017,8.017s8.017-3.588,8.017-8.017
			v-25.653C169.954,153.233,166.365,149.645,161.937,149.645z"/>
	</g>
</g>
<g>
	<g>
		<path d="M461.228,123.992H324.409c-4.428,0-8.017,3.588-8.017,8.017v76.96c0,4.428,3.588,8.017,8.017,8.017h47.016l14.722,22.083
			c1.487,2.231,3.989,3.57,6.67,3.57s5.184-1.339,6.67-3.57l14.724-22.083h47.016c4.428,0,8.017-3.588,8.017-8.017v-76.96
			C469.244,127.58,465.656,123.992,461.228,123.992z M453.211,200.952h-43.29c-2.681,0-5.184,1.339-6.67,3.57l-10.432,15.649
			l-10.432-15.649c-1.487-2.231-3.989-3.57-6.67-3.57h-43.29v-60.927h120.785V200.952z"/>
	</g>
</g>
<g>
	<g>
		<path d="M435.574,149.645c-4.428,0-8.017,3.588-8.017,8.017v25.653c0,4.428,3.588,8.017,8.017,8.017
			c4.428,0,8.017-3.588,8.017-8.017v-25.653C443.591,153.233,440.003,149.645,435.574,149.645z"/>
	</g>
</g>
<g>
	<g>
		<path d="M324.409,363.424h-47.016l-14.722-22.083c-1.487-2.231-3.989-3.57-6.67-3.57s-5.184,1.339-6.67,3.57l-14.724,22.083
			h-47.016c-4.427,0-8.017,3.588-8.017,8.017v76.96c0,4.428,3.589,8.017,8.017,8.017h136.818c4.428,0,8.017-3.588,8.017-8.017
			v-76.96C332.426,367.012,328.838,363.424,324.409,363.424z M316.393,440.384H195.608v-60.927h43.29c2.681,0,5.184-1.339,6.67-3.57
			L256,360.238l10.432,15.649c1.487,2.231,3.989,3.57,6.67,3.57h43.29V440.384z"/>
	</g>
</g>
<g>
	<g>
		<path d="M298.756,389.077c-4.428,0-8.017,3.588-8.017,8.017v25.653c0,4.428,3.588,8.017,8.017,8.017
			c4.428,0,8.017-3.588,8.017-8.017v-25.653C306.772,392.666,303.184,389.077,298.756,389.077z"/>
	</g>
</g>
<g>
</g>
<g>
</g>
<g>
</g>
<g>
</g>
<g>
</g>
<g>
</g>
<g>
</g>
<g>
</g>
<g>
</g>
<g>
</g>
<g>
</g>
<g>
</g>
<g>
</g>
<g>
</g>
<g>
</g>
</svg>
