<?xml version="1.0" encoding="iso-8859-1"?>
<!-- Generator: Adobe Illustrator 19.0.0, SVG Export Plug-In . SVG Version: 6.00 Build 0)  -->
<svg version="1.1" id="Layer_1" xmlns="http://www.w3.org/2000/svg" xmlns:xlink="http://www.w3.org/1999/xlink" x="0px" y="0px"
	 viewBox="0 0 511.999 511.999" style="enable-background:new 0 0 511.999 511.999;" xml:space="preserve">
<g>
	<g>
		<path d="M268.827,38.346c-4.427,0-8.017,3.589-8.017,8.017c0,4.427,3.589,8.017,8.017,8.017c39.194,0,71.081,31.886,71.081,71.081
			c0,4.427,3.589,8.017,8.017,8.017s8.017-3.589,8.017-8.017C355.942,77.426,316.862,38.346,268.827,38.346z"/>
	</g>
</g>
<g>
	<g>
		<path d="M407.783,166.613c-4.427,0-8.017,3.589-8.017,8.017s3.589,8.017,8.017,8.017c30.943,0,56.117,25.174,56.117,56.117
			c0,4.427,3.589,8.017,8.017,8.017s8.017-3.589,8.017-8.017C479.933,198.979,447.567,166.613,407.783,166.613z"/>
	</g>
</g>
<g>
	<g>
		<path d="M407.783,134.546c-6.845,0-13.631,0.664-20.287,1.98c0.34-3.678,0.512-7.373,0.512-11.065
			c0-65.717-53.465-119.182-119.182-119.182c-65.099,0-118.176,52.462-119.168,117.33c-11.799-4.096-24.16-6.165-36.891-6.165
			C50.588,117.444,0,168.032,0,230.212c0,28.114,10.407,55.046,29.304,75.833c18.105,19.916,42.533,32.635,69.055,36.023
			c1.112,0.584,2.377,0.913,3.72,0.913h72.685v94.864c0,4.427,3.589,8.017,8.017,8.017h145.37c4.427,0,8.017-3.589,8.017-8.017
			v-94.864h69.478c0.169,0,0.336-0.005,0.502-0.016c0.544,0.01,1.089,0.016,1.635,0.016c57.466,0,104.217-46.751,104.217-104.217
			S465.249,134.546,407.783,134.546z M328.15,254.53c-4.427,0-8.017,3.589-8.017,8.017v72.418v94.864H190.797v-94.864v-72.418
			c0-4.427-3.589-8.017-8.017-8.017h-58.543l131.237-105.947L387.166,254.53H328.15z M407.783,326.947
			c-0.656,0-1.309-0.011-1.961-0.025c-0.275-0.007-0.553,0.002-0.827,0.025h-68.827v-56.384h73.754c3.4,0,6.432-2.145,7.561-5.353
			c1.13-3.208,0.113-6.779-2.536-8.91L260.492,132.041c-2.938-2.363-7.126-2.36-10.06,0.009L96.51,256.308
			c-2.644,2.135-3.656,5.704-2.524,8.908c1.132,3.205,4.161,5.347,7.559,5.347h73.219v56.384h-69.792
			c-0.656-0.253-1.355-0.424-2.085-0.498c-49.514-5.018-86.854-46.391-86.854-96.237c0-53.34,43.395-96.735,96.735-96.735
			c14.68,0,28.776,3.202,41.897,9.517c2.602,1.253,5.676,1.009,8.049-0.638c2.372-1.647,3.675-4.443,3.411-7.319
			c-0.296-3.224-0.447-6.445-0.447-9.577c0-56.876,46.272-103.148,103.148-103.148c56.876,0,103.148,46.272,103.148,103.148
			c0,6.812-0.672,13.64-2,20.294c-0.558,2.794,0.41,5.675,2.542,7.565c2.131,1.891,5.105,2.509,7.814,1.623
			c8.843-2.895,18.079-4.362,27.452-4.362c48.625,0,88.184,39.559,88.184,88.184C495.967,287.389,456.408,326.947,407.783,326.947z"
			/>
	</g>
</g>
<g>
	<g>
		<path d="M328.15,459.757h-145.37c-4.427,0-8.017,3.589-8.017,8.017s3.589,8.017,8.017,8.017h145.37
			c4.427,0,8.017-3.589,8.017-8.017S332.579,459.757,328.15,459.757z"/>
	</g>
</g>
<g>
	<g>
		<path d="M328.15,489.686h-145.37c-4.427,0-8.017,3.589-8.017,8.017s3.589,8.017,8.017,8.017h145.37
			c4.427,0,8.017-3.589,8.017-8.017S332.579,489.686,328.15,489.686z"/>
	</g>
</g>
<g>
</g>
<g>
</g>
<g>
</g>
<g>
</g>
<g>
</g>
<g>
</g>
<g>
</g>
<g>
</g>
<g>
</g>
<g>
</g>
<g>
</g>
<g>
</g>
<g>
</g>
<g>
</g>
<g>
</g>
</svg>
