<?xml version="1.0" encoding="iso-8859-1"?>
<!-- Generator: Adobe Illustrator 19.0.0, SVG Export Plug-In . SVG Version: 6.00 Build 0)  -->
<svg version="1.1" id="Layer_1" xmlns="http://www.w3.org/2000/svg" xmlns:xlink="http://www.w3.org/1999/xlink" x="0px" y="0px"
	 viewBox="0 0 512 512" style="enable-background:new 0 0 512 512;" xml:space="preserve">
<g>
	<g>
		<path d="M144.835,416.868H97.804c-4.428,0-8.017,3.589-8.017,8.017v42.756c0,4.427,3.588,8.017,8.017,8.017h47.031
			c4.428,0,8.017-3.589,8.017-8.017v-42.756C152.852,420.458,149.263,416.868,144.835,416.868z M136.818,459.624H105.82v-26.722
			h30.998V459.624z"/>
	</g>
</g>
<g>
	<g>
		<path d="M234.622,416.868h-47.031c-4.428,0-8.017,3.589-8.017,8.017v42.756c0,4.427,3.588,8.017,8.017,8.017h47.031
			c4.428,0,8.017-3.589,8.017-8.017v-42.756C242.639,420.458,239.051,416.868,234.622,416.868z M226.605,459.624h-30.998v-26.722
			h30.998V459.624z"/>
	</g>
</g>
<g>
	<g>
		<path d="M414.196,32.067h-47.031c-4.428,0-8.017,3.589-8.017,8.017v42.756c0,4.427,3.588,8.017,8.017,8.017h47.031
			c4.428,0,8.017-3.589,8.017-8.017V40.083C422.213,35.656,418.625,32.067,414.196,32.067z M406.18,74.823h-30.998V48.1h30.998
			V74.823z"/>
	</g>
</g>
<g>
	<g>
		<path d="M324.409,416.868h-47.031c-4.428,0-8.017,3.589-8.017,8.017v42.756c0,4.427,3.588,8.017,8.017,8.017h47.031
			c4.428,0,8.017-3.589,8.017-8.017v-42.756C332.426,420.458,328.838,416.868,324.409,416.868z M316.393,459.624h-30.998v-26.722
			h30.998V459.624z"/>
	</g>
</g>
<g>
	<g>
		<path d="M144.835,32.067H97.804c-4.428,0-8.017,3.589-8.017,8.017v42.756c0,4.427,3.588,8.017,8.017,8.017h47.031
			c4.428,0,8.017-3.589,8.017-8.017V40.083C152.852,35.656,149.263,32.067,144.835,32.067z M136.818,74.823H105.82V48.1h30.998
			V74.823z"/>
	</g>
</g>
<g>
	<g>
		<path d="M324.409,32.067h-47.031c-4.428,0-8.017,3.589-8.017,8.017v42.756c0,4.427,3.588,8.017,8.017,8.017h47.031
			c4.428,0,8.017-3.589,8.017-8.017V40.083C332.426,35.656,328.838,32.067,324.409,32.067z M316.393,74.823h-30.998V48.1h30.998
			V74.823z"/>
	</g>
</g>
<g>
	<g>
		<path d="M234.622,32.067h-47.031c-4.428,0-8.017,3.589-8.017,8.017v42.756c0,4.427,3.588,8.017,8.017,8.017h47.031
			c4.428,0,8.017-3.589,8.017-8.017V40.083C242.639,35.656,239.051,32.067,234.622,32.067z M226.605,74.823h-30.998V48.1h30.998
			V74.823z"/>
	</g>
</g>
<g>
	<g>
		<path d="M503.983,48.1c4.428,0,8.017-3.589,8.017-8.017V14.43c0-4.427-3.588-8.017-8.017-8.017H8.017
			C3.588,6.413,0,10.003,0,14.43v25.653C0,44.511,3.588,48.1,8.017,48.1h39.015v26.722H8.017C3.588,74.823,0,78.412,0,82.839v34.205
			v277.912v29.929c0,4.427,3.588,8.017,8.017,8.017h39.015v26.722H8.017c-4.428,0-8.017,3.589-8.017,8.017v29.929
			c0,4.427,3.588,8.017,8.017,8.017h495.967c4.428,0,8.017-3.589,8.017-8.017v-29.929c0-4.427-3.588-8.017-8.017-8.017h-39.015
			v-26.722h39.015c4.428,0,8.017-3.589,8.017-8.017v-29.929V117.044V82.839c0-4.427-3.588-8.017-8.017-8.017h-39.015V48.1H503.983z
			 M495.967,416.868h-39.015c-4.428,0-8.017,3.589-8.017,8.017v42.756c0,4.427,3.588,8.017,8.017,8.017h39.015v13.896H16.033
			v-13.896h39.015c4.428,0,8.017-3.589,8.017-8.017v-42.756c0-4.427-3.588-8.017-8.017-8.017H16.033v-13.896h479.933V416.868z
			 M495.967,386.939H16.033V125.061h479.933V386.939z M456.952,90.856h39.015v18.171H16.033V90.856h39.015
			c4.428,0,8.017-3.589,8.017-8.017V40.083c0-4.427-3.588-8.017-8.017-8.017H16.033v-9.62h479.933v9.62h-39.015
			c-4.428,0-8.017,3.589-8.017,8.017v42.756C448.935,87.267,452.524,90.856,456.952,90.856z"/>
	</g>
</g>
<g>
	<g>
		<path d="M414.196,416.868h-47.031c-4.428,0-8.017,3.589-8.017,8.017v42.756c0,4.427,3.588,8.017,8.017,8.017h47.031
			c4.428,0,8.017-3.589,8.017-8.017v-42.756C422.213,420.458,418.625,416.868,414.196,416.868z M406.18,459.624h-30.998v-26.722
			h30.998V459.624z"/>
	</g>
</g>
<g>
	<g>
		<path d="M256,141.094c-63.359,0-114.906,51.546-114.906,114.906S192.641,370.906,256,370.906S370.906,319.36,370.906,256
			S319.359,141.094,256,141.094z M256,354.873c-54.519,0-98.873-44.354-98.873-98.873s44.354-98.873,98.873-98.873
			s98.873,44.354,98.873,98.873S310.519,354.873,256,354.873z"/>
	</g>
</g>
<g>
	<g>
		<path d="M336.139,227.674c-7.291-20.629-22.733-38.057-42.366-47.814c-3.966-1.973-8.778-0.353-10.747,3.612
			c-1.97,3.966-0.353,8.777,3.612,10.748c15.935,7.919,28.469,22.061,34.384,38.799c1.163,3.291,4.256,5.347,7.558,5.347
			c0.886,0,1.788-0.149,2.671-0.461C335.426,236.43,337.615,231.849,336.139,227.674z"/>
	</g>
</g>
<g>
	<g>
		<path d="M299.391,248.751l-65.045-50.395c-2.42-1.874-5.692-2.206-8.439-0.862c-2.746,1.347-4.487,4.14-4.487,7.198v102.614
			c0,3.085,1.769,5.896,4.549,7.23c1.103,0.529,2.287,0.788,3.465,0.788c1.792,0,3.569-0.6,5.02-1.765l65.045-52.219
			c1.914-1.537,3.019-3.866,2.998-6.321C302.474,252.565,301.331,250.255,299.391,248.751z M237.453,290.59v-69.545h0l44.083,34.155
			L237.453,290.59z"/>
	</g>
</g>
<g>
</g>
<g>
</g>
<g>
</g>
<g>
</g>
<g>
</g>
<g>
</g>
<g>
</g>
<g>
</g>
<g>
</g>
<g>
</g>
<g>
</g>
<g>
</g>
<g>
</g>
<g>
</g>
<g>
</g>
</svg>
