<?xml version="1.0" encoding="utf-8"?>
<!-- Generator: Adobe Illustrator 21.1.0, SVG Export Plug-In . SVG Version: 6.00 Build 0)  -->
<svg version="1.1" id="Layer_1" xmlns="http://www.w3.org/2000/svg" xmlns:xlink="http://www.w3.org/1999/xlink" x="0px" y="0px"
	 viewBox="0 0 286.1 286.1" style="enable-background:new 0 0 286.1 286.1;" xml:space="preserve">
<style type="text/css">
	.st0{fill:#61E566;}
</style>
<g>
	<path class="st0" d="M143,0C64,0,0,64,0,143c0,79,64,143,143,143c79,0,143-64,143-143C286,64,222,0,143,0z M143,259.2
		c-64.2,0-116.2-52-116.2-116.2S78.9,26.8,143,26.8s116.2,52,116.2,116.2S207.2,259.2,143,259.2z M199.2,82.2
		c-6.1-3.6-13.8-1.5-17.3,4.8l-48,86.1l-26.7-32.5c-4.8-5.6-11.3-8.5-17.3-4.8c-6.1,3.6-8.6,12.4-4.7,18l37.2,45.2
		c2.8,3.6,6,5.8,9.3,6.4l0,0.1l0.3,0c0.8,0.1,12,2.2,16.8-6.5l55-98.9C207.4,93.9,205.3,85.8,199.2,82.2z"/>
</g>
</svg>
